** This SQ file is
     "host1:/home/gens/g/data/sound/seq/overlo_s.sq". **

** Max Midi number in SQ file. = 6
** Max Song number in SQ file. = 0

**** SQ Midi no = 0. ****
No. delta time. tick count. message
------------------------------------------------
    1.     0.        0.  FF 51 03 07 A1 20       - Set Tempo
    2.     0.        0.  C0 00                  
    3.     0.        0.  C4 04                  
    4.     0.        0.  C3 03                  
    5.     0.        0.  C2 02                  
    6.     0.        0.  C1 01                  
    7.     0.        0.  CD 0D                  
    8.     0.        0.  CA 0A                  
    9.     0.        0.  C9 09                  
   10.     0.        0.  C8 08                  
   11.     0.        0.  C7 07                  
   12.     0.        0.  C6 06                  
   13.     0.        0.  C5 05                  
   14.     1.        1.  B5 07 64                - Channel Volume
   15.     0.        1.  B6 07 6E                - Channel Volume
   16.     0.        1.  B7 07 78                - Channel Volume
   17.     0.        1.  B8 07 43                - Channel Volume
   18.     0.        1.  B9 07 44                - Channel Volume
   19.     0.        1.  BA 07 46                - Channel Volume
   20.     0.        1.  BD 07 4F                - Channel Volume
   21.     0.        1.  B1 07 5B                - Channel Volume
   22.     0.        1.  B2 07 7F                - Channel Volume
   23.     0.        1.  B3 07 6E                - Channel Volume
   24.     0.        1.  B4 07 7A                - Channel Volume
   25.     0.        1.  B0 07 7F                - Channel Volume
   26.     1.        2.  B0 0A 40                - Pan
   27.     0.        2.  B4 0A 40                - Pan
   28.     0.        2.  B3 0A 40                - Pan
   29.     0.        2.  B2 0A 40                - Pan
   30.     0.        2.  B1 0A 40                - Pan
   31.     0.        2.  BD 0A 5E                - Pan
   32.     0.        2.  BA 0A 40                - Pan
   33.     0.        2.  B9 0A 40                - Pan
   34.     0.        2.  B8 0A 40                - Pan
   35.     0.        2.  B7 0A 22                - Pan
   36.     0.        2.  B6 0A 40                - Pan
   37.     0.        2.  B5 0A 40                - Pan
   38.     1.        3.  B7 01 00                - Pitch Modulation Depth
   39.     0.        3.  91 26 75                - Note On  ( 1)
   40.     0.        3.  90 24 7F                - Note On  ( 2)
   41.   227.      230.  91 30 66                - Note On  ( 3)
   42.     3.      233.  81 26                   - Note Off ( 2)
   43.    10.      243.  90 25 7F                - Note On  ( 3)
   44.     3.      246.  80 24                   - Note Off ( 2)
   45.   233.      479.  80 25                   - Note Off ( 1)
   46.     0.      479.  90 26 7F                - Note On  ( 2)
   47.     3.      482.  91 31 52                - Note On  ( 3)
   48.    16.      498.  81 30                   - Note Off ( 2)
   49.   116.      614.  80 26                   - Note Off ( 1)
   50.     0.      614.  90 27 7F                - Note On  ( 2)
   51.   101.      715.  91 32 5A                - Note On  ( 3)
   52.    11.      726.  80 27                   - Note Off ( 2)
   53.     0.      726.  90 28 7F                - Note On  ( 3)
   54.    19.      745.  81 31                   - Note Off ( 2)
   55.   117.      862.  91 26 69                - Note On  ( 3)
   56.    21.      883.  81 32                   - Note Off ( 2)
   57.    59.      942.  81 26                   - Note Off ( 1)
   58.    21.      963.  80 28                   - Note Off ( 0)
   59.     0.      963.  90 29 7F                - Note On  ( 1)
   60.   139.     1102.  91 32 69                - Note On  ( 2)
   61.    96.     1198.  81 32                   - Note Off ( 1)
   62.     3.     1201.  80 29                   - Note Off ( 0)
   63.     0.     1201.  90 2A 7F                - Note On  ( 1)
   64.     1.     1202.  91 30 63                - Note On  ( 2)
   65.   230.     1432.  80 2A                   - Note Off ( 1)
   66.     0.     1432.  90 2B 7F                - Note On  ( 2)
   67.   141.     1573.  80 2B                   - Note Off ( 1)
   68.     0.     1573.  90 2C 7F                - Note On  ( 2)
   69.   112.     1685.  80 2C                   - Note Off ( 1)
   70.     0.     1685.  90 2D 7F                - Note On  ( 2)
   71.   235.     1920.  80 2D                   - Note Off ( 1)
   72.     0.     1920.  90 24 7F                - Note On  ( 2)
   73.     7.     1927.  91 26 75                - Note On  ( 3)
   74.    21.     1948.  81 30                   - Note Off ( 2)
   75.   207.     2155.  81 26                   - Note Off ( 1)
   76.     2.     2157.  91 30 54                - Note On  ( 2)
   77.     6.     2163.  80 24                   - Note Off ( 1)
   78.     0.     2163.  90 25 7F                - Note On  ( 2)
   79.   236.     2399.  80 25                   - Note Off ( 1)
   80.     0.     2399.  90 26 7F                - Note On  ( 2)
   81.    11.     2410.  91 31 4E                - Note On  ( 3)
   82.    74.     2484.  81 30                   - Note Off ( 2)
   83.    50.     2534.  80 26                   - Note Off ( 1)
   84.     0.     2534.  90 27 7F                - Note On  ( 2)
   85.   108.     2642.  91 32 57                - Note On  ( 3)
   86.     4.     2646.  80 27                   - Note Off ( 2)
   87.     0.     2646.  90 28 7F                - Note On  ( 3)
   88.    14.     2660.  81 31                   - Note Off ( 2)
   89.   130.     2790.  91 2D 63                - Note On  ( 3)
   90.    18.     2808.  81 32                   - Note Off ( 2)
   91.    55.     2863.  81 2D                   - Note Off ( 1)
   92.    20.     2883.  80 28                   - Note Off ( 0)
   93.     0.     2883.  90 29 7F                - Note On  ( 1)
   94.   144.     3027.  91 2D 54                - Note On  ( 2)
   95.    87.     3114.  81 2D                   - Note Off ( 1)
   96.     7.     3121.  80 29                   - Note Off ( 0)
   97.     0.     3121.  90 2A 7F                - Note On  ( 1)
   98.     6.     3127.  91 2B 57                - Note On  ( 2)
   99.   225.     3352.  80 2A                   - Note Off ( 1)
  100.     0.     3352.  90 2B 7F                - Note On  ( 2)
  101.   141.     3493.  80 2B                   - Note Off ( 1)
  102.     0.     3493.  90 2C 7F                - Note On  ( 2)
  103.   112.     3605.  80 2C                   - Note Off ( 1)
  104.     0.     3605.  90 2D 7F                - Note On  ( 2)
  105.   235.     3840.  80 2D                   - Note Off ( 1)
  106.     0.     3840.  90 24 7F                - Note On  ( 2)
  107.     0.     3840.  91 26 72                - Note On  ( 3)
  108.    41.     3881.  81 2B                   - Note Off ( 2)
  109.   189.     4070.  91 30 60                - Note On  ( 3)
  110.    13.     4083.  80 24                   - Note Off ( 2)
  111.     0.     4083.  90 25 7F                - Note On  ( 3)
  112.     2.     4085.  81 26                   - Note Off ( 2)
  113.   234.     4319.  80 25                   - Note Off ( 1)
  114.     0.     4319.  90 26 7F                - Note On  ( 2)
  115.     3.     4322.  91 31 4A                - Note On  ( 3)
  116.    28.     4350.  81 30                   - Note Off ( 2)
  117.   104.     4454.  80 26                   - Note Off ( 1)
  118.     0.     4454.  90 27 7F                - Note On  ( 2)
  119.   101.     4555.  91 32 50                - Note On  ( 3)
  120.     4.     4559.  81 31                   - Note Off ( 2)
  121.     7.     4566.  80 27                   - Note Off ( 1)
  122.     0.     4566.  90 28 7F                - Note On  ( 2)
  123.   139.     4705.  91 26 66                - Note On  ( 3)
  124.    21.     4726.  81 32                   - Note Off ( 2)
  125.    48.     4774.  81 26                   - Note Off ( 1)
  126.    29.     4803.  80 28                   - Note Off ( 0)
  127.     0.     4803.  90 29 7F                - Note On  ( 1)
  128.   144.     4947.  91 32 60                - Note On  ( 2)
  129.    88.     5035.  81 32                   - Note Off ( 1)
  130.     6.     5041.  80 29                   - Note Off ( 0)
  131.     0.     5041.  90 2A 7F                - Note On  ( 1)
  132.     1.     5042.  91 30 5A                - Note On  ( 2)
  133.   230.     5272.  80 2A                   - Note Off ( 1)
  134.     0.     5272.  90 2B 7F                - Note On  ( 2)
  135.   141.     5413.  80 2B                   - Note Off ( 1)
  136.     0.     5413.  90 2C 7F                - Note On  ( 2)
  137.   109.     5522.  81 30                   - Note Off ( 1)
  138.     3.     5525.  80 2C                   - Note Off ( 0)
  139.     0.     5525.  90 2D 7F                - Note On  ( 1)
  140.     0.     5525.  91 30 69                - Note On  ( 2)
  141.   235.     5760.  80 2D                   - Note Off ( 1)
  142.     0.     5760.  81 30                   - Note Off ( 0)
  143.     0.     5760.  90 24 7F                - Note On  ( 1)
  144.     7.     5767.  91 26 72                - Note On  ( 2)
  145.   223.     5990.  81 26                   - Note Off ( 1)
  146.     7.     5997.  91 30 60                - Note On  ( 2)
  147.     6.     6003.  80 24                   - Note Off ( 1)
  148.     0.     6003.  90 25 7F                - Note On  ( 2)
  149.   236.     6239.  80 25                   - Note Off ( 1)
  150.     0.     6239.  90 26 7F                - Note On  ( 2)
  151.    11.     6250.  91 31 54                - Note On  ( 3)
  152.    83.     6333.  81 30                   - Note Off ( 2)
  153.    41.     6374.  80 26                   - Note Off ( 1)
  154.     0.     6374.  90 27 7F                - Note On  ( 2)
  155.    94.     6468.  81 31                   - Note Off ( 1)
  156.    14.     6482.  91 32 52                - Note On  ( 2)
  157.     4.     6486.  80 27                   - Note Off ( 1)
  158.     0.     6486.  90 28 7F                - Note On  ( 2)
  159.   144.     6630.  91 26 66                - Note On  ( 3)
  160.    32.     6662.  81 32                   - Note Off ( 2)
  161.    25.     6687.  81 26                   - Note Off ( 1)
  162.    36.     6723.  80 28                   - Note Off ( 0)
  163.     0.     6723.  90 29 7F                - Note On  ( 1)
  164.   144.     6867.  91 32 6C                - Note On  ( 2)
  165.    90.     6957.  81 32                   - Note Off ( 1)
  166.     4.     6961.  80 29                   - Note Off ( 0)
  167.     0.     6961.  90 2A 7F                - Note On  ( 1)
  168.     6.     6967.  91 30 60                - Note On  ( 2)
  169.   225.     7192.  80 2A                   - Note Off ( 1)
  170.     0.     7192.  90 2B 7F                - Note On  ( 2)
  171.    15.     7207.  91 2D 52                - Note On  ( 3)
  172.    21.     7228.  81 30                   - Note Off ( 2)
  173.   105.     7333.  80 2B                   - Note Off ( 1)
  174.     0.     7333.  90 2C 7F                - Note On  ( 2)
  175.   112.     7445.  80 2C                   - Note Off ( 1)
  176.     0.     7445.  90 2D 7F                - Note On  ( 2)
  177.     0.     7445.  91 2B 60                - Note On  ( 3)
  178.     3.     7448.  81 2D                   - Note Off ( 2)
  179.   232.     7680.  80 2D                   - Note Off ( 1)
  180.     0.     7680.  90 24 7F                - Note On  ( 2)
  181.     0.     7680.  91 26 75                - Note On  ( 3)
  182.     0.     7680.  92 3D 7F                - Note On  ( 4)
  183.     0.     7680.  92 42 66                - Note On  ( 5)
  184.     2.     7682.  93 39 4A                - Note On  ( 6)
  185.     2.     7684.  93 2D 48                - Note On  ( 7)
  186.     9.     7693.  93 26 48                - Note On  ( 8)
  187.    15.     7708.  93 3C 4C                - Note On  ( 9)
  188.    19.     7727.  81 2B                   - Note Off ( 8)
  189.     1.     7728.  93 41 54                - Note On  ( 9)
  190.    46.     7774.  82 42                   - Note Off ( 8)
  191.   136.     7910.  81 26                   - Note Off ( 7)
  192.     0.     7910.  91 30 66                - Note On  ( 8)
  193.    10.     7920.  92 42 45                - Note On  ( 9)
  194.     3.     7923.  80 24                   - Note Off ( 8)
  195.     0.     7923.  90 25 7F                - Note On  ( 9)
  196.    90.     8013.  82 42                   - Note Off ( 8)
  197.   146.     8159.  80 25                   - Note Off ( 7)
  198.     0.     8159.  90 26 7F                - Note On  ( 8)
  199.     1.     8160.  92 42 48                - Note On  ( 9)
  200.     2.     8162.  91 31 52                - Note On  (10)
  201.    16.     8178.  81 30                   - Note Off ( 9)
  202.    56.     8234.  B3 40 7F                - Damper Pedal
  203.    11.     8245.  82 42                   - Note Off ( 8)
  204.    49.     8294.  80 26                   - Note Off ( 7)
  205.     0.     8294.  90 27 7F                - Note On  ( 8)
  206.   101.     8395.  91 32 5A                - Note On  ( 9)
  207.     5.     8400.  92 42 3C                - Note On  (10)
  208.     6.     8406.  80 27                   - Note Off ( 9)
  209.     0.     8406.  90 28 7F                - Note On  (10)
  210.    19.     8425.  81 31                   - Note Off ( 9)
  211.    59.     8484.  82 42                   - Note Off ( 8)
  212.    58.     8542.  91 26 69                - Note On  ( 9)
  213.    21.     8563.  81 32                   - Note Off ( 8)
  214.    59.     8622.  81 26                   - Note Off ( 7)
  215.    18.     8640.  92 42 50                - Note On  ( 8)
  216.     3.     8643.  80 28                   - Note Off ( 7)
  217.     0.     8643.  90 29 7F                - Note On  ( 8)
  218.    83.     8726.  82 42                   - Note Off ( 7)
  219.    56.     8782.  91 32 69                - Note On  ( 8)
  220.    96.     8878.  81 32                   - Note Off ( 7)
  221.     2.     8880.  92 42 3F                - Note On  ( 8)
  222.     1.     8881.  80 29                   - Note Off ( 7)
  223.     0.     8881.  90 2A 7F                - Note On  ( 8)
  224.     1.     8882.  91 30 63                - Note On  ( 9)
  225.    75.     8957.  82 42                   - Note Off ( 8)
  226.   155.     9112.  80 2A                   - Note Off ( 7)
  227.     0.     9112.  90 2B 7F                - Note On  ( 8)
  228.     8.     9120.  92 42 45                - Note On  ( 9)
  229.    80.     9200.  82 42                   - Note Off ( 8)
  230.    53.     9253.  80 2B                   - Note Off ( 7)
  231.     0.     9253.  90 2C 7F                - Note On  ( 8)
  232.   107.     9360.  92 42 4E                - Note On  ( 9)
  233.     5.     9365.  80 2C                   - Note Off ( 8)
  234.     0.     9365.  90 2D 7F                - Note On  ( 9)
  235.    67.     9432.  82 42                   - Note Off ( 8)
  236.   168.     9600.  80 2D                   - Note Off ( 7)
  237.     0.     9600.  90 24 7F                - Note On  ( 8)
  238.     0.     9600.  92 42 4C                - Note On  ( 9)
  239.     7.     9607.  91 26 75                - Note On  (10)
  240.    21.     9628.  81 30                   - Note Off ( 9)
  241.    50.     9678.  82 42                   - Note Off ( 8)
  242.   157.     9835.  81 26                   - Note Off ( 7)
  243.     2.     9837.  91 30 54                - Note On  ( 8)
  244.     3.     9840.  92 42 45                - Note On  ( 9)
  245.     3.     9843.  80 24                   - Note Off ( 8)
  246.     0.     9843.  90 25 7F                - Note On  ( 9)
  247.    75.     9918.  82 42                   - Note Off ( 8)
  248.    33.     9951.  82 3D                   - Note Off ( 7)
  249.   128.    10079.  80 25                   - Note Off ( 6)
  250.     0.    10079.  90 26 7F                - Note On  ( 7)
  251.     1.    10080.  92 42 45                - Note On  ( 8)
  252.    10.    10090.  91 31 4E                - Note On  ( 9)
  253.    74.    10164.  81 30                   - Note Off ( 8)
  254.     1.    10165.  82 42                   - Note Off ( 7)
  255.    49.    10214.  80 26                   - Note Off ( 6)
  256.     0.    10214.  90 27 7F                - Note On  ( 7)
  257.   106.    10320.  92 42 45                - Note On  ( 8)
  258.     2.    10322.  91 32 57                - Note On  ( 9)
  259.     4.    10326.  80 27                   - Note Off ( 8)
  260.     0.    10326.  90 28 7F                - Note On  ( 9)
  261.    14.    10340.  81 31                   - Note Off ( 8)
  262.    66.    10406.  82 42                   - Note Off ( 7)
  263.    38.    10444.  83 39                   - Note Off ( 6)
  264.    18.    10462.  83 2D                   - Note Off ( 5)
  265.     8.    10470.  91 2D 63                - Note On  ( 6)
  266.     3.    10473.  83 41                   - Note Off ( 5)
  267.     1.    10474.  83 3C                   - Note Off ( 4)
  268.    14.    10488.  81 32                   - Note Off ( 3)
  269.    17.    10505.  83 26                   - Note Off ( 2)
  270.    31.    10536.  93 39 48                - Note On  ( 3)
  271.     7.    10543.  81 2D                   - Note Off ( 2)
  272.     7.    10550.  93 2B 48                - Note On  ( 3)
  273.     9.    10559.  93 3C 57                - Note On  ( 4)
  274.     1.    10560.  92 42 50                - Note On  ( 5)
  275.     3.    10563.  80 28                   - Note Off ( 4)
  276.     0.    10563.  90 29 7F                - Note On  ( 5)
  277.    25.    10588.  93 43 4C                - Note On  ( 6)
  278.    12.    10600.  B3 40 00                - Damper Pedal
  279.    47.    10647.  82 42                   - Note Off ( 5)
  280.    60.    10707.  91 2D 54                - Note On  ( 6)
  281.    87.    10794.  81 2D                   - Note Off ( 5)
  282.     6.    10800.  92 42 45                - Note On  ( 6)
  283.     1.    10801.  80 29                   - Note Off ( 5)
  284.     0.    10801.  90 2A 7F                - Note On  ( 6)
  285.     6.    10807.  91 2B 57                - Note On  ( 7)
  286.     8.    10815.  B3 40 7F                - Damper Pedal
  287.    63.    10878.  82 42                   - Note Off ( 6)
  288.   154.    11032.  80 2A                   - Note Off ( 5)
  289.     0.    11032.  90 2B 7F                - Note On  ( 6)
  290.     8.    11040.  92 42 50                - Note On  ( 7)
  291.    77.    11117.  82 42                   - Note Off ( 6)
  292.    56.    11173.  80 2B                   - Note Off ( 5)
  293.     0.    11173.  90 2C 7F                - Note On  ( 6)
  294.   107.    11280.  92 42 4E                - Note On  ( 7)
  295.     5.    11285.  80 2C                   - Note Off ( 6)
  296.     0.    11285.  90 2D 7F                - Note On  ( 7)
  297.    71.    11356.  82 42                   - Note Off ( 6)
  298.    53.    11409.  83 43                   - Note Off ( 5)
  299.    39.    11448.  83 3C                   - Note Off ( 4)
  300.    13.    11461.  83 39                   - Note Off ( 3)
  301.    21.    11482.  83 2B                   - Note Off ( 2)
  302.    11.    11493.  93 2D 44                - Note On  ( 3)
  303.     5.    11498.  93 39 4A                - Note On  ( 4)
  304.     7.    11505.  B3 40 00                - Damper Pedal
  305.     4.    11509.  93 26 2D                - Note On  ( 5)
  306.     6.    11515.  93 3C 54                - Note On  ( 6)
  307.     5.    11520.  80 2D                   - Note Off ( 5)
  308.     0.    11520.  90 24 7F                - Note On  ( 6)
  309.     0.    11520.  92 42 66                - Note On  ( 7)
  310.     0.    11520.  91 26 72                - Note On  ( 8)
  311.    12.    11532.  93 41 5D                - Note On  ( 9)
  312.    29.    11561.  81 2B                   - Note Off ( 8)
  313.    53.    11614.  82 42                   - Note Off ( 7)
  314.   136.    11750.  91 30 60                - Note On  ( 8)
  315.    10.    11760.  92 42 45                - Note On  ( 9)
  316.     3.    11763.  80 24                   - Note Off ( 8)
  317.     0.    11763.  90 25 7F                - Note On  ( 9)
  318.     2.    11765.  81 26                   - Note Off ( 8)
  319.    88.    11853.  82 42                   - Note Off ( 7)
  320.    36.    11889.  B3 40 7F                - Damper Pedal
  321.   110.    11999.  80 25                   - Note Off ( 6)
  322.     0.    11999.  90 26 7F                - Note On  ( 7)
  323.     1.    12000.  92 42 48                - Note On  ( 8)
  324.     2.    12002.  91 31 4A                - Note On  ( 9)
  325.    28.    12030.  81 30                   - Note Off ( 8)
  326.    55.    12085.  82 42                   - Note Off ( 7)
  327.    49.    12134.  80 26                   - Note Off ( 6)
  328.     0.    12134.  90 27 7F                - Note On  ( 7)
  329.   101.    12235.  91 32 50                - Note On  ( 8)
  330.     4.    12239.  81 31                   - Note Off ( 7)
  331.     1.    12240.  92 42 3C                - Note On  ( 8)
  332.     6.    12246.  80 27                   - Note Off ( 7)
  333.     0.    12246.  90 28 7F                - Note On  ( 8)
  334.    78.    12324.  82 42                   - Note Off ( 7)
  335.    61.    12385.  91 26 66                - Note On  ( 8)
  336.    21.    12406.  81 32                   - Note Off ( 7)
  337.    48.    12454.  81 26                   - Note Off ( 6)
  338.    26.    12480.  92 42 50                - Note On  ( 7)
  339.     3.    12483.  80 28                   - Note Off ( 6)
  340.     0.    12483.  90 29 7F                - Note On  ( 7)
  341.    83.    12566.  82 42                   - Note Off ( 6)
  342.    61.    12627.  91 32 60                - Note On  ( 7)
  343.    88.    12715.  81 32                   - Note Off ( 6)
  344.     5.    12720.  92 42 3F                - Note On  ( 7)
  345.     1.    12721.  80 29                   - Note Off ( 6)
  346.     0.    12721.  90 2A 7F                - Note On  ( 7)
  347.     1.    12722.  91 30 5A                - Note On  ( 8)
  348.    75.    12797.  82 42                   - Note Off ( 7)
  349.   155.    12952.  80 2A                   - Note Off ( 6)
  350.     0.    12952.  90 2B 7F                - Note On  ( 7)
  351.     8.    12960.  92 42 45                - Note On  ( 8)
  352.    80.    13040.  82 42                   - Note Off ( 7)
  353.    53.    13093.  80 2B                   - Note Off ( 6)
  354.     0.    13093.  90 2C 7F                - Note On  ( 7)
  355.   107.    13200.  92 42 4E                - Note On  ( 8)
  356.     2.    13202.  81 30                   - Note Off ( 7)
  357.     3.    13205.  80 2C                   - Note Off ( 6)
  358.     0.    13205.  90 2D 7F                - Note On  ( 7)
  359.     0.    13205.  91 30 69                - Note On  ( 8)
  360.    67.    13272.  82 42                   - Note Off ( 7)
  361.   162.    13434.  95 48 63                - Note On  ( 8)
  362.     6.    13440.  81 30                   - Note Off ( 7)
  363.     0.    13440.  80 2D                   - Note Off ( 6)
  364.     0.    13440.  90 24 7F                - Note On  ( 7)
  365.     0.    13440.  92 42 4C                - Note On  ( 8)
  366.     7.    13447.  91 26 72                - Note On  ( 9)
  367.    71.    13518.  82 42                   - Note Off ( 8)
  368.   159.    13677.  91 30 69                - Note On  ( 9)
  369.     3.    13680.  92 42 45                - Note On  (10)
  370.     3.    13683.  80 24                   - Note Off ( 9)
  371.     0.    13683.  90 25 7F                - Note On  (10)
  372.     3.    13686.  81 26                   - Note Off ( 9)
  373.    72.    13758.  82 42                   - Note Off ( 8)
  374.   156.    13914.  95 3C 63                - Note On  ( 9)
  375.     5.    13919.  80 25                   - Note Off ( 8)
  376.     0.    13919.  90 26 7F                - Note On  ( 9)
  377.     1.    13920.  92 42 45                - Note On  (10)
  378.    10.    13930.  91 31 50                - Note On  (11)
  379.    18.    13948.  81 30                   - Note Off (10)
  380.    57.    14005.  82 42                   - Note Off ( 9)
  381.    49.    14054.  80 26                   - Note Off ( 8)
  382.     0.    14054.  90 27 7F                - Note On  ( 9)
  383.   106.    14160.  92 42 45                - Note On  (10)
  384.     2.    14162.  91 32 54                - Note On  (11)
  385.     4.    14166.  80 27                   - Note Off (10)
  386.     0.    14166.  90 28 7F                - Note On  (11)
  387.    19.    14185.  81 31                   - Note Off (10)
  388.    61.    14246.  82 42                   - Note Off ( 9)
  389.    34.    14280.  92 47 7F                - Note On  (10)
  390.     7.    14287.  83 39                   - Note Off ( 9)
  391.     3.    14290.  83 3C                   - Note Off ( 8)
  392.     6.    14296.  81 32                   - Note Off ( 7)
  393.    14.    14310.  91 32 69                - Note On  ( 8)
  394.    20.    14330.  83 41                   - Note Off ( 7)
  395.     1.    14331.  95 49 69                - Note On  ( 8)
  396.    28.    14359.  83 2D                   - Note Off ( 7)
  397.     5.    14364.  83 26                   - Note Off ( 6)
  398.     8.    14372.  85 48                   - Note Off ( 5)
  399.     5.    14377.  93 30 63                - Note On  ( 6)
  400.     0.    14377.  B3 40 00                - Damper Pedal
  401.    17.    14394.  95 30 63                - Note On  ( 7)
  402.     6.    14400.  92 42 50                - Note On  ( 8)
  403.     2.    14402.  93 37 52                - Note On  ( 9)
  404.     1.    14403.  80 28                   - Note Off ( 8)
  405.     0.    14403.  90 29 7F                - Note On  ( 9)
  406.     6.    14409.  93 3B 52                - Note On  (10)
  407.    16.    14425.  93 40 50                - Note On  (11)
  408.    54.    14479.  81 32                   - Note Off (10)
  409.     8.    14487.  82 42                   - Note Off ( 9)
  410.    60.    14547.  91 35 57                - Note On  (10)
  411.    93.    14640.  92 42 45                - Note On  (11)
  412.     1.    14641.  80 29                   - Note Off (10)
  413.     0.    14641.  90 2A 7F                - Note On  (11)
  414.     6.    14647.  91 37 50                - Note On  (12)
  415.    22.    14669.  B3 40 7F                - Damper Pedal
  416.     8.    14677.  81 35                   - Note Off (11)
  417.    41.    14718.  82 42                   - Note Off (10)
  418.    93.    14811.  95 3D 69                - Note On  (11)
  419.    41.    14852.  85 3C                   - Note Off (10)
  420.    20.    14872.  80 2A                   - Note Off ( 9)
  421.     0.    14872.  90 2B 7F                - Note On  (10)
  422.     2.    14874.  95 24 63                - Note On  (11)
  423.     6.    14880.  92 42 50                - Note On  (12)
  424.     7.    14887.  91 38 5A                - Note On  (13)
  425.    26.    14913.  81 37                   - Note Off (12)
  426.    44.    14957.  82 42                   - Note Off (11)
  427.    56.    15013.  80 2B                   - Note Off (10)
  428.     0.    15013.  90 2C 7F                - Note On  (11)
  429.   107.    15120.  92 42 4E                - Note On  (12)
  430.     5.    15125.  80 2C                   - Note Off (11)
  431.     0.    15125.  90 2D 7F                - Note On  (12)
  432.     0.    15125.  91 39 5D                - Note On  (13)
  433.     2.    15127.  81 38                   - Note Off (12)
  434.    45.    15172.  82 47                   - Note Off (11)
  435.    24.    15196.  82 42                   - Note Off (10)
  436.    95.    15291.  95 31 69                - Note On  (11)
  437.    41.    15332.  85 30                   - Note Off (10)
  438.    22.    15354.  95 18 63                - Note On  (11)
  439.     6.    15360.  80 2D                   - Note Off (10)
  440.     0.    15360.  90 24 7F                - Note On  (11)
  441.     0.    15360.  91 26 75                - Note On  (12)
  442.     0.    15360.  92 36 69                - Note On  (13)
  443.     0.    15360.  92 42 66                - Note On  (14)
  444.     0.    15360.  92 40 7F                - Note On  (15)
  445.     0.    15360.  9D 32 73                - Note On  (16)
  446.     0.    15360.  9D 38 7F                - Note On  (17)
  447.     0.    15360.  9D 3C 7A                - Note On  (18)
  448.     2.    15362.  93 39 4A                - Note On  (19)
  449.     2.    15364.  93 2D 48                - Note On  (20)
  450.     9.    15373.  93 26 48                - Note On  (21)
  451.     4.    15377.  83 37                   - Note Off (20)
  452.     5.    15382.  83 30                   - Note Off (19)
  453.     1.    15383.  83 3B                   - Note Off (18)
  454.     5.    15388.  93 3C 4C                - Note On  (19)
  455.     4.    15392.  83 40                   - Note Off (18)
  456.     7.    15399.  85 49                   - Note Off (17)
  457.     9.    15408.  93 41 54                - Note On  (18)
  458.     5.    15413.  81 39                   - Note Off (17)
  459.    41.    15454.  82 42                   - Note Off (16)
  460.    26.    15480.  92 38 4C                - Note On  (17)
  461.    19.    15499.  82 36                   - Note Off (16)
  462.    91.    15590.  81 26                   - Note Off (15)
  463.     0.    15590.  91 30 66                - Note On  (16)
  464.    10.    15600.  92 3A 60                - Note On  (17)
  465.     0.    15600.  92 42 45                - Note On  (18)
  466.     0.    15600.  9D 39 5A                - Note On  (19)
  467.     3.    15603.  80 24                   - Note Off (18)
  468.     0.    15603.  90 25 7F                - Note On  (19)
  469.     4.    15607.  8D 38                   - Note Off (18)
  470.    11.    15618.  82 38                   - Note Off (17)
  471.    71.    15689.  8D 3C                   - Note Off (16)
  472.     4.    15693.  8D 39                   - Note Off (15)
  473.     0.    15693.  82 42                   - Note Off (14)
  474.     7.    15700.  8D 32                   - Note Off (13)
  475.    15.    15715.  9D 2D 5A                - Note On  (14)
  476.    56.    15771.  95 25 69                - Note On  (15)
  477.     9.    15780.  8D 2D                   - Note Off (14)
  478.    15.    15795.  82 3A                   - Note Off (13)
  479.    17.    15812.  85 24                   - Note Off (12)
  480.    22.    15834.  95 54 63                - Note On  (13)
  481.     5.    15839.  80 25                   - Note Off (12)
  482.     0.    15839.  90 26 7F                - Note On  (13)
  483.     1.    15840.  92 36 66                - Note On  (14)
  484.     0.    15840.  92 42 48                - Note On  (15)
  485.     0.    15840.  9D 39 45                - Note On  (16)
  486.     0.    15840.  9D 3C 73                - Note On  (17)
  487.     0.    15840.  9D 32 7E                - Note On  (18)
  488.     2.    15842.  91 31 52                - Note On  (19)
  489.    16.    15858.  81 30                   - Note Off (18)
  490.    21.    15879.  85 3D                   - Note Off (17)
  491.    35.    15914.  B3 40 7F                - Damper Pedal
  492.    11.    15925.  82 42                   - Note Off (16)
  493.     5.    15930.  8D 39                   - Note Off (15)
  494.    22.    15952.  9D 26 42                - Note On  (16)
  495.     0.    15952.  9D 2D 42                - Note On  (17)
  496.     2.    15954.  8D 3C                   - Note Off (16)
  497.     2.    15956.  8D 32                   - Note Off (15)
  498.     4.    15960.  92 38 4C                - Note On  (16)
  499.    14.    15974.  80 26                   - Note Off (15)
  500.     0.    15974.  90 27 7F                - Note On  (16)
  501.    11.    15985.  82 36                   - Note Off (15)
  502.    10.    15995.  8D 2D                   - Note Off (14)
  503.    27.    16022.  8D 26                   - Note Off (13)
  504.    51.    16073.  82 38                   - Note Off (12)
  505.     2.    16075.  91 32 5A                - Note On  (13)
  506.     5.    16080.  92 3A 68                - Note On  (14)
  507.     0.    16080.  92 42 3C                - Note On  (15)
  508.     2.    16082.  9D 38 66                - Note On  (16)
  509.     0.    16082.  9D 3C 66                - Note On  (17)
  510.     0.    16082.  9D 32 5D                - Note On  (18)
  511.     4.    16086.  80 27                   - Note Off (17)
  512.     0.    16086.  90 28 7F                - Note On  (18)
  513.    19.    16105.  81 31                   - Note Off (17)
  514.    59.    16164.  82 42                   - Note Off (16)
  515.     1.    16165.  8D 38                   - Note Off (15)
  516.    15.    16180.  8D 32                   - Note Off (14)
  517.    12.    16192.  9D 39 78                - Note On  (15)
  518.    14.    16206.  8D 3C                   - Note Off (14)
  519.    16.    16222.  91 26 69                - Note On  (15)
  520.    21.    16243.  81 32                   - Note Off (14)
  521.     8.    16251.  95 19 69                - Note On  (15)
  522.    41.    16292.  85 18                   - Note Off (14)
  523.     1.    16293.  82 3A                   - Note Off (13)
  524.     9.    16302.  81 26                   - Note Off (12)
  525.     9.    16311.  8D 39                   - Note Off (11)
  526.     6.    16317.  9D 2D 4F                - Note On  (12)
  527.     3.    16320.  92 36 66                - Note On  (13)
  528.     0.    16320.  92 42 50                - Note On  (14)
  529.     3.    16323.  80 28                   - Note Off (13)
  530.     0.    16323.  90 29 7F                - Note On  (14)
  531.    36.    16359.  85 31                   - Note Off (13)
  532.    47.    16406.  82 42                   - Note Off (12)
  533.     2.    16408.  8D 2D                   - Note Off (11)
  534.    27.    16435.  9D 32 56                - Note On  (12)
  535.     0.    16435.  9D 39 4F                - Note On  (13)
  536.     0.    16435.  9D 3C 3F                - Note On  (14)
  537.     5.    16440.  92 38 4C                - Note On  (15)
  538.    22.    16462.  91 32 69                - Note On  (16)
  539.    13.    16475.  82 36                   - Note Off (15)
  540.    52.    16527.  8D 39                   - Note Off (14)
  541.    11.    16538.  8D 32                   - Note Off (13)
  542.    10.    16548.  8D 3C                   - Note Off (12)
  543.     1.    16549.  82 38                   - Note Off (11)
  544.     9.    16558.  81 32                   - Note Off (10)
  545.     2.    16560.  92 3A 58                - Note On  (11)
  546.     0.    16560.  92 42 3F                - Note On  (12)
  547.     1.    16561.  80 29                   - Note Off (11)
  548.     0.    16561.  90 2A 7F                - Note On  (12)
  549.     1.    16562.  91 30 63                - Note On  (13)
  550.    75.    16637.  82 42                   - Note Off (12)
  551.    38.    16675.  9D 26 32                - Note On  (13)
  552.     0.    16675.  9D 2D 36                - Note On  (14)
  553.    38.    16713.  8D 2D                   - Note Off (13)
  554.    18.    16731.  95 55 69                - Note On  (14)
  555.    21.    16752.  8D 26                   - Note Off (13)
  556.    20.    16772.  85 54                   - Note Off (12)
  557.    11.    16783.  82 3A                   - Note Off (11)
  558.     9.    16792.  80 2A                   - Note Off (10)
  559.     0.    16792.  90 2B 7F                - Note On  (11)
  560.     8.    16800.  92 36 69                - Note On  (12)
  561.     0.    16800.  92 42 45                - Note On  (13)
  562.     2.    16802.  9D 3C 76                - Note On  (14)
  563.     0.    16802.  9D 32 41                - Note On  (15)
  564.     0.    16802.  9D 38 7A                - Note On  (16)
  565.    37.    16839.  85 25                   - Note Off (15)
  566.    41.    16880.  82 42                   - Note Off (14)
  567.    35.    16915.  9D 2D 36                - Note On  (15)
  568.     5.    16920.  92 38 4C                - Note On  (16)
  569.    13.    16933.  80 2B                   - Note Off (15)
  570.     0.    16933.  90 2C 7F                - Note On  (16)
  571.    34.    16967.  8D 2D                   - Note Off (15)
  572.     1.    16968.  82 36                   - Note Off (14)
  573.    59.    17027.  8D 38                   - Note Off (13)
  574.     7.    17034.  82 40                   - Note Off (12)
  575.     0.    17034.  8D 3C                   - Note Off (11)
  576.     6.    17040.  92 3A 64                - Note On  (12)
  577.     0.    17040.  92 42 4E                - Note On  (13)
  578.     4.    17044.  82 38                   - Note Off (12)
  579.     1.    17045.  80 2C                   - Note Off (11)
  580.     0.    17045.  90 2D 7F                - Note On  (12)
  581.     0.    17045.  9D 39 5C                - Note On  (13)
  582.    54.    17099.  8D 32                   - Note Off (12)
  583.    13.    17112.  82 42                   - Note Off (11)
  584.    10.    17122.  8D 39                   - Note Off (10)
  585.    28.    17150.  9D 2D 42                - Note On  (11)
  586.    49.    17199.  8D 2D                   - Note Off (10)
  587.    50.    17249.  82 3A                   - Note Off ( 9)
  588.    31.    17280.  80 2D                   - Note Off ( 8)
  589.     0.    17280.  90 24 7F                - Note On  ( 9)
  590.     0.    17280.  92 36 66                - Note On  (10)
  591.     0.    17280.  92 42 4C                - Note On  (11)
  592.     7.    17287.  91 26 75                - Note On  (12)
  593.     0.    17287.  9D 32 73                - Note On  (13)
  594.     0.    17287.  9D 38 7F                - Note On  (14)
  595.     0.    17287.  9D 3C 7A                - Note On  (15)
  596.    21.    17308.  81 30                   - Note Off (14)
  597.    11.    17319.  85 19                   - Note Off (13)
  598.    39.    17358.  82 42                   - Note Off (12)
  599.    42.    17400.  92 38 50                - Note On  (13)
  600.    28.    17428.  82 36                   - Note Off (12)
  601.    87.    17515.  81 26                   - Note Off (11)
  602.     2.    17517.  91 30 54                - Note On  (12)
  603.     1.    17518.  82 38                   - Note Off (11)
  604.     2.    17520.  92 3A 64                - Note On  (12)
  605.     0.    17520.  92 42 45                - Note On  (13)
  606.     3.    17523.  80 24                   - Note Off (12)
  607.     0.    17523.  90 25 7F                - Note On  (13)
  608.     2.    17525.  9D 39 5A                - Note On  (14)
  609.     9.    17534.  8D 38                   - Note Off (13)
  610.    64.    17598.  82 42                   - Note Off (12)
  611.    18.    17616.  8D 3C                   - Note Off (11)
  612.     2.    17618.  8D 39                   - Note Off (10)
  613.     9.    17627.  8D 32                   - Note Off ( 9)
  614.     8.    17635.  9D 2D 5A                - Note On  (10)
  615.    65.    17700.  8D 2D                   - Note Off ( 9)
  616.    16.    17716.  82 3A                   - Note Off ( 8)
  617.    42.    17758.  9D 39 45                - Note On  ( 9)
  618.     0.    17758.  9D 3C 73                - Note On  (10)
  619.     0.    17758.  9D 32 7E                - Note On  (11)
  620.     1.    17759.  80 25                   - Note Off (10)
  621.     0.    17759.  90 26 7F                - Note On  (11)
  622.     1.    17760.  92 36 69                - Note On  (12)
  623.     0.    17760.  92 42 45                - Note On  (13)
  624.    10.    17770.  91 31 4E                - Note On  (14)
  625.    29.    17799.  85 55                   - Note Off (13)
  626.    45.    17844.  81 30                   - Note Off (12)
  627.     1.    17845.  82 42                   - Note Off (11)
  628.     3.    17848.  8D 39                   - Note Off (10)
  629.    24.    17872.  8D 3C                   - Note Off ( 9)
  630.     2.    17874.  8D 32                   - Note Off ( 8)
  631.     1.    17875.  9D 26 42                - Note On  ( 9)
  632.     0.    17875.  9D 2D 42                - Note On  (10)
  633.     5.    17880.  92 38 50                - Note On  (11)
  634.    14.    17894.  80 26                   - Note Off (10)
  635.     0.    17894.  90 27 7F                - Note On  (11)
  636.     8.    17902.  82 36                   - Note Off (10)
  637.    16.    17918.  8D 2D                   - Note Off ( 9)
  638.    27.    17945.  8D 26                   - Note Off ( 8)
  639.    43.    17988.  82 38                   - Note Off ( 7)
  640.    12.    18000.  92 3A 64                - Note On  ( 8)
  641.     0.    18000.  92 42 45                - Note On  ( 9)
  642.     2.    18002.  91 32 57                - Note On  (10)
  643.     0.    18002.  9D 38 66                - Note On  (11)
  644.     0.    18002.  9D 3C 66                - Note On  (12)
  645.     0.    18002.  9D 32 5D                - Note On  (13)
  646.     4.    18006.  80 27                   - Note Off (12)
  647.     0.    18006.  90 28 7F                - Note On  (13)
  648.    14.    18020.  81 31                   - Note Off (12)
  649.    65.    18085.  8D 38                   - Note Off (11)
  650.     1.    18086.  82 42                   - Note Off (10)
  651.    14.    18100.  8D 32                   - Note Off ( 9)
  652.    15.    18115.  9D 39 78                - Note On  (10)
  653.     9.    18124.  83 39                   - Note Off ( 9)
  654.     2.    18126.  8D 3C                   - Note Off ( 8)
  655.    16.    18142.  83 2D                   - Note Off ( 7)
  656.     8.    18150.  91 2D 63                - Note On  ( 8)
  657.     3.    18153.  83 41                   - Note Off ( 7)
  658.     1.    18154.  83 3C                   - Note Off ( 6)
  659.    14.    18168.  81 32                   - Note Off ( 5)
  660.    17.    18185.  83 26                   - Note Off ( 4)
  661.    28.    18213.  82 3A                   - Note Off ( 3)
  662.     3.    18216.  93 39 48                - Note On  ( 4)
  663.     7.    18223.  81 2D                   - Note Off ( 3)
  664.     7.    18230.  93 2B 48                - Note On  ( 4)
  665.     4.    18234.  8D 39                   - Note Off ( 3)
  666.     5.    18239.  93 3C 57                - Note On  ( 4)
  667.     1.    18240.  92 42 50                - Note On  ( 5)
  668.     0.    18240.  92 36 69                - Note On  ( 6)
  669.     0.    18240.  9D 2D 4F                - Note On  ( 7)
  670.     3.    18243.  80 28                   - Note Off ( 6)
  671.     0.    18243.  90 29 7F                - Note On  ( 7)
  672.    25.    18268.  93 43 4C                - Note On  ( 8)
  673.    12.    18280.  B3 40 00                - Damper Pedal
  674.    47.    18327.  82 42                   - Note Off ( 7)
  675.     4.    18331.  8D 2D                   - Note Off ( 6)
  676.    29.    18360.  92 38 50                - Note On  ( 7)
  677.     0.    18360.  9D 32 56                - Note On  ( 8)
  678.     0.    18360.  9D 39 4F                - Note On  ( 9)
  679.     0.    18360.  9D 3C 3F                - Note On  (10)
  680.    26.    18386.  82 36                   - Note Off ( 9)
  681.     1.    18387.  91 2D 54                - Note On  (10)
  682.    65.    18452.  8D 39                   - Note Off ( 9)
  683.    11.    18463.  8D 32                   - Note Off ( 8)
  684.    10.    18473.  8D 3C                   - Note Off ( 7)
  685.     1.    18474.  81 2D                   - Note Off ( 6)
  686.     6.    18480.  92 3A 64                - Note On  ( 7)
  687.     0.    18480.  92 42 45                - Note On  ( 8)
  688.     1.    18481.  80 29                   - Note Off ( 7)
  689.     0.    18481.  90 2A 7F                - Note On  ( 8)
  690.     5.    18486.  82 38                   - Note Off ( 7)
  691.     1.    18487.  91 2B 57                - Note On  ( 8)
  692.     8.    18495.  B3 40 7F                - Damper Pedal
  693.    63.    18558.  82 42                   - Note Off ( 7)
  694.    32.    18590.  9D 26 32                - Note On  ( 8)
  695.     0.    18590.  9D 2D 36                - Note On  ( 9)
  696.    38.    18628.  8D 2D                   - Note Off ( 8)
  697.    39.    18667.  8D 26                   - Note Off ( 7)
  698.    18.    18685.  82 3A                   - Note Off ( 6)
  699.    27.    18712.  80 2A                   - Note Off ( 5)
  700.     0.    18712.  90 2B 7F                - Note On  ( 6)
  701.     8.    18720.  92 36 69                - Note On  ( 7)
  702.     0.    18720.  92 42 50                - Note On  ( 8)
  703.     0.    18720.  9D 3C 76                - Note On  ( 9)
  704.     0.    18720.  9D 32 41                - Note On  (10)
  705.     0.    18720.  9D 38 7A                - Note On  (11)
  706.    77.    18797.  82 42                   - Note Off (10)
  707.    33.    18830.  9D 2D 36                - Note On  (11)
  708.    10.    18840.  92 38 4E                - Note On  (12)
  709.    13.    18853.  80 2B                   - Note Off (11)
  710.     0.    18853.  90 2C 7F                - Note On  (12)
  711.    22.    18875.  82 36                   - Note Off (11)
  712.     7.    18882.  8D 2D                   - Note Off (10)
  713.    63.    18945.  8D 38                   - Note Off ( 9)
  714.     5.    18950.  82 38                   - Note Off ( 8)
  715.     2.    18952.  8D 3C                   - Note Off ( 7)
  716.     3.    18955.  9D 39 5C                - Note On  ( 8)
  717.     5.    18960.  92 3A 68                - Note On  ( 9)
  718.     0.    18960.  92 42 4E                - Note On  (10)
  719.     5.    18965.  80 2C                   - Note Off ( 9)
  720.     0.    18965.  90 2D 7F                - Note On  (10)
  721.    52.    19017.  8D 32                   - Note Off ( 9)
  722.    15.    19032.  8D 39                   - Note Off ( 8)
  723.     4.    19036.  82 42                   - Note Off ( 7)
  724.    31.    19067.  9D 2D 42                - Note On  ( 8)
  725.    22.    19089.  83 43                   - Note Off ( 7)
  726.    27.    19116.  8D 2D                   - Note Off ( 6)
  727.    12.    19128.  83 3C                   - Note Off ( 5)
  728.    13.    19141.  83 39                   - Note Off ( 4)
  729.    21.    19162.  83 2B                   - Note Off ( 3)
  730.    11.    19173.  93 2D 44                - Note On  ( 4)
  731.     5.    19178.  93 39 4A                - Note On  ( 5)
  732.     6.    19184.  82 3A                   - Note Off ( 4)
  733.     1.    19185.  B3 40 00                - Damper Pedal
  734.     4.    19189.  93 26 2D                - Note On  ( 5)
  735.     6.    19195.  93 3C 54                - Note On  ( 6)
  736.     5.    19200.  80 2D                   - Note Off ( 5)
  737.     0.    19200.  90 24 7F                - Note On  ( 6)
  738.     0.    19200.  92 36 66                - Note On  ( 7)
  739.     0.    19200.  92 42 66                - Note On  ( 8)
  740.     0.    19200.  91 26 72                - Note On  ( 9)
  741.     0.    19200.  9D 32 73                - Note On  (10)
  742.     0.    19200.  9D 38 7F                - Note On  (11)
  743.     0.    19200.  9D 3C 7A                - Note On  (12)
  744.    12.    19212.  93 41 5D                - Note On  (13)
  745.    29.    19241.  81 2B                   - Note Off (12)
  746.    53.    19294.  82 42                   - Note Off (11)
  747.    26.    19320.  92 38 50                - Note On  (12)
  748.    40.    19360.  82 36                   - Note Off (11)
  749.    70.    19430.  91 30 60                - Note On  (12)
  750.     5.    19435.  82 38                   - Note Off (11)
  751.     5.    19440.  92 3A 62                - Note On  (12)
  752.     0.    19440.  92 42 45                - Note On  (13)
  753.     0.    19440.  9D 39 5A                - Note On  (14)
  754.     3.    19443.  80 24                   - Note Off (13)
  755.     0.    19443.  90 25 7F                - Note On  (14)
  756.     2.    19445.  81 26                   - Note Off (13)
  757.     2.    19447.  8D 38                   - Note Off (12)
  758.    82.    19529.  8D 3C                   - Note Off (11)
  759.     4.    19533.  82 42                   - Note Off (10)
  760.     0.    19533.  8D 39                   - Note Off ( 9)
  761.     7.    19540.  8D 32                   - Note Off ( 8)
  762.    15.    19555.  9D 2D 5A                - Note On  ( 9)
  763.    14.    19569.  B3 40 7F                - Damper Pedal
  764.    51.    19620.  8D 2D                   - Note Off ( 8)
  765.    46.    19666.  82 3A                   - Note Off ( 7)
  766.    13.    19679.  80 25                   - Note Off ( 6)
  767.     0.    19679.  90 26 7F                - Note On  ( 7)
  768.     1.    19680.  92 36 66                - Note On  ( 8)
  769.     0.    19680.  92 42 48                - Note On  ( 9)
  770.     0.    19680.  9D 39 45                - Note On  (10)
  771.     0.    19680.  9D 3C 73                - Note On  (11)
  772.     0.    19680.  9D 32 7E                - Note On  (12)
  773.     2.    19682.  91 31 4A                - Note On  (13)
  774.    28.    19710.  81 30                   - Note Off (12)
  775.    55.    19765.  82 42                   - Note Off (11)
  776.     5.    19770.  8D 39                   - Note Off (10)
  777.    22.    19792.  9D 26 42                - Note On  (11)
  778.     0.    19792.  9D 2D 42                - Note On  (12)
  779.     2.    19794.  8D 3C                   - Note Off (11)
  780.     2.    19796.  8D 32                   - Note Off (10)
  781.     4.    19800.  92 38 4C                - Note On  (11)
  782.    14.    19814.  80 26                   - Note Off (10)
  783.     0.    19814.  90 27 7F                - Note On  (11)
  784.    20.    19834.  82 36                   - Note Off (10)
  785.     1.    19835.  8D 2D                   - Note Off ( 9)
  786.    27.    19862.  8D 26                   - Note Off ( 8)
  787.    53.    19915.  91 32 50                - Note On  ( 9)
  788.     4.    19919.  81 31                   - Note Off ( 8)
  789.     1.    19920.  92 3A 5B                - Note On  ( 9)
  790.     0.    19920.  92 42 3C                - Note On  (10)
  791.     2.    19922.  9D 38 66                - Note On  (11)
  792.     0.    19922.  9D 3C 66                - Note On  (12)
  793.     0.    19922.  9D 32 5D                - Note On  (13)
  794.     4.    19926.  80 27                   - Note Off (12)
  795.     0.    19926.  90 28 7F                - Note On  (13)
  796.     1.    19927.  82 38                   - Note Off (12)
  797.    77.    20004.  82 42                   - Note Off (11)
  798.     1.    20005.  8D 38                   - Note Off (10)
  799.    15.    20020.  8D 32                   - Note Off ( 9)
  800.    12.    20032.  9D 39 78                - Note On  (10)
  801.    14.    20046.  8D 3C                   - Note Off ( 9)
  802.    19.    20065.  91 26 66                - Note On  (10)
  803.    21.    20086.  81 32                   - Note Off ( 9)
  804.    48.    20134.  81 26                   - Note Off ( 8)
  805.    16.    20150.  82 3A                   - Note Off ( 7)
  806.     1.    20151.  8D 39                   - Note Off ( 6)
  807.     6.    20157.  9D 2D 4F                - Note On  ( 7)
  808.     3.    20160.  92 36 66                - Note On  ( 8)
  809.     0.    20160.  92 42 50                - Note On  ( 9)
  810.     3.    20163.  80 28                   - Note Off ( 8)
  811.     0.    20163.  90 29 7F                - Note On  ( 9)
  812.    83.    20246.  82 42                   - Note Off ( 8)
  813.     2.    20248.  8D 2D                   - Note Off ( 7)
  814.    27.    20275.  9D 32 56                - Note On  ( 8)
  815.     0.    20275.  9D 39 4F                - Note On  ( 9)
  816.     0.    20275.  9D 3C 3F                - Note On  (10)
  817.     5.    20280.  92 38 4A                - Note On  (11)
  818.    27.    20307.  91 32 60                - Note On  (12)
  819.    26.    20333.  82 36                   - Note Off (11)
  820.    34.    20367.  8D 39                   - Note Off (10)
  821.    11.    20378.  8D 32                   - Note Off ( 9)
  822.    10.    20388.  8D 3C                   - Note Off ( 8)
  823.     7.    20395.  81 32                   - Note Off ( 7)
  824.     5.    20400.  92 3A 60                - Note On  ( 8)
  825.     0.    20400.  92 42 3F                - Note On  ( 9)
  826.     1.    20401.  80 29                   - Note Off ( 8)
  827.     0.    20401.  90 2A 7F                - Note On  ( 9)
  828.     1.    20402.  91 30 5A                - Note On  (10)
  829.     7.    20409.  82 38                   - Note Off ( 9)
  830.    68.    20477.  82 42                   - Note Off ( 8)
  831.    38.    20515.  9D 26 32                - Note On  ( 9)
  832.     0.    20515.  9D 2D 36                - Note On  (10)
  833.    38.    20553.  8D 2D                   - Note Off ( 9)
  834.    39.    20592.  8D 26                   - Note Off ( 8)
  835.    19.    20611.  82 3A                   - Note Off ( 7)
  836.    21.    20632.  80 2A                   - Note Off ( 6)
  837.     0.    20632.  90 2B 7F                - Note On  ( 7)
  838.     8.    20640.  92 36 66                - Note On  ( 8)
  839.     0.    20640.  92 42 45                - Note On  ( 9)
  840.     2.    20642.  9D 3C 76                - Note On  (10)
  841.     0.    20642.  9D 32 41                - Note On  (11)
  842.     0.    20642.  9D 38 7A                - Note On  (12)
  843.    78.    20720.  82 42                   - Note Off (11)
  844.    35.    20755.  9D 2D 36                - Note On  (12)
  845.     5.    20760.  92 38 4E                - Note On  (13)
  846.    13.    20773.  80 2B                   - Note Off (12)
  847.     0.    20773.  90 2C 7F                - Note On  (13)
  848.    29.    20802.  82 36                   - Note Off (12)
  849.     5.    20807.  8D 2D                   - Note Off (11)
  850.    60.    20867.  8D 38                   - Note Off (10)
  851.     7.    20874.  8D 3C                   - Note Off ( 9)
  852.     6.    20880.  92 3A 62                - Note On  (10)
  853.     0.    20880.  92 42 4E                - Note On  (11)
  854.     2.    20882.  81 30                   - Note Off (10)
  855.     3.    20885.  80 2C                   - Note Off ( 9)
  856.     0.    20885.  90 2D 7F                - Note On  (10)
  857.     0.    20885.  91 30 69                - Note On  (11)
  858.     0.    20885.  9D 39 5C                - Note On  (12)
  859.     4.    20889.  82 38                   - Note Off (11)
  860.    50.    20939.  8D 32                   - Note Off (10)
  861.    13.    20952.  82 42                   - Note Off ( 9)
  862.    10.    20962.  8D 39                   - Note Off ( 8)
  863.    28.    20990.  9D 2D 42                - Note On  ( 9)
  864.    49.    21039.  8D 2D                   - Note Off ( 8)
  865.    52.    21091.  82 3A                   - Note Off ( 7)
  866.    29.    21120.  80 2D                   - Note Off ( 6)
  867.     0.    21120.  81 30                   - Note Off ( 5)
  868.     0.    21120.  90 24 7F                - Note On  ( 6)
  869.     0.    21120.  92 36 60                - Note On  ( 7)
  870.     0.    21120.  92 42 4C                - Note On  ( 8)
  871.     7.    21127.  91 26 72                - Note On  ( 9)
  872.     0.    21127.  9D 32 73                - Note On  (10)
  873.     0.    21127.  9D 38 7F                - Note On  (11)
  874.     0.    21127.  9D 3C 7A                - Note On  (12)
  875.    71.    21198.  82 42                   - Note Off (11)
  876.    42.    21240.  92 38 52                - Note On  (12)
  877.    27.    21267.  82 36                   - Note Off (11)
  878.    83.    21350.  81 26                   - Note Off (10)
  879.     7.    21357.  91 30 60                - Note On  (11)
  880.     3.    21360.  92 3A 60                - Note On  (12)
  881.     0.    21360.  92 42 45                - Note On  (13)
  882.     3.    21363.  80 24                   - Note Off (12)
  883.     0.    21363.  90 25 7F                - Note On  (13)
  884.     2.    21365.  9D 39 5A                - Note On  (14)
  885.     3.    21368.  82 38                   - Note Off (13)
  886.     6.    21374.  8D 38                   - Note Off (12)
  887.    64.    21438.  82 42                   - Note Off (11)
  888.    18.    21456.  8D 3C                   - Note Off (10)
  889.     2.    21458.  8D 39                   - Note Off ( 9)
  890.     9.    21467.  8D 32                   - Note Off ( 8)
  891.     8.    21475.  9D 2D 5A                - Note On  ( 9)
  892.    65.    21540.  8D 2D                   - Note Off ( 8)
  893.    20.    21560.  82 3A                   - Note Off ( 7)
  894.    38.    21598.  9D 39 45                - Note On  ( 8)
  895.     0.    21598.  9D 3C 73                - Note On  ( 9)
  896.     0.    21598.  9D 32 7E                - Note On  (10)
  897.     1.    21599.  80 25                   - Note Off ( 9)
  898.     0.    21599.  90 26 7F                - Note On  (10)
  899.     1.    21600.  92 36 66                - Note On  (11)
  900.     0.    21600.  92 42 45                - Note On  (12)
  901.    10.    21610.  91 31 54                - Note On  (13)
  902.    75.    21685.  82 42                   - Note Off (12)
  903.     3.    21688.  8D 39                   - Note Off (11)
  904.     5.    21693.  81 30                   - Note Off (10)
  905.    19.    21712.  8D 3C                   - Note Off ( 9)
  906.     2.    21714.  8D 32                   - Note Off ( 8)
  907.     1.    21715.  9D 26 42                - Note On  ( 9)
  908.     0.    21715.  9D 2D 42                - Note On  (10)
  909.     5.    21720.  92 38 4A                - Note On  (11)
  910.    14.    21734.  80 26                   - Note Off (10)
  911.     0.    21734.  90 27 7F                - Note On  (11)
  912.     6.    21740.  82 36                   - Note Off (10)
  913.    18.    21758.  8D 2D                   - Note Off ( 9)
  914.    27.    21785.  8D 26                   - Note Off ( 8)
  915.    43.    21828.  81 31                   - Note Off ( 7)
  916.    12.    21840.  92 3A 62                - Note On  ( 8)
  917.     0.    21840.  92 42 45                - Note On  ( 9)
  918.     2.    21842.  91 32 52                - Note On  (10)
  919.     0.    21842.  9D 38 66                - Note On  (11)
  920.     0.    21842.  9D 3C 66                - Note On  (12)
  921.     0.    21842.  9D 32 5D                - Note On  (13)
  922.     3.    21845.  82 38                   - Note Off (12)
  923.     1.    21846.  80 27                   - Note Off (11)
  924.     0.    21846.  90 28 7F                - Note On  (12)
  925.    79.    21925.  8D 38                   - Note Off (11)
  926.     1.    21926.  82 42                   - Note Off (10)
  927.    14.    21940.  8D 32                   - Note Off ( 9)
  928.    15.    21955.  9D 39 78                - Note On  (10)
  929.    11.    21966.  8D 3C                   - Note Off ( 9)
  930.     1.    21967.  83 39                   - Note Off ( 8)
  931.     3.    21970.  83 3C                   - Note Off ( 7)
  932.    20.    21990.  91 26 66                - Note On  ( 8)
  933.    20.    22010.  83 41                   - Note Off ( 7)
  934.    12.    22022.  81 32                   - Note Off ( 6)
  935.    14.    22036.  82 3A                   - Note Off ( 5)
  936.     3.    22039.  83 2D                   - Note Off ( 4)
  937.     5.    22044.  83 26                   - Note Off ( 3)
  938.     3.    22047.  81 26                   - Note Off ( 2)
  939.    10.    22057.  93 30 63                - Note On  ( 3)
  940.     0.    22057.  B3 40 00                - Damper Pedal
  941.    17.    22074.  8D 39                   - Note Off ( 2)
  942.     6.    22080.  92 36 66                - Note On  ( 3)
  943.     0.    22080.  92 42 50                - Note On  ( 4)
  944.     0.    22080.  9D 2D 4F                - Note On  ( 5)
  945.     2.    22082.  93 37 52                - Note On  ( 6)
  946.     1.    22083.  80 28                   - Note Off ( 5)
  947.     0.    22083.  90 29 7F                - Note On  ( 6)
  948.     6.    22089.  93 3B 52                - Note On  ( 7)
  949.    16.    22105.  93 40 50                - Note On  ( 8)
  950.    62.    22167.  82 42                   - Note Off ( 7)
  951.     4.    22171.  8D 2D                   - Note Off ( 6)
  952.    29.    22200.  92 38 52                - Note On  ( 7)
  953.     0.    22200.  9D 32 56                - Note On  ( 8)
  954.     0.    22200.  9D 39 4F                - Note On  ( 9)
  955.     0.    22200.  9D 3C 3F                - Note On  (10)
  956.    27.    22227.  91 32 6C                - Note On  (11)
  957.    38.    22265.  82 36                   - Note Off (10)
  958.    27.    22292.  8D 39                   - Note Off ( 9)
  959.    11.    22303.  8D 32                   - Note Off ( 8)
  960.    10.    22313.  8D 3C                   - Note Off ( 7)
  961.     4.    22317.  81 32                   - Note Off ( 6)
  962.     3.    22320.  92 3A 58                - Note On  ( 7)
  963.     0.    22320.  92 42 45                - Note On  ( 8)
  964.     1.    22321.  80 29                   - Note Off ( 7)
  965.     0.    22321.  90 2A 7F                - Note On  ( 8)
  966.     6.    22327.  91 30 60                - Note On  ( 9)
  967.    21.    22348.  82 38                   - Note Off ( 8)
  968.     1.    22349.  B3 40 7F                - Damper Pedal
  969.    49.    22398.  82 42                   - Note Off ( 7)
  970.    32.    22430.  9D 26 2D                - Note On  ( 8)
  971.     0.    22430.  9D 2D 2D                - Note On  ( 9)
  972.    38.    22468.  8D 2D                   - Note Off ( 8)
  973.    39.    22507.  8D 26                   - Note Off ( 7)
  974.    39.    22546.  82 3A                   - Note Off ( 6)
  975.     6.    22552.  80 2A                   - Note Off ( 5)
  976.     0.    22552.  90 2B 7F                - Note On  ( 6)
  977.     8.    22560.  92 36 66                - Note On  ( 7)
  978.     0.    22560.  92 42 50                - Note On  ( 8)
  979.     0.    22560.  9D 3C 76                - Note On  ( 9)
  980.     0.    22560.  9D 32 41                - Note On  (10)
  981.     0.    22560.  9D 39 7A                - Note On  (11)
  982.     7.    22567.  91 2D 52                - Note On  (12)
  983.    21.    22588.  81 30                   - Note Off (11)
  984.    49.    22637.  82 42                   - Note Off (10)
  985.    12.    22649.  8D 3C                   - Note Off ( 9)
  986.     0.    22649.  8D 32                   - Note Off ( 8)
  987.    16.    22665.  8D 39                   - Note Off ( 7)
  988.     5.    22670.  9D 32 27                - Note On  ( 8)
  989.     0.    22670.  9D 3C 5C                - Note On  ( 9)
  990.     0.    22670.  9D 39 60                - Note On  (10)
  991.     0.    22670.  9D 2D 36                - Note On  (11)
  992.     1.    22671.  8D 32                   - Note Off (10)
  993.     0.    22671.  8D 39                   - Note Off ( 9)
  994.     9.    22680.  92 38 52                - Note On  (10)
  995.    13.    22693.  80 2B                   - Note Off ( 9)
  996.     0.    22693.  90 2C 7F                - Note On  (10)
  997.    29.    22722.  8D 3C                   - Note Off ( 9)
  998.     0.    22722.  8D 2D                   - Note Off ( 8)
  999.     7.    22729.  82 36                   - Note Off ( 7)
 1000.    66.    22795.  9D 39 6B                - Note On  ( 8)
 1001.     0.    22795.  9D 32 6B                - Note On  ( 9)
 1002.     5.    22800.  92 3A 62                - Note On  (10)
 1003.     0.    22800.  92 42 4E                - Note On  (11)
 1004.     5.    22805.  80 2C                   - Note Off (10)
 1005.     0.    22805.  90 2D 7F                - Note On  (11)
 1006.     0.    22805.  91 2B 60                - Note On  (12)
 1007.     3.    22808.  81 2D                   - Note Off (11)
 1008.     1.    22809.  82 38                   - Note Off (10)
 1009.    63.    22872.  8D 39                   - Note Off ( 9)
 1010.     0.    22872.  8D 32                   - Note Off ( 8)
 1011.     4.    22876.  82 42                   - Note Off ( 7)
 1012.    31.    22907.  9D 3E 7A                - Note On  ( 8)
 1013.     0.    22907.  9D 2D 42                - Note On  ( 9)
 1014.    49.    22956.  8D 2D                   - Note Off ( 8)
 1015.    28.    22984.  8D 3E                   - Note Off ( 7)
 1016.     1.    22985.  82 3A                   - Note Off ( 6)
 1017.    55.    23040.  80 2D                   - Note Off ( 5)
 1018.     0.    23040.  90 24 7F                - Note On  ( 6)
 1019.     0.    23040.  91 26 75                - Note On  ( 7)
 1020.     0.    23040.  92 36 69                - Note On  ( 8)
 1021.     0.    23040.  92 42 66                - Note On  ( 9)
 1022.     0.    23040.  9D 32 73                - Note On  (10)
 1023.     0.    23040.  9D 38 7F                - Note On  (11)
 1024.     0.    23040.  9D 3C 7A                - Note On  (12)
 1025.     2.    23042.  93 39 4A                - Note On  (13)
 1026.     2.    23044.  93 2D 48                - Note On  (14)
 1027.     9.    23053.  93 26 48                - Note On  (15)
 1028.     4.    23057.  83 37                   - Note Off (14)
 1029.     5.    23062.  83 30                   - Note Off (13)
 1030.     1.    23063.  83 3B                   - Note Off (12)
 1031.     5.    23068.  93 3C 4C                - Note On  (13)
 1032.     4.    23072.  83 40                   - Note Off (12)
 1033.    15.    23087.  81 2B                   - Note Off (11)
 1034.     1.    23088.  93 41 54                - Note On  (12)
 1035.    46.    23134.  82 42                   - Note Off (11)
 1036.    26.    23160.  92 38 4C                - Note On  (12)
 1037.    19.    23179.  82 36                   - Note Off (11)
 1038.    91.    23270.  81 26                   - Note Off (10)
 1039.     0.    23270.  91 30 66                - Note On  (11)
 1040.    10.    23280.  92 3A 60                - Note On  (12)
 1041.     0.    23280.  92 42 45                - Note On  (13)
 1042.     0.    23280.  9D 39 5A                - Note On  (14)
 1043.     3.    23283.  80 24                   - Note Off (13)
 1044.     0.    23283.  90 25 7F                - Note On  (14)
 1045.     4.    23287.  8D 38                   - Note Off (13)
 1046.    11.    23298.  82 38                   - Note Off (12)
 1047.    71.    23369.  8D 3C                   - Note Off (11)
 1048.     4.    23373.  82 42                   - Note Off (10)
 1049.     0.    23373.  8D 39                   - Note Off ( 9)
 1050.     7.    23380.  8D 32                   - Note Off ( 8)
 1051.    15.    23395.  9D 2D 5A                - Note On  ( 9)
 1052.    65.    23460.  8D 2D                   - Note Off ( 8)
 1053.    15.    23475.  82 3A                   - Note Off ( 7)
 1054.    44.    23519.  80 25                   - Note Off ( 6)
 1055.     0.    23519.  90 26 7F                - Note On  ( 7)
 1056.     1.    23520.  92 36 66                - Note On  ( 8)
 1057.     0.    23520.  92 42 48                - Note On  ( 9)
 1058.     0.    23520.  9D 39 45                - Note On  (10)
 1059.     0.    23520.  9D 3C 73                - Note On  (11)
 1060.     0.    23520.  9D 32 7E                - Note On  (12)
 1061.     2.    23522.  91 31 52                - Note On  (13)
 1062.    16.    23538.  81 30                   - Note Off (12)
 1063.    56.    23594.  B3 40 7F                - Damper Pedal
 1064.    11.    23605.  82 42                   - Note Off (11)
 1065.     5.    23610.  8D 39                   - Note Off (10)
 1066.    22.    23632.  9D 26 42                - Note On  (11)
 1067.     0.    23632.  9D 2D 42                - Note On  (12)
 1068.     2.    23634.  8D 3C                   - Note Off (11)
 1069.     2.    23636.  8D 32                   - Note Off (10)
 1070.     4.    23640.  92 38 4C                - Note On  (11)
 1071.    14.    23654.  80 26                   - Note Off (10)
 1072.     0.    23654.  90 27 7F                - Note On  (11)
 1073.    11.    23665.  82 36                   - Note Off (10)
 1074.    10.    23675.  8D 2D                   - Note Off ( 9)
 1075.    27.    23702.  8D 26                   - Note Off ( 8)
 1076.    51.    23753.  82 38                   - Note Off ( 7)
 1077.     2.    23755.  91 32 5A                - Note On  ( 8)
 1078.     5.    23760.  92 3A 68                - Note On  ( 9)
 1079.     0.    23760.  92 42 3C                - Note On  (10)
 1080.     2.    23762.  9D 38 66                - Note On  (11)
 1081.     0.    23762.  9D 3C 66                - Note On  (12)
 1082.     0.    23762.  9D 32 5D                - Note On  (13)
 1083.     4.    23766.  80 27                   - Note Off (12)
 1084.     0.    23766.  90 28 7F                - Note On  (13)
 1085.    19.    23785.  81 31                   - Note Off (12)
 1086.    59.    23844.  82 42                   - Note Off (11)
 1087.     1.    23845.  8D 38                   - Note Off (10)
 1088.    15.    23860.  8D 32                   - Note Off ( 9)
 1089.    12.    23872.  9D 39 78                - Note On  (10)
 1090.    14.    23886.  8D 3C                   - Note Off ( 9)
 1091.    16.    23902.  91 26 69                - Note On  (10)
 1092.    21.    23923.  81 32                   - Note Off ( 9)
 1093.    50.    23973.  82 3A                   - Note Off ( 8)
 1094.     9.    23982.  81 26                   - Note Off ( 7)
 1095.     9.    23991.  8D 39                   - Note Off ( 6)
 1096.     6.    23997.  9D 2D 4F                - Note On  ( 7)
 1097.     3.    24000.  92 36 66                - Note On  ( 8)
 1098.     0.    24000.  92 42 50                - Note On  ( 9)
 1099.     3.    24003.  80 28                   - Note Off ( 8)
 1100.     0.    24003.  90 29 7F                - Note On  ( 9)
 1101.    83.    24086.  82 42                   - Note Off ( 8)
 1102.     2.    24088.  8D 2D                   - Note Off ( 7)
 1103.    27.    24115.  9D 32 56                - Note On  ( 8)
 1104.     0.    24115.  9D 39 4F                - Note On  ( 9)
 1105.     0.    24115.  9D 3C 3F                - Note On  (10)
 1106.     5.    24120.  92 38 4C                - Note On  (11)
 1107.    22.    24142.  91 32 69                - Note On  (12)
 1108.    13.    24155.  82 36                   - Note Off (11)
 1109.    52.    24207.  8D 39                   - Note Off (10)
 1110.    11.    24218.  8D 32                   - Note Off ( 9)
 1111.    10.    24228.  8D 3C                   - Note Off ( 8)
 1112.     1.    24229.  82 38                   - Note Off ( 7)
 1113.     9.    24238.  81 32                   - Note Off ( 6)
 1114.     2.    24240.  92 3A 58                - Note On  ( 7)
 1115.     0.    24240.  92 42 3F                - Note On  ( 8)
 1116.     1.    24241.  80 29                   - Note Off ( 7)
 1117.     0.    24241.  90 2A 7F                - Note On  ( 8)
 1118.     1.    24242.  91 30 63                - Note On  ( 9)
 1119.    75.    24317.  82 42                   - Note Off ( 8)
 1120.    38.    24355.  9D 26 32                - Note On  ( 9)
 1121.     0.    24355.  9D 2D 36                - Note On  (10)
 1122.    38.    24393.  8D 2D                   - Note Off ( 9)
 1123.    39.    24432.  8D 26                   - Note Off ( 8)
 1124.    31.    24463.  82 3A                   - Note Off ( 7)
 1125.     9.    24472.  80 2A                   - Note Off ( 6)
 1126.     0.    24472.  90 2B 7F                - Note On  ( 7)
 1127.     8.    24480.  92 36 69                - Note On  ( 8)
 1128.     0.    24480.  92 42 45                - Note On  ( 9)
 1129.     2.    24482.  9D 3C 76                - Note On  (10)
 1130.     0.    24482.  9D 32 41                - Note On  (11)
 1131.     0.    24482.  9D 38 7A                - Note On  (12)
 1132.    78.    24560.  82 42                   - Note Off (11)
 1133.    35.    24595.  9D 2D 36                - Note On  (12)
 1134.     5.    24600.  92 38 4C                - Note On  (13)
 1135.    13.    24613.  80 2B                   - Note Off (12)
 1136.     0.    24613.  90 2C 7F                - Note On  (13)
 1137.    34.    24647.  8D 2D                   - Note Off (12)
 1138.     1.    24648.  82 36                   - Note Off (11)
 1139.    59.    24707.  8D 38                   - Note Off (10)
 1140.     7.    24714.  8D 3C                   - Note Off ( 9)
 1141.     6.    24720.  92 3A 64                - Note On  (10)
 1142.     0.    24720.  92 42 4E                - Note On  (11)
 1143.     4.    24724.  82 38                   - Note Off (10)
 1144.     1.    24725.  80 2C                   - Note Off ( 9)
 1145.     0.    24725.  90 2D 7F                - Note On  (10)
 1146.     0.    24725.  9D 39 5C                - Note On  (11)
 1147.    54.    24779.  8D 32                   - Note Off (10)
 1148.    13.    24792.  82 42                   - Note Off ( 9)
 1149.    10.    24802.  8D 39                   - Note Off ( 8)
 1150.    28.    24830.  9D 2D 42                - Note On  ( 9)
 1151.    49.    24879.  8D 2D                   - Note Off ( 8)
 1152.    50.    24929.  82 3A                   - Note Off ( 7)
 1153.    31.    24960.  80 2D                   - Note Off ( 6)
 1154.     0.    24960.  90 24 7F                - Note On  ( 7)
 1155.     0.    24960.  92 36 66                - Note On  ( 8)
 1156.     0.    24960.  92 42 4C                - Note On  ( 9)
 1157.     7.    24967.  91 26 75                - Note On  (10)
 1158.     0.    24967.  9D 32 73                - Note On  (11)
 1159.     0.    24967.  9D 38 7F                - Note On  (12)
 1160.     0.    24967.  9D 3C 7A                - Note On  (13)
 1161.    21.    24988.  81 30                   - Note Off (12)
 1162.    50.    25038.  82 42                   - Note Off (11)
 1163.    42.    25080.  92 38 50                - Note On  (12)
 1164.    28.    25108.  82 36                   - Note Off (11)
 1165.    87.    25195.  81 26                   - Note Off (10)
 1166.     2.    25197.  91 30 54                - Note On  (11)
 1167.     1.    25198.  82 38                   - Note Off (10)
 1168.     2.    25200.  92 3A 64                - Note On  (11)
 1169.     0.    25200.  92 42 45                - Note On  (12)
 1170.     3.    25203.  80 24                   - Note Off (11)
 1171.     0.    25203.  90 25 7F                - Note On  (12)
 1172.     2.    25205.  9D 39 5A                - Note On  (13)
 1173.     9.    25214.  8D 38                   - Note Off (12)
 1174.    64.    25278.  82 42                   - Note Off (11)
 1175.    18.    25296.  8D 3C                   - Note Off (10)
 1176.     2.    25298.  8D 39                   - Note Off ( 9)
 1177.     9.    25307.  8D 32                   - Note Off ( 8)
 1178.     8.    25315.  9D 2D 5A                - Note On  ( 9)
 1179.    65.    25380.  8D 2D                   - Note Off ( 8)
 1180.    16.    25396.  82 3A                   - Note Off ( 7)
 1181.    42.    25438.  9D 39 45                - Note On  ( 8)
 1182.     0.    25438.  9D 3C 73                - Note On  ( 9)
 1183.     0.    25438.  9D 32 7E                - Note On  (10)
 1184.     1.    25439.  80 25                   - Note Off ( 9)
 1185.     0.    25439.  90 26 7F                - Note On  (10)
 1186.     1.    25440.  92 36 69                - Note On  (11)
 1187.     0.    25440.  92 42 45                - Note On  (12)
 1188.    10.    25450.  91 31 4E                - Note On  (13)
 1189.    74.    25524.  81 30                   - Note Off (12)
 1190.     1.    25525.  82 42                   - Note Off (11)
 1191.     3.    25528.  8D 39                   - Note Off (10)
 1192.    24.    25552.  8D 3C                   - Note Off ( 9)
 1193.     2.    25554.  8D 32                   - Note Off ( 8)
 1194.     1.    25555.  9D 26 42                - Note On  ( 9)
 1195.     0.    25555.  9D 2D 42                - Note On  (10)
 1196.     5.    25560.  92 38 50                - Note On  (11)
 1197.    14.    25574.  80 26                   - Note Off (10)
 1198.     0.    25574.  90 27 7F                - Note On  (11)
 1199.     8.    25582.  82 36                   - Note Off (10)
 1200.    16.    25598.  8D 2D                   - Note Off ( 9)
 1201.    27.    25625.  8D 26                   - Note Off ( 8)
 1202.    43.    25668.  82 38                   - Note Off ( 7)
 1203.    12.    25680.  92 3A 64                - Note On  ( 8)
 1204.     0.    25680.  92 42 45                - Note On  ( 9)
 1205.     2.    25682.  91 32 57                - Note On  (10)
 1206.     0.    25682.  9D 38 66                - Note On  (11)
 1207.     0.    25682.  9D 3C 66                - Note On  (12)
 1208.     0.    25682.  9D 32 5D                - Note On  (13)
 1209.     4.    25686.  80 27                   - Note Off (12)
 1210.     0.    25686.  90 28 7F                - Note On  (13)
 1211.    14.    25700.  81 31                   - Note Off (12)
 1212.    65.    25765.  8D 38                   - Note Off (11)
 1213.     1.    25766.  82 42                   - Note Off (10)
 1214.    14.    25780.  8D 32                   - Note Off ( 9)
 1215.    15.    25795.  9D 39 78                - Note On  (10)
 1216.     9.    25804.  83 39                   - Note Off ( 9)
 1217.     2.    25806.  8D 3C                   - Note Off ( 8)
 1218.    16.    25822.  83 2D                   - Note Off ( 7)
 1219.     8.    25830.  91 2D 63                - Note On  ( 8)
 1220.     3.    25833.  83 41                   - Note Off ( 7)
 1221.     1.    25834.  83 3C                   - Note Off ( 6)
 1222.    14.    25848.  81 32                   - Note Off ( 5)
 1223.    17.    25865.  83 26                   - Note Off ( 4)
 1224.    28.    25893.  82 3A                   - Note Off ( 3)
 1225.     3.    25896.  93 39 48                - Note On  ( 4)
 1226.     7.    25903.  81 2D                   - Note Off ( 3)
 1227.     7.    25910.  93 2B 48                - Note On  ( 4)
 1228.     4.    25914.  8D 39                   - Note Off ( 3)
 1229.     5.    25919.  93 3C 57                - Note On  ( 4)
 1230.     1.    25920.  92 42 50                - Note On  ( 5)
 1231.     0.    25920.  92 36 69                - Note On  ( 6)
 1232.     0.    25920.  9D 2D 4F                - Note On  ( 7)
 1233.     3.    25923.  80 28                   - Note Off ( 6)
 1234.     0.    25923.  90 29 7F                - Note On  ( 7)
 1235.    25.    25948.  93 43 4C                - Note On  ( 8)
 1236.    12.    25960.  B3 40 00                - Damper Pedal
 1237.    47.    26007.  82 42                   - Note Off ( 7)
 1238.     4.    26011.  8D 2D                   - Note Off ( 6)
 1239.    29.    26040.  92 38 50                - Note On  ( 7)
 1240.     0.    26040.  9D 32 56                - Note On  ( 8)
 1241.     0.    26040.  9D 39 4F                - Note On  ( 9)
 1242.     0.    26040.  9D 3C 3F                - Note On  (10)
 1243.    26.    26066.  82 36                   - Note Off ( 9)
 1244.     1.    26067.  91 2D 54                - Note On  (10)
 1245.    65.    26132.  8D 39                   - Note Off ( 9)
 1246.    11.    26143.  8D 32                   - Note Off ( 8)
 1247.    10.    26153.  8D 3C                   - Note Off ( 7)
 1248.     1.    26154.  81 2D                   - Note Off ( 6)
 1249.     6.    26160.  92 3A 64                - Note On  ( 7)
 1250.     0.    26160.  92 42 45                - Note On  ( 8)
 1251.     1.    26161.  80 29                   - Note Off ( 7)
 1252.     0.    26161.  90 2A 7F                - Note On  ( 8)
 1253.     5.    26166.  82 38                   - Note Off ( 7)
 1254.     1.    26167.  91 2B 57                - Note On  ( 8)
 1255.     8.    26175.  B3 40 7F                - Damper Pedal
 1256.    63.    26238.  82 42                   - Note Off ( 7)
 1257.    32.    26270.  9D 26 32                - Note On  ( 8)
 1258.     0.    26270.  9D 2D 36                - Note On  ( 9)
 1259.    38.    26308.  8D 2D                   - Note Off ( 8)
 1260.    39.    26347.  8D 26                   - Note Off ( 7)
 1261.    18.    26365.  82 3A                   - Note Off ( 6)
 1262.    27.    26392.  80 2A                   - Note Off ( 5)
 1263.     0.    26392.  90 2B 7F                - Note On  ( 6)
 1264.     8.    26400.  92 36 69                - Note On  ( 7)
 1265.     0.    26400.  92 42 50                - Note On  ( 8)
 1266.     0.    26400.  9D 3C 76                - Note On  ( 9)
 1267.     0.    26400.  9D 32 41                - Note On  (10)
 1268.     0.    26400.  9D 38 7A                - Note On  (11)
 1269.    77.    26477.  82 42                   - Note Off (10)
 1270.    33.    26510.  9D 2D 36                - Note On  (11)
 1271.    10.    26520.  92 38 4E                - Note On  (12)
 1272.    13.    26533.  80 2B                   - Note Off (11)
 1273.     0.    26533.  90 2C 7F                - Note On  (12)
 1274.    22.    26555.  82 36                   - Note Off (11)
 1275.     7.    26562.  8D 2D                   - Note Off (10)
 1276.    63.    26625.  8D 38                   - Note Off ( 9)
 1277.     5.    26630.  82 38                   - Note Off ( 8)
 1278.     2.    26632.  8D 3C                   - Note Off ( 7)
 1279.     3.    26635.  9D 39 5C                - Note On  ( 8)
 1280.     5.    26640.  92 3A 68                - Note On  ( 9)
 1281.     0.    26640.  92 42 4E                - Note On  (10)
 1282.     5.    26645.  80 2C                   - Note Off ( 9)
 1283.     0.    26645.  90 2D 7F                - Note On  (10)
 1284.    52.    26697.  8D 32                   - Note Off ( 9)
 1285.    15.    26712.  8D 39                   - Note Off ( 8)
 1286.     4.    26716.  82 42                   - Note Off ( 7)
 1287.    31.    26747.  9D 2D 42                - Note On  ( 8)
 1288.    22.    26769.  83 43                   - Note Off ( 7)
 1289.    27.    26796.  8D 2D                   - Note Off ( 6)
 1290.    12.    26808.  83 3C                   - Note Off ( 5)
 1291.    13.    26821.  83 39                   - Note Off ( 4)
 1292.    21.    26842.  83 2B                   - Note Off ( 3)
 1293.    11.    26853.  93 2D 44                - Note On  ( 4)
 1294.     5.    26858.  93 39 4A                - Note On  ( 5)
 1295.     6.    26864.  82 3A                   - Note Off ( 4)
 1296.     1.    26865.  B3 40 00                - Damper Pedal
 1297.     4.    26869.  93 26 2D                - Note On  ( 5)
 1298.     6.    26875.  93 3C 54                - Note On  ( 6)
 1299.     5.    26880.  80 2D                   - Note Off ( 5)
 1300.     0.    26880.  90 24 7F                - Note On  ( 6)
 1301.     0.    26880.  92 36 66                - Note On  ( 7)
 1302.     0.    26880.  92 42 66                - Note On  ( 8)
 1303.     0.    26880.  91 26 72                - Note On  ( 9)
 1304.     0.    26880.  9D 32 73                - Note On  (10)
 1305.     0.    26880.  9D 38 7F                - Note On  (11)
 1306.     0.    26880.  9D 3C 7A                - Note On  (12)
 1307.    12.    26892.  93 41 5D                - Note On  (13)
 1308.    29.    26921.  81 2B                   - Note Off (12)
 1309.    53.    26974.  82 42                   - Note Off (11)
 1310.    26.    27000.  92 38 50                - Note On  (12)
 1311.    40.    27040.  82 36                   - Note Off (11)
 1312.    70.    27110.  91 30 60                - Note On  (12)
 1313.     5.    27115.  82 38                   - Note Off (11)
 1314.     5.    27120.  92 3A 62                - Note On  (12)
 1315.     0.    27120.  92 42 45                - Note On  (13)
 1316.     0.    27120.  9D 39 5A                - Note On  (14)
 1317.     3.    27123.  80 24                   - Note Off (13)
 1318.     0.    27123.  90 25 7F                - Note On  (14)
 1319.     2.    27125.  81 26                   - Note Off (13)
 1320.     2.    27127.  8D 38                   - Note Off (12)
 1321.    82.    27209.  8D 3C                   - Note Off (11)
 1322.     4.    27213.  82 42                   - Note Off (10)
 1323.     0.    27213.  8D 39                   - Note Off ( 9)
 1324.     7.    27220.  8D 32                   - Note Off ( 8)
 1325.    15.    27235.  9D 2D 5A                - Note On  ( 9)
 1326.    14.    27249.  B3 40 7F                - Damper Pedal
 1327.    51.    27300.  8D 2D                   - Note Off ( 8)
 1328.    46.    27346.  82 3A                   - Note Off ( 7)
 1329.    13.    27359.  80 25                   - Note Off ( 6)
 1330.     0.    27359.  90 26 7F                - Note On  ( 7)
 1331.     1.    27360.  92 36 66                - Note On  ( 8)
 1332.     0.    27360.  92 42 48                - Note On  ( 9)
 1333.     0.    27360.  9D 39 45                - Note On  (10)
 1334.     0.    27360.  9D 3C 73                - Note On  (11)
 1335.     0.    27360.  9D 32 7E                - Note On  (12)
 1336.     2.    27362.  91 31 4A                - Note On  (13)
 1337.    28.    27390.  81 30                   - Note Off (12)
 1338.    55.    27445.  82 42                   - Note Off (11)
 1339.     5.    27450.  8D 39                   - Note Off (10)
 1340.    22.    27472.  9D 26 42                - Note On  (11)
 1341.     0.    27472.  9D 2D 42                - Note On  (12)
 1342.     2.    27474.  8D 3C                   - Note Off (11)
 1343.     2.    27476.  8D 32                   - Note Off (10)
 1344.     4.    27480.  92 38 4C                - Note On  (11)
 1345.    14.    27494.  80 26                   - Note Off (10)
 1346.     0.    27494.  90 27 7F                - Note On  (11)
 1347.    20.    27514.  82 36                   - Note Off (10)
 1348.     1.    27515.  8D 2D                   - Note Off ( 9)
 1349.    27.    27542.  8D 26                   - Note Off ( 8)
 1350.    53.    27595.  91 32 50                - Note On  ( 9)
 1351.     4.    27599.  81 31                   - Note Off ( 8)
 1352.     1.    27600.  92 3A 5B                - Note On  ( 9)
 1353.     0.    27600.  92 42 3C                - Note On  (10)
 1354.     2.    27602.  9D 38 66                - Note On  (11)
 1355.     0.    27602.  9D 3C 66                - Note On  (12)
 1356.     0.    27602.  9D 32 5D                - Note On  (13)
 1357.     4.    27606.  80 27                   - Note Off (12)
 1358.     0.    27606.  90 28 7F                - Note On  (13)
 1359.     1.    27607.  82 38                   - Note Off (12)
 1360.    77.    27684.  82 42                   - Note Off (11)
 1361.     1.    27685.  8D 38                   - Note Off (10)
 1362.    15.    27700.  8D 32                   - Note Off ( 9)
 1363.    12.    27712.  9D 39 78                - Note On  (10)
 1364.    14.    27726.  8D 3C                   - Note Off ( 9)
 1365.    19.    27745.  91 26 66                - Note On  (10)
 1366.    21.    27766.  81 32                   - Note Off ( 9)
 1367.    48.    27814.  81 26                   - Note Off ( 8)
 1368.    16.    27830.  82 3A                   - Note Off ( 7)
 1369.     1.    27831.  8D 39                   - Note Off ( 6)
 1370.     6.    27837.  9D 2D 4F                - Note On  ( 7)
 1371.     3.    27840.  92 36 66                - Note On  ( 8)
 1372.     0.    27840.  92 42 50                - Note On  ( 9)
 1373.     3.    27843.  80 28                   - Note Off ( 8)
 1374.     0.    27843.  90 29 7F                - Note On  ( 9)
 1375.    83.    27926.  82 42                   - Note Off ( 8)
 1376.     2.    27928.  8D 2D                   - Note Off ( 7)
 1377.    27.    27955.  9D 32 56                - Note On  ( 8)
 1378.     0.    27955.  9D 39 4F                - Note On  ( 9)
 1379.     0.    27955.  9D 3C 3F                - Note On  (10)
 1380.     5.    27960.  92 38 4A                - Note On  (11)
 1381.    27.    27987.  91 32 60                - Note On  (12)
 1382.    26.    28013.  82 36                   - Note Off (11)
 1383.    34.    28047.  8D 39                   - Note Off (10)
 1384.    11.    28058.  8D 32                   - Note Off ( 9)
 1385.    10.    28068.  8D 3C                   - Note Off ( 8)
 1386.     7.    28075.  81 32                   - Note Off ( 7)
 1387.     5.    28080.  92 3A 60                - Note On  ( 8)
 1388.     0.    28080.  92 42 3F                - Note On  ( 9)
 1389.     1.    28081.  80 29                   - Note Off ( 8)
 1390.     0.    28081.  90 2A 7F                - Note On  ( 9)
 1391.     1.    28082.  91 30 5A                - Note On  (10)
 1392.     7.    28089.  82 38                   - Note Off ( 9)
 1393.    68.    28157.  82 42                   - Note Off ( 8)
 1394.    38.    28195.  9D 26 32                - Note On  ( 9)
 1395.     0.    28195.  9D 2D 36                - Note On  (10)
 1396.    38.    28233.  8D 2D                   - Note Off ( 9)
 1397.    39.    28272.  8D 26                   - Note Off ( 8)
 1398.    19.    28291.  82 3A                   - Note Off ( 7)
 1399.    21.    28312.  80 2A                   - Note Off ( 6)
 1400.     0.    28312.  90 2B 7F                - Note On  ( 7)
 1401.     8.    28320.  92 36 66                - Note On  ( 8)
 1402.     0.    28320.  92 42 45                - Note On  ( 9)
 1403.     2.    28322.  9D 3C 76                - Note On  (10)
 1404.     0.    28322.  9D 32 41                - Note On  (11)
 1405.     0.    28322.  9D 38 7A                - Note On  (12)
 1406.    78.    28400.  82 42                   - Note Off (11)
 1407.    35.    28435.  9D 2D 36                - Note On  (12)
 1408.     5.    28440.  92 38 4E                - Note On  (13)
 1409.    13.    28453.  80 2B                   - Note Off (12)
 1410.     0.    28453.  90 2C 7F                - Note On  (13)
 1411.    29.    28482.  82 36                   - Note Off (12)
 1412.     5.    28487.  8D 2D                   - Note Off (11)
 1413.    60.    28547.  8D 38                   - Note Off (10)
 1414.     7.    28554.  8D 3C                   - Note Off ( 9)
 1415.     6.    28560.  92 3A 62                - Note On  (10)
 1416.     0.    28560.  92 42 4E                - Note On  (11)
 1417.     2.    28562.  81 30                   - Note Off (10)
 1418.     3.    28565.  80 2C                   - Note Off ( 9)
 1419.     0.    28565.  90 2D 7F                - Note On  (10)
 1420.     0.    28565.  91 30 69                - Note On  (11)
 1421.     0.    28565.  9D 39 5C                - Note On  (12)
 1422.     4.    28569.  82 38                   - Note Off (11)
 1423.    50.    28619.  8D 32                   - Note Off (10)
 1424.    13.    28632.  82 42                   - Note Off ( 9)
 1425.    10.    28642.  8D 39                   - Note Off ( 8)
 1426.    28.    28670.  9D 2D 42                - Note On  ( 9)
 1427.    49.    28719.  8D 2D                   - Note Off ( 8)
 1428.    52.    28771.  82 3A                   - Note Off ( 7)
 1429.    29.    28800.  80 2D                   - Note Off ( 6)
 1430.     0.    28800.  81 30                   - Note Off ( 5)
 1431.     0.    28800.  90 24 7F                - Note On  ( 6)
 1432.     0.    28800.  92 36 60                - Note On  ( 7)
 1433.     0.    28800.  92 42 4C                - Note On  ( 8)
 1434.     7.    28807.  91 26 72                - Note On  ( 9)
 1435.     0.    28807.  9D 32 6B                - Note On  (10)
 1436.     0.    28807.  9D 38 40                - Note On  (11)
 1437.     0.    28807.  9D 3C 7F                - Note On  (12)
 1438.    71.    28878.  82 42                   - Note Off (11)
 1439.    42.    28920.  92 38 52                - Note On  (12)
 1440.    27.    28947.  82 36                   - Note Off (11)
 1441.    78.    29025.  8D 38                   - Note Off (10)
 1442.    12.    29037.  91 30 69                - Note On  (11)
 1443.     3.    29040.  92 3A 60                - Note On  (12)
 1444.     0.    29040.  92 42 45                - Note On  (13)
 1445.     3.    29043.  80 24                   - Note Off (12)
 1446.     0.    29043.  90 25 7F                - Note On  (13)
 1447.     2.    29045.  9D 39 43                - Note On  (14)
 1448.     1.    29046.  81 26                   - Note Off (13)
 1449.     2.    29048.  82 38                   - Note Off (12)
 1450.    70.    29118.  82 42                   - Note Off (11)
 1451.    33.    29151.  8D 32                   - Note Off (10)
 1452.     1.    29152.  8D 3C                   - Note Off ( 9)
 1453.     3.    29155.  9D 2D 5A                - Note On  (10)
 1454.     3.    29158.  8D 39                   - Note Off ( 9)
 1455.    62.    29220.  8D 2D                   - Note Off ( 8)
 1456.    20.    29240.  82 3A                   - Note Off ( 7)
 1457.    38.    29278.  9D 32 4D                - Note On  ( 8)
 1458.     0.    29278.  9D 39 55                - Note On  ( 9)
 1459.     0.    29278.  9D 3C 57                - Note On  (10)
 1460.     1.    29279.  80 25                   - Note Off ( 9)
 1461.     0.    29279.  90 26 7F                - Note On  (10)
 1462.     1.    29280.  92 36 66                - Note On  (11)
 1463.     0.    29280.  92 42 45                - Note On  (12)
 1464.    10.    29290.  91 31 50                - Note On  (13)
 1465.    18.    29308.  81 30                   - Note Off (12)
 1466.    51.    29359.  8D 39                   - Note Off (11)
 1467.     6.    29365.  82 42                   - Note Off (10)
 1468.    17.    29382.  8D 32                   - Note Off ( 9)
 1469.    13.    29395.  9D 26 2D                - Note On  (10)
 1470.     0.    29395.  9D 2D 2D                - Note On  (11)
 1471.     5.    29400.  8D 3C                   - Note Off (10)
 1472.     0.    29400.  92 38 4A                - Note On  (11)
 1473.    14.    29414.  80 26                   - Note Off (10)
 1474.     0.    29414.  90 27 7F                - Note On  (11)
 1475.     6.    29420.  82 36                   - Note Off (10)
 1476.     8.    29428.  8D 2D                   - Note Off ( 9)
 1477.    30.    29458.  8D 26                   - Note Off ( 8)
 1478.    62.    29520.  92 3A 62                - Note On  ( 9)
 1479.     0.    29520.  92 42 45                - Note On  (10)
 1480.     2.    29522.  91 32 54                - Note On  (11)
 1481.     0.    29522.  9D 47 5F                - Note On  (12)
 1482.     0.    29522.  9D 42 74                - Note On  (13)
 1483.     3.    29525.  82 38                   - Note Off (12)
 1484.     1.    29526.  80 27                   - Note Off (11)
 1485.     0.    29526.  90 28 7F                - Note On  (12)
 1486.    19.    29545.  81 31                   - Note Off (11)
 1487.    61.    29606.  82 42                   - Note Off (10)
 1488.    29.    29635.  9D 43 42                - Note On  (11)
 1489.     0.    29635.  9D 48 58                - Note On  (12)
 1490.    12.    29647.  83 39                   - Note Off (11)
 1491.     3.    29650.  83 3C                   - Note Off (10)
 1492.     6.    29656.  81 32                   - Note Off ( 9)
 1493.    14.    29670.  91 32 69                - Note On  (10)
 1494.     9.    29679.  8D 42                   - Note Off ( 9)
 1495.    11.    29690.  83 41                   - Note Off ( 8)
 1496.    10.    29700.  8D 47                   - Note Off ( 7)
 1497.    16.    29716.  82 3A                   - Note Off ( 6)
 1498.     3.    29719.  83 2D                   - Note Off ( 5)
 1499.     0.    29719.  8D 48                   - Note Off ( 4)
 1500.     5.    29724.  83 26                   - Note Off ( 3)
 1501.    13.    29737.  8D 43                   - Note Off ( 2)
 1502.     0.    29737.  93 30 63                - Note On  ( 3)
 1503.     0.    29737.  B3 40 00                - Damper Pedal
 1504.    23.    29760.  92 42 50                - Note On  ( 4)
 1505.     0.    29760.  92 36 66                - Note On  ( 5)
 1506.     2.    29762.  93 37 52                - Note On  ( 6)
 1507.     1.    29763.  80 28                   - Note Off ( 5)
 1508.     0.    29763.  90 29 7F                - Note On  ( 6)
 1509.     6.    29769.  93 3B 52                - Note On  ( 7)
 1510.    16.    29785.  93 40 50                - Note On  ( 8)
 1511.    54.    29839.  81 32                   - Note Off ( 7)
 1512.     8.    29847.  82 42                   - Note Off ( 6)
 1513.    33.    29880.  92 38 52                - Note On  ( 7)
 1514.     0.    29880.  9D 48 3F                - Note On  ( 8)
 1515.     0.    29880.  9D 43 72                - Note On  ( 9)
 1516.     0.    29880.  9D 4C 66                - Note On  (10)
 1517.    27.    29907.  91 35 57                - Note On  (11)
 1518.    30.    29937.  8D 4C                   - Note Off (10)
 1519.     8.    29945.  82 36                   - Note Off ( 9)
 1520.    25.    29970.  8D 43                   - Note Off ( 8)
 1521.    24.    29994.  8D 48                   - Note Off ( 7)
 1522.     6.    30000.  92 3A 58                - Note On  ( 8)
 1523.     0.    30000.  92 42 45                - Note On  ( 9)
 1524.     1.    30001.  80 29                   - Note Off ( 8)
 1525.     0.    30001.  90 2A 7F                - Note On  ( 9)
 1526.     4.    30005.  9D 43 70                - Note On  (10)
 1527.     0.    30005.  9D 3C 70                - Note On  (11)
 1528.     2.    30007.  91 37 50                - Note On  (12)
 1529.    21.    30028.  82 38                   - Note Off (11)
 1530.     1.    30029.  B3 40 7F                - Damper Pedal
 1531.     8.    30037.  81 35                   - Note Off (10)
 1532.    28.    30065.  8D 43                   - Note Off ( 9)
 1533.     0.    30065.  8D 3C                   - Note Off ( 8)
 1534.    13.    30078.  82 42                   - Note Off ( 7)
 1535.    23.    30101.  9D 3C 5A                - Note On  ( 8)
 1536.     0.    30101.  9D 43 60                - Note On  ( 9)
 1537.     9.    30110.  9D 30 34                - Note On  (10)
 1538.     4.    30114.  9D 48 4C                - Note On  (11)
 1539.    34.    30148.  8D 48                   - Note Off (10)
 1540.     2.    30150.  8D 43                   - Note Off ( 9)
 1541.     8.    30158.  8D 3C                   - Note Off ( 8)
 1542.    12.    30170.  8D 30                   - Note Off ( 7)
 1543.    56.    30226.  82 3A                   - Note Off ( 6)
 1544.     6.    30232.  80 2A                   - Note Off ( 5)
 1545.     0.    30232.  90 2B 7F                - Note On  ( 6)
 1546.     8.    30240.  92 36 66                - Note On  ( 7)
 1547.     0.    30240.  92 42 50                - Note On  ( 8)
 1548.     7.    30247.  91 38 5A                - Note On  ( 9)
 1549.     4.    30251.  9D 30 3A                - Note On  (10)
 1550.     1.    30252.  9D 3C 69                - Note On  (11)
 1551.     1.    30253.  9D 4A 6C                - Note On  (12)
 1552.     3.    30256.  9D 43 69                - Note On  (13)
 1553.    17.    30273.  81 37                   - Note Off (12)
 1554.     0.    30273.  8D 30                   - Note Off (11)
 1555.    44.    30317.  82 42                   - Note Off (10)
 1556.    43.    30360.  92 38 52                - Note On  (11)
 1557.    13.    30373.  80 2B                   - Note Off (10)
 1558.     0.    30373.  90 2C 7F                - Note On  (11)
 1559.    36.    30409.  82 36                   - Note Off (10)
 1560.    71.    30480.  92 3A 62                - Note On  (11)
 1561.     0.    30480.  92 42 4E                - Note On  (12)
 1562.     5.    30485.  80 2C                   - Note Off (11)
 1563.     0.    30485.  90 2D 7F                - Note On  (12)
 1564.     0.    30485.  91 39 5D                - Note On  (13)
 1565.     2.    30487.  81 38                   - Note Off (12)
 1566.     2.    30489.  82 38                   - Note Off (11)
 1567.    67.    30556.  82 42                   - Note Off (10)
 1568.    25.    30581.  9D 3C 47                - Note On  (11)
 1569.     0.    30581.  9D 43 4A                - Note On  (12)
 1570.     4.    30585.  8D 3C                   - Note Off (11)
 1571.     4.    30589.  8D 43                   - Note Off (10)
 1572.     1.    30590.  9D 30 28                - Note On  (11)
 1573.     4.    30594.  9D 48 3B                - Note On  (12)
 1574.    16.    30610.  8D 4A                   - Note Off (11)
 1575.    18.    30628.  8D 48                   - Note Off (10)
 1576.     2.    30630.  8D 43                   - Note Off ( 9)
 1577.     8.    30638.  8D 3C                   - Note Off ( 8)
 1578.    12.    30650.  8D 30                   - Note Off ( 7)
 1579.    15.    30665.  82 3A                   - Note Off ( 6)
 1580.    53.    30718.  81 39                   - Note Off ( 5)
 1581.     0.    30718.  80 2D                   - Note Off ( 4)
 1582.     0.    30718.  83 30                   - Note Off ( 3)
 1583.     0.    30718.  83 40                   - Note Off ( 2)
 1584.     0.    30718.  83 3B                   - Note Off ( 1)
 1585.     0.    30718.  83 37                   - Note Off ( 0)
 1586.     0.    30718.  FF 2F 00                - End of Track
**** SQ Midi End. ****

**** SQ Midi no = 1. ****
No. delta time. tick count. message
------------------------------------------------
    1.     0.        0.  FF 51 03 07 A1 20       - Set Tempo
    2.     0.        0.  C0 00                  
    3.     0.        0.  C4 04                  
    4.     0.        0.  C3 03                  
    5.     0.        0.  C2 02                  
    6.     0.        0.  C1 01                  
    7.     0.        0.  CD 0D                  
    8.     0.        0.  CA 0A                  
    9.     0.        0.  C9 09                  
   10.     0.        0.  C8 08                  
   11.     0.        0.  C7 07                  
   12.     0.        0.  C6 06                  
   13.     0.        0.  C5 05                  
   14.     1.        1.  B5 07 64                - Channel Volume
   15.     0.        1.  B6 07 6E                - Channel Volume
   16.     0.        1.  B7 07 78                - Channel Volume
   17.     0.        1.  B8 07 43                - Channel Volume
   18.     0.        1.  B9 07 44                - Channel Volume
   19.     0.        1.  BA 07 46                - Channel Volume
   20.     0.        1.  BD 07 4F                - Channel Volume
   21.     0.        1.  B1 07 5B                - Channel Volume
   22.     0.        1.  B2 07 7F                - Channel Volume
   23.     0.        1.  B3 07 6E                - Channel Volume
   24.     0.        1.  B4 07 7A                - Channel Volume
   25.     0.        1.  B0 07 7F                - Channel Volume
   26.     1.        2.  B0 0A 40                - Pan
   27.     0.        2.  B4 0A 40                - Pan
   28.     0.        2.  B3 0A 40                - Pan
   29.     0.        2.  B2 0A 40                - Pan
   30.     0.        2.  B1 0A 40                - Pan
   31.     0.        2.  BD 0A 5E                - Pan
   32.     0.        2.  BA 0A 40                - Pan
   33.     0.        2.  B9 0A 40                - Pan
   34.     0.        2.  B8 0A 40                - Pan
   35.     0.        2.  B7 0A 22                - Pan
   36.     0.        2.  B6 0A 40                - Pan
   37.     0.        2.  B5 0A 40                - Pan
   38.     1.        3.  98 4A 57                - Note On  ( 1)
   39.     0.        3.  98 4F 5A                - Note On  ( 2)
   40.     0.        3.  98 43 4E                - Note On  ( 3)
   41.     0.        3.  90 24 7F                - Note On  ( 4)
   42.     0.        3.  91 26 75                - Note On  ( 5)
   43.     0.        3.  92 42 54                - Note On  ( 6)
   44.     0.        3.  92 36 69                - Note On  ( 7)
   45.     0.        3.  92 3D 69                - Note On  ( 8)
   46.     0.        3.  94 3E 66                - Note On  ( 9)
   47.     8.       11.  9D 30 2D                - Note On  (10)
   48.     1.       12.  9D 3C 52                - Note On  (11)
   49.     1.       13.  9D 4A 54                - Note On  (12)
   50.     3.       16.  9D 43 52                - Note On  (13)
   51.    17.       33.  8D 30                   - Note Off (12)
   52.    31.       64.  82 42                   - Note Off (11)
   53.    56.      120.  92 38 4C                - Note On  (12)
   54.     0.      120.  92 42 3C                - Note On  (13)
   55.    22.      142.  82 3D                   - Note Off (12)
   56.     0.      142.  82 36                   - Note Off (11)
   57.    43.      185.  82 42                   - Note Off (10)
   58.    45.      230.  91 30 66                - Note On  (11)
   59.     3.      233.  81 26                   - Note Off (10)
   60.     7.      240.  92 3A 60                - Note On  (11)
   61.     0.      240.  92 42 43                - Note On  (12)
   62.     3.      243.  90 25 7F                - Note On  (13)
   63.     3.      246.  80 24                   - Note Off (12)
   64.    12.      258.  82 38                   - Note Off (11)
   65.    56.      314.  82 42                   - Note Off (10)
   66.    27.      341.  9D 3C 3D                - Note On  (11)
   67.     0.      341.  9D 43 40                - Note On  (12)
   68.     4.      345.  8D 3C                   - Note Off (11)
   69.     4.      349.  8D 43                   - Note Off (10)
   70.     1.      350.  9D 30 23                - Note On  (11)
   71.     4.      354.  9D 48 33                - Note On  (12)
   72.     6.      360.  92 42 47                - Note On  (13)
   73.    10.      370.  8D 4A                   - Note Off (12)
   74.    18.      388.  8D 48                   - Note Off (11)
   75.     2.      390.  8D 43                   - Note Off (10)
   76.     8.      398.  8D 3C                   - Note Off ( 9)
   77.    12.      410.  8D 30                   - Note Off ( 8)
   78.    25.      435.  82 3A                   - Note Off ( 7)
   79.     0.      435.  82 42                   - Note Off ( 6)
   80.    44.      479.  80 25                   - Note Off ( 5)
   81.     0.      479.  90 26 7F                - Note On  ( 6)
   82.     1.      480.  92 36 66                - Note On  ( 7)
   83.     0.      480.  92 42 6C                - Note On  ( 8)
   84.     2.      482.  91 31 52                - Note On  ( 9)
   85.     9.      491.  9D 30 26                - Note On  (10)
   86.     1.      492.  9D 3C 47                - Note On  (11)
   87.     1.      493.  9D 4A 49                - Note On  (12)
   88.     3.      496.  9D 43 47                - Note On  (13)
   89.     2.      498.  81 30                   - Note Off (12)
   90.    15.      513.  8D 30                   - Note Off (11)
   91.    43.      556.  82 42                   - Note Off (10)
   92.    44.      600.  92 38 4C                - Note On  (11)
   93.     0.      600.  92 42 42                - Note On  (12)
   94.    14.      614.  80 26                   - Note Off (11)
   95.     0.      614.  90 27 7F                - Note On  (12)
   96.    11.      625.  82 36                   - Note Off (11)
   97.    38.      663.  82 42                   - Note Off (10)
   98.    50.      713.  82 38                   - Note Off ( 9)
   99.     2.      715.  91 32 5A                - Note On  (10)
  100.     5.      720.  92 3A 68                - Note On  (11)
  101.     0.      720.  92 42 41                - Note On  (12)
  102.     6.      726.  80 27                   - Note Off (11)
  103.     0.      726.  90 28 7F                - Note On  (12)
  104.    19.      745.  81 31                   - Note Off (11)
  105.    40.      785.  82 42                   - Note Off (10)
  106.    36.      821.  9D 3C 2D                - Note On  (11)
  107.     0.      821.  9D 43 30                - Note On  (12)
  108.     4.      825.  8D 3C                   - Note Off (11)
  109.     4.      829.  8D 43                   - Note Off (10)
  110.     1.      830.  9D 30 1A                - Note On  (11)
  111.     4.      834.  9D 48 25                - Note On  (12)
  112.     6.      840.  92 42 55                - Note On  (13)
  113.    10.      850.  8D 4A                   - Note Off (12)
  114.    12.      862.  91 26 69                - Note On  (13)
  115.     6.      868.  8D 48                   - Note Off (12)
  116.     2.      870.  8D 43                   - Note Off (11)
  117.     8.      878.  8D 3C                   - Note Off (10)
  118.     5.      883.  81 32                   - Note Off ( 9)
  119.     7.      890.  8D 30                   - Note Off ( 8)
  120.    23.      913.  82 42                   - Note Off ( 7)
  121.    20.      933.  82 3A                   - Note Off ( 6)
  122.     9.      942.  81 26                   - Note Off ( 5)
  123.    18.      960.  92 36 66                - Note On  ( 6)
  124.     0.      960.  92 42 46                - Note On  ( 7)
  125.     3.      963.  80 28                   - Note Off ( 6)
  126.     0.      963.  90 29 7F                - Note On  ( 7)
  127.     8.      971.  9D 30 1C                - Note On  ( 8)
  128.     1.      972.  9D 3C 36                - Note On  ( 9)
  129.     1.      973.  9D 4A 36                - Note On  (10)
  130.     3.      976.  9D 43 36                - Note On  (11)
  131.    17.      993.  8D 30                   - Note Off (10)
  132.    29.     1022.  82 42                   - Note Off ( 9)
  133.    58.     1080.  92 38 4C                - Note On  (10)
  134.     0.     1080.  92 42 3F                - Note On  (11)
  135.    22.     1102.  91 32 69                - Note On  (12)
  136.    13.     1115.  82 36                   - Note Off (11)
  137.    74.     1189.  82 38                   - Note Off (10)
  138.     9.     1198.  81 32                   - Note Off ( 9)
  139.     2.     1200.  92 3A 58                - Note On  (10)
  140.     1.     1201.  80 29                   - Note Off ( 9)
  141.     0.     1201.  90 2A 7F                - Note On  (10)
  142.     1.     1202.  91 30 63                - Note On  (11)
  143.    10.     1212.  82 42                   - Note Off (10)
  144.    89.     1301.  9D 3C 39                - Note On  (11)
  145.     0.     1301.  9D 43 39                - Note On  (12)
  146.     4.     1305.  8D 3C                   - Note Off (11)
  147.     4.     1309.  8D 43                   - Note Off (10)
  148.     1.     1310.  9D 30 36                - Note On  (11)
  149.     4.     1314.  9D 48 38                - Note On  (12)
  150.     6.     1320.  92 42 48                - Note On  (13)
  151.    10.     1330.  8D 4A                   - Note Off (12)
  152.    18.     1348.  8D 48                   - Note Off (11)
  153.     2.     1350.  8D 43                   - Note Off (10)
  154.     8.     1358.  8D 3C                   - Note Off ( 9)
  155.    12.     1370.  8D 30                   - Note Off ( 8)
  156.    27.     1397.  82 42                   - Note Off ( 7)
  157.    26.     1423.  82 3A                   - Note Off ( 6)
  158.     9.     1432.  80 2A                   - Note Off ( 5)
  159.     0.     1432.  90 2B 7F                - Note On  ( 6)
  160.     8.     1440.  92 36 69                - Note On  ( 7)
  161.     0.     1440.  92 42 6C                - Note On  ( 8)
  162.    11.     1451.  9D 30 36                - Note On  ( 9)
  163.     1.     1452.  9D 3C 39                - Note On  (10)
  164.     1.     1453.  9D 4A 39                - Note On  (11)
  165.     3.     1456.  9D 43 39                - Note On  (12)
  166.    17.     1473.  8D 30                   - Note Off (11)
  167.    35.     1508.  82 42                   - Note Off (10)
  168.    52.     1560.  92 38 4C                - Note On  (11)
  169.     0.     1560.  92 42 3F                - Note On  (12)
  170.    13.     1573.  80 2B                   - Note Off (11)
  171.     0.     1573.  90 2C 7F                - Note On  (12)
  172.    35.     1608.  82 36                   - Note Off (11)
  173.    11.     1619.  82 42                   - Note Off (10)
  174.    61.     1680.  92 3A 64                - Note On  (11)
  175.     0.     1680.  92 42 28                - Note On  (12)
  176.     4.     1684.  82 38                   - Note Off (11)
  177.     1.     1685.  80 2C                   - Note Off (10)
  178.     0.     1685.  90 2D 7F                - Note On  (11)
  179.    70.     1755.  82 42                   - Note Off (10)
  180.    26.     1781.  9D 3C 2D                - Note On  (11)
  181.     0.     1781.  9D 43 2D                - Note On  (12)
  182.     4.     1785.  8D 3C                   - Note Off (11)
  183.     4.     1789.  8D 43                   - Note Off (10)
  184.     1.     1790.  9D 30 2A                - Note On  (11)
  185.     4.     1794.  9D 48 2D                - Note On  (12)
  186.     6.     1800.  92 42 4C                - Note On  (13)
  187.    10.     1810.  8D 4A                   - Note Off (12)
  188.    18.     1828.  8D 48                   - Note Off (11)
  189.     2.     1830.  8D 43                   - Note Off (10)
  190.     8.     1838.  8D 3C                   - Note Off ( 9)
  191.    12.     1850.  8D 30                   - Note Off ( 8)
  192.    14.     1864.  82 42                   - Note Off ( 7)
  193.    25.     1889.  82 3A                   - Note Off ( 6)
  194.    31.     1920.  80 2D                   - Note Off ( 5)
  195.     0.     1920.  90 24 7F                - Note On  ( 6)
  196.     0.     1920.  92 36 66                - Note On  ( 7)
  197.     0.     1920.  92 42 54                - Note On  ( 8)
  198.     7.     1927.  91 26 75                - Note On  ( 9)
  199.     4.     1931.  9D 30 2A                - Note On  (10)
  200.     1.     1932.  9D 3C 2D                - Note On  (11)
  201.     1.     1933.  9D 4A 2D                - Note On  (12)
  202.     3.     1936.  9D 43 2D                - Note On  (13)
  203.    12.     1948.  81 30                   - Note Off (12)
  204.     5.     1953.  8D 30                   - Note Off (11)
  205.    28.     1981.  82 42                   - Note Off (10)
  206.    59.     2040.  92 38 50                - Note On  (11)
  207.     0.     2040.  92 42 3C                - Note On  (12)
  208.    28.     2068.  82 36                   - Note Off (11)
  209.    37.     2105.  82 42                   - Note Off (10)
  210.    50.     2155.  81 26                   - Note Off ( 9)
  211.     2.     2157.  91 30 54                - Note On  (10)
  212.     1.     2158.  82 38                   - Note Off ( 9)
  213.     2.     2160.  92 3A 64                - Note On  (10)
  214.     0.     2160.  92 42 43                - Note On  (11)
  215.     3.     2163.  80 24                   - Note Off (10)
  216.     0.     2163.  90 25 7F                - Note On  (11)
  217.    71.     2234.  82 42                   - Note Off (10)
  218.    31.     2265.  8D 3C                   - Note Off ( 9)
  219.     4.     2269.  8D 43                   - Note Off ( 8)
  220.    11.     2280.  92 42 47                - Note On  ( 9)
  221.    10.     2290.  8D 4A                   - Note Off ( 8)
  222.    65.     2355.  82 42                   - Note Off ( 7)
  223.     1.     2356.  82 3A                   - Note Off ( 6)
  224.    43.     2399.  80 25                   - Note Off ( 5)
  225.     0.     2399.  90 26 7F                - Note On  ( 6)
  226.     1.     2400.  92 36 69                - Note On  ( 7)
  227.     0.     2400.  92 42 6C                - Note On  ( 8)
  228.    10.     2410.  91 31 4E                - Note On  ( 9)
  229.    66.     2476.  82 42                   - Note Off ( 8)
  230.     8.     2484.  81 30                   - Note Off ( 7)
  231.    36.     2520.  92 38 50                - Note On  ( 8)
  232.     0.     2520.  92 42 42                - Note On  ( 9)
  233.    14.     2534.  80 26                   - Note Off ( 8)
  234.     0.     2534.  90 27 7F                - Note On  ( 9)
  235.     8.     2542.  82 36                   - Note Off ( 8)
  236.    41.     2583.  82 42                   - Note Off ( 7)
  237.    45.     2628.  82 38                   - Note Off ( 6)
  238.    12.     2640.  92 3A 64                - Note On  ( 7)
  239.     0.     2640.  92 42 41                - Note On  ( 8)
  240.     2.     2642.  91 32 57                - Note On  ( 9)
  241.     4.     2646.  80 27                   - Note Off ( 8)
  242.     0.     2646.  90 28 7F                - Note On  ( 9)
  243.    14.     2660.  81 31                   - Note Off ( 8)
  244.    45.     2705.  82 42                   - Note Off ( 7)
  245.    55.     2760.  92 42 55                - Note On  ( 8)
  246.    30.     2790.  91 2D 63                - Note On  ( 9)
  247.    18.     2808.  81 32                   - Note Off ( 8)
  248.    25.     2833.  82 42                   - Note Off ( 7)
  249.    20.     2853.  82 3A                   - Note Off ( 6)
  250.    10.     2863.  81 2D                   - Note Off ( 5)
  251.    17.     2880.  92 36 69                - Note On  ( 6)
  252.     0.     2880.  92 42 46                - Note On  ( 7)
  253.     0.     2880.  94 37 4E                - Note On  ( 8)
  254.     3.     2883.  80 28                   - Note Off ( 7)
  255.     0.     2883.  90 29 7F                - Note On  ( 8)
  256.    45.     2928.  84 3E                   - Note Off ( 7)
  257.    14.     2942.  82 42                   - Note Off ( 6)
  258.    58.     3000.  92 38 50                - Note On  ( 7)
  259.     0.     3000.  92 42 3F                - Note On  ( 8)
  260.    26.     3026.  82 36                   - Note Off ( 7)
  261.     1.     3027.  91 2D 54                - Note On  ( 8)
  262.    87.     3114.  81 2D                   - Note Off ( 7)
  263.     6.     3120.  92 3A 64                - Note On  ( 8)
  264.     1.     3121.  80 29                   - Note Off ( 7)
  265.     0.     3121.  90 2A 7F                - Note On  ( 8)
  266.     5.     3126.  82 38                   - Note Off ( 7)
  267.     1.     3127.  91 2B 57                - Note On  ( 8)
  268.     5.     3132.  82 42                   - Note Off ( 7)
  269.   108.     3240.  92 42 48                - Note On  ( 8)
  270.    77.     3317.  82 42                   - Note Off ( 7)
  271.     8.     3325.  82 3A                   - Note Off ( 6)
  272.    27.     3352.  80 2A                   - Note Off ( 5)
  273.     0.     3352.  90 2B 7F                - Note On  ( 6)
  274.     8.     3360.  92 36 69                - Note On  ( 7)
  275.     0.     3360.  92 42 6C                - Note On  ( 8)
  276.    68.     3428.  82 42                   - Note Off ( 7)
  277.    52.     3480.  92 38 4E                - Note On  ( 8)
  278.     0.     3480.  92 42 3F                - Note On  ( 9)
  279.    13.     3493.  80 2B                   - Note Off ( 8)
  280.     0.     3493.  90 2C 7F                - Note On  ( 9)
  281.    22.     3515.  82 36                   - Note Off ( 8)
  282.    24.     3539.  82 42                   - Note Off ( 7)
  283.    51.     3590.  82 38                   - Note Off ( 6)
  284.    10.     3600.  92 3A 68                - Note On  ( 7)
  285.     0.     3600.  92 42 28                - Note On  ( 8)
  286.     5.     3605.  80 2C                   - Note Off ( 7)
  287.     0.     3605.  90 2D 7F                - Note On  ( 8)
  288.    70.     3675.  82 42                   - Note Off ( 7)
  289.    45.     3720.  92 42 4C                - Note On  ( 8)
  290.    64.     3784.  82 42                   - Note Off ( 7)
  291.    40.     3824.  82 3A                   - Note Off ( 6)
  292.    16.     3840.  80 2D                   - Note Off ( 5)
  293.     0.     3840.  90 24 7F                - Note On  ( 6)
  294.     0.     3840.  92 36 66                - Note On  ( 7)
  295.     0.     3840.  92 42 54                - Note On  ( 8)
  296.     0.     3840.  91 26 72                - Note On  ( 9)
  297.     0.     3840.  94 3E 60                - Note On  (10)
  298.     3.     3843.  84 37                   - Note Off ( 9)
  299.    38.     3881.  81 2B                   - Note Off ( 8)
  300.    20.     3901.  82 42                   - Note Off ( 7)
  301.    59.     3960.  92 38 50                - Note On  ( 8)
  302.     0.     3960.  92 42 3C                - Note On  ( 9)
  303.    40.     4000.  82 36                   - Note Off ( 8)
  304.    25.     4025.  82 42                   - Note Off ( 7)
  305.    45.     4070.  91 30 60                - Note On  ( 8)
  306.     5.     4075.  82 38                   - Note Off ( 7)
  307.     5.     4080.  92 3A 62                - Note On  ( 8)
  308.     0.     4080.  92 42 43                - Note On  ( 9)
  309.     3.     4083.  80 24                   - Note Off ( 8)
  310.     0.     4083.  90 25 7F                - Note On  ( 9)
  311.     2.     4085.  81 26                   - Note Off ( 8)
  312.    69.     4154.  82 42                   - Note Off ( 7)
  313.    46.     4200.  92 42 47                - Note On  ( 8)
  314.    75.     4275.  82 42                   - Note Off ( 7)
  315.    31.     4306.  82 3A                   - Note Off ( 6)
  316.    13.     4319.  80 25                   - Note Off ( 5)
  317.     0.     4319.  90 26 7F                - Note On  ( 6)
  318.     1.     4320.  92 36 66                - Note On  ( 7)
  319.     0.     4320.  92 42 6C                - Note On  ( 8)
  320.     2.     4322.  91 31 4A                - Note On  ( 9)
  321.    28.     4350.  81 30                   - Note Off ( 8)
  322.    46.     4396.  82 42                   - Note Off ( 7)
  323.    44.     4440.  92 38 4C                - Note On  ( 8)
  324.     0.     4440.  92 42 42                - Note On  ( 9)
  325.    14.     4454.  80 26                   - Note Off ( 8)
  326.     0.     4454.  90 27 7F                - Note On  ( 9)
  327.    20.     4474.  82 36                   - Note Off ( 8)
  328.    29.     4503.  82 42                   - Note Off ( 7)
  329.    52.     4555.  91 32 50                - Note On  ( 8)
  330.     4.     4559.  81 31                   - Note Off ( 7)
  331.     1.     4560.  92 3A 5B                - Note On  ( 8)
  332.     0.     4560.  92 42 41                - Note On  ( 9)
  333.     6.     4566.  80 27                   - Note Off ( 8)
  334.     0.     4566.  90 28 7F                - Note On  ( 9)
  335.     1.     4567.  82 38                   - Note Off ( 8)
  336.    58.     4625.  82 42                   - Note Off ( 7)
  337.    55.     4680.  92 42 55                - Note On  ( 8)
  338.    25.     4705.  91 26 66                - Note On  ( 9)
  339.    21.     4726.  81 32                   - Note Off ( 8)
  340.    27.     4753.  82 42                   - Note Off ( 7)
  341.    21.     4774.  81 26                   - Note Off ( 6)
  342.    16.     4790.  82 3A                   - Note Off ( 5)
  343.    10.     4800.  92 36 66                - Note On  ( 6)
  344.     0.     4800.  92 42 46                - Note On  ( 7)
  345.     3.     4803.  80 28                   - Note Off ( 6)
  346.     0.     4803.  90 29 7F                - Note On  ( 7)
  347.    59.     4862.  82 42                   - Note Off ( 6)
  348.    58.     4920.  92 38 4A                - Note On  ( 7)
  349.     0.     4920.  92 42 3F                - Note On  ( 8)
  350.    27.     4947.  91 32 60                - Note On  ( 9)
  351.    26.     4973.  82 36                   - Note Off ( 8)
  352.    62.     5035.  81 32                   - Note Off ( 7)
  353.     5.     5040.  92 3A 60                - Note On  ( 8)
  354.     1.     5041.  80 29                   - Note Off ( 7)
  355.     0.     5041.  90 2A 7F                - Note On  ( 8)
  356.     1.     5042.  91 30 5A                - Note On  ( 9)
  357.     7.     5049.  82 38                   - Note Off ( 8)
  358.     3.     5052.  82 42                   - Note Off ( 7)
  359.   108.     5160.  92 42 48                - Note On  ( 8)
  360.    77.     5237.  82 42                   - Note Off ( 7)
  361.    14.     5251.  82 3A                   - Note Off ( 6)
  362.    21.     5272.  80 2A                   - Note Off ( 5)
  363.     0.     5272.  90 2B 7F                - Note On  ( 6)
  364.     8.     5280.  92 36 66                - Note On  ( 7)
  365.     0.     5280.  92 42 6C                - Note On  ( 8)
  366.    68.     5348.  82 42                   - Note Off ( 7)
  367.    52.     5400.  92 38 4E                - Note On  ( 8)
  368.     0.     5400.  92 42 3F                - Note On  ( 9)
  369.    13.     5413.  80 2B                   - Note Off ( 8)
  370.     0.     5413.  90 2C 7F                - Note On  ( 9)
  371.    29.     5442.  82 36                   - Note Off ( 8)
  372.    17.     5459.  82 42                   - Note Off ( 7)
  373.    61.     5520.  92 3A 62                - Note On  ( 8)
  374.     0.     5520.  92 42 28                - Note On  ( 9)
  375.     2.     5522.  81 30                   - Note Off ( 8)
  376.     3.     5525.  80 2C                   - Note Off ( 7)
  377.     0.     5525.  90 2D 7F                - Note On  ( 8)
  378.     0.     5525.  91 30 69                - Note On  ( 9)
  379.     4.     5529.  82 38                   - Note Off ( 8)
  380.    66.     5595.  82 42                   - Note Off ( 7)
  381.    45.     5640.  92 42 4C                - Note On  ( 8)
  382.    64.     5704.  82 42                   - Note Off ( 7)
  383.    27.     5731.  82 3A                   - Note Off ( 6)
  384.    29.     5760.  81 30                   - Note Off ( 5)
  385.     0.     5760.  80 2D                   - Note Off ( 4)
  386.     0.     5760.  90 24 7F                - Note On  ( 5)
  387.     0.     5760.  92 36 60                - Note On  ( 6)
  388.     0.     5760.  92 42 54                - Note On  ( 7)
  389.     7.     5767.  91 26 72                - Note On  ( 8)
  390.    54.     5821.  82 42                   - Note Off ( 7)
  391.    59.     5880.  92 38 52                - Note On  ( 8)
  392.     0.     5880.  92 42 3C                - Note On  ( 9)
  393.    27.     5907.  82 36                   - Note Off ( 8)
  394.    38.     5945.  82 42                   - Note Off ( 7)
  395.    45.     5990.  81 26                   - Note Off ( 6)
  396.     7.     5997.  91 30 60                - Note On  ( 7)
  397.     3.     6000.  92 3A 60                - Note On  ( 8)
  398.     0.     6000.  92 42 43                - Note On  ( 9)
  399.     3.     6003.  80 24                   - Note Off ( 8)
  400.     0.     6003.  90 25 7F                - Note On  ( 9)
  401.     5.     6008.  82 38                   - Note Off ( 8)
  402.    66.     6074.  82 42                   - Note Off ( 7)
  403.    46.     6120.  92 42 47                - Note On  ( 8)
  404.    75.     6195.  82 42                   - Note Off ( 7)
  405.     5.     6200.  82 3A                   - Note Off ( 6)
  406.    39.     6239.  80 25                   - Note Off ( 5)
  407.     0.     6239.  90 26 7F                - Note On  ( 6)
  408.     1.     6240.  92 36 66                - Note On  ( 7)
  409.     0.     6240.  92 42 6C                - Note On  ( 8)
  410.    10.     6250.  91 31 54                - Note On  ( 9)
  411.    66.     6316.  82 42                   - Note Off ( 8)
  412.    17.     6333.  81 30                   - Note Off ( 7)
  413.    27.     6360.  92 38 4A                - Note On  ( 8)
  414.     0.     6360.  92 42 42                - Note On  ( 9)
  415.    14.     6374.  80 26                   - Note Off ( 8)
  416.     0.     6374.  90 27 7F                - Note On  ( 9)
  417.     6.     6380.  82 36                   - Note Off ( 8)
  418.    43.     6423.  82 42                   - Note Off ( 7)
  419.    45.     6468.  81 31                   - Note Off ( 6)
  420.    12.     6480.  92 3A 62                - Note On  ( 7)
  421.     0.     6480.  92 42 41                - Note On  ( 8)
  422.     2.     6482.  91 32 52                - Note On  ( 9)
  423.     3.     6485.  82 38                   - Note Off ( 8)
  424.     1.     6486.  80 27                   - Note Off ( 7)
  425.     0.     6486.  90 28 7F                - Note On  ( 8)
  426.    59.     6545.  82 42                   - Note Off ( 7)
  427.    55.     6600.  92 42 55                - Note On  ( 8)
  428.    30.     6630.  91 26 66                - Note On  ( 9)
  429.    32.     6662.  81 32                   - Note Off ( 8)
  430.    11.     6673.  82 42                   - Note Off ( 7)
  431.     3.     6676.  82 3A                   - Note Off ( 6)
  432.    11.     6687.  81 26                   - Note Off ( 5)
  433.    33.     6720.  92 36 66                - Note On  ( 6)
  434.     0.     6720.  92 42 46                - Note On  ( 7)
  435.     0.     6720.  94 3C 5D                - Note On  ( 8)
  436.     3.     6723.  80 28                   - Note Off ( 7)
  437.     0.     6723.  90 29 7F                - Note On  ( 8)
  438.    19.     6742.  84 3E                   - Note Off ( 7)
  439.    40.     6782.  82 42                   - Note Off ( 6)
  440.    58.     6840.  92 38 52                - Note On  ( 7)
  441.     0.     6840.  92 42 3F                - Note On  ( 8)
  442.    27.     6867.  91 32 6C                - Note On  ( 9)
  443.    38.     6905.  82 36                   - Note Off ( 8)
  444.    52.     6957.  81 32                   - Note Off ( 7)
  445.     3.     6960.  92 3A 58                - Note On  ( 8)
  446.     1.     6961.  80 29                   - Note Off ( 7)
  447.     0.     6961.  90 2A 7F                - Note On  ( 8)
  448.     6.     6967.  91 30 60                - Note On  ( 9)
  449.     5.     6972.  82 42                   - Note Off ( 8)
  450.    16.     6988.  82 38                   - Note Off ( 7)
  451.    92.     7080.  92 42 48                - Note On  ( 8)
  452.    77.     7157.  82 42                   - Note Off ( 7)
  453.    29.     7186.  82 3A                   - Note Off ( 6)
  454.     6.     7192.  80 2A                   - Note Off ( 5)
  455.     0.     7192.  90 2B 7F                - Note On  ( 6)
  456.     8.     7200.  92 36 66                - Note On  ( 7)
  457.     0.     7200.  92 42 6C                - Note On  ( 8)
  458.     7.     7207.  91 2D 52                - Note On  ( 9)
  459.    21.     7228.  81 30                   - Note Off ( 8)
  460.    40.     7268.  82 42                   - Note Off ( 7)
  461.    52.     7320.  92 38 52                - Note On  ( 8)
  462.     0.     7320.  92 42 3F                - Note On  ( 9)
  463.    13.     7333.  80 2B                   - Note Off ( 8)
  464.     0.     7333.  90 2C 7F                - Note On  ( 9)
  465.    36.     7369.  82 36                   - Note Off ( 8)
  466.    10.     7379.  82 42                   - Note Off ( 7)
  467.    61.     7440.  92 3A 62                - Note On  ( 8)
  468.     0.     7440.  92 42 28                - Note On  ( 9)
  469.     5.     7445.  80 2C                   - Note Off ( 8)
  470.     0.     7445.  90 2D 7F                - Note On  ( 9)
  471.     0.     7445.  91 2B 60                - Note On  (10)
  472.     3.     7448.  81 2D                   - Note Off ( 9)
  473.     1.     7449.  82 38                   - Note Off ( 8)
  474.    66.     7515.  82 42                   - Note Off ( 7)
  475.    45.     7560.  92 42 4C                - Note On  ( 8)
  476.    64.     7624.  82 42                   - Note Off ( 7)
  477.     1.     7625.  82 3A                   - Note Off ( 6)
  478.    51.     7676.  84 3C                   - Note Off ( 5)
  479.     4.     7680.  80 2D                   - Note Off ( 4)
  480.     0.     7680.  90 24 7F                - Note On  ( 5)
  481.     0.     7680.  92 36 69                - Note On  ( 6)
  482.     0.     7680.  92 42 54                - Note On  ( 7)
  483.     0.     7680.  91 26 75                - Note On  ( 8)
  484.     0.     7680.  94 3E 63                - Note On  ( 9)
  485.    47.     7727.  81 2B                   - Note Off ( 8)
  486.    14.     7741.  82 42                   - Note Off ( 7)
  487.    59.     7800.  92 38 4C                - Note On  ( 8)
  488.     0.     7800.  92 42 3C                - Note On  ( 9)
  489.    19.     7819.  82 36                   - Note Off ( 8)
  490.    46.     7865.  82 42                   - Note Off ( 7)
  491.    45.     7910.  81 26                   - Note Off ( 6)
  492.     0.     7910.  91 30 66                - Note On  ( 7)
  493.    10.     7920.  92 3A 60                - Note On  ( 8)
  494.     0.     7920.  92 42 43                - Note On  ( 9)
  495.     3.     7923.  80 24                   - Note Off ( 8)
  496.     0.     7923.  90 25 7F                - Note On  ( 9)
  497.    15.     7938.  82 38                   - Note Off ( 8)
  498.    56.     7994.  82 42                   - Note Off ( 7)
  499.    46.     8040.  92 42 47                - Note On  ( 8)
  500.    75.     8115.  82 3A                   - Note Off ( 7)
  501.     0.     8115.  82 42                   - Note Off ( 6)
  502.    44.     8159.  80 25                   - Note Off ( 5)
  503.     0.     8159.  90 26 7F                - Note On  ( 6)
  504.     1.     8160.  92 36 66                - Note On  ( 7)
  505.     0.     8160.  92 42 6C                - Note On  ( 8)
  506.     2.     8162.  91 31 52                - Note On  ( 9)
  507.    16.     8178.  81 30                   - Note Off ( 8)
  508.    58.     8236.  82 42                   - Note Off ( 7)
  509.    44.     8280.  92 38 4C                - Note On  ( 8)
  510.     0.     8280.  92 42 42                - Note On  ( 9)
  511.    14.     8294.  80 26                   - Note Off ( 8)
  512.     0.     8294.  90 27 7F                - Note On  ( 9)
  513.    11.     8305.  82 36                   - Note Off ( 8)
  514.    38.     8343.  82 42                   - Note Off ( 7)
  515.    50.     8393.  82 38                   - Note Off ( 6)
  516.     2.     8395.  91 32 5A                - Note On  ( 7)
  517.     5.     8400.  92 3A 68                - Note On  ( 8)
  518.     0.     8400.  92 42 41                - Note On  ( 9)
  519.     6.     8406.  80 27                   - Note Off ( 8)
  520.     0.     8406.  90 28 7F                - Note On  ( 9)
  521.    19.     8425.  81 31                   - Note Off ( 8)
  522.    40.     8465.  82 42                   - Note Off ( 7)
  523.    55.     8520.  92 42 55                - Note On  ( 8)
  524.    22.     8542.  91 26 69                - Note On  ( 9)
  525.    21.     8563.  81 32                   - Note Off ( 8)
  526.    30.     8593.  82 42                   - Note Off ( 7)
  527.    20.     8613.  82 3A                   - Note Off ( 6)
  528.     9.     8622.  81 26                   - Note Off ( 5)
  529.    18.     8640.  92 36 66                - Note On  ( 6)
  530.     0.     8640.  92 42 46                - Note On  ( 7)
  531.     3.     8643.  80 28                   - Note Off ( 6)
  532.     0.     8643.  90 29 7F                - Note On  ( 7)
  533.    59.     8702.  82 42                   - Note Off ( 6)
  534.    58.     8760.  92 38 4C                - Note On  ( 7)
  535.     0.     8760.  92 42 3F                - Note On  ( 8)
  536.    22.     8782.  91 32 69                - Note On  ( 9)
  537.    13.     8795.  82 36                   - Note Off ( 8)
  538.    74.     8869.  82 38                   - Note Off ( 7)
  539.     9.     8878.  81 32                   - Note Off ( 6)
  540.     2.     8880.  92 3A 58                - Note On  ( 7)
  541.     1.     8881.  80 29                   - Note Off ( 6)
  542.     0.     8881.  90 2A 7F                - Note On  ( 7)
  543.     1.     8882.  91 30 63                - Note On  ( 8)
  544.    10.     8892.  82 42                   - Note Off ( 7)
  545.   108.     9000.  92 42 48                - Note On  ( 8)
  546.    77.     9077.  82 42                   - Note Off ( 7)
  547.    26.     9103.  82 3A                   - Note Off ( 6)
  548.     9.     9112.  80 2A                   - Note Off ( 5)
  549.     0.     9112.  90 2B 7F                - Note On  ( 6)
  550.     8.     9120.  92 36 69                - Note On  ( 7)
  551.     0.     9120.  92 42 6C                - Note On  ( 8)
  552.    68.     9188.  82 42                   - Note Off ( 7)
  553.    52.     9240.  92 38 4C                - Note On  ( 8)
  554.     0.     9240.  92 42 3F                - Note On  ( 9)
  555.    13.     9253.  80 2B                   - Note Off ( 8)
  556.     0.     9253.  90 2C 7F                - Note On  ( 9)
  557.    35.     9288.  82 36                   - Note Off ( 8)
  558.    11.     9299.  82 42                   - Note Off ( 7)
  559.    61.     9360.  92 3A 64                - Note On  ( 8)
  560.     0.     9360.  92 42 28                - Note On  ( 9)
  561.     4.     9364.  82 38                   - Note Off ( 8)
  562.     1.     9365.  80 2C                   - Note Off ( 7)
  563.     0.     9365.  90 2D 7F                - Note On  ( 8)
  564.    70.     9435.  82 42                   - Note Off ( 7)
  565.    45.     9480.  92 42 4C                - Note On  ( 8)
  566.    64.     9544.  82 42                   - Note Off ( 7)
  567.    25.     9569.  82 3A                   - Note Off ( 6)
  568.    31.     9600.  80 2D                   - Note Off ( 5)
  569.     0.     9600.  90 24 7F                - Note On  ( 6)
  570.     0.     9600.  92 36 66                - Note On  ( 7)
  571.     0.     9600.  92 42 54                - Note On  ( 8)
  572.     7.     9607.  91 26 75                - Note On  ( 9)
  573.    21.     9628.  81 30                   - Note Off ( 8)
  574.    33.     9661.  82 42                   - Note Off ( 7)
  575.    59.     9720.  92 38 50                - Note On  ( 8)
  576.     0.     9720.  92 42 3C                - Note On  ( 9)
  577.    28.     9748.  82 36                   - Note Off ( 8)
  578.    37.     9785.  82 42                   - Note Off ( 7)
  579.    50.     9835.  81 26                   - Note Off ( 6)
  580.     2.     9837.  91 30 54                - Note On  ( 7)
  581.     1.     9838.  82 38                   - Note Off ( 6)
  582.     2.     9840.  92 3A 64                - Note On  ( 7)
  583.     0.     9840.  92 42 43                - Note On  ( 8)
  584.     3.     9843.  80 24                   - Note Off ( 7)
  585.     0.     9843.  90 25 7F                - Note On  ( 8)
  586.    71.     9914.  82 42                   - Note Off ( 7)
  587.    46.     9960.  92 42 47                - Note On  ( 8)
  588.    75.    10035.  82 42                   - Note Off ( 7)
  589.     1.    10036.  82 3A                   - Note Off ( 6)
  590.    43.    10079.  80 25                   - Note Off ( 5)
  591.     0.    10079.  90 26 7F                - Note On  ( 6)
  592.     1.    10080.  92 36 69                - Note On  ( 7)
  593.     0.    10080.  92 42 6C                - Note On  ( 8)
  594.    10.    10090.  91 31 4E                - Note On  ( 9)
  595.    66.    10156.  82 42                   - Note Off ( 8)
  596.     8.    10164.  81 30                   - Note Off ( 7)
  597.    36.    10200.  92 38 50                - Note On  ( 8)
  598.     0.    10200.  92 42 42                - Note On  ( 9)
  599.    14.    10214.  80 26                   - Note Off ( 8)
  600.     0.    10214.  90 27 7F                - Note On  ( 9)
  601.     8.    10222.  82 36                   - Note Off ( 8)
  602.    41.    10263.  82 42                   - Note Off ( 7)
  603.    45.    10308.  82 38                   - Note Off ( 6)
  604.    12.    10320.  92 3A 64                - Note On  ( 7)
  605.     0.    10320.  92 42 41                - Note On  ( 8)
  606.     2.    10322.  91 32 57                - Note On  ( 9)
  607.     4.    10326.  80 27                   - Note Off ( 8)
  608.     0.    10326.  90 28 7F                - Note On  ( 9)
  609.    14.    10340.  81 31                   - Note Off ( 8)
  610.    45.    10385.  82 42                   - Note Off ( 7)
  611.    55.    10440.  92 42 55                - Note On  ( 8)
  612.    30.    10470.  91 2D 63                - Note On  ( 9)
  613.    17.    10487.  84 3E                   - Note Off ( 8)
  614.     1.    10488.  81 32                   - Note Off ( 7)
  615.    25.    10513.  82 42                   - Note Off ( 6)
  616.    20.    10533.  82 3A                   - Note Off ( 5)
  617.    10.    10543.  81 2D                   - Note Off ( 4)
  618.    17.    10560.  92 36 69                - Note On  ( 5)
  619.     0.    10560.  92 42 46                - Note On  ( 6)
  620.     0.    10560.  94 37 60                - Note On  ( 7)
  621.     3.    10563.  80 28                   - Note Off ( 6)
  622.     0.    10563.  90 29 7F                - Note On  ( 7)
  623.    59.    10622.  82 42                   - Note Off ( 6)
  624.    58.    10680.  92 38 50                - Note On  ( 7)
  625.     0.    10680.  92 42 3F                - Note On  ( 8)
  626.    26.    10706.  82 36                   - Note Off ( 7)
  627.     1.    10707.  91 2D 54                - Note On  ( 8)
  628.    87.    10794.  81 2D                   - Note Off ( 7)
  629.     6.    10800.  92 3A 64                - Note On  ( 8)
  630.     1.    10801.  80 29                   - Note Off ( 7)
  631.     0.    10801.  90 2A 7F                - Note On  ( 8)
  632.     5.    10806.  82 38                   - Note Off ( 7)
  633.     1.    10807.  91 2B 57                - Note On  ( 8)
  634.     5.    10812.  82 42                   - Note Off ( 7)
  635.   108.    10920.  92 42 48                - Note On  ( 8)
  636.    77.    10997.  82 42                   - Note Off ( 7)
  637.     8.    11005.  82 3A                   - Note Off ( 6)
  638.    27.    11032.  80 2A                   - Note Off ( 5)
  639.     0.    11032.  90 2B 7F                - Note On  ( 6)
  640.     8.    11040.  92 36 69                - Note On  ( 7)
  641.     0.    11040.  92 42 6C                - Note On  ( 8)
  642.    68.    11108.  82 42                   - Note Off ( 7)
  643.    52.    11160.  92 38 4E                - Note On  ( 8)
  644.     0.    11160.  92 42 3F                - Note On  ( 9)
  645.    13.    11173.  80 2B                   - Note Off ( 8)
  646.     0.    11173.  90 2C 7F                - Note On  ( 9)
  647.    22.    11195.  82 36                   - Note Off ( 8)
  648.    24.    11219.  82 42                   - Note Off ( 7)
  649.    51.    11270.  82 38                   - Note Off ( 6)
  650.    10.    11280.  92 3A 68                - Note On  ( 7)
  651.     0.    11280.  92 42 28                - Note On  ( 8)
  652.     5.    11285.  80 2C                   - Note Off ( 7)
  653.     0.    11285.  90 2D 7F                - Note On  ( 8)
  654.    70.    11355.  82 42                   - Note Off ( 7)
  655.    45.    11400.  92 42 4C                - Note On  ( 8)
  656.    64.    11464.  82 42                   - Note Off ( 7)
  657.    40.    11504.  82 3A                   - Note Off ( 6)
  658.    16.    11520.  80 2D                   - Note Off ( 5)
  659.     0.    11520.  90 24 7F                - Note On  ( 6)
  660.     0.    11520.  92 36 66                - Note On  ( 7)
  661.     0.    11520.  92 42 54                - Note On  ( 8)
  662.     0.    11520.  91 26 72                - Note On  ( 9)
  663.     0.    11520.  94 3E 66                - Note On  (10)
  664.    15.    11535.  84 37                   - Note Off ( 9)
  665.    26.    11561.  81 2B                   - Note Off ( 8)
  666.    20.    11581.  82 42                   - Note Off ( 7)
  667.    59.    11640.  92 38 50                - Note On  ( 8)
  668.     0.    11640.  92 42 3C                - Note On  ( 9)
  669.    40.    11680.  82 36                   - Note Off ( 8)
  670.    25.    11705.  82 42                   - Note Off ( 7)
  671.    45.    11750.  91 30 60                - Note On  ( 8)
  672.     5.    11755.  82 38                   - Note Off ( 7)
  673.     5.    11760.  92 3A 62                - Note On  ( 8)
  674.     0.    11760.  92 42 43                - Note On  ( 9)
  675.     3.    11763.  80 24                   - Note Off ( 8)
  676.     0.    11763.  90 25 7F                - Note On  ( 9)
  677.     2.    11765.  81 26                   - Note Off ( 8)
  678.    69.    11834.  82 42                   - Note Off ( 7)
  679.    46.    11880.  92 42 47                - Note On  ( 8)
  680.    75.    11955.  82 42                   - Note Off ( 7)
  681.    31.    11986.  82 3A                   - Note Off ( 6)
  682.    13.    11999.  80 25                   - Note Off ( 5)
  683.     0.    11999.  90 26 7F                - Note On  ( 6)
  684.     1.    12000.  92 36 66                - Note On  ( 7)
  685.     0.    12000.  92 42 6C                - Note On  ( 8)
  686.     2.    12002.  91 31 4A                - Note On  ( 9)
  687.    28.    12030.  81 30                   - Note Off ( 8)
  688.    46.    12076.  82 42                   - Note Off ( 7)
  689.    44.    12120.  92 38 4C                - Note On  ( 8)
  690.     0.    12120.  92 42 42                - Note On  ( 9)
  691.    14.    12134.  80 26                   - Note Off ( 8)
  692.     0.    12134.  90 27 7F                - Note On  ( 9)
  693.    20.    12154.  82 36                   - Note Off ( 8)
  694.    29.    12183.  82 42                   - Note Off ( 7)
  695.    52.    12235.  91 32 50                - Note On  ( 8)
  696.     4.    12239.  81 31                   - Note Off ( 7)
  697.     1.    12240.  92 3A 5B                - Note On  ( 8)
  698.     0.    12240.  92 42 41                - Note On  ( 9)
  699.     6.    12246.  80 27                   - Note Off ( 8)
  700.     0.    12246.  90 28 7F                - Note On  ( 9)
  701.     1.    12247.  82 38                   - Note Off ( 8)
  702.    58.    12305.  82 42                   - Note Off ( 7)
  703.    55.    12360.  92 42 55                - Note On  ( 8)
  704.    25.    12385.  91 26 66                - Note On  ( 9)
  705.    21.    12406.  81 32                   - Note Off ( 8)
  706.    27.    12433.  82 42                   - Note Off ( 7)
  707.    21.    12454.  81 26                   - Note Off ( 6)
  708.    16.    12470.  82 3A                   - Note Off ( 5)
  709.    10.    12480.  92 36 66                - Note On  ( 6)
  710.     0.    12480.  92 42 46                - Note On  ( 7)
  711.     3.    12483.  80 28                   - Note Off ( 6)
  712.     0.    12483.  90 29 7F                - Note On  ( 7)
  713.    59.    12542.  82 42                   - Note Off ( 6)
  714.    58.    12600.  92 38 4A                - Note On  ( 7)
  715.     0.    12600.  92 42 3F                - Note On  ( 8)
  716.    27.    12627.  91 32 60                - Note On  ( 9)
  717.    26.    12653.  82 36                   - Note Off ( 8)
  718.    62.    12715.  81 32                   - Note Off ( 7)
  719.     5.    12720.  92 3A 60                - Note On  ( 8)
  720.     1.    12721.  80 29                   - Note Off ( 7)
  721.     0.    12721.  90 2A 7F                - Note On  ( 8)
  722.     1.    12722.  91 30 5A                - Note On  ( 9)
  723.     7.    12729.  82 38                   - Note Off ( 8)
  724.     3.    12732.  82 42                   - Note Off ( 7)
  725.   108.    12840.  92 42 48                - Note On  ( 8)
  726.    77.    12917.  82 42                   - Note Off ( 7)
  727.    14.    12931.  82 3A                   - Note Off ( 6)
  728.    21.    12952.  80 2A                   - Note Off ( 5)
  729.     0.    12952.  90 2B 7F                - Note On  ( 6)
  730.     8.    12960.  92 36 66                - Note On  ( 7)
  731.     0.    12960.  92 42 6C                - Note On  ( 8)
  732.    68.    13028.  82 42                   - Note Off ( 7)
  733.    52.    13080.  92 38 4E                - Note On  ( 8)
  734.     0.    13080.  92 42 3F                - Note On  ( 9)
  735.    13.    13093.  80 2B                   - Note Off ( 8)
  736.     0.    13093.  90 2C 7F                - Note On  ( 9)
  737.    29.    13122.  82 36                   - Note Off ( 8)
  738.    17.    13139.  82 42                   - Note Off ( 7)
  739.    61.    13200.  92 3A 62                - Note On  ( 8)
  740.     0.    13200.  92 42 28                - Note On  ( 9)
  741.     2.    13202.  81 30                   - Note Off ( 8)
  742.     3.    13205.  80 2C                   - Note Off ( 7)
  743.     0.    13205.  90 2D 7F                - Note On  ( 8)
  744.     0.    13205.  91 30 69                - Note On  ( 9)
  745.     4.    13209.  82 38                   - Note Off ( 8)
  746.    66.    13275.  82 42                   - Note Off ( 7)
  747.    45.    13320.  92 42 4C                - Note On  ( 8)
  748.    52.    13372.  98 48 52                - Note On  ( 9)
  749.    12.    13384.  82 42                   - Note Off ( 8)
  750.    27.    13411.  82 3A                   - Note Off ( 7)
  751.    11.    13422.  98 56 54                - Note On  ( 8)
  752.    18.    13440.  80 2D                   - Note Off ( 7)
  753.     0.    13440.  81 30                   - Note Off ( 6)
  754.     0.    13440.  90 24 7F                - Note On  ( 7)
  755.     0.    13440.  92 36 60                - Note On  ( 8)
  756.     0.    13440.  92 42 54                - Note On  ( 9)
  757.     7.    13447.  91 26 72                - Note On  (10)
  758.    54.    13501.  82 42                   - Note Off ( 9)
  759.    59.    13560.  92 38 52                - Note On  (10)
  760.     0.    13560.  92 42 3C                - Note On  (11)
  761.    27.    13587.  82 36                   - Note Off (10)
  762.    38.    13625.  82 42                   - Note Off ( 9)
  763.    52.    13677.  91 30 69                - Note On  (10)
  764.     3.    13680.  92 3A 60                - Note On  (11)
  765.     0.    13680.  92 42 43                - Note On  (12)
  766.     3.    13683.  80 24                   - Note Off (11)
  767.     0.    13683.  90 25 7F                - Note On  (12)
  768.     3.    13686.  81 26                   - Note Off (11)
  769.     2.    13688.  82 38                   - Note Off (10)
  770.    66.    13754.  82 42                   - Note Off ( 9)
  771.    46.    13800.  92 42 47                - Note On  (10)
  772.    38.    13838.  88 4A                   - Note Off ( 9)
  773.    37.    13875.  82 42                   - Note Off ( 8)
  774.     5.    13880.  82 3A                   - Note Off ( 7)
  775.    39.    13919.  80 25                   - Note Off ( 6)
  776.     0.    13919.  90 26 7F                - Note On  ( 7)
  777.     1.    13920.  92 36 66                - Note On  ( 8)
  778.     0.    13920.  92 42 6C                - Note On  ( 9)
  779.    10.    13930.  91 31 50                - Note On  (10)
  780.    18.    13948.  81 30                   - Note Off ( 9)
  781.    48.    13996.  82 42                   - Note Off ( 8)
  782.    44.    14040.  92 38 4A                - Note On  ( 9)
  783.     0.    14040.  92 42 42                - Note On  (10)
  784.    14.    14054.  80 26                   - Note Off ( 9)
  785.     0.    14054.  90 27 7F                - Note On  (10)
  786.     6.    14060.  82 36                   - Note Off ( 9)
  787.    43.    14103.  82 42                   - Note Off ( 8)
  788.    57.    14160.  92 3A 62                - Note On  ( 9)
  789.     0.    14160.  92 42 41                - Note On  (10)
  790.     2.    14162.  91 32 54                - Note On  (11)
  791.     3.    14165.  82 38                   - Note Off (10)
  792.     1.    14166.  80 27                   - Note Off ( 9)
  793.     0.    14166.  90 28 7F                - Note On  (10)
  794.    19.    14185.  81 31                   - Note Off ( 9)
  795.    40.    14225.  82 42                   - Note Off ( 8)
  796.    55.    14280.  92 42 55                - Note On  ( 9)
  797.    16.    14296.  81 32                   - Note Off ( 8)
  798.    14.    14310.  91 32 69                - Note On  ( 9)
  799.    43.    14353.  82 42                   - Note Off ( 8)
  800.     3.    14356.  82 3A                   - Note Off ( 7)
  801.    44.    14400.  92 36 66                - Note On  ( 8)
  802.     0.    14400.  92 42 46                - Note On  ( 9)
  803.     0.    14400.  94 3C 5A                - Note On  (10)
  804.     3.    14403.  80 28                   - Note Off ( 9)
  805.     0.    14403.  90 29 7F                - Note On  (10)
  806.    12.    14415.  84 3E                   - Note Off ( 9)
  807.    47.    14462.  82 42                   - Note Off ( 8)
  808.    17.    14479.  81 32                   - Note Off ( 7)
  809.    41.    14520.  92 38 52                - Note On  ( 8)
  810.     0.    14520.  92 42 3F                - Note On  ( 9)
  811.    27.    14547.  91 35 57                - Note On  (10)
  812.    38.    14585.  82 36                   - Note Off ( 9)
  813.    55.    14640.  92 3A 58                - Note On  (10)
  814.     1.    14641.  80 29                   - Note Off ( 9)
  815.     0.    14641.  90 2A 7F                - Note On  (10)
  816.     6.    14647.  91 37 50                - Note On  (11)
  817.     5.    14652.  82 42                   - Note Off (10)
  818.    16.    14668.  82 38                   - Note Off ( 9)
  819.     9.    14677.  81 35                   - Note Off ( 8)
  820.    83.    14760.  92 42 48                - Note On  ( 9)
  821.    77.    14837.  82 42                   - Note Off ( 8)
  822.    29.    14866.  82 3A                   - Note Off ( 7)
  823.     6.    14872.  80 2A                   - Note Off ( 6)
  824.     0.    14872.  90 2B 7F                - Note On  ( 7)
  825.     8.    14880.  92 36 66                - Note On  ( 8)
  826.     0.    14880.  92 42 6C                - Note On  ( 9)
  827.     7.    14887.  91 38 5A                - Note On  (10)
  828.    26.    14913.  81 37                   - Note Off ( 9)
  829.    35.    14948.  82 42                   - Note Off ( 8)
  830.    52.    15000.  92 38 52                - Note On  ( 9)
  831.     0.    15000.  92 42 3F                - Note On  (10)
  832.    13.    15013.  80 2B                   - Note Off ( 9)
  833.     0.    15013.  90 2C 7F                - Note On  (10)
  834.    36.    15049.  82 36                   - Note Off ( 9)
  835.    10.    15059.  82 42                   - Note Off ( 8)
  836.    61.    15120.  92 3A 62                - Note On  ( 9)
  837.     0.    15120.  92 42 28                - Note On  (10)
  838.     5.    15125.  80 2C                   - Note Off ( 9)
  839.     0.    15125.  90 2D 7F                - Note On  (10)
  840.     0.    15125.  91 39 5D                - Note On  (11)
  841.     2.    15127.  81 38                   - Note Off (10)
  842.     2.    15129.  82 38                   - Note Off ( 9)
  843.    66.    15195.  82 42                   - Note Off ( 8)
  844.    45.    15240.  92 42 4C                - Note On  ( 9)
  845.    64.    15304.  82 42                   - Note Off ( 8)
  846.     1.    15305.  82 3A                   - Note Off ( 7)
  847.    44.    15349.  88 48                   - Note Off ( 6)
  848.     9.    15358.  84 3C                   - Note Off ( 5)
  849.     0.    15358.  88 43                   - Note Off ( 4)
  850.     0.    15358.  81 39                   - Note Off ( 3)
  851.     0.    15358.  80 2D                   - Note Off ( 2)
  852.     0.    15358.  88 56                   - Note Off ( 1)
  853.     0.    15358.  88 4F                   - Note Off ( 0)
  854.     0.    15358.  FF 2F 00                - End of Track
**** SQ Midi End. ****

**** SQ Midi no = 2. ****
No. delta time. tick count. message
------------------------------------------------
    1.     0.        0.  FF 51 03 07 A1 20       - Set Tempo
    2.     0.        0.  90 24 7F                - Note On  ( 1)
    3.     0.        0.  C0 00                  
    4.     0.        0.  C4 04                  
    5.     0.        0.  B3 40 7F                - Damper Pedal
    6.     0.        0.  C3 03                  
    7.     0.        0.  C2 02                  
    8.     0.        0.  C1 01                  
    9.     0.        0.  CD 0D                  
   10.     0.        0.  CA 0A                  
   11.     0.        0.  C9 09                  
   12.     0.        0.  C8 08                  
   13.     0.        0.  C7 07                  
   14.     0.        0.  C6 06                  
   15.     0.        0.  C5 05                  
   16.     1.        1.  B5 07 64                - Channel Volume
   17.     0.        1.  B6 07 6E                - Channel Volume
   18.     0.        1.  B7 07 78                - Channel Volume
   19.     0.        1.  B8 07 43                - Channel Volume
   20.     0.        1.  B9 07 44                - Channel Volume
   21.     0.        1.  BA 07 46                - Channel Volume
   22.     0.        1.  BD 07 4F                - Channel Volume
   23.     0.        1.  B1 07 5B                - Channel Volume
   24.     0.        1.  B2 07 7F                - Channel Volume
   25.     0.        1.  B3 07 6E                - Channel Volume
   26.     0.        1.  B4 07 7A                - Channel Volume
   27.     0.        1.  B0 07 7F                - Channel Volume
   28.     1.        2.  B0 0A 40                - Pan
   29.     0.        2.  B4 0A 40                - Pan
   30.     0.        2.  93 39 4A                - Note On  ( 2)
   31.     0.        2.  B3 0A 40                - Pan
   32.     0.        2.  B2 0A 40                - Pan
   33.     0.        2.  B1 0A 40                - Pan
   34.     0.        2.  BD 0A 5E                - Pan
   35.     0.        2.  BA 0A 40                - Pan
   36.     0.        2.  B9 0A 40                - Pan
   37.     0.        2.  B8 0A 40                - Pan
   38.     0.        2.  B7 0A 22                - Pan
   39.     0.        2.  B6 0A 40                - Pan
   40.     0.        2.  B5 0A 40                - Pan
   41.     1.        3.  9D 3C 7A                - Note On  ( 3)
   42.     0.        3.  9D 32 73                - Note On  ( 4)
   43.     0.        3.  9D 38 7F                - Note On  ( 5)
   44.     0.        3.  91 26 75                - Note On  ( 6)
   45.     0.        3.  92 42 54                - Note On  ( 7)
   46.     0.        3.  92 40 7F                - Note On  ( 8)
   47.     0.        3.  92 36 69                - Note On  ( 9)
   48.     0.        3.  93 26 48                - Note On  (10)
   49.     1.        4.  93 2D 48                - Note On  (11)
   50.     9.       13.  93 26 48                - Note On  (12)
   51.    15.       28.  93 3C 4C                - Note On  (13)
   52.    20.       48.  93 41 54                - Note On  (14)
   53.    16.       64.  82 42                   - Note Off (13)
   54.    56.      120.  92 38 4C                - Note On  (14)
   55.     0.      120.  92 42 3C                - Note On  (15)
   56.    22.      142.  82 36                   - Note Off (14)
   57.    43.      185.  82 42                   - Note Off (13)
   58.    45.      230.  91 30 66                - Note On  (14)
   59.     3.      233.  81 26                   - Note Off (13)
   60.     7.      240.  92 3A 60                - Note On  (14)
   61.     0.      240.  92 42 43                - Note On  (15)
   62.     0.      240.  9D 39 5A                - Note On  (16)
   63.     3.      243.  80 24                   - Note Off (15)
   64.     0.      243.  90 25 7F                - Note On  (16)
   65.     7.      250.  8D 38                   - Note Off (15)
   66.     8.      258.  82 38                   - Note Off (14)
   67.    56.      314.  82 42                   - Note Off (13)
   68.    18.      332.  8D 3C                   - Note Off (12)
   69.     1.      333.  8D 39                   - Note Off (11)
   70.    10.      343.  8D 32                   - Note Off (10)
   71.    12.      355.  9D 2D 5A                - Note On  (11)
   72.     5.      360.  92 42 47                - Note On  (12)
   73.    60.      420.  8D 2D                   - Note Off (11)
   74.    15.      435.  82 3A                   - Note Off (10)
   75.     0.      435.  82 42                   - Note Off ( 9)
   76.    44.      479.  80 25                   - Note Off ( 8)
   77.     0.      479.  90 26 7F                - Note On  ( 9)
   78.     1.      480.  92 36 66                - Note On  (10)
   79.     0.      480.  92 42 6C                - Note On  (11)
   80.     0.      480.  9D 39 45                - Note On  (12)
   81.     0.      480.  9D 3C 73                - Note On  (13)
   82.     0.      480.  9D 32 7E                - Note On  (14)
   83.     2.      482.  91 31 52                - Note On  (15)
   84.    16.      498.  81 30                   - Note Off (14)
   85.    56.      554.  B3 40 7F                - Damper Pedal
   86.     2.      556.  82 42                   - Note Off (13)
   87.    14.      570.  8D 39                   - Note Off (12)
   88.    22.      592.  9D 26 42                - Note On  (13)
   89.     0.      592.  9D 2D 42                - Note On  (14)
   90.     2.      594.  8D 3C                   - Note Off (13)
   91.     2.      596.  8D 32                   - Note Off (12)
   92.     4.      600.  92 38 4C                - Note On  (13)
   93.     0.      600.  92 42 42                - Note On  (14)
   94.    14.      614.  80 26                   - Note Off (13)
   95.     0.      614.  83 26                   - Note Off (12)
   96.     0.      614.  90 27 7F                - Note On  (13)
   97.    11.      625.  82 36                   - Note Off (12)
   98.    10.      635.  8D 2D                   - Note Off (11)
   99.    27.      662.  8D 26                   - Note Off (10)
  100.     1.      663.  82 42                   - Note Off ( 9)
  101.    50.      713.  82 38                   - Note Off ( 8)
  102.     2.      715.  91 32 5A                - Note On  ( 9)
  103.     5.      720.  92 3A 68                - Note On  (10)
  104.     0.      720.  92 42 41                - Note On  (11)
  105.     2.      722.  9D 38 66                - Note On  (12)
  106.     0.      722.  9D 3C 66                - Note On  (13)
  107.     0.      722.  9D 32 5D                - Note On  (14)
  108.     4.      726.  80 27                   - Note Off (13)
  109.     0.      726.  90 28 7F                - Note On  (14)
  110.    19.      745.  81 31                   - Note Off (13)
  111.    40.      785.  82 42                   - Note Off (12)
  112.    20.      805.  8D 38                   - Note Off (11)
  113.    15.      820.  8D 32                   - Note Off (10)
  114.    12.      832.  9D 39 78                - Note On  (11)
  115.     8.      840.  92 42 55                - Note On  (12)
  116.     6.      846.  8D 3C                   - Note Off (11)
  117.    16.      862.  91 26 69                - Note On  (12)
  118.    21.      883.  81 32                   - Note Off (11)
  119.    30.      913.  82 42                   - Note Off (10)
  120.    20.      933.  82 3A                   - Note Off ( 9)
  121.     9.      942.  81 26                   - Note Off ( 8)
  122.     9.      951.  8D 39                   - Note Off ( 7)
  123.     6.      957.  9D 2D 4F                - Note On  ( 8)
  124.     3.      960.  92 36 66                - Note On  ( 9)
  125.     0.      960.  92 42 46                - Note On  (10)
  126.     3.      963.  80 28                   - Note Off ( 9)
  127.     0.      963.  90 29 7F                - Note On  (10)
  128.    59.     1022.  82 42                   - Note Off ( 9)
  129.    26.     1048.  8D 2D                   - Note Off ( 8)
  130.    27.     1075.  9D 32 56                - Note On  ( 9)
  131.     0.     1075.  9D 39 4F                - Note On  (10)
  132.     0.     1075.  9D 3C 3F                - Note On  (11)
  133.     5.     1080.  92 38 4C                - Note On  (12)
  134.     0.     1080.  92 42 3F                - Note On  (13)
  135.    22.     1102.  91 32 69                - Note On  (14)
  136.    13.     1115.  82 36                   - Note Off (13)
  137.    52.     1167.  8D 39                   - Note Off (12)
  138.    11.     1178.  8D 32                   - Note Off (11)
  139.    10.     1188.  8D 3C                   - Note Off (10)
  140.     1.     1189.  82 38                   - Note Off ( 9)
  141.     9.     1198.  81 32                   - Note Off ( 8)
  142.     2.     1200.  92 3A 58                - Note On  ( 9)
  143.     1.     1201.  80 29                   - Note Off ( 8)
  144.     0.     1201.  90 2A 7F                - Note On  ( 9)
  145.     1.     1202.  91 30 63                - Note On  (10)
  146.    10.     1212.  82 42                   - Note Off ( 9)
  147.   103.     1315.  9D 26 32                - Note On  (10)
  148.     0.     1315.  9D 2D 36                - Note On  (11)
  149.     5.     1320.  92 42 48                - Note On  (12)
  150.    33.     1353.  8D 2D                   - Note Off (11)
  151.    39.     1392.  8D 26                   - Note Off (10)
  152.     5.     1397.  82 42                   - Note Off ( 9)
  153.    26.     1423.  82 3A                   - Note Off ( 8)
  154.     9.     1432.  80 2A                   - Note Off ( 7)
  155.     0.     1432.  90 2B 7F                - Note On  ( 8)
  156.     8.     1440.  92 36 69                - Note On  ( 9)
  157.     0.     1440.  92 42 6C                - Note On  (10)
  158.     2.     1442.  9D 3C 76                - Note On  (11)
  159.     0.     1442.  9D 32 41                - Note On  (12)
  160.     0.     1442.  9D 38 7A                - Note On  (13)
  161.    66.     1508.  82 42                   - Note Off (12)
  162.    47.     1555.  9D 2D 36                - Note On  (13)
  163.     5.     1560.  92 38 4C                - Note On  (14)
  164.     0.     1560.  92 42 3F                - Note On  (15)
  165.    13.     1573.  80 2B                   - Note Off (14)
  166.     0.     1573.  90 2C 7F                - Note On  (15)
  167.    34.     1607.  8D 2D                   - Note Off (14)
  168.     1.     1608.  82 36                   - Note Off (13)
  169.    11.     1619.  82 42                   - Note Off (12)
  170.    48.     1667.  8D 38                   - Note Off (11)
  171.     7.     1674.  8D 3C                   - Note Off (10)
  172.     6.     1680.  92 3A 64                - Note On  (11)
  173.     0.     1680.  92 42 28                - Note On  (12)
  174.     4.     1684.  82 38                   - Note Off (11)
  175.     1.     1685.  80 2C                   - Note Off (10)
  176.     0.     1685.  90 2D 7F                - Note On  (11)
  177.     0.     1685.  9D 39 5C                - Note On  (12)
  178.    54.     1739.  8D 32                   - Note Off (11)
  179.    16.     1755.  82 42                   - Note Off (10)
  180.     7.     1762.  8D 39                   - Note Off ( 9)
  181.    28.     1790.  9D 2D 42                - Note On  (10)
  182.    10.     1800.  92 42 4C                - Note On  (11)
  183.    39.     1839.  8D 2D                   - Note Off (10)
  184.    15.     1854.  82 40                   - Note Off ( 9)
  185.    10.     1864.  82 42                   - Note Off ( 8)
  186.    25.     1889.  82 3A                   - Note Off ( 7)
  187.    31.     1920.  80 2D                   - Note Off ( 6)
  188.     0.     1920.  90 24 7F                - Note On  ( 7)
  189.     0.     1920.  92 36 66                - Note On  ( 8)
  190.     0.     1920.  92 42 54                - Note On  ( 9)
  191.     7.     1927.  91 26 75                - Note On  (10)
  192.     0.     1927.  9D 32 73                - Note On  (11)
  193.     0.     1927.  9D 38 7F                - Note On  (12)
  194.     0.     1927.  9D 3C 7A                - Note On  (13)
  195.    21.     1948.  81 30                   - Note Off (12)
  196.    33.     1981.  82 42                   - Note Off (11)
  197.    59.     2040.  92 38 50                - Note On  (12)
  198.     0.     2040.  92 42 3C                - Note On  (13)
  199.    28.     2068.  82 36                   - Note Off (12)
  200.    37.     2105.  82 42                   - Note Off (11)
  201.    50.     2155.  81 26                   - Note Off (10)
  202.     2.     2157.  91 30 54                - Note On  (11)
  203.     1.     2158.  82 38                   - Note Off (10)
  204.     2.     2160.  92 3A 64                - Note On  (11)
  205.     0.     2160.  92 42 43                - Note On  (12)
  206.     3.     2163.  80 24                   - Note Off (11)
  207.     0.     2163.  90 25 7F                - Note On  (12)
  208.     2.     2165.  9D 39 5A                - Note On  (13)
  209.     9.     2174.  8D 38                   - Note Off (12)
  210.    60.     2234.  82 42                   - Note Off (11)
  211.    22.     2256.  8D 3C                   - Note Off (10)
  212.     2.     2258.  8D 39                   - Note Off ( 9)
  213.     9.     2267.  8D 32                   - Note Off ( 8)
  214.     8.     2275.  9D 2D 5A                - Note On  ( 9)
  215.     5.     2280.  92 42 47                - Note On  (10)
  216.    60.     2340.  8D 2D                   - Note Off ( 9)
  217.    15.     2355.  82 42                   - Note Off ( 8)
  218.     1.     2356.  82 3A                   - Note Off ( 7)
  219.    42.     2398.  9D 39 45                - Note On  ( 8)
  220.     0.     2398.  9D 3C 73                - Note On  ( 9)
  221.     0.     2398.  9D 32 7E                - Note On  (10)
  222.     1.     2399.  80 25                   - Note Off ( 9)
  223.     0.     2399.  90 26 7F                - Note On  (10)
  224.     1.     2400.  92 36 69                - Note On  (11)
  225.     0.     2400.  92 42 6C                - Note On  (12)
  226.    10.     2410.  91 31 4E                - Note On  (13)
  227.    66.     2476.  82 42                   - Note Off (12)
  228.     8.     2484.  81 30                   - Note Off (11)
  229.     4.     2488.  8D 39                   - Note Off (10)
  230.    24.     2512.  8D 3C                   - Note Off ( 9)
  231.     2.     2514.  8D 32                   - Note Off ( 8)
  232.     1.     2515.  9D 26 42                - Note On  ( 9)
  233.     0.     2515.  9D 2D 42                - Note On  (10)
  234.     5.     2520.  92 38 50                - Note On  (11)
  235.     0.     2520.  92 42 42                - Note On  (12)
  236.    14.     2534.  80 26                   - Note Off (11)
  237.     0.     2534.  90 27 7F                - Note On  (12)
  238.     8.     2542.  82 36                   - Note Off (11)
  239.    16.     2558.  8D 2D                   - Note Off (10)
  240.    25.     2583.  82 42                   - Note Off ( 9)
  241.     2.     2585.  8D 26                   - Note Off ( 8)
  242.    43.     2628.  82 38                   - Note Off ( 7)
  243.    12.     2640.  92 3A 64                - Note On  ( 8)
  244.     0.     2640.  92 42 41                - Note On  ( 9)
  245.     2.     2642.  91 32 57                - Note On  (10)
  246.     0.     2642.  9D 38 66                - Note On  (11)
  247.     0.     2642.  9D 3C 66                - Note On  (12)
  248.     0.     2642.  9D 32 5D                - Note On  (13)
  249.     4.     2646.  80 27                   - Note Off (12)
  250.     0.     2646.  90 28 7F                - Note On  (13)
  251.    14.     2660.  81 31                   - Note Off (12)
  252.    45.     2705.  82 42                   - Note Off (11)
  253.    20.     2725.  8D 38                   - Note Off (10)
  254.    15.     2740.  8D 32                   - Note Off ( 9)
  255.    15.     2755.  9D 39 78                - Note On  (10)
  256.     5.     2760.  92 42 55                - Note On  (11)
  257.     4.     2764.  83 39                   - Note Off (10)
  258.     2.     2766.  8D 3C                   - Note Off ( 9)
  259.    16.     2782.  83 2D                   - Note Off ( 8)
  260.     8.     2790.  91 2D 63                - Note On  ( 9)
  261.     3.     2793.  83 41                   - Note Off ( 8)
  262.     1.     2794.  83 3C                   - Note Off ( 7)
  263.    14.     2808.  81 32                   - Note Off ( 6)
  264.    17.     2825.  83 26                   - Note Off ( 5)
  265.     8.     2833.  82 42                   - Note Off ( 4)
  266.    20.     2853.  82 3A                   - Note Off ( 3)
  267.     3.     2856.  93 39 48                - Note On  ( 4)
  268.     7.     2863.  81 2D                   - Note Off ( 3)
  269.     7.     2870.  93 2B 48                - Note On  ( 4)
  270.     4.     2874.  8D 39                   - Note Off ( 3)
  271.     5.     2879.  93 3C 57                - Note On  ( 4)
  272.     1.     2880.  92 42 46                - Note On  ( 5)
  273.     0.     2880.  92 36 69                - Note On  ( 6)
  274.     0.     2880.  9D 2D 4F                - Note On  ( 7)
  275.     3.     2883.  80 28                   - Note Off ( 6)
  276.     0.     2883.  90 29 7F                - Note On  ( 7)
  277.    25.     2908.  93 43 4C                - Note On  ( 8)
  278.    12.     2920.  B3 40 00                - Damper Pedal
  279.    22.     2942.  82 42                   - Note Off ( 7)
  280.    29.     2971.  8D 2D                   - Note Off ( 6)
  281.    29.     3000.  92 38 50                - Note On  ( 7)
  282.     0.     3000.  92 42 3F                - Note On  ( 8)
  283.     0.     3000.  9D 32 56                - Note On  ( 9)
  284.     0.     3000.  9D 39 4F                - Note On  (10)
  285.     0.     3000.  9D 3C 3F                - Note On  (11)
  286.    26.     3026.  82 36                   - Note Off (10)
  287.     1.     3027.  91 2D 54                - Note On  (11)
  288.    65.     3092.  8D 39                   - Note Off (10)
  289.    11.     3103.  8D 32                   - Note Off ( 9)
  290.    10.     3113.  8D 3C                   - Note Off ( 8)
  291.     1.     3114.  81 2D                   - Note Off ( 7)
  292.     6.     3120.  92 3A 64                - Note On  ( 8)
  293.     1.     3121.  80 29                   - Note Off ( 7)
  294.     0.     3121.  90 2A 7F                - Note On  ( 8)
  295.     5.     3126.  82 38                   - Note Off ( 7)
  296.     1.     3127.  91 2B 57                - Note On  ( 8)
  297.     5.     3132.  82 42                   - Note Off ( 7)
  298.     3.     3135.  B3 40 7F                - Damper Pedal
  299.    95.     3230.  9D 26 32                - Note On  ( 8)
  300.     0.     3230.  9D 2D 36                - Note On  ( 9)
  301.    10.     3240.  92 42 48                - Note On  (10)
  302.    28.     3268.  8D 2D                   - Note Off ( 9)
  303.    39.     3307.  8D 26                   - Note Off ( 8)
  304.    10.     3317.  82 42                   - Note Off ( 7)
  305.     8.     3325.  82 3A                   - Note Off ( 6)
  306.    27.     3352.  80 2A                   - Note Off ( 5)
  307.     0.     3352.  90 2B 7F                - Note On  ( 6)
  308.     8.     3360.  92 36 69                - Note On  ( 7)
  309.     0.     3360.  92 42 6C                - Note On  ( 8)
  310.     0.     3360.  9D 3C 76                - Note On  ( 9)
  311.     0.     3360.  9D 32 41                - Note On  (10)
  312.     0.     3360.  9D 38 7A                - Note On  (11)
  313.    68.     3428.  82 42                   - Note Off (10)
  314.    42.     3470.  9D 2D 36                - Note On  (11)
  315.    10.     3480.  92 38 4E                - Note On  (12)
  316.     0.     3480.  92 42 3F                - Note On  (13)
  317.    13.     3493.  80 2B                   - Note Off (12)
  318.     0.     3493.  90 2C 7F                - Note On  (13)
  319.    22.     3515.  82 36                   - Note Off (12)
  320.     7.     3522.  8D 2D                   - Note Off (11)
  321.    17.     3539.  82 42                   - Note Off (10)
  322.    46.     3585.  8D 38                   - Note Off ( 9)
  323.     5.     3590.  82 38                   - Note Off ( 8)
  324.     2.     3592.  8D 3C                   - Note Off ( 7)
  325.     3.     3595.  9D 39 5C                - Note On  ( 8)
  326.     5.     3600.  92 3A 68                - Note On  ( 9)
  327.     0.     3600.  92 42 28                - Note On  (10)
  328.     5.     3605.  80 2C                   - Note Off ( 9)
  329.     0.     3605.  90 2D 7F                - Note On  (10)
  330.    52.     3657.  8D 32                   - Note Off ( 9)
  331.    15.     3672.  8D 39                   - Note Off ( 8)
  332.     3.     3675.  82 42                   - Note Off ( 7)
  333.    32.     3707.  9D 2D 42                - Note On  ( 8)
  334.    13.     3720.  92 42 4C                - Note On  ( 9)
  335.     9.     3729.  83 43                   - Note Off ( 8)
  336.    27.     3756.  8D 2D                   - Note Off ( 7)
  337.    12.     3768.  83 3C                   - Note Off ( 6)
  338.    13.     3781.  83 39                   - Note Off ( 5)
  339.     3.     3784.  82 42                   - Note Off ( 4)
  340.    18.     3802.  83 2B                   - Note Off ( 3)
  341.    11.     3813.  93 2D 44                - Note On  ( 4)
  342.     5.     3818.  93 39 4A                - Note On  ( 5)
  343.     6.     3824.  82 3A                   - Note Off ( 4)
  344.     1.     3825.  B3 40 00                - Damper Pedal
  345.     4.     3829.  93 26 2D                - Note On  ( 5)
  346.     6.     3835.  93 3C 54                - Note On  ( 6)
  347.     5.     3840.  80 2D                   - Note Off ( 5)
  348.     0.     3840.  90 24 7F                - Note On  ( 6)
  349.     0.     3840.  92 36 66                - Note On  ( 7)
  350.     0.     3840.  92 42 54                - Note On  ( 8)
  351.     0.     3840.  91 26 72                - Note On  ( 9)
  352.     0.     3840.  9D 32 73                - Note On  (10)
  353.     0.     3840.  9D 38 7F                - Note On  (11)
  354.     0.     3840.  9D 3C 7A                - Note On  (12)
  355.    12.     3852.  93 41 5D                - Note On  (13)
  356.    29.     3881.  81 2B                   - Note Off (12)
  357.    20.     3901.  82 42                   - Note Off (11)
  358.    59.     3960.  92 38 50                - Note On  (12)
  359.     0.     3960.  92 42 3C                - Note On  (13)
  360.    40.     4000.  82 36                   - Note Off (12)
  361.    25.     4025.  82 42                   - Note Off (11)
  362.    45.     4070.  91 30 60                - Note On  (12)
  363.     5.     4075.  82 38                   - Note Off (11)
  364.     5.     4080.  92 3A 62                - Note On  (12)
  365.     0.     4080.  92 42 43                - Note On  (13)
  366.     0.     4080.  9D 39 5A                - Note On  (14)
  367.     3.     4083.  80 24                   - Note Off (13)
  368.     0.     4083.  90 25 7F                - Note On  (14)
  369.     2.     4085.  81 26                   - Note Off (13)
  370.     2.     4087.  8D 38                   - Note Off (12)
  371.    67.     4154.  82 42                   - Note Off (11)
  372.    15.     4169.  8D 3C                   - Note Off (10)
  373.     4.     4173.  8D 39                   - Note Off ( 9)
  374.     7.     4180.  8D 32                   - Note Off ( 8)
  375.    15.     4195.  9D 2D 5A                - Note On  ( 9)
  376.     5.     4200.  92 42 47                - Note On  (10)
  377.     9.     4209.  B3 40 7F                - Damper Pedal
  378.    51.     4260.  8D 2D                   - Note Off ( 9)
  379.    15.     4275.  82 42                   - Note Off ( 8)
  380.    31.     4306.  82 3A                   - Note Off ( 7)
  381.    13.     4319.  80 25                   - Note Off ( 6)
  382.     0.     4319.  90 26 7F                - Note On  ( 7)
  383.     1.     4320.  92 36 66                - Note On  ( 8)
  384.     0.     4320.  92 42 6C                - Note On  ( 9)
  385.     0.     4320.  9D 39 45                - Note On  (10)
  386.     0.     4320.  9D 3C 73                - Note On  (11)
  387.     0.     4320.  9D 32 7E                - Note On  (12)
  388.     2.     4322.  91 31 4A                - Note On  (13)
  389.    28.     4350.  81 30                   - Note Off (12)
  390.    46.     4396.  82 42                   - Note Off (11)
  391.    14.     4410.  8D 39                   - Note Off (10)
  392.    22.     4432.  9D 26 42                - Note On  (11)
  393.     0.     4432.  9D 2D 42                - Note On  (12)
  394.     2.     4434.  8D 3C                   - Note Off (11)
  395.     2.     4436.  8D 32                   - Note Off (10)
  396.     4.     4440.  92 38 4C                - Note On  (11)
  397.     0.     4440.  92 42 42                - Note On  (12)
  398.    14.     4454.  80 26                   - Note Off (11)
  399.     0.     4454.  90 27 7F                - Note On  (12)
  400.    20.     4474.  82 36                   - Note Off (11)
  401.     1.     4475.  8D 2D                   - Note Off (10)
  402.    27.     4502.  8D 26                   - Note Off ( 9)
  403.     1.     4503.  82 42                   - Note Off ( 8)
  404.    52.     4555.  91 32 50                - Note On  ( 9)
  405.     4.     4559.  81 31                   - Note Off ( 8)
  406.     1.     4560.  92 3A 5B                - Note On  ( 9)
  407.     0.     4560.  92 42 41                - Note On  (10)
  408.     2.     4562.  9D 38 66                - Note On  (11)
  409.     0.     4562.  9D 3C 66                - Note On  (12)
  410.     0.     4562.  9D 32 5D                - Note On  (13)
  411.     4.     4566.  80 27                   - Note Off (12)
  412.     0.     4566.  90 28 7F                - Note On  (13)
  413.     1.     4567.  82 38                   - Note Off (12)
  414.    58.     4625.  82 42                   - Note Off (11)
  415.    20.     4645.  8D 38                   - Note Off (10)
  416.    15.     4660.  8D 32                   - Note Off ( 9)
  417.    12.     4672.  9D 39 78                - Note On  (10)
  418.     8.     4680.  92 42 55                - Note On  (11)
  419.     6.     4686.  8D 3C                   - Note Off (10)
  420.    19.     4705.  91 26 66                - Note On  (11)
  421.    21.     4726.  81 32                   - Note Off (10)
  422.    27.     4753.  82 42                   - Note Off ( 9)
  423.    21.     4774.  81 26                   - Note Off ( 8)
  424.    16.     4790.  82 3A                   - Note Off ( 7)
  425.     1.     4791.  8D 39                   - Note Off ( 6)
  426.     6.     4797.  9D 2D 4F                - Note On  ( 7)
  427.     3.     4800.  92 36 66                - Note On  ( 8)
  428.     0.     4800.  92 42 46                - Note On  ( 9)
  429.     3.     4803.  80 28                   - Note Off ( 8)
  430.     0.     4803.  90 29 7F                - Note On  ( 9)
  431.    59.     4862.  82 42                   - Note Off ( 8)
  432.    26.     4888.  8D 2D                   - Note Off ( 7)
  433.    27.     4915.  9D 32 56                - Note On  ( 8)
  434.     0.     4915.  9D 39 4F                - Note On  ( 9)
  435.     0.     4915.  9D 3C 3F                - Note On  (10)
  436.     5.     4920.  92 38 4A                - Note On  (11)
  437.     0.     4920.  92 42 3F                - Note On  (12)
  438.    27.     4947.  91 32 60                - Note On  (13)
  439.    26.     4973.  82 36                   - Note Off (12)
  440.    34.     5007.  8D 39                   - Note Off (11)
  441.    11.     5018.  8D 32                   - Note Off (10)
  442.    10.     5028.  8D 3C                   - Note Off ( 9)
  443.     7.     5035.  81 32                   - Note Off ( 8)
  444.     5.     5040.  92 3A 60                - Note On  ( 9)
  445.     1.     5041.  80 29                   - Note Off ( 8)
  446.     0.     5041.  90 2A 7F                - Note On  ( 9)
  447.     1.     5042.  91 30 5A                - Note On  (10)
  448.     7.     5049.  82 38                   - Note Off ( 9)
  449.     3.     5052.  82 42                   - Note Off ( 8)
  450.   103.     5155.  9D 26 32                - Note On  ( 9)
  451.     0.     5155.  9D 2D 36                - Note On  (10)
  452.     5.     5160.  92 42 48                - Note On  (11)
  453.    33.     5193.  8D 2D                   - Note Off (10)
  454.    39.     5232.  8D 26                   - Note Off ( 9)
  455.     5.     5237.  82 42                   - Note Off ( 8)
  456.    14.     5251.  82 3A                   - Note Off ( 7)
  457.    21.     5272.  80 2A                   - Note Off ( 6)
  458.     0.     5272.  90 2B 7F                - Note On  ( 7)
  459.     8.     5280.  92 36 66                - Note On  ( 8)
  460.     0.     5280.  92 42 6C                - Note On  ( 9)
  461.     2.     5282.  9D 3C 76                - Note On  (10)
  462.     0.     5282.  9D 32 41                - Note On  (11)
  463.     0.     5282.  9D 38 7A                - Note On  (12)
  464.    66.     5348.  82 42                   - Note Off (11)
  465.    47.     5395.  9D 2D 36                - Note On  (12)
  466.     5.     5400.  92 38 4E                - Note On  (13)
  467.     0.     5400.  92 42 3F                - Note On  (14)
  468.    13.     5413.  80 2B                   - Note Off (13)
  469.     0.     5413.  90 2C 7F                - Note On  (14)
  470.    29.     5442.  82 36                   - Note Off (13)
  471.     5.     5447.  8D 2D                   - Note Off (12)
  472.    12.     5459.  82 42                   - Note Off (11)
  473.    48.     5507.  8D 38                   - Note Off (10)
  474.     7.     5514.  8D 3C                   - Note Off ( 9)
  475.     6.     5520.  92 3A 62                - Note On  (10)
  476.     0.     5520.  92 42 28                - Note On  (11)
  477.     2.     5522.  81 30                   - Note Off (10)
  478.     3.     5525.  80 2C                   - Note Off ( 9)
  479.     0.     5525.  90 2D 7F                - Note On  (10)
  480.     0.     5525.  91 30 69                - Note On  (11)
  481.     0.     5525.  9D 39 5C                - Note On  (12)
  482.     4.     5529.  82 38                   - Note Off (11)
  483.    50.     5579.  8D 32                   - Note Off (10)
  484.    16.     5595.  82 42                   - Note Off ( 9)
  485.     7.     5602.  8D 39                   - Note Off ( 8)
  486.    28.     5630.  9D 2D 42                - Note On  ( 9)
  487.    10.     5640.  92 42 4C                - Note On  (10)
  488.    39.     5679.  8D 2D                   - Note Off ( 9)
  489.    25.     5704.  82 42                   - Note Off ( 8)
  490.    27.     5731.  82 3A                   - Note Off ( 7)
  491.    29.     5760.  81 30                   - Note Off ( 6)
  492.     0.     5760.  80 2D                   - Note Off ( 5)
  493.     0.     5760.  90 24 7F                - Note On  ( 6)
  494.     0.     5760.  92 36 60                - Note On  ( 7)
  495.     0.     5760.  92 42 54                - Note On  ( 8)
  496.     7.     5767.  91 26 72                - Note On  ( 9)
  497.     0.     5767.  9D 32 73                - Note On  (10)
  498.     0.     5767.  9D 38 7F                - Note On  (11)
  499.     0.     5767.  9D 3C 7A                - Note On  (12)
  500.    54.     5821.  82 42                   - Note Off (11)
  501.    59.     5880.  92 38 52                - Note On  (12)
  502.     0.     5880.  92 42 3C                - Note On  (13)
  503.    27.     5907.  82 36                   - Note Off (12)
  504.    38.     5945.  82 42                   - Note Off (11)
  505.    45.     5990.  81 26                   - Note Off (10)
  506.     7.     5997.  91 30 60                - Note On  (11)
  507.     3.     6000.  92 3A 60                - Note On  (12)
  508.     0.     6000.  92 42 43                - Note On  (13)
  509.     3.     6003.  80 24                   - Note Off (12)
  510.     0.     6003.  90 25 7F                - Note On  (13)
  511.     2.     6005.  9D 39 5A                - Note On  (14)
  512.     3.     6008.  82 38                   - Note Off (13)
  513.     6.     6014.  8D 38                   - Note Off (12)
  514.    60.     6074.  82 42                   - Note Off (11)
  515.    22.     6096.  8D 3C                   - Note Off (10)
  516.     2.     6098.  8D 39                   - Note Off ( 9)
  517.     9.     6107.  8D 32                   - Note Off ( 8)
  518.     8.     6115.  9D 2D 5A                - Note On  ( 9)
  519.     5.     6120.  92 42 47                - Note On  (10)
  520.    60.     6180.  8D 2D                   - Note Off ( 9)
  521.    15.     6195.  82 42                   - Note Off ( 8)
  522.     5.     6200.  82 3A                   - Note Off ( 7)
  523.    38.     6238.  9D 39 45                - Note On  ( 8)
  524.     0.     6238.  9D 3C 73                - Note On  ( 9)
  525.     0.     6238.  9D 32 7E                - Note On  (10)
  526.     1.     6239.  80 25                   - Note Off ( 9)
  527.     0.     6239.  90 26 7F                - Note On  (10)
  528.     1.     6240.  92 36 66                - Note On  (11)
  529.     0.     6240.  92 42 6C                - Note On  (12)
  530.    10.     6250.  91 31 54                - Note On  (13)
  531.    66.     6316.  82 42                   - Note Off (12)
  532.    12.     6328.  8D 39                   - Note Off (11)
  533.     5.     6333.  81 30                   - Note Off (10)
  534.    19.     6352.  8D 3C                   - Note Off ( 9)
  535.     2.     6354.  8D 32                   - Note Off ( 8)
  536.     1.     6355.  9D 26 42                - Note On  ( 9)
  537.     0.     6355.  9D 2D 42                - Note On  (10)
  538.     5.     6360.  92 38 4A                - Note On  (11)
  539.     0.     6360.  92 42 42                - Note On  (12)
  540.    14.     6374.  80 26                   - Note Off (11)
  541.     0.     6374.  90 27 7F                - Note On  (12)
  542.     6.     6380.  82 36                   - Note Off (11)
  543.    18.     6398.  8D 2D                   - Note Off (10)
  544.    25.     6423.  82 42                   - Note Off ( 9)
  545.     2.     6425.  8D 26                   - Note Off ( 8)
  546.    43.     6468.  81 31                   - Note Off ( 7)
  547.    12.     6480.  92 3A 62                - Note On  ( 8)
  548.     0.     6480.  92 42 41                - Note On  ( 9)
  549.     2.     6482.  91 32 52                - Note On  (10)
  550.     0.     6482.  9D 38 66                - Note On  (11)
  551.     0.     6482.  9D 3C 66                - Note On  (12)
  552.     0.     6482.  9D 32 5D                - Note On  (13)
  553.     3.     6485.  82 38                   - Note Off (12)
  554.     1.     6486.  80 27                   - Note Off (11)
  555.     0.     6486.  90 28 7F                - Note On  (12)
  556.    59.     6545.  82 42                   - Note Off (11)
  557.    20.     6565.  8D 38                   - Note Off (10)
  558.    15.     6580.  8D 32                   - Note Off ( 9)
  559.    15.     6595.  9D 39 78                - Note On  (10)
  560.     5.     6600.  92 42 55                - Note On  (11)
  561.     6.     6606.  8D 3C                   - Note Off (10)
  562.     1.     6607.  83 39                   - Note Off ( 9)
  563.     3.     6610.  83 3C                   - Note Off ( 8)
  564.    20.     6630.  91 26 66                - Note On  ( 9)
  565.    20.     6650.  83 41                   - Note Off ( 8)
  566.    12.     6662.  81 32                   - Note Off ( 7)
  567.    11.     6673.  82 42                   - Note Off ( 6)
  568.     3.     6676.  82 3A                   - Note Off ( 5)
  569.     3.     6679.  83 2D                   - Note Off ( 4)
  570.     5.     6684.  83 26                   - Note Off ( 3)
  571.     3.     6687.  81 26                   - Note Off ( 2)
  572.    10.     6697.  93 30 63                - Note On  ( 3)
  573.     0.     6697.  B3 40 00                - Damper Pedal
  574.    17.     6714.  8D 39                   - Note Off ( 2)
  575.     6.     6720.  92 36 66                - Note On  ( 3)
  576.     0.     6720.  92 42 46                - Note On  ( 4)
  577.     0.     6720.  9D 2D 4F                - Note On  ( 5)
  578.     2.     6722.  93 37 52                - Note On  ( 6)
  579.     1.     6723.  80 28                   - Note Off ( 5)
  580.     0.     6723.  90 29 7F                - Note On  ( 6)
  581.     6.     6729.  93 3B 52                - Note On  ( 7)
  582.    16.     6745.  93 40 50                - Note On  ( 8)
  583.    37.     6782.  82 42                   - Note Off ( 7)
  584.    29.     6811.  8D 2D                   - Note Off ( 6)
  585.    29.     6840.  92 38 52                - Note On  ( 7)
  586.     0.     6840.  92 42 3F                - Note On  ( 8)
  587.     0.     6840.  9D 32 56                - Note On  ( 9)
  588.     0.     6840.  9D 39 4F                - Note On  (10)
  589.     0.     6840.  9D 3C 3F                - Note On  (11)
  590.    27.     6867.  91 32 6C                - Note On  (12)
  591.    38.     6905.  82 36                   - Note Off (11)
  592.    27.     6932.  8D 39                   - Note Off (10)
  593.    11.     6943.  8D 32                   - Note Off ( 9)
  594.    10.     6953.  8D 3C                   - Note Off ( 8)
  595.     4.     6957.  81 32                   - Note Off ( 7)
  596.     3.     6960.  92 3A 58                - Note On  ( 8)
  597.     1.     6961.  80 29                   - Note Off ( 7)
  598.     0.     6961.  90 2A 7F                - Note On  ( 8)
  599.     6.     6967.  91 30 60                - Note On  ( 9)
  600.     5.     6972.  82 42                   - Note Off ( 8)
  601.    16.     6988.  82 38                   - Note Off ( 7)
  602.     1.     6989.  B3 40 7F                - Damper Pedal
  603.    81.     7070.  9D 26 2D                - Note On  ( 8)
  604.     0.     7070.  9D 2D 2D                - Note On  ( 9)
  605.    10.     7080.  92 42 48                - Note On  (10)
  606.    28.     7108.  8D 2D                   - Note Off ( 9)
  607.    39.     7147.  8D 26                   - Note Off ( 8)
  608.    10.     7157.  82 42                   - Note Off ( 7)
  609.    29.     7186.  82 3A                   - Note Off ( 6)
  610.     6.     7192.  80 2A                   - Note Off ( 5)
  611.     0.     7192.  90 2B 7F                - Note On  ( 6)
  612.     8.     7200.  92 36 66                - Note On  ( 7)
  613.     0.     7200.  92 42 6C                - Note On  ( 8)
  614.     0.     7200.  9D 3C 76                - Note On  ( 9)
  615.     0.     7200.  9D 32 41                - Note On  (10)
  616.     0.     7200.  9D 39 7A                - Note On  (11)
  617.     7.     7207.  91 2D 52                - Note On  (12)
  618.    21.     7228.  81 30                   - Note Off (11)
  619.    40.     7268.  82 42                   - Note Off (10)
  620.    21.     7289.  8D 3C                   - Note Off ( 9)
  621.     0.     7289.  8D 32                   - Note Off ( 8)
  622.    16.     7305.  8D 39                   - Note Off ( 7)
  623.     5.     7310.  9D 32 27                - Note On  ( 8)
  624.     0.     7310.  9D 3C 5C                - Note On  ( 9)
  625.     0.     7310.  9D 39 60                - Note On  (10)
  626.     0.     7310.  9D 2D 36                - Note On  (11)
  627.     1.     7311.  8D 32                   - Note Off (10)
  628.     0.     7311.  8D 39                   - Note Off ( 9)
  629.     9.     7320.  92 38 52                - Note On  (10)
  630.     0.     7320.  92 42 3F                - Note On  (11)
  631.    13.     7333.  80 2B                   - Note Off (10)
  632.     0.     7333.  90 2C 7F                - Note On  (11)
  633.    29.     7362.  8D 3C                   - Note Off (10)
  634.     0.     7362.  8D 2D                   - Note Off ( 9)
  635.     7.     7369.  82 36                   - Note Off ( 8)
  636.    10.     7379.  82 42                   - Note Off ( 7)
  637.    56.     7435.  9D 39 6B                - Note On  ( 8)
  638.     0.     7435.  9D 32 6B                - Note On  ( 9)
  639.     5.     7440.  92 3A 62                - Note On  (10)
  640.     0.     7440.  92 42 28                - Note On  (11)
  641.     5.     7445.  80 2C                   - Note Off (10)
  642.     0.     7445.  90 2D 7F                - Note On  (11)
  643.     0.     7445.  91 2B 60                - Note On  (12)
  644.     3.     7448.  81 2D                   - Note Off (11)
  645.     1.     7449.  82 38                   - Note Off (10)
  646.    63.     7512.  8D 39                   - Note Off ( 9)
  647.     0.     7512.  8D 32                   - Note Off ( 8)
  648.     3.     7515.  82 42                   - Note Off ( 7)
  649.    32.     7547.  9D 3E 7A                - Note On  ( 8)
  650.     0.     7547.  9D 2D 42                - Note On  ( 9)
  651.    13.     7560.  92 42 4C                - Note On  (10)
  652.    36.     7596.  8D 2D                   - Note Off ( 9)
  653.    28.     7624.  8D 3E                   - Note Off ( 8)
  654.     0.     7624.  82 42                   - Note Off ( 7)
  655.     1.     7625.  82 3A                   - Note Off ( 6)
  656.    55.     7680.  80 2D                   - Note Off ( 5)
  657.     0.     7680.  90 24 7F                - Note On  ( 6)
  658.     0.     7680.  92 36 69                - Note On  ( 7)
  659.     0.     7680.  92 42 54                - Note On  ( 8)
  660.     0.     7680.  91 26 75                - Note On  ( 9)
  661.     0.     7680.  9D 32 73                - Note On  (10)
  662.     0.     7680.  9D 38 7F                - Note On  (11)
  663.     0.     7680.  9D 3C 7A                - Note On  (12)
  664.     2.     7682.  93 39 4A                - Note On  (13)
  665.     2.     7684.  93 2D 48                - Note On  (14)
  666.     9.     7693.  93 26 48                - Note On  (15)
  667.     4.     7697.  83 37                   - Note Off (14)
  668.     5.     7702.  83 30                   - Note Off (13)
  669.     1.     7703.  83 3B                   - Note Off (12)
  670.     5.     7708.  93 3C 4C                - Note On  (13)
  671.     4.     7712.  83 40                   - Note Off (12)
  672.    15.     7727.  81 2B                   - Note Off (11)
  673.     1.     7728.  93 41 54                - Note On  (12)
  674.    13.     7741.  82 42                   - Note Off (11)
  675.    59.     7800.  92 38 4C                - Note On  (12)
  676.     0.     7800.  92 42 3C                - Note On  (13)
  677.    19.     7819.  82 36                   - Note Off (12)
  678.    46.     7865.  82 42                   - Note Off (11)
  679.    45.     7910.  81 26                   - Note Off (10)
  680.     0.     7910.  91 30 66                - Note On  (11)
  681.    10.     7920.  92 3A 60                - Note On  (12)
  682.     0.     7920.  92 42 43                - Note On  (13)
  683.     0.     7920.  9D 39 5A                - Note On  (14)
  684.     3.     7923.  80 24                   - Note Off (13)
  685.     0.     7923.  90 25 7F                - Note On  (14)
  686.     4.     7927.  8D 38                   - Note Off (13)
  687.    11.     7938.  82 38                   - Note Off (12)
  688.    56.     7994.  82 42                   - Note Off (11)
  689.    15.     8009.  8D 3C                   - Note Off (10)
  690.     4.     8013.  8D 39                   - Note Off ( 9)
  691.     7.     8020.  8D 32                   - Note Off ( 8)
  692.    15.     8035.  9D 2D 5A                - Note On  ( 9)
  693.     5.     8040.  92 42 47                - Note On  (10)
  694.    60.     8100.  8D 2D                   - Note Off ( 9)
  695.    15.     8115.  82 3A                   - Note Off ( 8)
  696.     0.     8115.  82 42                   - Note Off ( 7)
  697.    44.     8159.  80 25                   - Note Off ( 6)
  698.     0.     8159.  90 26 7F                - Note On  ( 7)
  699.     1.     8160.  92 36 66                - Note On  ( 8)
  700.     0.     8160.  92 42 6C                - Note On  ( 9)
  701.     0.     8160.  9D 39 45                - Note On  (10)
  702.     0.     8160.  9D 3C 73                - Note On  (11)
  703.     0.     8160.  9D 32 7E                - Note On  (12)
  704.     2.     8162.  91 31 52                - Note On  (13)
  705.    16.     8178.  81 30                   - Note Off (12)
  706.    56.     8234.  B3 40 7F                - Damper Pedal
  707.     2.     8236.  82 42                   - Note Off (11)
  708.    14.     8250.  8D 39                   - Note Off (10)
  709.    22.     8272.  9D 26 42                - Note On  (11)
  710.     0.     8272.  9D 2D 42                - Note On  (12)
  711.     2.     8274.  8D 3C                   - Note Off (11)
  712.     2.     8276.  8D 32                   - Note Off (10)
  713.     4.     8280.  92 38 4C                - Note On  (11)
  714.     0.     8280.  92 42 42                - Note On  (12)
  715.    14.     8294.  80 26                   - Note Off (11)
  716.     0.     8294.  90 27 7F                - Note On  (12)
  717.    11.     8305.  82 36                   - Note Off (11)
  718.    10.     8315.  8D 2D                   - Note Off (10)
  719.    27.     8342.  8D 26                   - Note Off ( 9)
  720.     1.     8343.  82 42                   - Note Off ( 8)
  721.    50.     8393.  82 38                   - Note Off ( 7)
  722.     2.     8395.  91 32 5A                - Note On  ( 8)
  723.     5.     8400.  92 3A 68                - Note On  ( 9)
  724.     0.     8400.  92 42 41                - Note On  (10)
  725.     2.     8402.  9D 38 66                - Note On  (11)
  726.     0.     8402.  9D 3C 66                - Note On  (12)
  727.     0.     8402.  9D 32 5D                - Note On  (13)
  728.     4.     8406.  80 27                   - Note Off (12)
  729.     0.     8406.  90 28 7F                - Note On  (13)
  730.    19.     8425.  81 31                   - Note Off (12)
  731.    40.     8465.  82 42                   - Note Off (11)
  732.    20.     8485.  8D 38                   - Note Off (10)
  733.    15.     8500.  8D 32                   - Note Off ( 9)
  734.    12.     8512.  9D 39 78                - Note On  (10)
  735.     8.     8520.  92 42 55                - Note On  (11)
  736.     6.     8526.  8D 3C                   - Note Off (10)
  737.    16.     8542.  91 26 69                - Note On  (11)
  738.    21.     8563.  81 32                   - Note Off (10)
  739.    30.     8593.  82 42                   - Note Off ( 9)
  740.    20.     8613.  82 3A                   - Note Off ( 8)
  741.     9.     8622.  81 26                   - Note Off ( 7)
  742.     9.     8631.  8D 39                   - Note Off ( 6)
  743.     6.     8637.  9D 2D 4F                - Note On  ( 7)
  744.     3.     8640.  92 36 66                - Note On  ( 8)
  745.     0.     8640.  92 42 46                - Note On  ( 9)
  746.     3.     8643.  80 28                   - Note Off ( 8)
  747.     0.     8643.  90 29 7F                - Note On  ( 9)
  748.    59.     8702.  82 42                   - Note Off ( 8)
  749.    26.     8728.  8D 2D                   - Note Off ( 7)
  750.    27.     8755.  9D 32 56                - Note On  ( 8)
  751.     0.     8755.  9D 39 4F                - Note On  ( 9)
  752.     0.     8755.  9D 3C 3F                - Note On  (10)
  753.     5.     8760.  92 38 4C                - Note On  (11)
  754.     0.     8760.  92 42 3F                - Note On  (12)
  755.    22.     8782.  91 32 69                - Note On  (13)
  756.    13.     8795.  82 36                   - Note Off (12)
  757.    52.     8847.  8D 39                   - Note Off (11)
  758.    11.     8858.  8D 32                   - Note Off (10)
  759.    10.     8868.  8D 3C                   - Note Off ( 9)
  760.     1.     8869.  82 38                   - Note Off ( 8)
  761.     9.     8878.  81 32                   - Note Off ( 7)
  762.     2.     8880.  92 3A 58                - Note On  ( 8)
  763.     1.     8881.  80 29                   - Note Off ( 7)
  764.     0.     8881.  90 2A 7F                - Note On  ( 8)
  765.     1.     8882.  91 30 63                - Note On  ( 9)
  766.    10.     8892.  82 42                   - Note Off ( 8)
  767.   103.     8995.  9D 26 32                - Note On  ( 9)
  768.     0.     8995.  9D 2D 36                - Note On  (10)
  769.     5.     9000.  92 42 48                - Note On  (11)
  770.    33.     9033.  8D 2D                   - Note Off (10)
  771.    39.     9072.  8D 26                   - Note Off ( 9)
  772.     5.     9077.  82 42                   - Note Off ( 8)
  773.    26.     9103.  82 3A                   - Note Off ( 7)
  774.     9.     9112.  80 2A                   - Note Off ( 6)
  775.     0.     9112.  90 2B 7F                - Note On  ( 7)
  776.     8.     9120.  92 36 69                - Note On  ( 8)
  777.     0.     9120.  92 42 6C                - Note On  ( 9)
  778.     2.     9122.  9D 3C 76                - Note On  (10)
  779.     0.     9122.  9D 32 41                - Note On  (11)
  780.     0.     9122.  9D 38 7A                - Note On  (12)
  781.    66.     9188.  82 42                   - Note Off (11)
  782.    47.     9235.  9D 2D 36                - Note On  (12)
  783.     5.     9240.  92 38 4C                - Note On  (13)
  784.     0.     9240.  92 42 3F                - Note On  (14)
  785.    13.     9253.  80 2B                   - Note Off (13)
  786.     0.     9253.  90 2C 7F                - Note On  (14)
  787.    34.     9287.  8D 2D                   - Note Off (13)
  788.     1.     9288.  82 36                   - Note Off (12)
  789.    11.     9299.  82 42                   - Note Off (11)
  790.    48.     9347.  8D 38                   - Note Off (10)
  791.     7.     9354.  8D 3C                   - Note Off ( 9)
  792.     6.     9360.  92 3A 64                - Note On  (10)
  793.     0.     9360.  92 42 28                - Note On  (11)
  794.     4.     9364.  82 38                   - Note Off (10)
  795.     1.     9365.  80 2C                   - Note Off ( 9)
  796.     0.     9365.  90 2D 7F                - Note On  (10)
  797.     0.     9365.  9D 39 5C                - Note On  (11)
  798.    54.     9419.  8D 32                   - Note Off (10)
  799.    16.     9435.  82 42                   - Note Off ( 9)
  800.     7.     9442.  8D 39                   - Note Off ( 8)
  801.    28.     9470.  9D 2D 42                - Note On  ( 9)
  802.    10.     9480.  92 42 4C                - Note On  (10)
  803.    39.     9519.  8D 2D                   - Note Off ( 9)
  804.    25.     9544.  82 42                   - Note Off ( 8)
  805.    25.     9569.  82 3A                   - Note Off ( 7)
  806.    31.     9600.  80 2D                   - Note Off ( 6)
  807.     0.     9600.  90 24 7F                - Note On  ( 7)
  808.     0.     9600.  92 36 66                - Note On  ( 8)
  809.     0.     9600.  92 42 54                - Note On  ( 9)
  810.     7.     9607.  91 26 75                - Note On  (10)
  811.     0.     9607.  9D 32 73                - Note On  (11)
  812.     0.     9607.  9D 38 7F                - Note On  (12)
  813.     0.     9607.  9D 3C 7A                - Note On  (13)
  814.    21.     9628.  81 30                   - Note Off (12)
  815.    33.     9661.  82 42                   - Note Off (11)
  816.    59.     9720.  92 38 50                - Note On  (12)
  817.     0.     9720.  92 42 3C                - Note On  (13)
  818.    28.     9748.  82 36                   - Note Off (12)
  819.    37.     9785.  82 42                   - Note Off (11)
  820.    50.     9835.  81 26                   - Note Off (10)
  821.     2.     9837.  91 30 54                - Note On  (11)
  822.     1.     9838.  82 38                   - Note Off (10)
  823.     2.     9840.  92 3A 64                - Note On  (11)
  824.     0.     9840.  92 42 43                - Note On  (12)
  825.     3.     9843.  80 24                   - Note Off (11)
  826.     0.     9843.  90 25 7F                - Note On  (12)
  827.     2.     9845.  9D 39 5A                - Note On  (13)
  828.     9.     9854.  8D 38                   - Note Off (12)
  829.    60.     9914.  82 42                   - Note Off (11)
  830.    22.     9936.  8D 3C                   - Note Off (10)
  831.     2.     9938.  8D 39                   - Note Off ( 9)
  832.     9.     9947.  8D 32                   - Note Off ( 8)
  833.     8.     9955.  9D 2D 5A                - Note On  ( 9)
  834.     5.     9960.  92 42 47                - Note On  (10)
  835.    60.    10020.  8D 2D                   - Note Off ( 9)
  836.    15.    10035.  82 42                   - Note Off ( 8)
  837.     1.    10036.  82 3A                   - Note Off ( 7)
  838.    42.    10078.  9D 39 45                - Note On  ( 8)
  839.     0.    10078.  9D 3C 73                - Note On  ( 9)
  840.     0.    10078.  9D 32 7E                - Note On  (10)
  841.     1.    10079.  80 25                   - Note Off ( 9)
  842.     0.    10079.  90 26 7F                - Note On  (10)
  843.     1.    10080.  92 36 69                - Note On  (11)
  844.     0.    10080.  92 42 6C                - Note On  (12)
  845.    10.    10090.  91 31 4E                - Note On  (13)
  846.    66.    10156.  82 42                   - Note Off (12)
  847.     8.    10164.  81 30                   - Note Off (11)
  848.     4.    10168.  8D 39                   - Note Off (10)
  849.    24.    10192.  8D 3C                   - Note Off ( 9)
  850.     2.    10194.  8D 32                   - Note Off ( 8)
  851.     1.    10195.  9D 26 42                - Note On  ( 9)
  852.     0.    10195.  9D 2D 42                - Note On  (10)
  853.     5.    10200.  92 38 50                - Note On  (11)
  854.     0.    10200.  92 42 42                - Note On  (12)
  855.    14.    10214.  80 26                   - Note Off (11)
  856.     0.    10214.  90 27 7F                - Note On  (12)
  857.     8.    10222.  82 36                   - Note Off (11)
  858.    16.    10238.  8D 2D                   - Note Off (10)
  859.    25.    10263.  82 42                   - Note Off ( 9)
  860.     2.    10265.  8D 26                   - Note Off ( 8)
  861.    43.    10308.  82 38                   - Note Off ( 7)
  862.    12.    10320.  92 3A 64                - Note On  ( 8)
  863.     0.    10320.  92 42 41                - Note On  ( 9)
  864.     2.    10322.  91 32 57                - Note On  (10)
  865.     0.    10322.  9D 38 66                - Note On  (11)
  866.     0.    10322.  9D 3C 66                - Note On  (12)
  867.     0.    10322.  9D 32 5D                - Note On  (13)
  868.     4.    10326.  80 27                   - Note Off (12)
  869.     0.    10326.  90 28 7F                - Note On  (13)
  870.    14.    10340.  81 31                   - Note Off (12)
  871.    45.    10385.  82 42                   - Note Off (11)
  872.    20.    10405.  8D 38                   - Note Off (10)
  873.    15.    10420.  8D 32                   - Note Off ( 9)
  874.    15.    10435.  9D 39 78                - Note On  (10)
  875.     5.    10440.  92 42 55                - Note On  (11)
  876.     4.    10444.  83 39                   - Note Off (10)
  877.     2.    10446.  8D 3C                   - Note Off ( 9)
  878.    16.    10462.  83 2D                   - Note Off ( 8)
  879.     8.    10470.  91 2D 63                - Note On  ( 9)
  880.     3.    10473.  83 41                   - Note Off ( 8)
  881.     1.    10474.  83 3C                   - Note Off ( 7)
  882.    14.    10488.  81 32                   - Note Off ( 6)
  883.    17.    10505.  83 26                   - Note Off ( 5)
  884.     8.    10513.  82 42                   - Note Off ( 4)
  885.    20.    10533.  82 3A                   - Note Off ( 3)
  886.     3.    10536.  93 39 48                - Note On  ( 4)
  887.     7.    10543.  81 2D                   - Note Off ( 3)
  888.     7.    10550.  93 2B 48                - Note On  ( 4)
  889.     4.    10554.  8D 39                   - Note Off ( 3)
  890.     5.    10559.  93 3C 57                - Note On  ( 4)
  891.     1.    10560.  92 42 46                - Note On  ( 5)
  892.     0.    10560.  92 36 69                - Note On  ( 6)
  893.     0.    10560.  9D 2D 4F                - Note On  ( 7)
  894.     3.    10563.  80 28                   - Note Off ( 6)
  895.     0.    10563.  90 29 7F                - Note On  ( 7)
  896.    25.    10588.  93 43 4C                - Note On  ( 8)
  897.    12.    10600.  B3 40 00                - Damper Pedal
  898.    22.    10622.  82 42                   - Note Off ( 7)
  899.    29.    10651.  8D 2D                   - Note Off ( 6)
  900.    29.    10680.  92 38 50                - Note On  ( 7)
  901.     0.    10680.  92 42 3F                - Note On  ( 8)
  902.     0.    10680.  9D 32 56                - Note On  ( 9)
  903.     0.    10680.  9D 39 4F                - Note On  (10)
  904.     0.    10680.  9D 3C 3F                - Note On  (11)
  905.    26.    10706.  82 36                   - Note Off (10)
  906.     1.    10707.  91 2D 54                - Note On  (11)
  907.    65.    10772.  8D 39                   - Note Off (10)
  908.    11.    10783.  8D 32                   - Note Off ( 9)
  909.    10.    10793.  8D 3C                   - Note Off ( 8)
  910.     1.    10794.  81 2D                   - Note Off ( 7)
  911.     6.    10800.  92 3A 64                - Note On  ( 8)
  912.     1.    10801.  80 29                   - Note Off ( 7)
  913.     0.    10801.  90 2A 7F                - Note On  ( 8)
  914.     5.    10806.  82 38                   - Note Off ( 7)
  915.     1.    10807.  91 2B 57                - Note On  ( 8)
  916.     5.    10812.  82 42                   - Note Off ( 7)
  917.     3.    10815.  B3 40 7F                - Damper Pedal
  918.    95.    10910.  9D 26 32                - Note On  ( 8)
  919.     0.    10910.  9D 2D 36                - Note On  ( 9)
  920.    10.    10920.  92 42 48                - Note On  (10)
  921.    28.    10948.  8D 2D                   - Note Off ( 9)
  922.    39.    10987.  8D 26                   - Note Off ( 8)
  923.    10.    10997.  82 42                   - Note Off ( 7)
  924.     8.    11005.  82 3A                   - Note Off ( 6)
  925.    27.    11032.  80 2A                   - Note Off ( 5)
  926.     0.    11032.  90 2B 7F                - Note On  ( 6)
  927.     8.    11040.  92 36 69                - Note On  ( 7)
  928.     0.    11040.  92 42 6C                - Note On  ( 8)
  929.     0.    11040.  9D 3C 76                - Note On  ( 9)
  930.     0.    11040.  9D 32 41                - Note On  (10)
  931.     0.    11040.  9D 38 7A                - Note On  (11)
  932.    68.    11108.  82 42                   - Note Off (10)
  933.    42.    11150.  9D 2D 36                - Note On  (11)
  934.    10.    11160.  92 38 4E                - Note On  (12)
  935.     0.    11160.  92 42 3F                - Note On  (13)
  936.    13.    11173.  80 2B                   - Note Off (12)
  937.     0.    11173.  90 2C 7F                - Note On  (13)
  938.    22.    11195.  82 36                   - Note Off (12)
  939.     7.    11202.  8D 2D                   - Note Off (11)
  940.    17.    11219.  82 42                   - Note Off (10)
  941.    46.    11265.  8D 38                   - Note Off ( 9)
  942.     5.    11270.  82 38                   - Note Off ( 8)
  943.     2.    11272.  8D 3C                   - Note Off ( 7)
  944.     3.    11275.  9D 39 5C                - Note On  ( 8)
  945.     5.    11280.  92 3A 68                - Note On  ( 9)
  946.     0.    11280.  92 42 28                - Note On  (10)
  947.     5.    11285.  80 2C                   - Note Off ( 9)
  948.     0.    11285.  90 2D 7F                - Note On  (10)
  949.    52.    11337.  8D 32                   - Note Off ( 9)
  950.    15.    11352.  8D 39                   - Note Off ( 8)
  951.     3.    11355.  82 42                   - Note Off ( 7)
  952.    32.    11387.  9D 2D 42                - Note On  ( 8)
  953.    13.    11400.  92 42 4C                - Note On  ( 9)
  954.     9.    11409.  83 43                   - Note Off ( 8)
  955.    27.    11436.  8D 2D                   - Note Off ( 7)
  956.    12.    11448.  83 3C                   - Note Off ( 6)
  957.    13.    11461.  83 39                   - Note Off ( 5)
  958.     3.    11464.  82 42                   - Note Off ( 4)
  959.    18.    11482.  83 2B                   - Note Off ( 3)
  960.    11.    11493.  93 2D 44                - Note On  ( 4)
  961.     5.    11498.  93 39 4A                - Note On  ( 5)
  962.     6.    11504.  82 3A                   - Note Off ( 4)
  963.     1.    11505.  B3 40 00                - Damper Pedal
  964.     4.    11509.  93 26 2D                - Note On  ( 5)
  965.     6.    11515.  93 3C 54                - Note On  ( 6)
  966.     5.    11520.  80 2D                   - Note Off ( 5)
  967.     0.    11520.  90 24 7F                - Note On  ( 6)
  968.     0.    11520.  92 36 66                - Note On  ( 7)
  969.     0.    11520.  92 42 54                - Note On  ( 8)
  970.     0.    11520.  91 26 72                - Note On  ( 9)
  971.     0.    11520.  9D 32 73                - Note On  (10)
  972.     0.    11520.  9D 38 7F                - Note On  (11)
  973.     0.    11520.  9D 3C 7A                - Note On  (12)
  974.    12.    11532.  93 41 5D                - Note On  (13)
  975.    29.    11561.  81 2B                   - Note Off (12)
  976.    20.    11581.  82 42                   - Note Off (11)
  977.    59.    11640.  92 38 50                - Note On  (12)
  978.     0.    11640.  92 42 3C                - Note On  (13)
  979.    40.    11680.  82 36                   - Note Off (12)
  980.    25.    11705.  82 42                   - Note Off (11)
  981.    45.    11750.  91 30 60                - Note On  (12)
  982.     5.    11755.  82 38                   - Note Off (11)
  983.     5.    11760.  92 3A 62                - Note On  (12)
  984.     0.    11760.  92 42 43                - Note On  (13)
  985.     0.    11760.  9D 39 5A                - Note On  (14)
  986.     3.    11763.  80 24                   - Note Off (13)
  987.     0.    11763.  90 25 7F                - Note On  (14)
  988.     2.    11765.  81 26                   - Note Off (13)
  989.     2.    11767.  8D 38                   - Note Off (12)
  990.    67.    11834.  82 42                   - Note Off (11)
  991.    15.    11849.  8D 3C                   - Note Off (10)
  992.     4.    11853.  8D 39                   - Note Off ( 9)
  993.     7.    11860.  8D 32                   - Note Off ( 8)
  994.    15.    11875.  9D 2D 5A                - Note On  ( 9)
  995.     5.    11880.  92 42 47                - Note On  (10)
  996.     9.    11889.  B3 40 7F                - Damper Pedal
  997.    51.    11940.  8D 2D                   - Note Off ( 9)
  998.    15.    11955.  82 42                   - Note Off ( 8)
  999.    31.    11986.  82 3A                   - Note Off ( 7)
 1000.    13.    11999.  80 25                   - Note Off ( 6)
 1001.     0.    11999.  90 26 7F                - Note On  ( 7)
 1002.     1.    12000.  92 36 66                - Note On  ( 8)
 1003.     0.    12000.  92 42 6C                - Note On  ( 9)
 1004.     0.    12000.  9D 39 45                - Note On  (10)
 1005.     0.    12000.  9D 3C 73                - Note On  (11)
 1006.     0.    12000.  9D 32 7E                - Note On  (12)
 1007.     2.    12002.  91 31 4A                - Note On  (13)
 1008.    28.    12030.  81 30                   - Note Off (12)
 1009.    46.    12076.  82 42                   - Note Off (11)
 1010.    14.    12090.  8D 39                   - Note Off (10)
 1011.    22.    12112.  9D 26 42                - Note On  (11)
 1012.     0.    12112.  9D 2D 42                - Note On  (12)
 1013.     2.    12114.  8D 3C                   - Note Off (11)
 1014.     2.    12116.  8D 32                   - Note Off (10)
 1015.     4.    12120.  92 38 4C                - Note On  (11)
 1016.     0.    12120.  92 42 42                - Note On  (12)
 1017.    14.    12134.  80 26                   - Note Off (11)
 1018.     0.    12134.  90 27 7F                - Note On  (12)
 1019.    20.    12154.  82 36                   - Note Off (11)
 1020.     1.    12155.  8D 2D                   - Note Off (10)
 1021.    27.    12182.  8D 26                   - Note Off ( 9)
 1022.     1.    12183.  82 42                   - Note Off ( 8)
 1023.    52.    12235.  91 32 50                - Note On  ( 9)
 1024.     4.    12239.  81 31                   - Note Off ( 8)
 1025.     1.    12240.  92 3A 5B                - Note On  ( 9)
 1026.     0.    12240.  92 42 41                - Note On  (10)
 1027.     2.    12242.  9D 38 66                - Note On  (11)
 1028.     0.    12242.  9D 3C 66                - Note On  (12)
 1029.     0.    12242.  9D 32 5D                - Note On  (13)
 1030.     4.    12246.  80 27                   - Note Off (12)
 1031.     0.    12246.  90 28 7F                - Note On  (13)
 1032.     1.    12247.  82 38                   - Note Off (12)
 1033.    58.    12305.  82 42                   - Note Off (11)
 1034.    20.    12325.  8D 38                   - Note Off (10)
 1035.    15.    12340.  8D 32                   - Note Off ( 9)
 1036.    12.    12352.  9D 39 78                - Note On  (10)
 1037.     8.    12360.  92 42 55                - Note On  (11)
 1038.     6.    12366.  8D 3C                   - Note Off (10)
 1039.    19.    12385.  91 26 66                - Note On  (11)
 1040.    21.    12406.  81 32                   - Note Off (10)
 1041.    27.    12433.  82 42                   - Note Off ( 9)
 1042.    21.    12454.  81 26                   - Note Off ( 8)
 1043.    16.    12470.  82 3A                   - Note Off ( 7)
 1044.     1.    12471.  8D 39                   - Note Off ( 6)
 1045.     6.    12477.  9D 2D 4F                - Note On  ( 7)
 1046.     3.    12480.  92 36 66                - Note On  ( 8)
 1047.     0.    12480.  92 42 46                - Note On  ( 9)
 1048.     3.    12483.  80 28                   - Note Off ( 8)
 1049.     0.    12483.  90 29 7F                - Note On  ( 9)
 1050.    59.    12542.  82 42                   - Note Off ( 8)
 1051.    26.    12568.  8D 2D                   - Note Off ( 7)
 1052.    27.    12595.  9D 32 56                - Note On  ( 8)
 1053.     0.    12595.  9D 39 4F                - Note On  ( 9)
 1054.     0.    12595.  9D 3C 3F                - Note On  (10)
 1055.     5.    12600.  92 38 4A                - Note On  (11)
 1056.     0.    12600.  92 42 3F                - Note On  (12)
 1057.    27.    12627.  91 32 60                - Note On  (13)
 1058.    26.    12653.  82 36                   - Note Off (12)
 1059.    34.    12687.  8D 39                   - Note Off (11)
 1060.    11.    12698.  8D 32                   - Note Off (10)
 1061.    10.    12708.  8D 3C                   - Note Off ( 9)
 1062.     7.    12715.  81 32                   - Note Off ( 8)
 1063.     5.    12720.  92 3A 60                - Note On  ( 9)
 1064.     1.    12721.  80 29                   - Note Off ( 8)
 1065.     0.    12721.  90 2A 7F                - Note On  ( 9)
 1066.     1.    12722.  91 30 5A                - Note On  (10)
 1067.     7.    12729.  82 38                   - Note Off ( 9)
 1068.     3.    12732.  82 42                   - Note Off ( 8)
 1069.   103.    12835.  9D 26 32                - Note On  ( 9)
 1070.     0.    12835.  9D 2D 36                - Note On  (10)
 1071.     5.    12840.  92 42 48                - Note On  (11)
 1072.    33.    12873.  8D 2D                   - Note Off (10)
 1073.    39.    12912.  8D 26                   - Note Off ( 9)
 1074.     5.    12917.  82 42                   - Note Off ( 8)
 1075.    14.    12931.  82 3A                   - Note Off ( 7)
 1076.    21.    12952.  80 2A                   - Note Off ( 6)
 1077.     0.    12952.  90 2B 7F                - Note On  ( 7)
 1078.     8.    12960.  92 36 66                - Note On  ( 8)
 1079.     0.    12960.  92 42 6C                - Note On  ( 9)
 1080.     2.    12962.  9D 3C 76                - Note On  (10)
 1081.     0.    12962.  9D 32 41                - Note On  (11)
 1082.     0.    12962.  9D 38 7A                - Note On  (12)
 1083.    66.    13028.  82 42                   - Note Off (11)
 1084.    47.    13075.  9D 2D 36                - Note On  (12)
 1085.     5.    13080.  92 38 4E                - Note On  (13)
 1086.     0.    13080.  92 42 3F                - Note On  (14)
 1087.    13.    13093.  80 2B                   - Note Off (13)
 1088.     0.    13093.  90 2C 7F                - Note On  (14)
 1089.    29.    13122.  82 36                   - Note Off (13)
 1090.     5.    13127.  8D 2D                   - Note Off (12)
 1091.    12.    13139.  82 42                   - Note Off (11)
 1092.    48.    13187.  8D 38                   - Note Off (10)
 1093.     7.    13194.  8D 3C                   - Note Off ( 9)
 1094.     6.    13200.  92 3A 62                - Note On  (10)
 1095.     0.    13200.  92 42 28                - Note On  (11)
 1096.     2.    13202.  81 30                   - Note Off (10)
 1097.     3.    13205.  80 2C                   - Note Off ( 9)
 1098.     0.    13205.  90 2D 7F                - Note On  (10)
 1099.     0.    13205.  91 30 69                - Note On  (11)
 1100.     0.    13205.  9D 39 5C                - Note On  (12)
 1101.     4.    13209.  82 38                   - Note Off (11)
 1102.    50.    13259.  8D 32                   - Note Off (10)
 1103.    16.    13275.  82 42                   - Note Off ( 9)
 1104.     7.    13282.  8D 39                   - Note Off ( 8)
 1105.    28.    13310.  9D 2D 42                - Note On  ( 9)
 1106.    10.    13320.  92 42 4C                - Note On  (10)
 1107.    39.    13359.  8D 2D                   - Note Off ( 9)
 1108.    25.    13384.  82 42                   - Note Off ( 8)
 1109.    27.    13411.  82 3A                   - Note Off ( 7)
 1110.    29.    13440.  81 30                   - Note Off ( 6)
 1111.     0.    13440.  80 2D                   - Note Off ( 5)
 1112.     0.    13440.  90 24 7F                - Note On  ( 6)
 1113.     0.    13440.  92 36 60                - Note On  ( 7)
 1114.     0.    13440.  92 42 54                - Note On  ( 8)
 1115.     7.    13447.  91 26 72                - Note On  ( 9)
 1116.     0.    13447.  9D 32 6B                - Note On  (10)
 1117.     0.    13447.  9D 38 40                - Note On  (11)
 1118.     0.    13447.  9D 3C 7F                - Note On  (12)
 1119.    54.    13501.  82 42                   - Note Off (11)
 1120.    59.    13560.  92 38 52                - Note On  (12)
 1121.     0.    13560.  92 42 3C                - Note On  (13)
 1122.    27.    13587.  82 36                   - Note Off (12)
 1123.    38.    13625.  82 42                   - Note Off (11)
 1124.    40.    13665.  8D 38                   - Note Off (10)
 1125.    12.    13677.  91 30 69                - Note On  (11)
 1126.     3.    13680.  92 3A 60                - Note On  (12)
 1127.     0.    13680.  92 42 43                - Note On  (13)
 1128.     3.    13683.  80 24                   - Note Off (12)
 1129.     0.    13683.  90 25 7F                - Note On  (13)
 1130.     2.    13685.  9D 39 43                - Note On  (14)
 1131.     1.    13686.  81 26                   - Note Off (13)
 1132.     2.    13688.  82 38                   - Note Off (12)
 1133.    66.    13754.  82 42                   - Note Off (11)
 1134.    37.    13791.  8D 32                   - Note Off (10)
 1135.     1.    13792.  8D 3C                   - Note Off ( 9)
 1136.     3.    13795.  9D 2D 5A                - Note On  (10)
 1137.     3.    13798.  8D 39                   - Note Off ( 9)
 1138.     2.    13800.  92 42 47                - Note On  (10)
 1139.    60.    13860.  8D 2D                   - Note Off ( 9)
 1140.    15.    13875.  82 42                   - Note Off ( 8)
 1141.     5.    13880.  82 3A                   - Note Off ( 7)
 1142.    38.    13918.  9D 32 4D                - Note On  ( 8)
 1143.     0.    13918.  9D 39 55                - Note On  ( 9)
 1144.     0.    13918.  9D 3C 57                - Note On  (10)
 1145.     1.    13919.  80 25                   - Note Off ( 9)
 1146.     0.    13919.  90 26 7F                - Note On  (10)
 1147.     1.    13920.  92 36 66                - Note On  (11)
 1148.     0.    13920.  92 42 6C                - Note On  (12)
 1149.    10.    13930.  91 31 50                - Note On  (13)
 1150.    18.    13948.  81 30                   - Note Off (12)
 1151.    48.    13996.  82 42                   - Note Off (11)
 1152.     3.    13999.  8D 39                   - Note Off (10)
 1153.    23.    14022.  8D 32                   - Note Off ( 9)
 1154.    13.    14035.  9D 26 2D                - Note On  (10)
 1155.     0.    14035.  9D 2D 2D                - Note On  (11)
 1156.     5.    14040.  8D 3C                   - Note Off (10)
 1157.     0.    14040.  92 38 4A                - Note On  (11)
 1158.     0.    14040.  92 42 42                - Note On  (12)
 1159.    14.    14054.  80 26                   - Note Off (11)
 1160.     0.    14054.  90 27 7F                - Note On  (12)
 1161.     6.    14060.  82 36                   - Note Off (11)
 1162.     8.    14068.  8D 2D                   - Note Off (10)
 1163.    30.    14098.  8D 26                   - Note Off ( 9)
 1164.     5.    14103.  82 42                   - Note Off ( 8)
 1165.    57.    14160.  92 3A 62                - Note On  ( 9)
 1166.     0.    14160.  92 42 41                - Note On  (10)
 1167.     2.    14162.  91 32 54                - Note On  (11)
 1168.     0.    14162.  9D 47 5F                - Note On  (12)
 1169.     0.    14162.  9D 42 74                - Note On  (13)
 1170.     3.    14165.  82 38                   - Note Off (12)
 1171.     1.    14166.  80 27                   - Note Off (11)
 1172.     0.    14166.  90 28 7F                - Note On  (12)
 1173.    19.    14185.  81 31                   - Note Off (11)
 1174.    40.    14225.  82 42                   - Note Off (10)
 1175.    50.    14275.  9D 43 42                - Note On  (11)
 1176.     0.    14275.  9D 48 58                - Note On  (12)
 1177.     5.    14280.  92 42 55                - Note On  (13)
 1178.     7.    14287.  83 39                   - Note Off (12)
 1179.     3.    14290.  83 3C                   - Note Off (11)
 1180.     6.    14296.  81 32                   - Note Off (10)
 1181.    14.    14310.  91 32 69                - Note On  (11)
 1182.     9.    14319.  8D 42                   - Note Off (10)
 1183.    11.    14330.  83 41                   - Note Off ( 9)
 1184.    10.    14340.  8D 47                   - Note Off ( 8)
 1185.    13.    14353.  82 42                   - Note Off ( 7)
 1186.     3.    14356.  82 3A                   - Note Off ( 6)
 1187.     3.    14359.  8D 48                   - Note Off ( 5)
 1188.     0.    14359.  83 2D                   - Note Off ( 4)
 1189.     5.    14364.  83 26                   - Note Off ( 3)
 1190.    13.    14377.  8D 43                   - Note Off ( 2)
 1191.     0.    14377.  93 30 63                - Note On  ( 3)
 1192.     0.    14377.  B3 40 00                - Damper Pedal
 1193.    23.    14400.  92 42 46                - Note On  ( 4)
 1194.     0.    14400.  92 36 66                - Note On  ( 5)
 1195.     2.    14402.  93 37 52                - Note On  ( 6)
 1196.     1.    14403.  80 28                   - Note Off ( 5)
 1197.     0.    14403.  90 29 7F                - Note On  ( 6)
 1198.     6.    14409.  93 3B 52                - Note On  ( 7)
 1199.    16.    14425.  93 40 50                - Note On  ( 8)
 1200.    37.    14462.  82 42                   - Note Off ( 7)
 1201.    17.    14479.  81 32                   - Note Off ( 6)
 1202.    41.    14520.  92 38 52                - Note On  ( 7)
 1203.     0.    14520.  92 42 3F                - Note On  ( 8)
 1204.     0.    14520.  9D 48 3F                - Note On  ( 9)
 1205.     0.    14520.  9D 43 72                - Note On  (10)
 1206.     0.    14520.  9D 4C 66                - Note On  (11)
 1207.    27.    14547.  91 35 57                - Note On  (12)
 1208.    30.    14577.  8D 4C                   - Note Off (11)
 1209.     8.    14585.  82 36                   - Note Off (10)
 1210.    25.    14610.  8D 43                   - Note Off ( 9)
 1211.    24.    14634.  8D 48                   - Note Off ( 8)
 1212.     6.    14640.  92 3A 58                - Note On  ( 9)
 1213.     1.    14641.  80 29                   - Note Off ( 8)
 1214.     0.    14641.  90 2A 7F                - Note On  ( 9)
 1215.     4.    14645.  9D 43 70                - Note On  (10)
 1216.     0.    14645.  9D 3C 70                - Note On  (11)
 1217.     2.    14647.  91 37 50                - Note On  (12)
 1218.     5.    14652.  82 42                   - Note Off (11)
 1219.    16.    14668.  82 38                   - Note Off (10)
 1220.     1.    14669.  B3 40 7F                - Damper Pedal
 1221.     8.    14677.  81 35                   - Note Off ( 9)
 1222.    28.    14705.  8D 43                   - Note Off ( 8)
 1223.     0.    14705.  8D 3C                   - Note Off ( 7)
 1224.    36.    14741.  9D 3C 5A                - Note On  ( 8)
 1225.     0.    14741.  9D 43 60                - Note On  ( 9)
 1226.     9.    14750.  9D 30 34                - Note On  (10)
 1227.     4.    14754.  9D 48 4C                - Note On  (11)
 1228.     6.    14760.  92 42 48                - Note On  (12)
 1229.    28.    14788.  8D 48                   - Note Off (11)
 1230.     2.    14790.  8D 43                   - Note Off (10)
 1231.     8.    14798.  8D 3C                   - Note Off ( 9)
 1232.    12.    14810.  8D 30                   - Note Off ( 8)
 1233.    27.    14837.  82 42                   - Note Off ( 7)
 1234.    29.    14866.  82 3A                   - Note Off ( 6)
 1235.     6.    14872.  80 2A                   - Note Off ( 5)
 1236.     0.    14872.  90 2B 7F                - Note On  ( 6)
 1237.     8.    14880.  92 36 66                - Note On  ( 7)
 1238.     0.    14880.  92 42 6C                - Note On  ( 8)
 1239.     7.    14887.  91 38 5A                - Note On  ( 9)
 1240.     4.    14891.  9D 30 3A                - Note On  (10)
 1241.     1.    14892.  9D 3C 69                - Note On  (11)
 1242.     1.    14893.  9D 4A 6C                - Note On  (12)
 1243.     3.    14896.  9D 43 69                - Note On  (13)
 1244.    17.    14913.  81 37                   - Note Off (12)
 1245.     0.    14913.  8D 30                   - Note Off (11)
 1246.    35.    14948.  82 42                   - Note Off (10)
 1247.    52.    15000.  92 38 52                - Note On  (11)
 1248.     0.    15000.  92 42 3F                - Note On  (12)
 1249.    13.    15013.  80 2B                   - Note Off (11)
 1250.     0.    15013.  90 2C 7F                - Note On  (12)
 1251.    36.    15049.  82 36                   - Note Off (11)
 1252.    10.    15059.  82 42                   - Note Off (10)
 1253.    61.    15120.  92 3A 62                - Note On  (11)
 1254.     0.    15120.  92 42 28                - Note On  (12)
 1255.     5.    15125.  80 2C                   - Note Off (11)
 1256.     0.    15125.  90 2D 7F                - Note On  (12)
 1257.     0.    15125.  91 39 5D                - Note On  (13)
 1258.     2.    15127.  81 38                   - Note Off (12)
 1259.     2.    15129.  82 38                   - Note Off (11)
 1260.    66.    15195.  82 42                   - Note Off (10)
 1261.    26.    15221.  9D 3C 47                - Note On  (11)
 1262.     0.    15221.  9D 43 4A                - Note On  (12)
 1263.     4.    15225.  8D 3C                   - Note Off (11)
 1264.     4.    15229.  8D 43                   - Note Off (10)
 1265.     1.    15230.  9D 30 28                - Note On  (11)
 1266.     4.    15234.  9D 48 3B                - Note On  (12)
 1267.     6.    15240.  92 42 4C                - Note On  (13)
 1268.    10.    15250.  8D 4A                   - Note Off (12)
 1269.    18.    15268.  8D 48                   - Note Off (11)
 1270.     2.    15270.  8D 43                   - Note Off (10)
 1271.     8.    15278.  8D 3C                   - Note Off ( 9)
 1272.    12.    15290.  8D 30                   - Note Off ( 8)
 1273.    14.    15304.  82 42                   - Note Off ( 7)
 1274.     1.    15305.  82 3A                   - Note Off ( 6)
 1275.    53.    15358.  81 39                   - Note Off ( 5)
 1276.     0.    15358.  80 2D                   - Note Off ( 4)
 1277.     0.    15358.  83 37                   - Note Off ( 3)
 1278.     0.    15358.  83 30                   - Note Off ( 2)
 1279.     0.    15358.  83 3B                   - Note Off ( 1)
 1280.     0.    15358.  83 40                   - Note Off ( 0)
 1281.     0.    15358.  FF 2F 00                - End of Track
**** SQ Midi End. ****

**** SQ Midi no = 3. ****
No. delta time. tick count. message
------------------------------------------------
    1.     0.        0.  FF 51 03 07 A1 20       - Set Tempo
    2.     0.        0.  C0 00                  
    3.     0.        0.  C4 04                  
    4.     0.        0.  B3 40 7F                - Damper Pedal
    5.     0.        0.  C3 03                  
    6.     0.        0.  C2 02                  
    7.     0.        0.  C1 01                  
    8.     0.        0.  CD 0D                  
    9.     0.        0.  CA 0A                  
   10.     0.        0.  C9 09                  
   11.     0.        0.  C8 08                  
   12.     0.        0.  C7 07                  
   13.     0.        0.  C6 06                  
   14.     0.        0.  C5 05                  
   15.     1.        1.  B5 07 64                - Channel Volume
   16.     0.        1.  B6 07 6E                - Channel Volume
   17.     0.        1.  B7 07 78                - Channel Volume
   18.     0.        1.  B8 07 43                - Channel Volume
   19.     0.        1.  B9 07 44                - Channel Volume
   20.     0.        1.  BA 07 46                - Channel Volume
   21.     0.        1.  BD 07 4F                - Channel Volume
   22.     0.        1.  B1 07 5B                - Channel Volume
   23.     0.        1.  B2 07 7F                - Channel Volume
   24.     0.        1.  B3 07 6E                - Channel Volume
   25.     0.        1.  B4 07 7A                - Channel Volume
   26.     0.        1.  B0 07 7F                - Channel Volume
   27.     1.        2.  B0 0A 40                - Pan
   28.     0.        2.  B4 0A 40                - Pan
   29.     0.        2.  B3 0A 40                - Pan
   30.     0.        2.  B2 0A 40                - Pan
   31.     0.        2.  B1 0A 40                - Pan
   32.     0.        2.  BD 0A 5E                - Pan
   33.     0.        2.  BA 0A 40                - Pan
   34.     0.        2.  B9 0A 40                - Pan
   35.     0.        2.  B8 0A 40                - Pan
   36.     0.        2.  B7 0A 22                - Pan
   37.     0.        2.  B6 0A 40                - Pan
   38.     0.        2.  B5 0A 40                - Pan
   39.     1.        3.  91 26 75                - Note On  ( 1)
   40.     0.        3.  92 42 54                - Note On  ( 2)
   41.     0.        3.  92 36 69                - Note On  ( 3)
   42.     0.        3.  93 4D 75                - Note On  ( 4)
   43.     0.        3.  93 39 50                - Note On  ( 5)
   44.     0.        3.  93 37 57                - Note On  ( 6)
   45.     0.        3.  93 32 54                - Note On  ( 7)
   46.     0.        3.  90 24 7F                - Note On  ( 8)
   47.     3.        6.  92 3D 7F                - Note On  ( 9)
   48.     5.       11.  9D 30 2D                - Note On  (10)
   49.     1.       12.  9D 3C 52                - Note On  (11)
   50.     1.       13.  9D 4A 54                - Note On  (12)
   51.     3.       16.  9D 43 52                - Note On  (13)
   52.    17.       33.  8D 30                   - Note Off (12)
   53.    31.       64.  82 42                   - Note Off (11)
   54.    56.      120.  92 38 4C                - Note On  (12)
   55.     0.      120.  92 42 3C                - Note On  (13)
   56.    22.      142.  82 36                   - Note Off (12)
   57.    43.      185.  82 42                   - Note Off (11)
   58.    38.      223.  83 4D                   - Note Off (10)
   59.     7.      230.  91 30 66                - Note On  (11)
   60.     3.      233.  81 26                   - Note Off (10)
   61.     7.      240.  92 3A 60                - Note On  (11)
   62.     0.      240.  92 42 43                - Note On  (12)
   63.     0.      240.  93 4C 5A                - Note On  (13)
   64.     3.      243.  90 25 7F                - Note On  (14)
   65.     3.      246.  80 24                   - Note Off (13)
   66.    12.      258.  82 38                   - Note Off (12)
   67.    56.      314.  82 42                   - Note Off (11)
   68.    27.      341.  9D 3C 3D                - Note On  (12)
   69.     0.      341.  9D 43 40                - Note On  (13)
   70.     4.      345.  8D 3C                   - Note Off (12)
   71.     4.      349.  8D 43                   - Note Off (11)
   72.     1.      350.  9D 30 23                - Note On  (12)
   73.     4.      354.  9D 48 33                - Note On  (13)
   74.     6.      360.  92 42 47                - Note On  (14)
   75.    10.      370.  8D 4A                   - Note Off (13)
   76.    18.      388.  8D 48                   - Note Off (12)
   77.     2.      390.  8D 43                   - Note Off (11)
   78.     8.      398.  8D 3C                   - Note Off (10)
   79.    12.      410.  8D 30                   - Note Off ( 9)
   80.    25.      435.  82 3A                   - Note Off ( 8)
   81.     0.      435.  82 42                   - Note Off ( 7)
   82.    44.      479.  80 25                   - Note Off ( 6)
   83.     0.      479.  90 26 7F                - Note On  ( 7)
   84.     1.      480.  92 36 66                - Note On  ( 8)
   85.     0.      480.  92 42 6C                - Note On  ( 9)
   86.     0.      480.  93 4A 63                - Note On  (10)
   87.     2.      482.  91 31 52                - Note On  (11)
   88.     9.      491.  9D 30 26                - Note On  (12)
   89.     1.      492.  9D 3C 47                - Note On  (13)
   90.     1.      493.  83 4C                   - Note Off (12)
   91.     0.      493.  9D 4A 49                - Note On  (13)
   92.     3.      496.  9D 43 47                - Note On  (14)
   93.     2.      498.  81 30                   - Note Off (13)
   94.    15.      513.  8D 30                   - Note Off (12)
   95.    43.      556.  82 42                   - Note Off (11)
   96.    44.      600.  92 38 4C                - Note On  (12)
   97.     0.      600.  92 42 42                - Note On  (13)
   98.    14.      614.  80 26                   - Note Off (12)
   99.     0.      614.  90 27 7F                - Note On  (13)
  100.    11.      625.  82 36                   - Note Off (12)
  101.    38.      663.  82 42                   - Note Off (11)
  102.    50.      713.  82 38                   - Note Off (10)
  103.     2.      715.  91 32 5A                - Note On  (11)
  104.     5.      720.  92 3A 68                - Note On  (12)
  105.     0.      720.  92 42 41                - Note On  (13)
  106.     0.      720.  93 48 60                - Note On  (14)
  107.     2.      722.  83 4A                   - Note Off (13)
  108.     4.      726.  80 27                   - Note Off (12)
  109.     0.      726.  90 28 7F                - Note On  (13)
  110.    19.      745.  81 31                   - Note Off (12)
  111.    40.      785.  82 42                   - Note Off (11)
  112.    36.      821.  9D 3C 2D                - Note On  (12)
  113.     0.      821.  9D 43 30                - Note On  (13)
  114.     4.      825.  8D 3C                   - Note Off (12)
  115.     4.      829.  8D 43                   - Note Off (11)
  116.     1.      830.  9D 30 1A                - Note On  (12)
  117.     4.      834.  9D 48 25                - Note On  (13)
  118.     6.      840.  92 42 55                - Note On  (14)
  119.    10.      850.  8D 4A                   - Note Off (13)
  120.    12.      862.  91 26 69                - Note On  (14)
  121.     6.      868.  8D 48                   - Note Off (13)
  122.     2.      870.  8D 43                   - Note Off (12)
  123.     8.      878.  8D 3C                   - Note Off (11)
  124.     5.      883.  81 32                   - Note Off (10)
  125.     7.      890.  8D 30                   - Note Off ( 9)
  126.    23.      913.  82 42                   - Note Off ( 8)
  127.    20.      933.  82 3A                   - Note Off ( 7)
  128.     9.      942.  81 26                   - Note Off ( 6)
  129.    18.      960.  92 36 66                - Note On  ( 7)
  130.     0.      960.  92 42 46                - Note On  ( 8)
  131.     3.      963.  80 28                   - Note Off ( 7)
  132.     0.      963.  90 29 7F                - Note On  ( 8)
  133.     8.      971.  9D 30 1C                - Note On  ( 9)
  134.     1.      972.  9D 3C 36                - Note On  (10)
  135.     1.      973.  9D 4A 36                - Note On  (11)
  136.     3.      976.  9D 43 36                - Note On  (12)
  137.    17.      993.  8D 30                   - Note Off (11)
  138.    29.     1022.  82 42                   - Note Off (10)
  139.    58.     1080.  92 38 4C                - Note On  (11)
  140.     0.     1080.  92 42 3F                - Note On  (12)
  141.    22.     1102.  91 32 69                - Note On  (13)
  142.    13.     1115.  82 36                   - Note Off (12)
  143.    74.     1189.  82 38                   - Note Off (11)
  144.     9.     1198.  81 32                   - Note Off (10)
  145.     2.     1200.  92 3A 58                - Note On  (11)
  146.     0.     1200.  93 4A 6C                - Note On  (12)
  147.     1.     1201.  80 29                   - Note Off (11)
  148.     0.     1201.  90 2A 7F                - Note On  (12)
  149.     1.     1202.  91 30 63                - Note On  (13)
  150.    10.     1212.  82 42                   - Note Off (12)
  151.    31.     1243.  83 48                   - Note Off (11)
  152.    58.     1301.  9D 3C 39                - Note On  (12)
  153.     0.     1301.  9D 43 39                - Note On  (13)
  154.     4.     1305.  8D 3C                   - Note Off (12)
  155.     4.     1309.  8D 43                   - Note Off (11)
  156.     1.     1310.  9D 30 36                - Note On  (12)
  157.     4.     1314.  9D 48 38                - Note On  (13)
  158.     6.     1320.  92 42 48                - Note On  (14)
  159.    10.     1330.  8D 4A                   - Note Off (13)
  160.    18.     1348.  8D 48                   - Note Off (12)
  161.     2.     1350.  8D 43                   - Note Off (11)
  162.     8.     1358.  8D 3C                   - Note Off (10)
  163.    12.     1370.  8D 30                   - Note Off ( 9)
  164.    27.     1397.  82 42                   - Note Off ( 8)
  165.    26.     1423.  82 3A                   - Note Off ( 7)
  166.     9.     1432.  80 2A                   - Note Off ( 6)
  167.     0.     1432.  90 2B 7F                - Note On  ( 7)
  168.     8.     1440.  92 36 69                - Note On  ( 8)
  169.     0.     1440.  92 42 6C                - Note On  ( 9)
  170.    11.     1451.  9D 30 36                - Note On  (10)
  171.     1.     1452.  9D 3C 39                - Note On  (11)
  172.     1.     1453.  9D 4A 39                - Note On  (12)
  173.     3.     1456.  9D 43 39                - Note On  (13)
  174.    17.     1473.  8D 30                   - Note Off (12)
  175.    35.     1508.  82 42                   - Note Off (11)
  176.     7.     1515.  83 37                   - Note Off (10)
  177.     8.     1523.  83 32                   - Note Off ( 9)
  178.    19.     1542.  83 39                   - Note Off ( 8)
  179.    18.     1560.  92 38 4C                - Note On  ( 9)
  180.     0.     1560.  92 42 3F                - Note On  (10)
  181.    11.     1571.  83 4A                   - Note Off ( 9)
  182.     2.     1573.  80 2B                   - Note Off ( 8)
  183.     0.     1573.  90 2C 7F                - Note On  ( 9)
  184.    35.     1608.  82 36                   - Note Off ( 8)
  185.    11.     1619.  82 42                   - Note Off ( 7)
  186.    42.     1661.  93 45 6C                - Note On  ( 8)
  187.    19.     1680.  93 32 52                - Note On  ( 9)
  188.     0.     1680.  93 35 52                - Note On  (10)
  189.     0.     1680.  93 39 4E                - Note On  (11)
  190.     0.     1680.  92 42 28                - Note On  (12)
  191.     0.     1680.  92 3A 64                - Note On  (13)
  192.     4.     1684.  82 38                   - Note Off (12)
  193.     1.     1685.  80 2C                   - Note Off (11)
  194.     0.     1685.  90 2D 7F                - Note On  (12)
  195.    44.     1729.  82 3D                   - Note Off (11)
  196.    26.     1755.  82 42                   - Note Off (10)
  197.    26.     1781.  9D 3C 2D                - Note On  (11)
  198.     0.     1781.  9D 43 2D                - Note On  (12)
  199.     4.     1785.  8D 3C                   - Note Off (11)
  200.     4.     1789.  8D 43                   - Note Off (10)
  201.     1.     1790.  9D 30 2A                - Note On  (11)
  202.     4.     1794.  9D 48 2D                - Note On  (12)
  203.     6.     1800.  92 42 4C                - Note On  (13)
  204.    10.     1810.  8D 4A                   - Note Off (12)
  205.    18.     1828.  8D 48                   - Note Off (11)
  206.     2.     1830.  8D 43                   - Note Off (10)
  207.     8.     1838.  8D 3C                   - Note Off ( 9)
  208.    12.     1850.  8D 30                   - Note Off ( 8)
  209.    14.     1864.  82 42                   - Note Off ( 7)
  210.    25.     1889.  82 3A                   - Note Off ( 6)
  211.    31.     1920.  80 2D                   - Note Off ( 5)
  212.     0.     1920.  90 24 7F                - Note On  ( 6)
  213.     0.     1920.  92 36 66                - Note On  ( 7)
  214.     0.     1920.  92 42 54                - Note On  ( 8)
  215.     7.     1927.  91 26 75                - Note On  ( 9)
  216.     4.     1931.  9D 30 2A                - Note On  (10)
  217.     1.     1932.  9D 3C 2D                - Note On  (11)
  218.     1.     1933.  9D 4A 2D                - Note On  (12)
  219.     3.     1936.  9D 43 2D                - Note On  (13)
  220.    12.     1948.  81 30                   - Note Off (12)
  221.     5.     1953.  8D 30                   - Note Off (11)
  222.    28.     1981.  82 42                   - Note Off (10)
  223.    59.     2040.  92 38 50                - Note On  (11)
  224.     0.     2040.  92 42 3C                - Note On  (12)
  225.    28.     2068.  82 36                   - Note Off (11)
  226.    37.     2105.  82 42                   - Note Off (10)
  227.    50.     2155.  81 26                   - Note Off ( 9)
  228.     2.     2157.  91 30 54                - Note On  (10)
  229.     1.     2158.  82 38                   - Note Off ( 9)
  230.     2.     2160.  92 3A 64                - Note On  (10)
  231.     0.     2160.  92 42 43                - Note On  (11)
  232.     3.     2163.  80 24                   - Note Off (10)
  233.     0.     2163.  90 25 7F                - Note On  (11)
  234.    26.     2189.  93 48 66                - Note On  (12)
  235.     7.     2196.  83 45                   - Note Off (11)
  236.    38.     2234.  82 42                   - Note Off (10)
  237.    31.     2265.  8D 3C                   - Note Off ( 9)
  238.     4.     2269.  8D 43                   - Note Off ( 8)
  239.    11.     2280.  92 42 47                - Note On  ( 9)
  240.    10.     2290.  8D 4A                   - Note Off ( 8)
  241.    65.     2355.  82 42                   - Note Off ( 7)
  242.     1.     2356.  82 3A                   - Note Off ( 6)
  243.    43.     2399.  80 25                   - Note Off ( 5)
  244.     0.     2399.  90 26 7F                - Note On  ( 6)
  245.     1.     2400.  92 36 69                - Note On  ( 7)
  246.     0.     2400.  92 42 6C                - Note On  ( 8)
  247.    10.     2410.  91 31 4E                - Note On  ( 9)
  248.    66.     2476.  82 42                   - Note Off ( 8)
  249.     8.     2484.  81 30                   - Note Off ( 7)
  250.    30.     2514.  83 35                   - Note Off ( 6)
  251.     6.     2520.  92 38 50                - Note On  ( 7)
  252.     0.     2520.  92 42 42                - Note On  ( 8)
  253.    14.     2534.  83 32                   - Note Off ( 7)
  254.     0.     2534.  80 26                   - Note Off ( 6)
  255.     0.     2534.  90 27 7F                - Note On  ( 7)
  256.     8.     2542.  82 36                   - Note Off ( 6)
  257.    15.     2557.  83 39                   - Note Off ( 5)
  258.    26.     2583.  82 42                   - Note Off ( 4)
  259.    45.     2628.  82 38                   - Note Off ( 3)
  260.    12.     2640.  92 3A 64                - Note On  ( 4)
  261.     0.     2640.  92 42 41                - Note On  ( 5)
  262.     0.     2640.  93 32 54                - Note On  ( 6)
  263.     0.     2640.  93 34 57                - Note On  ( 7)
  264.     0.     2640.  93 37 42                - Note On  ( 8)
  265.     2.     2642.  91 32 57                - Note On  ( 9)
  266.     4.     2646.  80 27                   - Note Off ( 8)
  267.     0.     2646.  90 28 7F                - Note On  ( 9)
  268.     9.     2655.  83 48                   - Note Off ( 8)
  269.     2.     2657.  93 43 69                - Note On  ( 9)
  270.     3.     2660.  81 31                   - Note Off ( 8)
  271.    45.     2705.  82 42                   - Note Off ( 7)
  272.    55.     2760.  92 42 55                - Note On  ( 8)
  273.    30.     2790.  91 2D 63                - Note On  ( 9)
  274.    18.     2808.  81 32                   - Note Off ( 8)
  275.    25.     2833.  82 42                   - Note Off ( 7)
  276.    20.     2853.  82 3A                   - Note Off ( 6)
  277.    10.     2863.  81 2D                   - Note Off ( 5)
  278.    17.     2880.  92 36 69                - Note On  ( 6)
  279.     0.     2880.  92 42 46                - Note On  ( 7)
  280.     3.     2883.  80 28                   - Note Off ( 6)
  281.     0.     2883.  90 29 7F                - Note On  ( 7)
  282.    59.     2942.  82 42                   - Note Off ( 6)
  283.    58.     3000.  92 38 50                - Note On  ( 7)
  284.     0.     3000.  92 42 3F                - Note On  ( 8)
  285.    26.     3026.  82 36                   - Note Off ( 7)
  286.     1.     3027.  91 2D 54                - Note On  ( 8)
  287.    87.     3114.  81 2D                   - Note Off ( 7)
  288.     6.     3120.  92 3A 64                - Note On  ( 8)
  289.     1.     3121.  80 29                   - Note Off ( 7)
  290.     0.     3121.  90 2A 7F                - Note On  ( 8)
  291.     5.     3126.  82 38                   - Note Off ( 7)
  292.     1.     3127.  91 2B 57                - Note On  ( 8)
  293.     5.     3132.  82 42                   - Note Off ( 7)
  294.    25.     3157.  93 45 60                - Note On  ( 8)
  295.    30.     3187.  83 43                   - Note Off ( 7)
  296.    53.     3240.  92 42 48                - Note On  ( 8)
  297.    77.     3317.  82 42                   - Note Off ( 7)
  298.     8.     3325.  82 3A                   - Note Off ( 6)
  299.    27.     3352.  80 2A                   - Note Off ( 5)
  300.     0.     3352.  90 2B 7F                - Note On  ( 6)
  301.     8.     3360.  92 36 69                - Note On  ( 7)
  302.     0.     3360.  92 42 6C                - Note On  ( 8)
  303.    68.     3428.  82 42                   - Note Off ( 7)
  304.    52.     3480.  92 38 4E                - Note On  ( 8)
  305.     0.     3480.  92 42 3F                - Note On  ( 9)
  306.    13.     3493.  80 2B                   - Note Off ( 8)
  307.     0.     3493.  90 2C 7F                - Note On  ( 9)
  308.    22.     3515.  82 36                   - Note Off ( 8)
  309.    24.     3539.  82 42                   - Note Off ( 7)
  310.    45.     3584.  83 45                   - Note Off ( 6)
  311.     6.     3590.  82 38                   - Note Off ( 5)
  312.    10.     3600.  92 3A 68                - Note On  ( 6)
  313.     0.     3600.  92 42 28                - Note On  ( 7)
  314.     5.     3605.  80 2C                   - Note Off ( 6)
  315.     0.     3605.  90 2D 7F                - Note On  ( 7)
  316.     1.     3606.  93 3C 5A                - Note On  ( 8)
  317.    69.     3675.  82 42                   - Note Off ( 7)
  318.    45.     3720.  83 32                   - Note Off ( 6)
  319.     0.     3720.  92 42 4C                - Note On  ( 7)
  320.     1.     3721.  83 37                   - Note Off ( 6)
  321.    24.     3745.  83 34                   - Note Off ( 5)
  322.    39.     3784.  82 42                   - Note Off ( 4)
  323.    40.     3824.  82 3A                   - Note Off ( 3)
  324.    16.     3840.  80 2D                   - Note Off ( 2)
  325.     0.     3840.  90 24 7F                - Note On  ( 3)
  326.     0.     3840.  92 36 66                - Note On  ( 4)
  327.     0.     3840.  92 42 54                - Note On  ( 5)
  328.     0.     3840.  91 26 72                - Note On  ( 6)
  329.     0.     3840.  93 35 4C                - Note On  ( 7)
  330.     0.     3840.  93 39 4A                - Note On  ( 8)
  331.     0.     3840.  93 32 54                - Note On  ( 9)
  332.     0.     3840.  98 4A 64                - Note On  (10)
  333.    14.     3854.  93 3E 5D                - Note On  (11)
  334.    19.     3873.  83 3C                   - Note Off (10)
  335.     8.     3881.  81 2B                   - Note Off ( 9)
  336.    20.     3901.  82 42                   - Note Off ( 8)
  337.    59.     3960.  92 38 50                - Note On  ( 9)
  338.     0.     3960.  92 42 3C                - Note On  (10)
  339.    40.     4000.  82 36                   - Note Off ( 9)
  340.    25.     4025.  82 42                   - Note Off ( 8)
  341.    45.     4070.  91 30 60                - Note On  ( 9)
  342.     5.     4075.  82 38                   - Note Off ( 8)
  343.     5.     4080.  92 3A 62                - Note On  ( 9)
  344.     0.     4080.  92 42 43                - Note On  (10)
  345.     3.     4083.  80 24                   - Note Off ( 9)
  346.     0.     4083.  90 25 7F                - Note On  (10)
  347.     2.     4085.  81 26                   - Note Off ( 9)
  348.    69.     4154.  82 42                   - Note Off ( 8)
  349.    46.     4200.  92 42 47                - Note On  ( 9)
  350.    75.     4275.  82 42                   - Note Off ( 8)
  351.    31.     4306.  82 3A                   - Note Off ( 7)
  352.    13.     4319.  80 25                   - Note Off ( 6)
  353.     0.     4319.  90 26 7F                - Note On  ( 7)
  354.     1.     4320.  92 36 66                - Note On  ( 8)
  355.     0.     4320.  92 42 6C                - Note On  ( 9)
  356.     2.     4322.  91 31 4A                - Note On  (10)
  357.    28.     4350.  81 30                   - Note Off ( 9)
  358.    46.     4396.  82 42                   - Note Off ( 8)
  359.     4.     4400.  83 3E                   - Note Off ( 7)
  360.    40.     4440.  92 38 4C                - Note On  ( 8)
  361.     0.     4440.  92 42 42                - Note On  ( 9)
  362.    14.     4454.  80 26                   - Note Off ( 8)
  363.     0.     4454.  90 27 7F                - Note On  ( 9)
  364.    20.     4474.  82 36                   - Note Off ( 8)
  365.    29.     4503.  82 42                   - Note Off ( 7)
  366.    52.     4555.  91 32 50                - Note On  ( 8)
  367.     4.     4559.  81 31                   - Note Off ( 7)
  368.     1.     4560.  92 3A 5B                - Note On  ( 8)
  369.     0.     4560.  92 42 41                - Note On  ( 9)
  370.     6.     4566.  80 27                   - Note Off ( 8)
  371.     0.     4566.  90 28 7F                - Note On  ( 9)
  372.     1.     4567.  82 38                   - Note Off ( 8)
  373.    28.     4595.  93 45 6C                - Note On  ( 9)
  374.    30.     4625.  82 42                   - Note Off ( 8)
  375.    55.     4680.  92 42 55                - Note On  ( 9)
  376.    25.     4705.  91 26 66                - Note On  (10)
  377.    21.     4726.  81 32                   - Note Off ( 9)
  378.    27.     4753.  82 42                   - Note Off ( 8)
  379.    21.     4774.  81 26                   - Note Off ( 7)
  380.    16.     4790.  82 3A                   - Note Off ( 6)
  381.    10.     4800.  92 36 66                - Note On  ( 7)
  382.     0.     4800.  92 42 46                - Note On  ( 8)
  383.     3.     4803.  80 28                   - Note Off ( 7)
  384.     0.     4803.  90 29 7F                - Note On  ( 8)
  385.    59.     4862.  82 42                   - Note Off ( 7)
  386.    58.     4920.  92 38 4A                - Note On  ( 8)
  387.     0.     4920.  92 42 3F                - Note On  ( 9)
  388.    27.     4947.  91 32 60                - Note On  (10)
  389.    26.     4973.  82 36                   - Note Off ( 9)
  390.    27.     5000.  83 45                   - Note Off ( 8)
  391.    35.     5035.  81 32                   - Note Off ( 7)
  392.     5.     5040.  92 3A 60                - Note On  ( 8)
  393.     1.     5041.  80 29                   - Note Off ( 7)
  394.     0.     5041.  90 2A 7F                - Note On  ( 8)
  395.     1.     5042.  91 30 5A                - Note On  ( 9)
  396.     7.     5049.  82 38                   - Note Off ( 8)
  397.     3.     5052.  82 42                   - Note Off ( 7)
  398.   108.     5160.  92 42 48                - Note On  ( 8)
  399.    77.     5237.  82 42                   - Note Off ( 7)
  400.    14.     5251.  82 3A                   - Note Off ( 6)
  401.    21.     5272.  80 2A                   - Note Off ( 5)
  402.     0.     5272.  90 2B 7F                - Note On  ( 6)
  403.     8.     5280.  92 36 66                - Note On  ( 7)
  404.     0.     5280.  92 42 6C                - Note On  ( 8)
  405.    19.     5299.  93 47 69                - Note On  ( 9)
  406.    49.     5348.  82 42                   - Note Off ( 8)
  407.    52.     5400.  92 38 4E                - Note On  ( 9)
  408.     0.     5400.  92 42 3F                - Note On  (10)
  409.    13.     5413.  80 2B                   - Note Off ( 9)
  410.     0.     5413.  90 2C 7F                - Note On  (10)
  411.    29.     5442.  82 36                   - Note Off ( 9)
  412.    17.     5459.  82 42                   - Note Off ( 8)
  413.    51.     5510.  83 39                   - Note Off ( 7)
  414.     8.     5518.  93 48 50                - Note On  ( 8)
  415.     2.     5520.  93 37 54                - Note On  ( 9)
  416.     0.     5520.  93 30 52                - Note On  (10)
  417.     0.     5520.  93 39 57                - Note On  (11)
  418.     0.     5520.  92 42 28                - Note On  (12)
  419.     0.     5520.  92 3A 62                - Note On  (13)
  420.     2.     5522.  81 30                   - Note Off (12)
  421.     3.     5525.  80 2C                   - Note Off (11)
  422.     0.     5525.  83 32                   - Note Off (10)
  423.     0.     5525.  90 2D 7F                - Note On  (11)
  424.     0.     5525.  91 30 69                - Note On  (12)
  425.     4.     5529.  82 38                   - Note Off (11)
  426.    11.     5540.  83 35                   - Note Off (10)
  427.    17.     5557.  83 47                   - Note Off ( 9)
  428.    38.     5595.  82 42                   - Note Off ( 8)
  429.    45.     5640.  92 42 4C                - Note On  ( 9)
  430.    64.     5704.  82 42                   - Note Off ( 8)
  431.    27.     5731.  82 3A                   - Note Off ( 7)
  432.    29.     5760.  80 2D                   - Note Off ( 6)
  433.     0.     5760.  81 30                   - Note Off ( 5)
  434.     0.     5760.  90 24 7F                - Note On  ( 6)
  435.     0.     5760.  92 36 60                - Note On  ( 7)
  436.     0.     5760.  92 42 54                - Note On  ( 8)
  437.     0.     5760.  93 4A 54                - Note On  ( 9)
  438.     0.     5760.  93 45 50                - Note On  (10)
  439.     7.     5767.  91 26 72                - Note On  (11)
  440.     1.     5768.  83 48                   - Note Off (10)
  441.    53.     5821.  82 42                   - Note Off ( 9)
  442.    59.     5880.  92 38 52                - Note On  (10)
  443.     0.     5880.  92 42 3C                - Note On  (11)
  444.    27.     5907.  82 36                   - Note Off (10)
  445.    38.     5945.  82 42                   - Note Off ( 9)
  446.    45.     5990.  81 26                   - Note Off ( 8)
  447.     7.     5997.  91 30 60                - Note On  ( 9)
  448.     3.     6000.  92 3A 60                - Note On  (10)
  449.     0.     6000.  92 42 43                - Note On  (11)
  450.     3.     6003.  80 24                   - Note Off (10)
  451.     0.     6003.  90 25 7F                - Note On  (11)
  452.     5.     6008.  82 38                   - Note Off (10)
  453.    66.     6074.  82 42                   - Note Off ( 9)
  454.    46.     6120.  92 42 47                - Note On  (10)
  455.    75.     6195.  82 42                   - Note Off ( 9)
  456.     5.     6200.  82 3A                   - Note Off ( 8)
  457.    39.     6239.  80 25                   - Note Off ( 7)
  458.     0.     6239.  90 26 7F                - Note On  ( 8)
  459.     1.     6240.  92 36 66                - Note On  ( 9)
  460.     0.     6240.  92 42 6C                - Note On  (10)
  461.    10.     6250.  91 31 54                - Note On  (11)
  462.    66.     6316.  82 42                   - Note Off (10)
  463.    17.     6333.  81 30                   - Note Off ( 9)
  464.    27.     6360.  92 38 4A                - Note On  (10)
  465.     0.     6360.  92 42 42                - Note On  (11)
  466.    14.     6374.  80 26                   - Note Off (10)
  467.     0.     6374.  83 39                   - Note Off ( 9)
  468.     0.     6374.  90 27 7F                - Note On  (10)
  469.     6.     6380.  82 36                   - Note Off ( 9)
  470.     1.     6381.  83 37                   - Note Off ( 8)
  471.     9.     6390.  83 30                   - Note Off ( 7)
  472.    18.     6408.  83 4A                   - Note Off ( 6)
  473.    15.     6423.  82 42                   - Note Off ( 5)
  474.    39.     6462.  83 45                   - Note Off ( 4)
  475.     6.     6468.  81 31                   - Note Off ( 3)
  476.    12.     6480.  92 3A 62                - Note On  ( 4)
  477.     0.     6480.  92 42 41                - Note On  ( 5)
  478.     0.     6480.  93 30 4A                - Note On  ( 6)
  479.     0.     6480.  93 39 54                - Note On  ( 7)
  480.     0.     6480.  93 34 57                - Note On  ( 8)
  481.     0.     6480.  93 3C 4A                - Note On  ( 9)
  482.     0.     6480.  93 43 5A                - Note On  (10)
  483.     2.     6482.  91 32 52                - Note On  (11)
  484.     3.     6485.  82 38                   - Note Off (10)
  485.     1.     6486.  80 27                   - Note Off ( 9)
  486.     0.     6486.  90 28 7F                - Note On  (10)
  487.    59.     6545.  82 42                   - Note Off ( 9)
  488.    55.     6600.  92 42 55                - Note On  (10)
  489.    30.     6630.  91 26 66                - Note On  (11)
  490.    32.     6662.  81 32                   - Note Off (10)
  491.    11.     6673.  82 42                   - Note Off ( 9)
  492.     3.     6676.  82 3A                   - Note Off ( 8)
  493.    11.     6687.  81 26                   - Note Off ( 7)
  494.    33.     6720.  92 36 66                - Note On  ( 8)
  495.     0.     6720.  92 42 46                - Note On  ( 9)
  496.     3.     6723.  80 28                   - Note Off ( 8)
  497.     0.     6723.  90 29 7F                - Note On  ( 9)
  498.    59.     6782.  82 42                   - Note Off ( 8)
  499.    58.     6840.  92 38 52                - Note On  ( 9)
  500.     0.     6840.  92 42 3F                - Note On  (10)
  501.    27.     6867.  91 32 6C                - Note On  (11)
  502.    38.     6905.  82 36                   - Note Off (10)
  503.    52.     6957.  81 32                   - Note Off ( 9)
  504.     3.     6960.  92 3A 58                - Note On  (10)
  505.     1.     6961.  80 29                   - Note Off ( 9)
  506.     0.     6961.  90 2A 7F                - Note On  (10)
  507.     6.     6967.  91 30 60                - Note On  (11)
  508.     5.     6972.  82 42                   - Note Off (10)
  509.    16.     6988.  82 38                   - Note Off ( 9)
  510.    92.     7080.  92 42 48                - Note On  (10)
  511.    77.     7157.  82 42                   - Note Off ( 9)
  512.    29.     7186.  82 3A                   - Note Off ( 8)
  513.     6.     7192.  80 2A                   - Note Off ( 7)
  514.     0.     7192.  90 2B 7F                - Note On  ( 8)
  515.     8.     7200.  92 36 66                - Note On  ( 9)
  516.     0.     7200.  92 42 6C                - Note On  (10)
  517.     7.     7207.  91 2D 52                - Note On  (11)
  518.    21.     7228.  81 30                   - Note Off (10)
  519.    40.     7268.  82 42                   - Note Off ( 9)
  520.    52.     7320.  92 38 52                - Note On  (10)
  521.     0.     7320.  92 42 3F                - Note On  (11)
  522.    13.     7333.  80 2B                   - Note Off (10)
  523.     0.     7333.  90 2C 7F                - Note On  (11)
  524.    36.     7369.  82 36                   - Note Off (10)
  525.    10.     7379.  82 42                   - Note Off ( 9)
  526.    61.     7440.  92 3A 62                - Note On  (10)
  527.     0.     7440.  92 42 28                - Note On  (11)
  528.     5.     7445.  80 2C                   - Note Off (10)
  529.     0.     7445.  90 2D 7F                - Note On  (11)
  530.     0.     7445.  91 2B 60                - Note On  (12)
  531.     3.     7448.  81 2D                   - Note Off (11)
  532.     1.     7449.  82 38                   - Note Off (10)
  533.    66.     7515.  82 42                   - Note Off ( 9)
  534.    45.     7560.  92 42 4C                - Note On  (10)
  535.    61.     7621.  83 34                   - Note Off ( 9)
  536.     3.     7624.  82 42                   - Note Off ( 8)
  537.     1.     7625.  82 3A                   - Note Off ( 7)
  538.     8.     7633.  83 30                   - Note Off ( 6)
  539.    10.     7643.  83 39                   - Note Off ( 5)
  540.    12.     7655.  93 51 37                - Note On  ( 6)
  541.     9.     7664.  83 3C                   - Note Off ( 5)
  542.    16.     7680.  80 2D                   - Note Off ( 4)
  543.     0.     7680.  83 43                   - Note Off ( 3)
  544.     0.     7680.  90 24 7F                - Note On  ( 4)
  545.     0.     7680.  93 37 57                - Note On  ( 5)
  546.     0.     7680.  93 39 50                - Note On  ( 6)
  547.     0.     7680.  93 32 54                - Note On  ( 7)
  548.     0.     7680.  93 32 54                - Note On  ( 8)
  549.     0.     7680.  92 36 69                - Note On  ( 9)
  550.     0.     7680.  92 42 54                - Note On  (10)
  551.     0.     7680.  91 26 75                - Note On  (11)
  552.    27.     7707.  93 5D 66                - Note On  (12)
  553.    20.     7727.  81 2B                   - Note Off (11)
  554.    14.     7741.  82 42                   - Note Off (10)
  555.    59.     7800.  92 38 4C                - Note On  (11)
  556.     0.     7800.  92 42 3C                - Note On  (12)
  557.    19.     7819.  82 36                   - Note Off (11)
  558.     1.     7820.  83 51                   - Note Off (10)
  559.     4.     7824.  83 5D                   - Note Off ( 9)
  560.    41.     7865.  82 42                   - Note Off ( 8)
  561.    45.     7910.  81 26                   - Note Off ( 7)
  562.     0.     7910.  91 30 66                - Note On  ( 8)
  563.     5.     7915.  93 4F 57                - Note On  ( 9)
  564.     5.     7920.  92 42 43                - Note On  (10)
  565.     0.     7920.  92 3A 60                - Note On  (11)
  566.     2.     7922.  93 5B 5D                - Note On  (12)
  567.     1.     7923.  80 24                   - Note Off (11)
  568.     0.     7923.  90 25 7F                - Note On  (12)
  569.    15.     7938.  82 38                   - Note Off (11)
  570.    56.     7994.  82 42                   - Note Off (10)
  571.    35.     8029.  83 4F                   - Note Off ( 9)
  572.     1.     8030.  83 5B                   - Note Off ( 8)
  573.    10.     8040.  92 42 47                - Note On  ( 9)
  574.    75.     8115.  82 3A                   - Note Off ( 8)
  575.     0.     8115.  82 42                   - Note Off ( 7)
  576.    44.     8159.  80 25                   - Note Off ( 6)
  577.     0.     8159.  90 26 7F                - Note On  ( 7)
  578.     0.     8159.  93 4D 54                - Note On  ( 8)
  579.     1.     8160.  92 42 6C                - Note On  ( 9)
  580.     0.     8160.  92 36 66                - Note On  (10)
  581.     2.     8162.  91 31 52                - Note On  (11)
  582.     5.     8167.  93 59 63                - Note On  (12)
  583.    11.     8178.  81 30                   - Note Off (11)
  584.    58.     8236.  82 42                   - Note Off (10)
  585.    44.     8280.  92 38 4C                - Note On  (11)
  586.     0.     8280.  92 42 42                - Note On  (12)
  587.    14.     8294.  80 26                   - Note Off (11)
  588.     0.     8294.  90 27 7F                - Note On  (12)
  589.    11.     8305.  82 36                   - Note Off (11)
  590.    15.     8320.  83 59                   - Note Off (10)
  591.    18.     8338.  83 4D                   - Note Off ( 9)
  592.     5.     8343.  82 42                   - Note Off ( 8)
  593.    50.     8393.  82 38                   - Note Off ( 7)
  594.     2.     8395.  91 32 5A                - Note On  ( 8)
  595.     5.     8400.  92 3A 68                - Note On  ( 9)
  596.     0.     8400.  92 42 41                - Note On  (10)
  597.     6.     8406.  80 27                   - Note Off ( 9)
  598.     0.     8406.  90 28 7F                - Note On  (10)
  599.     5.     8411.  93 4C 60                - Note On  (11)
  600.     3.     8414.  93 58 63                - Note On  (12)
  601.    11.     8425.  81 31                   - Note Off (11)
  602.    40.     8465.  82 42                   - Note Off (10)
  603.    55.     8520.  92 42 55                - Note On  (11)
  604.    22.     8542.  91 26 69                - Note On  (12)
  605.    21.     8563.  81 32                   - Note Off (11)
  606.    30.     8593.  82 42                   - Note Off (10)
  607.    20.     8613.  82 3A                   - Note Off ( 9)
  608.     9.     8622.  81 26                   - Note Off ( 8)
  609.    18.     8640.  92 36 66                - Note On  ( 9)
  610.     0.     8640.  92 42 46                - Note On  (10)
  611.     3.     8643.  80 28                   - Note Off ( 9)
  612.     0.     8643.  90 29 7F                - Note On  (10)
  613.    59.     8702.  82 42                   - Note Off ( 9)
  614.    43.     8745.  83 58                   - Note Off ( 8)
  615.    15.     8760.  92 38 4C                - Note On  ( 9)
  616.     0.     8760.  92 42 3F                - Note On  (10)
  617.     2.     8762.  83 4C                   - Note Off ( 9)
  618.    20.     8782.  91 32 69                - Note On  (10)
  619.    13.     8795.  82 36                   - Note Off ( 9)
  620.    74.     8869.  82 38                   - Note Off ( 8)
  621.     9.     8878.  81 32                   - Note Off ( 7)
  622.     2.     8880.  92 3A 58                - Note On  ( 8)
  623.     1.     8881.  80 29                   - Note Off ( 7)
  624.     0.     8881.  90 2A 7F                - Note On  ( 8)
  625.     1.     8882.  91 30 63                - Note On  ( 9)
  626.    10.     8892.  82 42                   - Note Off ( 8)
  627.    11.     8903.  93 54 54                - Note On  ( 9)
  628.     1.     8904.  93 48 63                - Note On  (10)
  629.    96.     9000.  92 42 48                - Note On  (11)
  630.    77.     9077.  82 42                   - Note Off (10)
  631.    26.     9103.  82 3A                   - Note Off ( 9)
  632.     9.     9112.  80 2A                   - Note Off ( 8)
  633.     0.     9112.  90 2B 7F                - Note On  ( 9)
  634.     8.     9120.  92 36 69                - Note On  (10)
  635.     0.     9120.  92 42 6C                - Note On  (11)
  636.    68.     9188.  82 42                   - Note Off (10)
  637.     4.     9192.  83 37                   - Note Off ( 9)
  638.     8.     9200.  83 32                   - Note Off ( 8)
  639.     0.     9200.  83 32                   - Note Off ( 7)
  640.    19.     9219.  83 39                   - Note Off ( 6)
  641.    21.     9240.  92 38 4C                - Note On  ( 7)
  642.     0.     9240.  92 42 3F                - Note On  ( 8)
  643.    10.     9250.  83 48                   - Note Off ( 7)
  644.     3.     9253.  80 2B                   - Note Off ( 6)
  645.     0.     9253.  90 2C 7F                - Note On  ( 7)
  646.    26.     9279.  83 54                   - Note Off ( 6)
  647.     9.     9288.  82 36                   - Note Off ( 5)
  648.    11.     9299.  82 42                   - Note Off ( 4)
  649.    61.     9360.  92 3A 64                - Note On  ( 5)
  650.     0.     9360.  92 42 28                - Note On  ( 6)
  651.     0.     9360.  93 32 52                - Note On  ( 7)
  652.     0.     9360.  93 35 52                - Note On  ( 8)
  653.     0.     9360.  93 39 4E                - Note On  ( 9)
  654.     4.     9364.  82 38                   - Note Off ( 8)
  655.     1.     9365.  80 2C                   - Note Off ( 7)
  656.     0.     9365.  90 2D 7F                - Note On  ( 8)
  657.     5.     9370.  93 4A 50                - Note On  ( 9)
  658.     2.     9372.  93 56 63                - Note On  (10)
  659.    63.     9435.  82 42                   - Note Off ( 9)
  660.    45.     9480.  92 42 4C                - Note On  (10)
  661.    64.     9544.  82 42                   - Note Off ( 9)
  662.    25.     9569.  82 3A                   - Note Off ( 8)
  663.    31.     9600.  80 2D                   - Note Off ( 7)
  664.     0.     9600.  90 24 7F                - Note On  ( 8)
  665.     0.     9600.  92 36 66                - Note On  ( 9)
  666.     0.     9600.  92 42 54                - Note On  (10)
  667.     7.     9607.  91 26 75                - Note On  (11)
  668.    21.     9628.  81 30                   - Note Off (10)
  669.    33.     9661.  82 42                   - Note Off ( 9)
  670.     7.     9668.  83 56                   - Note Off ( 8)
  671.     7.     9675.  83 4A                   - Note Off ( 7)
  672.    45.     9720.  92 38 50                - Note On  ( 8)
  673.     0.     9720.  92 42 3C                - Note On  ( 9)
  674.    28.     9748.  82 36                   - Note Off ( 8)
  675.    37.     9785.  82 42                   - Note Off ( 7)
  676.    50.     9835.  81 26                   - Note Off ( 6)
  677.     2.     9837.  91 30 54                - Note On  ( 7)
  678.     1.     9838.  82 38                   - Note Off ( 6)
  679.     1.     9839.  93 4C 3E                - Note On  ( 7)
  680.     1.     9840.  92 42 43                - Note On  ( 8)
  681.     0.     9840.  92 3A 64                - Note On  ( 9)
  682.     3.     9843.  80 24                   - Note Off ( 8)
  683.     0.     9843.  90 25 7F                - Note On  ( 9)
  684.     7.     9850.  93 58 48                - Note On  (10)
  685.    60.     9910.  83 58                   - Note Off ( 9)
  686.     4.     9914.  82 42                   - Note Off ( 8)
  687.     1.     9915.  83 4C                   - Note Off ( 7)
  688.    45.     9960.  92 42 47                - Note On  ( 8)
  689.    75.    10035.  82 42                   - Note Off ( 7)
  690.     1.    10036.  82 3A                   - Note Off ( 6)
  691.    43.    10079.  80 25                   - Note Off ( 5)
  692.     0.    10079.  90 26 7F                - Note On  ( 6)
  693.     1.    10080.  92 36 69                - Note On  ( 7)
  694.     0.    10080.  92 42 6C                - Note On  ( 8)
  695.    10.    10090.  91 31 4E                - Note On  ( 9)
  696.     6.    10096.  93 4D 54                - Note On  (10)
  697.     6.    10102.  93 59 60                - Note On  (11)
  698.    54.    10156.  82 42                   - Note Off (10)
  699.     8.    10164.  81 30                   - Note Off ( 9)
  700.     3.    10167.  83 59                   - Note Off ( 8)
  701.     5.    10172.  83 4D                   - Note Off ( 7)
  702.    22.    10194.  83 35                   - Note Off ( 6)
  703.     6.    10200.  92 38 50                - Note On  ( 7)
  704.     0.    10200.  92 42 42                - Note On  ( 8)
  705.    14.    10214.  83 32                   - Note Off ( 7)
  706.     0.    10214.  80 26                   - Note Off ( 6)
  707.     0.    10214.  90 27 7F                - Note On  ( 7)
  708.     8.    10222.  82 36                   - Note Off ( 6)
  709.    15.    10237.  83 39                   - Note Off ( 5)
  710.    26.    10263.  82 42                   - Note Off ( 4)
  711.    45.    10308.  82 38                   - Note Off ( 3)
  712.     4.    10312.  93 4C 52                - Note On  ( 4)
  713.     8.    10320.  93 58 60                - Note On  ( 5)
  714.     0.    10320.  93 32 54                - Note On  ( 6)
  715.     0.    10320.  93 34 57                - Note On  ( 7)
  716.     0.    10320.  93 37 42                - Note On  ( 8)
  717.     0.    10320.  92 42 41                - Note On  ( 9)
  718.     0.    10320.  92 3A 64                - Note On  (10)
  719.     2.    10322.  91 32 57                - Note On  (11)
  720.     4.    10326.  80 27                   - Note Off (10)
  721.     0.    10326.  90 28 7F                - Note On  (11)
  722.    14.    10340.  81 31                   - Note Off (10)
  723.    45.    10385.  82 42                   - Note Off ( 9)
  724.    55.    10440.  92 42 55                - Note On  (10)
  725.    30.    10470.  91 2D 63                - Note On  (11)
  726.    18.    10488.  81 32                   - Note Off (10)
  727.    25.    10513.  82 42                   - Note Off ( 9)
  728.    20.    10533.  82 3A                   - Note Off ( 8)
  729.    10.    10543.  81 2D                   - Note Off ( 7)
  730.    17.    10560.  92 36 69                - Note On  ( 8)
  731.     0.    10560.  92 42 46                - Note On  ( 9)
  732.     3.    10563.  80 28                   - Note Off ( 8)
  733.     0.    10563.  90 29 7F                - Note On  ( 9)
  734.    59.    10622.  82 42                   - Note Off ( 8)
  735.    19.    10641.  83 58                   - Note Off ( 7)
  736.     7.    10648.  83 4C                   - Note Off ( 6)
  737.    32.    10680.  92 38 50                - Note On  ( 7)
  738.     0.    10680.  92 42 3F                - Note On  ( 8)
  739.    26.    10706.  82 36                   - Note Off ( 7)
  740.     1.    10707.  91 2D 54                - Note On  ( 8)
  741.    82.    10789.  93 4A 52                - Note On  ( 9)
  742.     5.    10794.  81 2D                   - Note Off ( 8)
  743.     1.    10795.  93 56 54                - Note On  ( 9)
  744.     5.    10800.  92 3A 64                - Note On  (10)
  745.     1.    10801.  80 29                   - Note Off ( 9)
  746.     0.    10801.  90 2A 7F                - Note On  (10)
  747.     5.    10806.  82 38                   - Note Off ( 9)
  748.     1.    10807.  91 2B 57                - Note On  (10)
  749.     5.    10812.  82 42                   - Note Off ( 9)
  750.    38.    10850.  83 56                   - Note Off ( 8)
  751.     1.    10851.  83 4A                   - Note Off ( 7)
  752.    69.    10920.  92 42 48                - Note On  ( 8)
  753.    77.    10997.  82 42                   - Note Off ( 7)
  754.     8.    11005.  82 3A                   - Note Off ( 6)
  755.    27.    11032.  80 2A                   - Note Off ( 5)
  756.     0.    11032.  90 2B 7F                - Note On  ( 6)
  757.     1.    11033.  93 48 57                - Note On  ( 7)
  758.     6.    11039.  93 54 57                - Note On  ( 8)
  759.     1.    11040.  92 42 6C                - Note On  ( 9)
  760.     0.    11040.  92 36 69                - Note On  (10)
  761.    68.    11108.  82 42                   - Note Off ( 9)
  762.    28.    11136.  83 48                   - Note Off ( 8)
  763.    13.    11149.  83 54                   - Note Off ( 7)
  764.    11.    11160.  92 38 4E                - Note On  ( 8)
  765.     0.    11160.  92 42 3F                - Note On  ( 9)
  766.    13.    11173.  80 2B                   - Note Off ( 8)
  767.     0.    11173.  90 2C 7F                - Note On  ( 9)
  768.    22.    11195.  82 36                   - Note Off ( 8)
  769.    24.    11219.  82 42                   - Note Off ( 7)
  770.    48.    11267.  93 4A 48                - Note On  ( 8)
  771.     3.    11270.  82 38                   - Note Off ( 7)
  772.     7.    11277.  93 56 4A                - Note On  ( 8)
  773.     3.    11280.  92 42 28                - Note On  ( 9)
  774.     0.    11280.  92 3A 68                - Note On  (10)
  775.     5.    11285.  80 2C                   - Note Off ( 9)
  776.     0.    11285.  90 2D 7F                - Note On  (10)
  777.    70.    11355.  82 42                   - Note Off ( 9)
  778.    45.    11400.  83 32                   - Note Off ( 8)
  779.     0.    11400.  92 42 4C                - Note On  ( 9)
  780.     1.    11401.  83 37                   - Note Off ( 8)
  781.    24.    11425.  83 34                   - Note Off ( 7)
  782.    39.    11464.  82 42                   - Note Off ( 6)
  783.    40.    11504.  82 3A                   - Note Off ( 5)
  784.    16.    11520.  80 2D                   - Note Off ( 4)
  785.     0.    11520.  90 24 7F                - Note On  ( 5)
  786.     0.    11520.  92 36 66                - Note On  ( 6)
  787.     0.    11520.  92 42 54                - Note On  ( 7)
  788.     0.    11520.  91 26 72                - Note On  ( 8)
  789.     0.    11520.  93 35 4C                - Note On  ( 9)
  790.     0.    11520.  93 39 4A                - Note On  (10)
  791.     0.    11520.  93 32 54                - Note On  (11)
  792.    41.    11561.  81 2B                   - Note Off (10)
  793.    20.    11581.  82 42                   - Note Off ( 9)
  794.    59.    11640.  92 38 50                - Note On  (10)
  795.     0.    11640.  92 42 3C                - Note On  (11)
  796.    40.    11680.  82 36                   - Note Off (10)
  797.    25.    11705.  82 42                   - Note Off ( 9)
  798.    45.    11750.  91 30 60                - Note On  (10)
  799.     5.    11755.  82 38                   - Note Off ( 9)
  800.     5.    11760.  92 3A 62                - Note On  (10)
  801.     0.    11760.  92 42 43                - Note On  (11)
  802.     3.    11763.  80 24                   - Note Off (10)
  803.     0.    11763.  90 25 7F                - Note On  (11)
  804.     2.    11765.  81 26                   - Note Off (10)
  805.    69.    11834.  82 42                   - Note Off ( 9)
  806.    46.    11880.  92 42 47                - Note On  (10)
  807.    75.    11955.  82 42                   - Note Off ( 9)
  808.    13.    11968.  83 56                   - Note Off ( 8)
  809.    18.    11986.  82 3A                   - Note Off ( 7)
  810.     1.    11987.  83 4A                   - Note Off ( 6)
  811.    12.    11999.  80 25                   - Note Off ( 5)
  812.     0.    11999.  90 26 7F                - Note On  ( 6)
  813.     1.    12000.  92 36 66                - Note On  ( 7)
  814.     0.    12000.  92 42 6C                - Note On  ( 8)
  815.     2.    12002.  91 31 4A                - Note On  ( 9)
  816.    28.    12030.  81 30                   - Note Off ( 8)
  817.    46.    12076.  82 42                   - Note Off ( 7)
  818.    44.    12120.  92 38 4C                - Note On  ( 8)
  819.     0.    12120.  92 42 42                - Note On  ( 9)
  820.    14.    12134.  80 26                   - Note Off ( 8)
  821.     0.    12134.  90 27 7F                - Note On  ( 9)
  822.    20.    12154.  82 36                   - Note Off ( 8)
  823.    29.    12183.  82 42                   - Note Off ( 7)
  824.    52.    12235.  91 32 50                - Note On  ( 8)
  825.     4.    12239.  81 31                   - Note Off ( 7)
  826.     0.    12239.  93 45 52                - Note On  ( 8)
  827.     1.    12240.  93 51 50                - Note On  ( 9)
  828.     0.    12240.  92 42 41                - Note On  (10)
  829.     0.    12240.  92 3A 5B                - Note On  (11)
  830.     6.    12246.  80 27                   - Note Off (10)
  831.     0.    12246.  90 28 7F                - Note On  (11)
  832.     1.    12247.  82 38                   - Note Off (10)
  833.    58.    12305.  82 42                   - Note Off ( 9)
  834.    55.    12360.  92 42 55                - Note On  (10)
  835.    25.    12385.  91 26 66                - Note On  (11)
  836.    21.    12406.  81 32                   - Note Off (10)
  837.    27.    12433.  82 42                   - Note Off ( 9)
  838.    21.    12454.  81 26                   - Note Off ( 8)
  839.    16.    12470.  82 3A                   - Note Off ( 7)
  840.    10.    12480.  92 36 66                - Note On  ( 8)
  841.     0.    12480.  92 42 46                - Note On  ( 9)
  842.     3.    12483.  80 28                   - Note Off ( 8)
  843.     0.    12483.  90 29 7F                - Note On  ( 9)
  844.    59.    12542.  82 42                   - Note Off ( 8)
  845.    58.    12600.  92 38 4A                - Note On  ( 9)
  846.     0.    12600.  92 42 3F                - Note On  (10)
  847.    27.    12627.  91 32 60                - Note On  (11)
  848.    26.    12653.  82 36                   - Note Off (10)
  849.    22.    12675.  83 45                   - Note Off ( 9)
  850.    40.    12715.  81 32                   - Note Off ( 8)
  851.     5.    12720.  92 3A 60                - Note On  ( 9)
  852.     1.    12721.  80 29                   - Note Off ( 8)
  853.     0.    12721.  90 2A 7F                - Note On  ( 9)
  854.     1.    12722.  91 30 5A                - Note On  (10)
  855.     7.    12729.  82 38                   - Note Off ( 9)
  856.     3.    12732.  82 42                   - Note Off ( 8)
  857.    20.    12752.  83 51                   - Note Off ( 7)
  858.    88.    12840.  92 42 48                - Note On  ( 8)
  859.    62.    12902.  93 4F 2F                - Note On  ( 9)
  860.    15.    12917.  82 42                   - Note Off ( 8)
  861.    14.    12931.  82 3A                   - Note Off ( 7)
  862.    21.    12952.  80 2A                   - Note Off ( 6)
  863.     0.    12952.  90 2B 7F                - Note On  ( 7)
  864.     8.    12960.  92 36 66                - Note On  ( 8)
  865.     0.    12960.  92 42 6C                - Note On  ( 9)
  866.    38.    12998.  93 5B 4E                - Note On  (10)
  867.    14.    13012.  83 4F                   - Note Off ( 9)
  868.    16.    13028.  82 42                   - Note Off ( 8)
  869.    47.    13075.  83 5B                   - Note Off ( 7)
  870.     2.    13077.  93 4F 30                - Note On  ( 8)
  871.     3.    13080.  92 42 3F                - Note On  ( 9)
  872.     0.    13080.  92 38 4E                - Note On  (10)
  873.    13.    13093.  80 2B                   - Note Off ( 9)
  874.     0.    13093.  90 2C 7F                - Note On  (10)
  875.    29.    13122.  82 36                   - Note Off ( 9)
  876.    17.    13139.  82 42                   - Note Off ( 8)
  877.     5.    13144.  83 4F                   - Note Off ( 7)
  878.     6.    13150.  93 5B 48                - Note On  ( 8)
  879.    40.    13190.  83 39                   - Note Off ( 7)
  880.    10.    13200.  93 37 54                - Note On  ( 8)
  881.     0.    13200.  93 30 52                - Note On  ( 9)
  882.     0.    13200.  93 39 57                - Note On  (10)
  883.     0.    13200.  92 3A 62                - Note On  (11)
  884.     0.    13200.  92 42 28                - Note On  (12)
  885.     2.    13202.  81 30                   - Note Off (11)
  886.     3.    13205.  80 2C                   - Note Off (10)
  887.     0.    13205.  83 32                   - Note Off ( 9)
  888.     0.    13205.  90 2D 7F                - Note On  (10)
  889.     0.    13205.  91 30 69                - Note On  (11)
  890.     4.    13209.  82 38                   - Note Off (10)
  891.     1.    13210.  93 4F 3D                - Note On  (11)
  892.    10.    13220.  83 35                   - Note Off (10)
  893.     7.    13227.  83 5B                   - Note Off ( 9)
  894.    48.    13275.  82 42                   - Note Off ( 8)
  895.    16.    13291.  83 4F                   - Note Off ( 7)
  896.     9.    13300.  93 5B 52                - Note On  ( 8)
  897.    20.    13320.  92 42 4C                - Note On  ( 9)
  898.    55.    13375.  93 4F 54                - Note On  (10)
  899.     4.    13379.  83 5B                   - Note Off ( 9)
  900.     5.    13384.  82 42                   - Note Off ( 8)
  901.    27.    13411.  82 3A                   - Note Off ( 7)
  902.    29.    13440.  80 2D                   - Note Off ( 6)
  903.     0.    13440.  81 30                   - Note Off ( 5)
  904.     0.    13440.  90 24 7F                - Note On  ( 6)
  905.     0.    13440.  92 36 60                - Note On  ( 7)
  906.     0.    13440.  92 42 54                - Note On  ( 8)
  907.     7.    13447.  91 32 63                - Note On  ( 9)
  908.    14.    13461.  83 4F                   - Note Off ( 8)
  909.     6.    13467.  93 5B 63                - Note On  ( 9)
  910.    32.    13499.  93 4F 50                - Note On  (10)
  911.     2.    13501.  82 42                   - Note Off ( 9)
  912.    57.    13558.  83 5B                   - Note Off ( 8)
  913.     2.    13560.  92 38 52                - Note On  ( 9)
  914.     0.    13560.  92 42 3C                - Note On  (10)
  915.     1.    13561.  83 4F                   - Note Off ( 9)
  916.    26.    13587.  82 36                   - Note Off ( 8)
  917.    38.    13625.  82 42                   - Note Off ( 7)
  918.    52.    13677.  91 3E 5D                - Note On  ( 8)
  919.     1.    13678.  81 32                   - Note Off ( 7)
  920.     2.    13680.  92 3A 60                - Note On  ( 8)
  921.     0.    13680.  92 42 43                - Note On  ( 9)
  922.     3.    13683.  80 24                   - Note Off ( 8)
  923.     0.    13683.  90 25 7F                - Note On  ( 9)
  924.     5.    13688.  82 38                   - Note Off ( 8)
  925.    30.    13718.  93 59 52                - Note On  ( 9)
  926.     1.    13719.  93 4D 54                - Note On  (10)
  927.    35.    13754.  82 42                   - Note Off ( 9)
  928.    14.    13768.  83 4D                   - Note Off ( 8)
  929.     2.    13770.  83 59                   - Note Off ( 7)
  930.    30.    13800.  92 42 47                - Note On  ( 8)
  931.    75.    13875.  82 42                   - Note Off ( 7)
  932.     5.    13880.  82 3A                   - Note Off ( 6)
  933.     1.    13881.  81 3E                   - Note Off ( 5)
  934.    38.    13919.  80 25                   - Note Off ( 4)
  935.     0.    13919.  90 26 7F                - Note On  ( 5)
  936.     1.    13920.  92 36 66                - Note On  ( 6)
  937.     0.    13920.  92 42 6C                - Note On  ( 7)
  938.    10.    13930.  91 3C 5A                - Note On  ( 8)
  939.    22.    13952.  93 4C 48                - Note On  ( 9)
  940.    39.    13991.  83 4C                   - Note Off ( 8)
  941.     5.    13996.  82 42                   - Note Off ( 7)
  942.    44.    14040.  92 38 4A                - Note On  ( 8)
  943.     0.    14040.  92 42 42                - Note On  ( 9)
  944.    14.    14054.  80 26                   - Note Off ( 8)
  945.     0.    14054.  83 39                   - Note Off ( 7)
  946.     0.    14054.  90 27 7F                - Note On  ( 8)
  947.     6.    14060.  82 36                   - Note Off ( 7)
  948.     1.    14061.  83 37                   - Note Off ( 6)
  949.     9.    14070.  83 30                   - Note Off ( 5)
  950.    33.    14103.  82 42                   - Note Off ( 4)
  951.    10.    14113.  93 3C 54                - Note On  ( 5)
  952.    47.    14160.  93 30 4A                - Note On  ( 6)
  953.     0.    14160.  93 34 57                - Note On  ( 7)
  954.     0.    14160.  92 42 41                - Note On  ( 8)
  955.     0.    14160.  92 3A 62                - Note On  ( 9)
  956.     2.    14162.  91 3D 3B                - Note On  (10)
  957.     3.    14165.  82 38                   - Note Off ( 9)
  958.     1.    14166.  80 27                   - Note Off ( 8)
  959.     0.    14166.  90 28 7F                - Note On  ( 9)
  960.    18.    14184.  81 3C                   - Note Off ( 8)
  961.     3.    14187.  93 54 54                - Note On  ( 9)
  962.    10.    14197.  93 48 5D                - Note On  (10)
  963.    28.    14225.  82 42                   - Note Off ( 9)
  964.    55.    14280.  81 3D                   - Note Off ( 8)
  965.     0.    14280.  92 42 55                - Note On  ( 9)
  966.    30.    14310.  91 3E 5A                - Note On  (10)
  967.    20.    14330.  92 47 7F                - Note On  (11)
  968.    23.    14353.  82 42                   - Note Off (10)
  969.     3.    14356.  82 3A                   - Note Off ( 9)
  970.    44.    14400.  92 36 66                - Note On  (10)
  971.     0.    14400.  92 42 46                - Note On  (11)
  972.     3.    14403.  80 28                   - Note Off (10)
  973.     0.    14403.  90 29 7F                - Note On  (11)
  974.    20.    14423.  81 3E                   - Note Off (10)
  975.    39.    14462.  82 42                   - Note Off ( 9)
  976.    58.    14520.  92 38 52                - Note On  (10)
  977.     0.    14520.  92 42 3F                - Note On  (11)
  978.    27.    14547.  91 32 54                - Note On  (12)
  979.    38.    14585.  82 36                   - Note Off (11)
  980.     4.    14589.  81 32                   - Note Off (10)
  981.    26.    14615.  83 48                   - Note Off ( 9)
  982.    12.    14627.  83 54                   - Note Off ( 8)
  983.    13.    14640.  92 3A 58                - Note On  ( 9)
  984.     1.    14641.  80 29                   - Note Off ( 8)
  985.     0.    14641.  90 2A 7F                - Note On  ( 9)
  986.     6.    14647.  91 37 57                - Note On  (10)
  987.     5.    14652.  82 42                   - Note Off ( 9)
  988.    16.    14668.  82 38                   - Note Off ( 8)
  989.    92.    14760.  92 42 48                - Note On  ( 9)
  990.    77.    14837.  82 42                   - Note Off ( 8)
  991.    29.    14866.  82 3A                   - Note Off ( 7)
  992.     6.    14872.  80 2A                   - Note Off ( 6)
  993.     0.    14872.  90 2B 7F                - Note On  ( 7)
  994.     8.    14880.  81 37                   - Note Off ( 6)
  995.     0.    14880.  92 36 66                - Note On  ( 7)
  996.     0.    14880.  92 42 6C                - Note On  ( 8)
  997.     7.    14887.  91 35 48                - Note On  ( 9)
  998.    61.    14948.  82 42                   - Note Off ( 8)
  999.    52.    15000.  92 38 52                - Note On  ( 9)
 1000.     0.    15000.  92 42 3F                - Note On  (10)
 1001.    13.    15013.  80 2B                   - Note Off ( 9)
 1002.     0.    15013.  90 2C 7F                - Note On  (10)
 1003.    36.    15049.  82 36                   - Note Off ( 9)
 1004.    10.    15059.  82 42                   - Note Off ( 8)
 1005.    61.    15120.  92 3A 62                - Note On  ( 9)
 1006.     0.    15120.  92 42 28                - Note On  (10)
 1007.     5.    15125.  80 2C                   - Note Off ( 9)
 1008.     0.    15125.  90 2D 7F                - Note On  (10)
 1009.     0.    15125.  91 34 4C                - Note On  (11)
 1010.     4.    15129.  82 38                   - Note Off (10)
 1011.    31.    15160.  81 35                   - Note Off ( 9)
 1012.    35.    15195.  82 42                   - Note Off ( 8)
 1013.    21.    15216.  88 4A                   - Note Off ( 7)
 1014.    24.    15240.  92 42 4C                - Note On  ( 8)
 1015.    36.    15276.  83 3C                   - Note Off ( 7)
 1016.    25.    15301.  83 34                   - Note Off ( 6)
 1017.     3.    15304.  82 42                   - Note Off ( 5)
 1018.     1.    15305.  82 3A                   - Note Off ( 4)
 1019.     8.    15313.  83 30                   - Note Off ( 3)
 1020.    21.    15334.  B3 40 00                - Damper Pedal
 1021.    22.    15356.  82 47                   - Note Off ( 2)
 1022.     2.    15358.  81 34                   - Note Off ( 1)
 1023.     0.    15358.  80 2D                   - Note Off ( 0)
 1024.     0.    15358.  FF 2F 00                - End of Track
**** SQ Midi End. ****

**** SQ Midi no = 4. ****
No. delta time. tick count. message
------------------------------------------------
    1.     0.        0.  FF 51 03 07 A1 20       - Set Tempo
    2.     0.        0.  C0 00                  
    3.     0.        0.  C4 04                  
    4.     0.        0.  C3 03                  
    5.     0.        0.  92 45 7A                - Note On  ( 1)
    6.     0.        0.  92 40 7F                - Note On  ( 2)
    7.     0.        0.  92 28 78                - Note On  ( 3)
    8.     0.        0.  92 3E 6F                - Note On  ( 4)
    9.     0.        0.  C2 02                  
   10.     0.        0.  C1 01                  
   11.     0.        0.  CD 0D                  
   12.     0.        0.  CA 0A                  
   13.     0.        0.  99 32 6C                - Note On  ( 5)
   14.     0.        0.  99 45 40                - Note On  ( 6)
   15.     0.        0.  99 3E 6C                - Note On  ( 7)
   16.     0.        0.  99 48 63                - Note On  ( 8)
   17.     0.        0.  C9 09                  
   18.     0.        0.  C8 08                  
   19.     0.        0.  C7 07                  
   20.     0.        0.  96 32 75                - Note On  ( 9)
   21.     0.        0.  C6 06                  
   22.     0.        0.  C5 05                  
   23.     1.        1.  B5 07 64                - Channel Volume
   24.     0.        1.  B6 07 6E                - Channel Volume
   25.     0.        1.  B7 07 78                - Channel Volume
   26.     0.        1.  B8 07 43                - Channel Volume
   27.     0.        1.  B9 07 44                - Channel Volume
   28.     0.        1.  BA 07 46                - Channel Volume
   29.     0.        1.  BD 07 4F                - Channel Volume
   30.     0.        1.  B0 07 7F                - Channel Volume
   31.     0.        1.  B1 07 5B                - Channel Volume
   32.     0.        1.  B2 07 7F                - Channel Volume
   33.     0.        1.  B3 07 6E                - Channel Volume
   34.     0.        1.  B4 07 7A                - Channel Volume
   35.     1.        2.  B4 0A 40                - Pan
   36.     0.        2.  B3 0A 40                - Pan
   37.     0.        2.  B2 0A 40                - Pan
   38.     0.        2.  B1 0A 40                - Pan
   39.     0.        2.  B0 0A 40                - Pan
   40.     0.        2.  BD 0A 5E                - Pan
   41.     0.        2.  BA 0A 40                - Pan
   42.     0.        2.  B9 0A 40                - Pan
   43.     0.        2.  B8 0A 40                - Pan
   44.     0.        2.  B7 0A 22                - Pan
   45.     0.        2.  B6 0A 40                - Pan
   46.     0.        2.  B5 0A 40                - Pan
   47.    83.       85.  86 32                   - Note Off ( 8)
   48.  1646.     1731.  82 40                   - Note Off ( 7)
   49.    12.     1743.  82 45                   - Note Off ( 6)
   50.    12.     1755.  93 56 3D                - Note On  ( 7)
   51.   105.     1860.  93 5D 44                - Note On  ( 8)
   52.   964.     2824.  B3 40 7F                - Damper Pedal
   53.   391.     3215.  83 56                   - Note Off ( 7)
   54.    52.     3267.  83 5D                   - Note Off ( 6)
   55.    40.     3307.  93 56 4A                - Note On  ( 7)
   56.   101.     3408.  93 5B 3E                - Note On  ( 8)
   57.   286.     3694.  82 28                   - Note Off ( 7)
   58.    91.     3785.  89 32                   - Note Off ( 6)
   59.     0.     3785.  89 3E                   - Note Off ( 5)
   60.    13.     3798.  89 48                   - Note Off ( 4)
   61.    12.     3810.  93 51 3E                - Note On  ( 5)
   62.    30.     3840.  92 28 78                - Note On  ( 6)
   63.     0.     3840.  99 2E 69                - Note On  ( 7)
   64.     0.     3840.  99 4D 50                - Note On  ( 8)
   65.     0.     3840.  99 3A 69                - Note On  ( 9)
   66.    40.     3880.  93 4F 37                - Note On  (10)
   67.    73.     3953.  93 4A 33                - Note On  (11)
   68.   722.     4675.  83 5B                   - Note Off (10)
   69.    31.     4706.  83 56                   - Note Off ( 9)
   70.   192.     4898.  83 51                   - Note Off ( 8)
   71.    70.     4968.  83 4F                   - Note Off ( 7)
   72.   183.     5151.  83 4A                   - Note Off ( 6)
   73.   457.     5608.  93 56 30                - Note On  ( 7)
   74.    80.     5688.  93 51 39                - Note On  ( 8)
   75.    73.     5761.  93 4A 35                - Note On  ( 9)
   76.  1439.     7200.  89 3A                   - Note Off ( 8)
   77.     0.     7200.  89 2E                   - Note Off ( 7)
   78.     0.     7200.  99 2D 54                - Note On  ( 8)
   79.     0.     7200.  99 4C 57                - Note On  ( 9)
   80.     0.     7200.  99 39 54                - Note On  (10)
   81.    95.     7295.  89 4D                   - Note Off ( 9)
   82.    73.     7368.  82 3E                   - Note Off ( 8)
   83.    72.     7440.  82 28                   - Note Off ( 7)
   84.   100.     7540.  89 4C                   - Note Off ( 6)
   85.    26.     7566.  89 2D                   - Note Off ( 5)
   86.     0.     7566.  89 39                   - Note Off ( 4)
   87.    50.     7616.  89 45                   - Note Off ( 3)
   88.     0.     7616.  83 4A                   - Note Off ( 2)
   89.     2.     7618.  83 51                   - Note Off ( 1)
   90.     5.     7623.  83 56                   - Note Off ( 0)
   91.    25.     7648.  93 56 2F                - Note On  ( 1)
   92.    32.     7680.  92 28 78                - Note On  ( 2)
   93.     0.     7680.  99 2B 57                - Note On  ( 3)
   94.     0.     7680.  99 37 57                - Note On  ( 4)
   95.     0.     7680.  99 4A 52                - Note On  ( 5)
   96.     0.     7680.  96 32 75                - Note On  ( 6)
   97.    12.     7692.  93 5B 3D                - Note On  ( 7)
   98.    34.     7726.  93 60 45                - Note On  ( 8)
   99.    87.     7813.  86 32                   - Note Off ( 7)
  100.   347.     8160.  B3 40 00                - Damper Pedal
  101.     9.     8169.  B3 40 7F                - Damper Pedal
  102.   452.     8621.  83 5B                   - Note Off ( 6)
  103.    31.     8652.  83 60                   - Note Off ( 5)
  104.     1.     8653.  83 56                   - Note Off ( 4)
  105.   216.     8869.  93 5D 4A                - Note On  ( 5)
  106.   268.     9137.  83 5D                   - Note Off ( 4)
  107.    12.     9149.  93 56 3E                - Note On  ( 5)
  108.   288.     9437.  83 56                   - Note Off ( 4)
  109.     6.     9443.  93 5B 40                - Note On  ( 5)
  110.   296.     9739.  83 5B                   - Note Off ( 4)
  111.     1.     9740.  93 54 3E                - Note On  ( 5)
  112.   280.    10020.  83 54                   - Note Off ( 4)
  113.    19.    10039.  93 59 48                - Note On  ( 5)
  114.   298.    10337.  93 51 3E                - Note On  ( 6)
  115.     4.    10341.  83 59                   - Note Off ( 5)
  116.   319.    10660.  93 56 44                - Note On  ( 6)
  117.    11.    10671.  83 51                   - Note Off ( 5)
  118.   277.    10948.  93 4F 33                - Note On  ( 6)
  119.     2.    10950.  83 56                   - Note Off ( 5)
  120.    40.    10990.  89 4A                   - Note Off ( 4)
  121.    50.    11040.  99 48 60                - Note On  ( 5)
  122.   240.    11280.  82 28                   - Note Off ( 4)
  123.   233.    11513.  89 37                   - Note Off ( 3)
  124.     0.    11513.  89 2B                   - Note Off ( 2)
  125.     7.    11520.  93 32 26                - Note On  ( 3)
  126.     0.    11520.  92 28 75                - Note On  ( 4)
  127.     0.    11520.  99 3E 57                - Note On  ( 5)
  128.     0.    11520.  99 4A 54                - Note On  ( 6)
  129.     0.    11520.  99 32 57                - Note On  ( 7)
  130.    10.    11530.  93 39 34                - Note On  ( 8)
  131.     7.    11537.  93 45 2B                - Note On  ( 9)
  132.    27.    11564.  89 48                   - Note Off ( 8)
  133.    39.    11603.  93 4A 39                - Note On  ( 9)
  134.    25.    11628.  83 4F                   - Note Off ( 8)
  135.    12.    11640.  99 43 3A                - Note On  ( 9)
  136.    14.    11654.  93 4D 4A                - Note On  (10)
  137.   363.    12017.  83 4A                   - Note Off ( 9)
  138.   100.    12117.  B3 40 00                - Damper Pedal
  139.    16.    12133.  B3 40 7F                - Damper Pedal
  140.    45.    12178.  B3 40 00                - Damper Pedal
  141.    32.    12210.  B3 40 7F                - Damper Pedal
  142.    46.    12256.  93 4C 50                - Note On  (10)
  143.    32.    12288.  83 4D                   - Note Off ( 9)
  144.    90.    12378.  B3 40 00                - Damper Pedal
  145.   132.    12510.  83 4C                   - Note Off ( 8)
  146.    67.    12577.  B3 40 7F                - Damper Pedal
  147.   148.    12725.  93 48 33                - Note On  ( 9)
  148.   535.    13260.  93 4A 48                - Note On  (10)
  149.    67.    13327.  83 48                   - Note Off ( 9)
  150.   579.    13906.  93 26 3E                - Note On  (10)
  151.   113.    14019.  93 2D 45                - Note On  (11)
  152.   442.    14461.  83 39                   - Note Off (10)
  153.    14.    14475.  83 32                   - Note Off ( 9)
  154.    63.    14538.  83 4A                   - Note Off ( 8)
  155.    53.    14591.  83 45                   - Note Off ( 7)
  156.   529.    15120.  89 43                   - Note Off ( 6)
  157.     3.    15123.  82 28                   - Note Off ( 5)
  158.   148.    15271.  89 4A                   - Note Off ( 4)
  159.     5.    15276.  83 26                   - Note Off ( 3)
  160.     6.    15282.  89 3E                   - Note Off ( 2)
  161.     0.    15282.  89 32                   - Note Off ( 1)
  162.     1.    15283.  83 2D                   - Note Off ( 0)
  163.    77.    15360.  92 28 78                - Note On  ( 1)
  164.     0.    15360.  99 32 6C                - Note On  ( 2)
  165.     0.    15360.  99 45 40                - Note On  ( 3)
  166.     0.    15360.  99 3E 6C                - Note On  ( 4)
  167.     0.    15360.  9A 39 57                - Note On  ( 5)
  168.     0.    15360.  9A 32 54                - Note On  ( 6)
  169.     0.    15360.  BA 0A 7F                - Pan
  170.     0.    15360.  96 32 75                - Note On  ( 7)
  171.     2.    15362.  93 3E 50                - Note On  ( 8)
  172.    75.    15437.  8A 39                   - Note Off ( 7)
  173.     8.    15445.  8A 32                   - Note Off ( 6)
  174.    25.    15470.  86 32                   - Note Off ( 5)
  175.    25.    15495.  BA 0A 7E                - Pan
  176.   105.    15600.  9A 37 52                - Note On  ( 6)
  177.    31.    15631.  BA 0A 7D                - Pan
  178.    69.    15700.  8A 37                   - Note Off ( 5)
  179.    20.    15720.  9A 39 48                - Note On  ( 6)
  180.     0.    15720.  9A 32 54                - Note On  ( 7)
  181.    47.    15767.  BA 0A 7C                - Pan
  182.    38.    15805.  8A 32                   - Note Off ( 6)
  183.    30.    15835.  8A 39                   - Note Off ( 5)
  184.    69.    15904.  BA 0A 7B                - Pan
  185.   137.    16041.  BA 0A 7A                - Pan
  186.    68.    16109.  93 45 60                - Note On  ( 6)
  187.    16.    16125.  83 3E                   - Note Off ( 5)
  188.    54.    16179.  BA 0A 79                - Pan
  189.   138.    16317.  BA 0A 78                - Pan
  190.     3.    16320.  9A 39 50                - Note On  ( 6)
  191.     0.    16320.  9A 32 54                - Note On  ( 7)
  192.    63.    16383.  8A 39                   - Note Off ( 6)
  193.    18.    16401.  8A 32                   - Note Off ( 5)
  194.    55.    16456.  BA 0A 77                - Pan
  195.   104.    16560.  9A 39 4A                - Note On  ( 6)
  196.     0.    16560.  9A 32 4A                - Note On  ( 7)
  197.    35.    16595.  BA 0A 76                - Pan
  198.    27.    16622.  8A 32                   - Note Off ( 6)
  199.    33.    16655.  8A 39                   - Note Off ( 5)
  200.    25.    16680.  9A 37 50                - Note On  ( 6)
  201.    55.    16735.  BA 0A 75                - Pan
  202.    53.    16788.  83 45                   - Note Off ( 5)
  203.     6.    16794.  8A 37                   - Note Off ( 4)
  204.     6.    16800.  9A 39 36                - Note On  ( 5)
  205.     0.    16800.  9A 32 48                - Note On  ( 6)
  206.     1.    16801.  93 43 52                - Note On  ( 7)
  207.    45.    16846.  8A 39                   - Note Off ( 6)
  208.    30.    16876.  BA 0A 74                - Pan
  209.    18.    16894.  8A 32                   - Note Off ( 5)
  210.    26.    16920.  9A 3C 40                - Note On  ( 6)
  211.     0.    16920.  9A 35 54                - Note On  ( 7)
  212.    92.    17012.  8A 35                   - Note Off ( 6)
  213.     5.    17017.  BA 0A 73                - Pan
  214.    23.    17040.  9A 39 42                - Note On  ( 7)
  215.     0.    17040.  9A 32 57                - Note On  ( 8)
  216.    20.    17060.  8A 3C                   - Note Off ( 7)
  217.    69.    17129.  8A 32                   - Note Off ( 6)
  218.    30.    17159.  8A 39                   - Note Off ( 5)
  219.     0.    17159.  BA 0A 72                - Pan
  220.     1.    17160.  9A 37 50                - Note On  ( 6)
  221.   108.    17268.  8A 37                   - Note Off ( 5)
  222.     8.    17276.  93 48 57                - Note On  ( 6)
  223.     2.    17278.  83 43                   - Note Off ( 5)
  224.     2.    17280.  9A 39 4E                - Note On  ( 6)
  225.     0.    17280.  9A 32 4C                - Note On  ( 7)
  226.    21.    17301.  BA 0A 71                - Pan
  227.    26.    17327.  8A 32                   - Note Off ( 6)
  228.    11.    17338.  8A 39                   - Note Off ( 5)
  229.    62.    17400.  9A 39 48                - Note On  ( 6)
  230.     0.    17400.  9A 32 46                - Note On  ( 7)
  231.    44.    17444.  BA 0A 70                - Pan
  232.    33.    17477.  8A 39                   - Note Off ( 6)
  233.    12.    17489.  8A 32                   - Note Off ( 5)
  234.    99.    17588.  BA 0A 6F                - Pan
  235.    52.    17640.  9A 39 54                - Note On  ( 6)
  236.     0.    17640.  9A 32 4E                - Note On  ( 7)
  237.    71.    17711.  8A 32                   - Note Off ( 6)
  238.    11.    17722.  8A 39                   - Note Off ( 5)
  239.    10.    17732.  BA 0A 6E                - Pan
  240.   145.    17877.  BA 0A 6D                - Pan
  241.   145.    18022.  BA 0A 6C                - Pan
  242.    19.    18041.  93 45 63                - Note On  ( 6)
  243.    33.    18074.  83 48                   - Note Off ( 5)
  244.    94.    18168.  BA 0A 6B                - Pan
  245.    72.    18240.  9A 39 57                - Note On  ( 6)
  246.     0.    18240.  9A 32 54                - Note On  ( 7)
  247.    75.    18315.  8A 39                   - Note Off ( 6)
  248.     0.    18315.  8A 32                   - Note Off ( 5)
  249.     0.    18315.  BA 0A 6A                - Pan
  250.   147.    18462.  BA 0A 69                - Pan
  251.    18.    18480.  9A 39 4C                - Note On  ( 6)
  252.     0.    18480.  9A 32 48                - Note On  ( 7)
  253.    68.    18548.  8A 32                   - Note Off ( 6)
  254.    36.    18584.  8A 39                   - Note Off ( 5)
  255.    16.    18600.  9A 37 57                - Note On  ( 6)
  256.    10.    18610.  BA 0A 68                - Pan
  257.    92.    18702.  8A 37                   - Note Off ( 5)
  258.    18.    18720.  9A 39 34                - Note On  ( 6)
  259.     0.    18720.  9A 32 4A                - Note On  ( 7)
  260.    39.    18759.  BA 0A 67                - Pan
  261.    13.    18772.  8A 39                   - Note Off ( 6)
  262.    55.    18827.  8A 32                   - Note Off ( 5)
  263.    13.    18840.  9A 3C 42                - Note On  ( 6)
  264.     0.    18840.  9A 35 4A                - Note On  ( 7)
  265.    68.    18908.  BA 0A 66                - Pan
  266.     9.    18917.  8A 35                   - Note Off ( 6)
  267.    43.    18960.  9A 39 4A                - Note On  ( 7)
  268.     0.    18960.  9A 32 50                - Note On  ( 8)
  269.    14.    18974.  8A 3C                   - Note Off ( 7)
  270.    84.    19058.  8A 39                   - Note Off ( 6)
  271.     0.    19058.  BA 0A 65                - Pan
  272.     6.    19064.  8A 32                   - Note Off ( 5)
  273.    11.    19075.  82 28                   - Note Off ( 4)
  274.     5.    19080.  9A 37 57                - Note On  ( 5)
  275.    65.    19145.  89 32                   - Note Off ( 4)
  276.     0.    19145.  89 3E                   - Note Off ( 3)
  277.    19.    19164.  8A 37                   - Note Off ( 2)
  278.    27.    19191.  83 45                   - Note Off ( 1)
  279.     9.    19200.  92 28 78                - Note On  ( 2)
  280.     0.    19200.  9A 39 57                - Note On  ( 3)
  281.     0.    19200.  9A 32 54                - Note On  ( 4)
  282.     0.    19200.  99 2E 69                - Note On  ( 5)
  283.     0.    19200.  99 4D 50                - Note On  ( 6)
  284.     0.    19200.  99 3A 69                - Note On  ( 7)
  285.     8.    19208.  BA 0A 64                - Pan
  286.    15.    19223.  93 3E 54                - Note On  ( 8)
  287.    54.    19277.  8A 39                   - Note Off ( 7)
  288.     8.    19285.  8A 32                   - Note Off ( 6)
  289.    74.    19359.  BA 0A 63                - Pan
  290.    81.    19440.  9A 37 52                - Note On  ( 7)
  291.    71.    19511.  BA 0A 62                - Pan
  292.    29.    19540.  8A 37                   - Note Off ( 6)
  293.    20.    19560.  9A 39 48                - Note On  ( 7)
  294.     0.    19560.  9A 32 54                - Note On  ( 8)
  295.    85.    19645.  8A 32                   - Note Off ( 7)
  296.    18.    19663.  BA 0A 61                - Pan
  297.    12.    19675.  8A 39                   - Note Off ( 6)
  298.   141.    19816.  BA 0A 60                - Pan
  299.   144.    19960.  83 3E                   - Note Off ( 5)
  300.     2.    19962.  93 45 5A                - Note On  ( 6)
  301.     8.    19970.  BA 0A 5F                - Pan
  302.   154.    20124.  BA 0A 5E                - Pan
  303.    36.    20160.  9A 39 50                - Note On  ( 7)
  304.     0.    20160.  9A 32 54                - Note On  ( 8)
  305.    63.    20223.  8A 39                   - Note Off ( 7)
  306.    18.    20241.  8A 32                   - Note Off ( 6)
  307.    38.    20279.  BA 0A 5D                - Pan
  308.   121.    20400.  9A 39 4A                - Note On  ( 7)
  309.     0.    20400.  9A 32 4A                - Note On  ( 8)
  310.    35.    20435.  BA 0A 5C                - Pan
  311.    27.    20462.  8A 32                   - Note Off ( 7)
  312.    33.    20495.  8A 39                   - Note Off ( 6)
  313.    25.    20520.  9A 37 50                - Note On  ( 7)
  314.    72.    20592.  BA 0A 5B                - Pan
  315.    42.    20634.  8A 37                   - Note Off ( 6)
  316.     6.    20640.  9A 39 36                - Note On  ( 7)
  317.     0.    20640.  9A 32 48                - Note On  ( 8)
  318.    15.    20655.  93 43 63                - Note On  ( 9)
  319.    31.    20686.  8A 39                   - Note Off ( 8)
  320.     5.    20691.  83 45                   - Note Off ( 7)
  321.    43.    20734.  8A 32                   - Note Off ( 6)
  322.    15.    20749.  BA 0A 5A                - Pan
  323.    11.    20760.  9A 3C 40                - Note On  ( 7)
  324.     0.    20760.  9A 35 54                - Note On  ( 8)
  325.    92.    20852.  8A 35                   - Note Off ( 7)
  326.    28.    20880.  9A 39 42                - Note On  ( 8)
  327.     0.    20880.  9A 32 57                - Note On  ( 9)
  328.    20.    20900.  8A 3C                   - Note Off ( 8)
  329.     6.    20906.  BA 0A 59                - Pan
  330.    63.    20969.  8A 32                   - Note Off ( 7)
  331.    30.    20999.  8A 39                   - Note Off ( 6)
  332.     1.    21000.  9A 37 50                - Note On  ( 7)
  333.    65.    21065.  BA 0A 58                - Pan
  334.    24.    21089.  83 43                   - Note Off ( 6)
  335.    19.    21108.  8A 37                   - Note Off ( 5)
  336.     1.    21109.  93 3C 54                - Note On  ( 6)
  337.    11.    21120.  9A 39 4E                - Note On  ( 7)
  338.     0.    21120.  9A 32 4C                - Note On  ( 8)
  339.    47.    21167.  8A 32                   - Note Off ( 7)
  340.    11.    21178.  8A 39                   - Note Off ( 6)
  341.    46.    21224.  BA 0A 57                - Pan
  342.    16.    21240.  9A 39 48                - Note On  ( 7)
  343.     0.    21240.  9A 32 46                - Note On  ( 8)
  344.    77.    21317.  8A 39                   - Note Off ( 7)
  345.    12.    21329.  8A 32                   - Note Off ( 6)
  346.    55.    21384.  BA 0A 56                - Pan
  347.    96.    21480.  9A 39 54                - Note On  ( 7)
  348.     0.    21480.  9A 32 4E                - Note On  ( 8)
  349.    65.    21545.  BA 0A 55                - Pan
  350.     6.    21551.  8A 32                   - Note Off ( 7)
  351.    11.    21562.  8A 39                   - Note Off ( 6)
  352.   144.    21706.  BA 0A 54                - Pan
  353.   107.    21813.  83 3C                   - Note Off ( 5)
  354.    27.    21840.  93 3E 4E                - Note On  ( 6)
  355.    28.    21868.  BA 0A 53                - Pan
  356.   163.    22031.  BA 0A 52                - Pan
  357.    49.    22080.  9A 39 57                - Note On  ( 7)
  358.     0.    22080.  9A 32 54                - Note On  ( 8)
  359.    75.    22155.  8A 39                   - Note Off ( 7)
  360.     0.    22155.  8A 32                   - Note Off ( 6)
  361.    39.    22194.  BA 0A 51                - Pan
  362.   126.    22320.  9A 39 4C                - Note On  ( 7)
  363.     0.    22320.  9A 32 48                - Note On  ( 8)
  364.    38.    22358.  BA 0A 50                - Pan
  365.    30.    22388.  8A 32                   - Note Off ( 7)
  366.    36.    22424.  8A 39                   - Note Off ( 6)
  367.    16.    22440.  9A 37 57                - Note On  ( 7)
  368.    83.    22523.  BA 0A 4F                - Pan
  369.    19.    22542.  8A 37                   - Note Off ( 6)
  370.    18.    22560.  89 2E                   - Note Off ( 5)
  371.     0.    22560.  89 3A                   - Note Off ( 4)
  372.     0.    22560.  9A 39 34                - Note On  ( 5)
  373.     0.    22560.  9A 32 4A                - Note On  ( 6)
  374.     0.    22560.  99 2D 54                - Note On  ( 7)
  375.     0.    22560.  99 4C 57                - Note On  ( 8)
  376.     0.    22560.  99 39 54                - Note On  ( 9)
  377.    52.    22612.  8A 39                   - Note Off ( 8)
  378.    43.    22655.  89 4D                   - Note Off ( 7)
  379.    12.    22667.  8A 32                   - Note Off ( 6)
  380.    13.    22680.  9A 3C 42                - Note On  ( 7)
  381.     0.    22680.  9A 35 4A                - Note On  ( 8)
  382.     9.    22689.  BA 0A 4E                - Pan
  383.    68.    22757.  8A 35                   - Note Off ( 7)
  384.    43.    22800.  9A 39 4A                - Note On  ( 8)
  385.     0.    22800.  9A 32 50                - Note On  ( 9)
  386.    14.    22814.  8A 3C                   - Note Off ( 8)
  387.    41.    22855.  BA 0A 4D                - Pan
  388.    43.    22898.  8A 39                   - Note Off ( 7)
  389.     6.    22904.  8A 32                   - Note Off ( 6)
  390.    16.    22920.  9A 37 57                - Note On  ( 7)
  391.     3.    22923.  82 28                   - Note Off ( 6)
  392.    53.    22976.  89 45                   - Note Off ( 5)
  393.    28.    23004.  8A 37                   - Note Off ( 4)
  394.    19.    23023.  BA 0A 4C                - Pan
  395.     2.    23025.  89 4C                   - Note Off ( 3)
  396.    11.    23036.  83 3E                   - Note Off ( 2)
  397.     4.    23040.  93 3E 6C                - Note On  ( 3)
  398.     0.    23040.  92 28 78                - Note On  ( 4)
  399.     0.    23040.  9A 39 57                - Note On  ( 5)
  400.     0.    23040.  9A 32 54                - Note On  ( 6)
  401.     0.    23040.  99 2B 57                - Note On  ( 7)
  402.     0.    23040.  99 37 57                - Note On  ( 8)
  403.     0.    23040.  99 4A 52                - Note On  ( 9)
  404.     0.    23040.  96 32 75                - Note On  (10)
  405.    11.    23051.  89 2D                   - Note Off ( 9)
  406.     0.    23051.  89 39                   - Note Off ( 8)
  407.    66.    23117.  8A 39                   - Note Off ( 7)
  408.     8.    23125.  8A 32                   - Note Off ( 6)
  409.    55.    23180.  86 32                   - Note Off ( 5)
  410.    10.    23190.  BA 0A 4B                - Pan
  411.    90.    23280.  9A 37 52                - Note On  ( 6)
  412.    79.    23359.  BA 0A 4A                - Pan
  413.    21.    23380.  8A 37                   - Note Off ( 5)
  414.    20.    23400.  9A 39 48                - Note On  ( 6)
  415.     0.    23400.  9A 32 54                - Note On  ( 7)
  416.    85.    23485.  8A 32                   - Note Off ( 6)
  417.    30.    23515.  8A 39                   - Note Off ( 5)
  418.    14.    23529.  BA 0A 49                - Pan
  419.   170.    23699.  BA 0A 48                - Pan
  420.    58.    23757.  83 3E                   - Note Off ( 4)
  421.     3.    23760.  93 45 66                - Note On  ( 5)
  422.   110.    23870.  BA 0A 47                - Pan
  423.   130.    24000.  9A 39 50                - Note On  ( 6)
  424.     0.    24000.  9A 32 54                - Note On  ( 7)
  425.    42.    24042.  BA 0A 46                - Pan
  426.    21.    24063.  8A 39                   - Note Off ( 6)
  427.    18.    24081.  8A 32                   - Note Off ( 5)
  428.   133.    24214.  BA 0A 45                - Pan
  429.    26.    24240.  9A 39 4A                - Note On  ( 6)
  430.     0.    24240.  9A 32 4A                - Note On  ( 7)
  431.    62.    24302.  8A 32                   - Note Off ( 6)
  432.    33.    24335.  8A 39                   - Note Off ( 5)
  433.    25.    24360.  9A 37 50                - Note On  ( 6)
  434.    28.    24388.  BA 0A 44                - Pan
  435.    81.    24469.  83 45                   - Note Off ( 5)
  436.     5.    24474.  8A 37                   - Note Off ( 4)
  437.     6.    24480.  93 43 66                - Note On  ( 5)
  438.     0.    24480.  9A 39 36                - Note On  ( 6)
  439.     0.    24480.  9A 32 48                - Note On  ( 7)
  440.    46.    24526.  8A 39                   - Note Off ( 6)
  441.    36.    24562.  BA 0A 43                - Pan
  442.    12.    24574.  8A 32                   - Note Off ( 5)
  443.    26.    24600.  9A 3C 40                - Note On  ( 6)
  444.     0.    24600.  9A 35 54                - Note On  ( 7)
  445.    92.    24692.  8A 35                   - Note Off ( 6)
  446.    28.    24720.  9A 39 42                - Note On  ( 7)
  447.     0.    24720.  9A 32 57                - Note On  ( 8)
  448.    17.    24737.  BA 0A 42                - Pan
  449.     3.    24740.  8A 3C                   - Note Off ( 7)
  450.    69.    24809.  8A 32                   - Note Off ( 6)
  451.    30.    24839.  8A 39                   - Note Off ( 5)
  452.     1.    24840.  9A 37 50                - Note On  ( 6)
  453.    73.    24913.  BA 0A 41                - Pan
  454.    35.    24948.  8A 37                   - Note Off ( 5)
  455.    12.    24960.  93 41 63                - Note On  ( 6)
  456.     0.    24960.  9A 39 4E                - Note On  ( 7)
  457.     0.    24960.  9A 32 4C                - Note On  ( 8)
  458.    23.    24983.  83 43                   - Note Off ( 7)
  459.    24.    25007.  8A 32                   - Note Off ( 6)
  460.    11.    25018.  8A 39                   - Note Off ( 5)
  461.    62.    25080.  9A 39 48                - Note On  ( 6)
  462.     0.    25080.  9A 32 46                - Note On  ( 7)
  463.     9.    25089.  BA 0A 40                - Pan
  464.    68.    25157.  8A 39                   - Note Off ( 6)
  465.    12.    25169.  8A 32                   - Note Off ( 5)
  466.    98.    25267.  BA 0A 3F                - Pan
  467.    53.    25320.  9A 39 54                - Note On  ( 6)
  468.     0.    25320.  9A 32 4E                - Note On  ( 7)
  469.    71.    25391.  8A 32                   - Note Off ( 6)
  470.    11.    25402.  8A 39                   - Note Off ( 5)
  471.    43.    25445.  BA 0A 3E                - Pan
  472.   179.    25624.  BA 0A 3D                - Pan
  473.    43.    25667.  83 41                   - Note Off ( 4)
  474.    13.    25680.  93 3C 54                - Note On  ( 5)
  475.   124.    25804.  BA 0A 3C                - Pan
  476.   116.    25920.  9A 39 57                - Note On  ( 6)
  477.     0.    25920.  9A 32 54                - Note On  ( 7)
  478.    65.    25985.  BA 0A 3B                - Pan
  479.    10.    25995.  8A 39                   - Note Off ( 6)
  480.     0.    25995.  8A 32                   - Note Off ( 5)
  481.   165.    26160.  9A 39 4C                - Note On  ( 6)
  482.     0.    26160.  9A 32 48                - Note On  ( 7)
  483.     7.    26167.  BA 0A 3A                - Pan
  484.    61.    26228.  8A 32                   - Note Off ( 6)
  485.    36.    26264.  8A 39                   - Note Off ( 5)
  486.    16.    26280.  9A 37 57                - Note On  ( 6)
  487.    69.    26349.  BA 0A 39                - Pan
  488.     1.    26350.  89 4A                   - Note Off ( 5)
  489.    32.    26382.  8A 37                   - Note Off ( 4)
  490.    18.    26400.  9A 39 34                - Note On  ( 5)
  491.     0.    26400.  9A 32 4A                - Note On  ( 6)
  492.     0.    26400.  99 48 60                - Note On  ( 7)
  493.    52.    26452.  8A 39                   - Note Off ( 6)
  494.    55.    26507.  8A 32                   - Note Off ( 5)
  495.    13.    26520.  9A 3C 42                - Note On  ( 6)
  496.     0.    26520.  9A 35 4A                - Note On  ( 7)
  497.    13.    26533.  BA 0A 38                - Pan
  498.    64.    26597.  8A 35                   - Note Off ( 6)
  499.    43.    26640.  9A 39 4A                - Note On  ( 7)
  500.     0.    26640.  9A 32 50                - Note On  ( 8)
  501.    14.    26654.  8A 3C                   - Note Off ( 7)
  502.    63.    26717.  BA 0A 37                - Pan
  503.    21.    26738.  8A 39                   - Note Off ( 6)
  504.     6.    26744.  8A 32                   - Note Off ( 5)
  505.    16.    26760.  9A 37 57                - Note On  ( 6)
  506.     3.    26763.  82 28                   - Note Off ( 5)
  507.    81.    26844.  8A 37                   - Note Off ( 4)
  508.    29.    26873.  89 2B                   - Note Off ( 3)
  509.     0.    26873.  89 37                   - Note Off ( 2)
  510.     7.    26880.  93 3E 66                - Note On  ( 3)
  511.     0.    26880.  92 28 78                - Note On  ( 4)
  512.     0.    26880.  9A 39 57                - Note On  ( 5)
  513.     0.    26880.  9A 32 54                - Note On  ( 6)
  514.     0.    26880.  99 4A 54                - Note On  ( 7)
  515.     1.    26881.  99 3E 57                - Note On  ( 8)
  516.     0.    26881.  99 32 57                - Note On  ( 9)
  517.     1.    26882.  99 43 3A                - Note On  (10)
  518.    13.    26895.  83 3C                   - Note Off ( 9)
  519.     7.    26902.  BA 0A 36                - Pan
  520.    22.    26924.  89 48                   - Note Off ( 8)
  521.    33.    26957.  8A 39                   - Note Off ( 7)
  522.     8.    26965.  8A 32                   - Note Off ( 6)
  523.   123.    27088.  BA 0A 35                - Pan
  524.    32.    27120.  9A 37 52                - Note On  ( 7)
  525.   100.    27220.  8A 37                   - Note Off ( 6)
  526.    20.    27240.  9A 39 48                - Note On  ( 7)
  527.     0.    27240.  9A 32 54                - Note On  ( 8)
  528.    35.    27275.  BA 0A 34                - Pan
  529.    50.    27325.  8A 32                   - Note Off ( 7)
  530.    30.    27355.  8A 39                   - Note Off ( 6)
  531.   108.    27463.  BA 0A 33                - Pan
  532.   188.    27651.  BA 0A 32                - Pan
  533.   189.    27840.  9A 39 50                - Note On  ( 7)
  534.     0.    27840.  9A 32 54                - Note On  ( 8)
  535.     1.    27841.  BA 0A 31                - Pan
  536.    59.    27900.  83 3E                   - Note Off ( 7)
  537.     3.    27903.  8A 39                   - Note Off ( 6)
  538.    18.    27921.  8A 32                   - Note Off ( 5)
  539.   111.    28032.  BA 0A 30                - Pan
  540.    48.    28080.  9A 39 4A                - Note On  ( 6)
  541.     0.    28080.  9A 32 4A                - Note On  ( 7)
  542.     0.    28080.  93 41 57                - Note On  ( 8)
  543.    62.    28142.  8A 32                   - Note Off ( 7)
  544.    33.    28175.  8A 39                   - Note Off ( 6)
  545.    25.    28200.  9A 37 50                - Note On  ( 7)
  546.    23.    28223.  BA 0A 2F                - Pan
  547.    91.    28314.  8A 37                   - Note Off ( 6)
  548.     6.    28320.  93 40 5D                - Note On  ( 7)
  549.     0.    28320.  9A 39 36                - Note On  ( 8)
  550.     0.    28320.  9A 32 48                - Note On  ( 9)
  551.    39.    28359.  83 41                   - Note Off ( 8)
  552.     7.    28366.  8A 39                   - Note Off ( 7)
  553.    48.    28414.  8A 32                   - Note Off ( 6)
  554.     1.    28415.  BA 0A 2E                - Pan
  555.    25.    28440.  9A 3C 40                - Note On  ( 7)
  556.     0.    28440.  9A 35 54                - Note On  ( 8)
  557.    84.    28524.  83 40                   - Note Off ( 7)
  558.     8.    28532.  8A 35                   - Note Off ( 6)
  559.    28.    28560.  93 3E 4E                - Note On  ( 7)
  560.     0.    28560.  9A 39 42                - Note On  ( 8)
  561.     0.    28560.  9A 32 57                - Note On  ( 9)
  562.    20.    28580.  8A 3C                   - Note Off ( 8)
  563.    29.    28609.  BA 0A 2D                - Pan
  564.    40.    28649.  8A 32                   - Note Off ( 7)
  565.    30.    28679.  8A 39                   - Note Off ( 6)
  566.     1.    28680.  9A 37 50                - Note On  ( 7)
  567.   108.    28788.  8A 37                   - Note Off ( 6)
  568.    12.    28800.  93 3C 57                - Note On  ( 7)
  569.     0.    28800.  92 42 48                - Note On  ( 8)
  570.     0.    28800.  9A 39 4E                - Note On  ( 9)
  571.     0.    28800.  9A 32 4C                - Note On  (10)
  572.     3.    28803.  BA 0A 2C                - Pan
  573.    22.    28825.  83 3E                   - Note Off ( 9)
  574.     8.    28833.  82 42                   - Note Off ( 8)
  575.    14.    28847.  8A 32                   - Note Off ( 7)
  576.    11.    28858.  8A 39                   - Note Off ( 6)
  577.     2.    28860.  92 42 31                - Note On  ( 7)
  578.    33.    28893.  82 42                   - Note Off ( 6)
  579.    27.    28920.  92 42 25                - Note On  ( 7)
  580.     0.    28920.  9A 39 48                - Note On  ( 8)
  581.     0.    28920.  9A 32 46                - Note On  ( 9)
  582.    38.    28958.  82 42                   - Note Off ( 8)
  583.    22.    28980.  92 42 14                - Note On  ( 9)
  584.    17.    28997.  8A 39                   - Note Off ( 8)
  585.     1.    28998.  BA 0A 2B                - Pan
  586.    11.    29009.  8A 32                   - Note Off ( 7)
  587.     9.    29018.  82 42                   - Note Off ( 6)
  588.    22.    29040.  92 42 11                - Note On  ( 7)
  589.    34.    29074.  82 42                   - Note Off ( 6)
  590.    26.    29100.  92 42 0E                - Note On  ( 7)
  591.    34.    29134.  82 42                   - Note Off ( 6)
  592.    26.    29160.  92 42 0D                - Note On  ( 7)
  593.     0.    29160.  9A 39 54                - Note On  ( 8)
  594.     0.    29160.  9A 32 4E                - Note On  ( 9)
  595.    34.    29194.  BA 0A 2A                - Pan
  596.     3.    29197.  82 42                   - Note Off ( 8)
  597.    23.    29220.  92 42 0C                - Note On  ( 9)
  598.    11.    29231.  8A 32                   - Note Off ( 8)
  599.    11.    29242.  8A 39                   - Note Off ( 7)
  600.    15.    29257.  82 42                   - Note Off ( 6)
  601.    23.    29280.  92 42 0C                - Note On  ( 7)
  602.    37.    29317.  82 42                   - Note Off ( 6)
  603.    23.    29340.  92 42 0C                - Note On  ( 7)
  604.    37.    29377.  82 42                   - Note Off ( 6)
  605.    14.    29391.  BA 0A 29                - Pan
  606.     9.    29400.  92 42 0C                - Note On  ( 7)
  607.    34.    29434.  82 42                   - Note Off ( 6)
  608.     4.    29438.  83 3C                   - Note Off ( 5)
  609.    22.    29460.  92 42 0C                - Note On  ( 6)
  610.    34.    29494.  82 42                   - Note Off ( 5)
  611.    26.    29520.  92 42 0F                - Note On  ( 6)
  612.     0.    29520.  93 3E 54                - Note On  ( 7)
  613.    35.    29555.  82 42                   - Note Off ( 6)
  614.    25.    29580.  92 42 16                - Note On  ( 7)
  615.     9.    29589.  BA 0A 28                - Pan
  616.    26.    29615.  82 42                   - Note Off ( 6)
  617.    25.    29640.  92 42 19                - Note On  ( 7)
  618.    32.    29672.  82 42                   - Note Off ( 6)
  619.    28.    29700.  92 42 1D                - Note On  ( 7)
  620.    32.    29732.  82 42                   - Note Off ( 6)
  621.    28.    29760.  92 42 22                - Note On  ( 7)
  622.     0.    29760.  9A 39 57                - Note On  ( 8)
  623.     0.    29760.  9A 32 54                - Note On  ( 9)
  624.    29.    29789.  BA 0A 27                - Pan
  625.    13.    29802.  82 42                   - Note Off ( 8)
  626.    18.    29820.  92 42 28                - Note On  ( 9)
  627.    15.    29835.  8A 39                   - Note Off ( 8)
  628.     0.    29835.  8A 32                   - Note Off ( 7)
  629.    27.    29862.  82 42                   - Note Off ( 6)
  630.    18.    29880.  92 42 2E                - Note On  ( 7)
  631.    42.    29922.  82 42                   - Note Off ( 6)
  632.    18.    29940.  92 42 33                - Note On  ( 7)
  633.    42.    29982.  82 42                   - Note Off ( 6)
  634.     7.    29989.  BA 0A 26                - Pan
  635.    11.    30000.  9A 39 4C                - Note On  ( 7)
  636.     0.    30000.  9A 32 48                - Note On  ( 8)
  637.     0.    30000.  92 42 39                - Note On  ( 9)
  638.    39.    30039.  82 42                   - Note Off ( 8)
  639.    21.    30060.  92 42 3D                - Note On  ( 9)
  640.     8.    30068.  8A 32                   - Note Off ( 8)
  641.    31.    30099.  82 42                   - Note Off ( 7)
  642.     5.    30104.  8A 39                   - Note Off ( 6)
  643.    16.    30120.  92 42 43                - Note On  ( 7)
  644.     0.    30120.  9A 37 57                - Note On  ( 8)
  645.    32.    30152.  82 42                   - Note Off ( 7)
  646.    28.    30180.  92 42 44                - Note On  ( 8)
  647.    10.    30190.  BA 0A 25                - Pan
  648.    22.    30212.  82 42                   - Note Off ( 7)
  649.    10.    30222.  8A 37                   - Note Off ( 6)
  650.    18.    30240.  92 42 4C                - Note On  ( 7)
  651.     0.    30240.  9A 39 34                - Note On  ( 8)
  652.     0.    30240.  9A 32 4A                - Note On  ( 9)
  653.    35.    30275.  82 42                   - Note Off ( 8)
  654.    17.    30292.  8A 39                   - Note Off ( 7)
  655.     8.    30300.  92 42 4E                - Note On  ( 8)
  656.    35.    30335.  82 42                   - Note Off ( 7)
  657.    12.    30347.  8A 32                   - Note Off ( 6)
  658.    13.    30360.  92 42 52                - Note On  ( 7)
  659.     0.    30360.  9A 3C 42                - Note On  ( 8)
  660.     0.    30360.  9A 35 4A                - Note On  ( 9)
  661.     2.    30362.  89 43                   - Note Off ( 8)
  662.    30.    30392.  BA 0A 24                - Pan
  663.     6.    30398.  82 42                   - Note Off ( 7)
  664.    22.    30420.  92 42 55                - Note On  ( 8)
  665.    17.    30437.  8A 35                   - Note Off ( 7)
  666.    21.    30458.  82 42                   - Note Off ( 6)
  667.    22.    30480.  92 42 5A                - Note On  ( 7)
  668.     0.    30480.  9A 39 4A                - Note On  ( 8)
  669.     0.    30480.  9A 32 50                - Note On  ( 9)
  670.    14.    30494.  8A 3C                   - Note Off ( 8)
  671.    22.    30516.  82 42                   - Note Off ( 7)
  672.    24.    30540.  92 42 5D                - Note On  ( 8)
  673.    36.    30576.  82 42                   - Note Off ( 7)
  674.     2.    30578.  8A 39                   - Note Off ( 6)
  675.     6.    30584.  8A 32                   - Note Off ( 5)
  676.    11.    30595.  BA 0A 23                - Pan
  677.     5.    30600.  9A 37 57                - Note On  ( 6)
  678.     0.    30600.  92 42 61                - Note On  ( 7)
  679.     3.    30603.  82 28                   - Note Off ( 6)
  680.    28.    30631.  89 4A                   - Note Off ( 5)
  681.     6.    30637.  82 42                   - Note Off ( 4)
  682.     6.    30643.  89 32                   - Note Off ( 3)
  683.     0.    30643.  89 3E                   - Note Off ( 2)
  684.    17.    30660.  92 42 64                - Note On  ( 3)
  685.    24.    30684.  8A 37                   - Note Off ( 2)
  686.     5.    30689.  83 3E                   - Note Off ( 1)
  687.     8.    30697.  82 42                   - Note Off ( 0)
  688.    23.    30720.  92 42 66                - Note On  ( 1)
  689.     0.    30720.  92 24 78                - Note On  ( 2)
  690.     0.    30720.  99 51 50                - Note On  ( 3)
  691.     0.    30720.  9A 39 57                - Note On  ( 4)
  692.     0.    30720.  9A 32 54                - Note On  ( 5)
  693.     0.    30720.  96 32 78                - Note On  ( 6)
  694.     1.    30721.  99 4A 48                - Note On  ( 7)
  695.     1.    30722.  93 39 4A                - Note On  ( 8)
  696.    11.    30733.  93 26 48                - Note On  ( 9)
  697.     4.    30737.  91 26 66                - Note On  (10)
  698.     7.    30744.  93 4D 54                - Note On  (11)
  699.     4.    30748.  93 3C 4C                - Note On  (12)
  700.    20.    30768.  93 41 54                - Note On  (13)
  701.    29.    30797.  8A 39                   - Note Off (12)
  702.     2.    30799.  BA 0A 22                - Pan
  703.     6.    30805.  8A 32                   - Note Off (11)
  704.     9.    30814.  82 42                   - Note Off (10)
  705.    55.    30869.  86 32                   - Note Off ( 9)
  706.    91.    30960.  92 42 45                - Note On  (10)
  707.     0.    30960.  9A 37 52                - Note On  (11)
  708.    44.    31004.  BA 0A 21                - Pan
  709.    31.    31035.  82 24                   - Note Off (10)
  710.    18.    31053.  82 42                   - Note Off ( 9)
  711.     7.    31060.  8A 37                   - Note Off ( 8)
  712.    20.    31080.  9A 39 48                - Note On  ( 9)
  713.     0.    31080.  9A 32 54                - Note On  (10)
  714.    50.    31130.  81 26                   - Note Off ( 9)
  715.    35.    31165.  8A 32                   - Note Off ( 8)
  716.    23.    31188.  B3 40 7F                - Damper Pedal
  717.     7.    31195.  8A 39                   - Note Off ( 7)
  718.     5.    31200.  92 42 48                - Note On  ( 8)
  719.     0.    31200.  92 24 74                - Note On  ( 9)
  720.    10.    31210.  BA 0A 20                - Pan
  721.     1.    31211.  91 26 66                - Note On  (10)
  722.    63.    31274.  B3 40 7F                - Damper Pedal
  723.     0.    31274.  B3 40 7F                - Damper Pedal
  724.    11.    31285.  82 42                   - Note Off ( 9)
  725.   132.    31417.  BA 0A 1F                - Pan
  726.    23.    31440.  93 51 66                - Note On  (10)
  727.     0.    31440.  93 45 66                - Note On  (11)
  728.     0.    31440.  92 42 3C                - Note On  (12)
  729.    84.    31524.  82 42                   - Note Off (11)
  730.     7.    31531.  82 24                   - Note Off (10)
  731.    73.    31604.  81 26                   - Note Off ( 9)
  732.    21.    31625.  83 4D                   - Note Off ( 8)
  733.     0.    31625.  BA 0A 1E                - Pan
  734.    55.    31680.  9A 39 50                - Note On  ( 9)
  735.     0.    31680.  9A 32 54                - Note On  (10)
  736.     0.    31680.  92 42 50                - Note On  (11)
  737.     0.    31680.  92 24 74                - Note On  (12)
  738.    18.    31698.  91 26 66                - Note On  (13)
  739.    45.    31743.  8A 39                   - Note Off (12)
  740.    18.    31761.  8A 32                   - Note Off (11)
  741.     5.    31766.  82 42                   - Note Off (10)
  742.    69.    31835.  BA 0A 1D                - Pan
  743.    85.    31920.  9A 39 4A                - Note On  (11)
  744.     0.    31920.  9A 32 4A                - Note On  (12)
  745.     0.    31920.  92 42 3F                - Note On  (13)
  746.    62.    31982.  8A 32                   - Note Off (12)
  747.    15.    31997.  82 42                   - Note Off (11)
  748.    18.    32015.  8A 39                   - Note Off (10)
  749.    18.    32033.  82 24                   - Note Off ( 9)
  750.     1.    32034.  83 45                   - Note Off ( 8)
  751.     0.    32034.  83 51                   - Note Off ( 7)
  752.     6.    32040.  9A 37 50                - Note On  ( 8)
  753.     5.    32045.  BA 0A 1C                - Pan
  754.    40.    32085.  81 26                   - Note Off ( 7)
  755.    69.    32154.  8A 37                   - Note Off ( 6)
  756.     6.    32160.  92 42 45                - Note On  ( 7)
  757.     0.    32160.  92 24 74                - Note On  ( 8)
  758.     0.    32160.  93 4F 52                - Note On  ( 9)
  759.     0.    32160.  93 43 52                - Note On  (10)
  760.     0.    32160.  9A 39 36                - Note On  (11)
  761.     0.    32160.  9A 32 48                - Note On  (12)
  762.     3.    32163.  91 26 60                - Note On  (13)
  763.    43.    32206.  8A 39                   - Note Off (12)
  764.    34.    32240.  82 42                   - Note Off (11)
  765.    14.    32254.  8A 32                   - Note Off (10)
  766.     2.    32256.  BA 0A 1B                - Pan
  767.     3.    32259.  81 26                   - Note Off ( 9)
  768.    21.    32280.  9A 3C 40                - Note On  (10)
  769.     0.    32280.  9A 35 54                - Note On  (11)
  770.     7.    32287.  82 24                   - Note Off (10)
  771.    85.    32372.  8A 35                   - Note Off ( 9)
  772.    16.    32388.  91 26 66                - Note On  (10)
  773.    12.    32400.  92 24 74                - Note On  (11)
  774.     0.    32400.  92 42 4E                - Note On  (12)
  775.     0.    32400.  9A 39 42                - Note On  (13)
  776.     0.    32400.  9A 32 57                - Note On  (14)
  777.    20.    32420.  8A 3C                   - Note Off (13)
  778.    49.    32469.  BA 0A 1A                - Pan
  779.     3.    32472.  82 42                   - Note Off (12)
  780.    17.    32489.  8A 32                   - Note Off (11)
  781.    11.    32500.  81 26                   - Note Off (10)
  782.    16.    32516.  82 24                   - Note Off ( 9)
  783.     3.    32519.  8A 39                   - Note Off ( 8)
  784.     1.    32520.  9A 37 50                - Note On  ( 9)
  785.    12.    32532.  83 43                   - Note Off ( 8)
  786.     0.    32532.  83 4F                   - Note Off ( 7)
  787.    77.    32609.  B3 40 00                - Damper Pedal
  788.    15.    32624.  B3 40 7F                - Damper Pedal
  789.     4.    32628.  8A 37                   - Note Off ( 6)
  790.    12.    32640.  93 54 57                - Note On  ( 7)
  791.     0.    32640.  93 48 57                - Note On  ( 8)
  792.     0.    32640.  92 42 4C                - Note On  ( 9)
  793.     0.    32640.  92 24 78                - Note On  (10)
  794.     0.    32640.  9A 39 4E                - Note On  (11)
  795.     0.    32640.  9A 32 4C                - Note On  (12)
  796.    13.    32653.  B3 40 00                - Damper Pedal
  797.     1.    32654.  91 26 69                - Note On  (13)
  798.    28.    32682.  BA 0A 19                - Pan
  799.     5.    32687.  8A 32                   - Note Off (12)
  800.    11.    32698.  8A 39                   - Note Off (11)
  801.    20.    32718.  82 42                   - Note Off (10)
  802.    42.    32760.  9A 39 48                - Note On  (11)
  803.     0.    32760.  9A 32 46                - Note On  (12)
  804.    18.    32778.  B3 40 7F                - Damper Pedal
  805.    59.    32837.  8A 39                   - Note Off (11)
  806.    12.    32849.  8A 32                   - Note Off (10)
  807.    31.    32880.  92 42 45                - Note On  (11)
  808.    17.    32897.  BA 0A 18                - Pan
  809.    55.    32952.  82 24                   - Note Off (10)
  810.     6.    32958.  82 42                   - Note Off ( 9)
  811.    42.    33000.  9A 39 54                - Note On  (10)
  812.     0.    33000.  9A 32 4E                - Note On  (11)
  813.    42.    33042.  81 26                   - Note Off (10)
  814.    29.    33071.  8A 32                   - Note Off ( 9)
  815.    11.    33082.  8A 39                   - Note Off ( 8)
  816.    31.    33113.  BA 0A 17                - Pan
  817.     7.    33120.  92 42 45                - Note On  ( 9)
  818.     0.    33120.  92 24 78                - Note On  (10)
  819.    22.    33142.  91 26 69                - Note On  (11)
  820.    63.    33205.  82 42                   - Note Off (10)
  821.    45.    33250.  83 54                   - Note Off ( 9)
  822.     0.    33250.  83 48                   - Note Off ( 8)
  823.    80.    33330.  BA 0A 16                - Pan
  824.    30.    33360.  92 42 45                - Note On  ( 9)
  825.     0.    33360.  93 51 57                - Note On  (10)
  826.     0.    33360.  93 45 57                - Note On  (11)
  827.    73.    33433.  82 24                   - Note Off (10)
  828.    13.    33446.  82 42                   - Note Off ( 9)
  829.    38.    33484.  83 39                   - Note Off ( 8)
  830.    29.    33513.  83 41                   - Note Off ( 7)
  831.     1.    33514.  83 3C                   - Note Off ( 6)
  832.    27.    33541.  81 26                   - Note Off ( 5)
  833.     4.    33545.  83 26                   - Note Off ( 4)
  834.     3.    33548.  BA 0A 15                - Pan
  835.    28.    33576.  93 39 48                - Note On  ( 5)
  836.    14.    33590.  93 2B 48                - Note On  ( 6)
  837.     9.    33599.  93 3C 57                - Note On  ( 7)
  838.     1.    33600.  92 24 74                - Note On  ( 8)
  839.     0.    33600.  92 42 50                - Note On  ( 9)
  840.     0.    33600.  9A 39 57                - Note On  (10)
  841.     0.    33600.  9A 32 54                - Note On  (11)
  842.    22.    33622.  99 56 60                - Note On  (12)
  843.     6.    33628.  93 43 4C                - Note On  (13)
  844.    12.    33640.  B3 40 00                - Damper Pedal
  845.     0.    33640.  B3 40 00                - Damper Pedal
  846.     6.    33646.  91 26 69                - Note On  (14)
  847.    29.    33675.  8A 39                   - Note Off (13)
  848.     0.    33675.  8A 32                   - Note Off (12)
  849.    12.    33687.  82 42                   - Note Off (11)
  850.    44.    33731.  81 26                   - Note Off (10)
  851.    36.    33767.  BA 0A 14                - Pan
  852.    73.    33840.  9A 39 4C                - Note On  (11)
  853.     0.    33840.  9A 32 48                - Note On  (12)
  854.     0.    33840.  92 42 45                - Note On  (13)
  855.    15.    33855.  B3 40 7F                - Damper Pedal
  856.     0.    33855.  B3 40 7F                - Damper Pedal
  857.    15.    33870.  91 26 69                - Note On  (14)
  858.    38.    33908.  8A 32                   - Note Off (13)
  859.    10.    33918.  82 42                   - Note Off (12)
  860.     1.    33919.  82 24                   - Note Off (11)
  861.    25.    33944.  8A 39                   - Note Off (10)
  862.    16.    33960.  9A 37 57                - Note On  (11)
  863.    27.    33987.  BA 0A 13                - Pan
  864.    56.    34043.  83 51                   - Note Off (10)
  865.     0.    34043.  83 45                   - Note Off ( 9)
  866.    19.    34062.  8A 37                   - Note Off ( 8)
  867.    18.    34080.  92 42 50                - Note On  ( 9)
  868.     0.    34080.  92 24 74                - Note On  (10)
  869.     0.    34080.  9A 39 34                - Note On  (11)
  870.     0.    34080.  9A 32 4A                - Note On  (12)
  871.    12.    34092.  81 26                   - Note Off (11)
  872.    19.    34111.  91 2D 60                - Note On  (12)
  873.    21.    34132.  8A 39                   - Note Off (11)
  874.    25.    34157.  82 42                   - Note Off (10)
  875.    30.    34187.  8A 32                   - Note Off ( 9)
  876.    13.    34200.  9A 3C 42                - Note On  (10)
  877.     0.    34200.  9A 35 4A                - Note On  (11)
  878.     8.    34208.  BA 0A 12                - Pan
  879.     5.    34213.  82 24                   - Note Off (10)
  880.    64.    34277.  8A 35                   - Note Off ( 9)
  881.    43.    34320.  92 24 74                - Note On  (10)
  882.     0.    34320.  92 42 4E                - Note On  (11)
  883.     0.    34320.  9A 39 4A                - Note On  (12)
  884.     0.    34320.  9A 32 50                - Note On  (13)
  885.     7.    34327.  91 30 60                - Note On  (14)
  886.     7.    34334.  8A 3C                   - Note Off (13)
  887.    13.    34347.  81 2D                   - Note Off (12)
  888.    49.    34396.  82 42                   - Note Off (11)
  889.    22.    34418.  8A 39                   - Note Off (10)
  890.     6.    34424.  8A 32                   - Note Off ( 9)
  891.     7.    34431.  BA 0A 11                - Pan
  892.     9.    34440.  9A 37 57                - Note On  (10)
  893.     9.    34449.  83 43                   - Note Off ( 9)
  894.     6.    34455.  82 24                   - Note Off ( 8)
  895.    33.    34488.  83 3C                   - Note Off ( 7)
  896.    10.    34498.  B3 40 75                - Damper Pedal
  897.     3.    34501.  83 39                   - Note Off ( 6)
  898.    21.    34522.  83 2B                   - Note Off ( 5)
  899.     2.    34524.  8A 37                   - Note Off ( 4)
  900.     5.    34529.  B3 40 00                - Damper Pedal
  901.     9.    34538.  93 39 4A                - Note On  ( 5)
  902.     1.    34539.  93 4D 4C                - Note On  ( 6)
  903.     6.    34545.  B3 40 00                - Damper Pedal
  904.     0.    34545.  B3 40 00                - Damper Pedal
  905.     4.    34549.  93 26 2D                - Note On  ( 7)
  906.     6.    34555.  93 3C 54                - Note On  ( 8)
  907.     5.    34560.  92 24 78                - Note On  ( 9)
  908.     0.    34560.  92 42 66                - Note On  (10)
  909.     0.    34560.  92 2A 28                - Note On  (11)
  910.     0.    34560.  9A 39 57                - Note On  (12)
  911.     0.    34560.  9A 32 54                - Note On  (13)
  912.    11.    34571.  81 30                   - Note Off (12)
  913.     1.    34572.  93 41 5D                - Note On  (13)
  914.     5.    34577.  91 26 69                - Note On  (14)
  915.    24.    34601.  82 2A                   - Note Off (13)
  916.    36.    34637.  8A 39                   - Note Off (12)
  917.     8.    34645.  8A 32                   - Note Off (11)
  918.     9.    34654.  82 42                   - Note Off (10)
  919.     1.    34655.  BA 0A 10                - Pan
  920.    25.    34680.  92 2A 29                - Note On  (11)
  921.    41.    34721.  82 2A                   - Note Off (10)
  922.     6.    34727.  B3 40 7F                - Damper Pedal
  923.    16.    34743.  B3 40 00                - Damper Pedal
  924.    15.    34758.  B3 40 7F                - Damper Pedal
  925.    42.    34800.  92 2A 2A                - Note On  (11)
  926.     0.    34800.  92 42 45                - Note On  (12)
  927.     0.    34800.  9A 37 52                - Note On  (13)
  928.    39.    34839.  82 2A                   - Note Off (12)
  929.    26.    34865.  82 24                   - Note Off (11)
  930.    15.    34880.  BA 0A 0F                - Pan
  931.    13.    34893.  82 42                   - Note Off (10)
  932.     7.    34900.  8A 37                   - Note Off ( 9)
  933.    20.    34920.  92 2A 2C                - Note On  (10)
  934.     0.    34920.  9A 39 48                - Note On  (11)
  935.     0.    34920.  9A 32 54                - Note On  (12)
  936.     9.    34929.  B3 40 7F                - Damper Pedal
  937.     0.    34929.  B3 40 7F                - Damper Pedal
  938.    32.    34961.  82 2A                   - Note Off (11)
  939.     2.    34963.  81 26                   - Note Off (10)
  940.    42.    35005.  8A 32                   - Note Off ( 9)
  941.    30.    35035.  8A 39                   - Note Off ( 8)
  942.     5.    35040.  92 2A 2D                - Note On  ( 9)
  943.     0.    35040.  92 42 48                - Note On  (10)
  944.     0.    35040.  92 24 72                - Note On  (11)
  945.    11.    35051.  91 26 60                - Note On  (12)
  946.    29.    35080.  82 2A                   - Note Off (11)
  947.    16.    35096.  B3 40 00                - Damper Pedal
  948.    10.    35106.  BA 0A 0E                - Pan
  949.     6.    35112.  B3 40 7F                - Damper Pedal
  950.    13.    35125.  82 42                   - Note Off (10)
  951.    35.    35160.  92 2A 2F                - Note On  (11)
  952.    39.    35199.  82 2A                   - Note Off (10)
  953.    81.    35280.  92 2A 30                - Note On  (11)
  954.     0.    35280.  92 42 3C                - Note On  (12)
  955.     0.    35280.  93 51 63                - Note On  (13)
  956.     0.    35280.  93 45 63                - Note On  (14)
  957.    43.    35323.  82 2A                   - Note Off (13)
  958.     2.    35325.  83 4D                   - Note Off (12)
  959.     8.    35333.  BA 0A 0D                - Pan
  960.    30.    35363.  82 24                   - Note Off (11)
  961.     1.    35364.  82 42                   - Note Off (10)
  962.    36.    35400.  92 2A 32                - Note On  (11)
  963.    41.    35441.  82 2A                   - Note Off (10)
  964.    17.    35458.  81 26                   - Note Off ( 9)
  965.    62.    35520.  92 2A 34                - Note On  (10)
  966.     0.    35520.  92 42 50                - Note On  (11)
  967.     0.    35520.  92 24 6F                - Note On  (12)
  968.     0.    35520.  9A 39 50                - Note On  (13)
  969.     0.    35520.  9A 32 54                - Note On  (14)
  970.    27.    35547.  91 26 66                - Note On  (15)
  971.    14.    35561.  BA 0A 0C                - Pan
  972.     7.    35568.  82 2A                   - Note Off (14)
  973.    15.    35583.  8A 39                   - Note Off (13)
  974.    18.    35601.  8A 32                   - Note Off (12)
  975.     5.    35606.  82 42                   - Note Off (11)
  976.    34.    35640.  92 2A 36                - Note On  (12)
  977.    43.    35683.  82 2A                   - Note Off (11)
  978.    77.    35760.  92 2A 37                - Note On  (12)
  979.     0.    35760.  92 42 3F                - Note On  (13)
  980.     0.    35760.  9A 39 4A                - Note On  (14)
  981.     0.    35760.  9A 32 4A                - Note On  (15)
  982.    31.    35791.  BA 0A 0B                - Pan
  983.    11.    35802.  82 2A                   - Note Off (14)
  984.    20.    35822.  8A 32                   - Note Off (13)
  985.    15.    35837.  82 42                   - Note Off (12)
  986.    13.    35850.  82 24                   - Note Off (11)
  987.     5.    35855.  8A 39                   - Note Off (10)
  988.    25.    35880.  92 2A 39                - Note On  (11)
  989.     0.    35880.  9A 37 50                - Note On  (12)
  990.    44.    35924.  82 2A                   - Note Off (11)
  991.    15.    35939.  81 26                   - Note Off (10)
  992.    11.    35950.  83 51                   - Note Off ( 9)
  993.     0.    35950.  83 45                   - Note Off ( 8)
  994.    44.    35994.  8A 37                   - Note Off ( 7)
  995.     6.    36000.  92 2A 3B                - Note On  ( 8)
  996.     0.    36000.  92 42 45                - Note On  ( 9)
  997.     0.    36000.  92 24 77                - Note On  (10)
  998.     0.    36000.  93 4F 4C                - Note On  (11)
  999.     0.    36000.  93 43 4C                - Note On  (12)
 1000.     0.    36000.  9A 39 36                - Note On  (13)
 1001.     0.    36000.  9A 32 48                - Note On  (14)
 1002.    12.    36012.  91 26 57                - Note On  (15)
 1003.    10.    36022.  BA 0A 0A                - Pan
 1004.    23.    36045.  82 2A                   - Note Off (14)
 1005.     1.    36046.  8A 39                   - Note Off (13)
 1006.    34.    36080.  82 42                   - Note Off (12)
 1007.    14.    36094.  8A 32                   - Note Off (11)
 1008.    18.    36112.  81 26                   - Note Off (10)
 1009.     8.    36120.  92 2A 3E                - Note On  (11)
 1010.     0.    36120.  9A 3C 40                - Note On  (12)
 1011.     0.    36120.  9A 35 54                - Note On  (13)
 1012.    24.    36144.  82 24                   - Note Off (12)
 1013.    21.    36165.  82 2A                   - Note Off (11)
 1014.    47.    36212.  8A 35                   - Note Off (10)
 1015.    15.    36227.  91 26 66                - Note On  (11)
 1016.    13.    36240.  92 2A 40                - Note On  (12)
 1017.     0.    36240.  92 42 4E                - Note On  (13)
 1018.     0.    36240.  92 24 74                - Note On  (14)
 1019.     0.    36240.  9A 39 42                - Note On  (15)
 1020.     0.    36240.  9A 32 57                - Note On  (16)
 1021.    14.    36254.  BA 0A 09                - Pan
 1022.     6.    36260.  8A 3C                   - Note Off (15)
 1023.    23.    36283.  82 2A                   - Note Off (14)
 1024.    29.    36312.  82 42                   - Note Off (13)
 1025.    17.    36329.  8A 32                   - Note Off (12)
 1026.    30.    36359.  8A 39                   - Note Off (11)
 1027.     1.    36360.  92 2A 42                - Note On  (12)
 1028.     0.    36360.  9A 37 50                - Note On  (13)
 1029.    17.    36377.  81 26                   - Note Off (12)
 1030.     0.    36377.  82 24                   - Note Off (11)
 1031.    26.    36403.  82 2A                   - Note Off (10)
 1032.    65.    36468.  8A 37                   - Note Off ( 9)
 1033.    12.    36480.  92 2A 45                - Note On  (10)
 1034.     0.    36480.  92 42 4C                - Note On  (11)
 1035.     0.    36480.  92 24 78                - Note On  (12)
 1036.     0.    36480.  93 4A 4E                - Note On  (13)
 1037.     0.    36480.  93 3E 4E                - Note On  (14)
 1038.     0.    36480.  9A 39 4E                - Note On  (15)
 1039.     0.    36480.  9A 32 4C                - Note On  (16)
 1040.     3.    36483.  91 26 6C                - Note On  (17)
 1041.     5.    36488.  BA 0A 08                - Pan
 1042.     5.    36493.  99 5D 69                - Note On  (18)
 1043.     8.    36501.  83 43                   - Note Off (17)
 1044.     0.    36501.  83 4F                   - Note Off (16)
 1045.     1.    36502.  89 56                   - Note Off (15)
 1046.    19.    36521.  82 2A                   - Note Off (14)
 1047.     6.    36527.  8A 32                   - Note Off (13)
 1048.    11.    36538.  8A 39                   - Note Off (12)
 1049.    20.    36558.  82 42                   - Note Off (11)
 1050.    42.    36600.  92 2A 47                - Note On  (12)
 1051.     0.    36600.  9A 39 48                - Note On  (13)
 1052.     0.    36600.  9A 32 46                - Note On  (14)
 1053.    45.    36645.  82 2A                   - Note Off (13)
 1054.    32.    36677.  8A 39                   - Note Off (12)
 1055.    12.    36689.  8A 32                   - Note Off (11)
 1056.    31.    36720.  92 2A 4A                - Note On  (12)
 1057.     0.    36720.  92 42 45                - Note On  (13)
 1058.     2.    36722.  BA 0A 07                - Pan
 1059.    17.    36739.  82 24                   - Note Off (12)
 1060.    26.    36765.  82 2A                   - Note Off (11)
 1061.    33.    36798.  82 42                   - Note Off (10)
 1062.    42.    36840.  92 2A 4D                - Note On  (11)
 1063.     0.    36840.  9A 39 54                - Note On  (12)
 1064.     0.    36840.  9A 32 4E                - Note On  (13)
 1065.    45.    36885.  81 26                   - Note Off (12)
 1066.     0.    36885.  82 2A                   - Note Off (11)
 1067.    26.    36911.  8A 32                   - Note Off (10)
 1068.    11.    36922.  8A 39                   - Note Off ( 9)
 1069.    36.    36958.  BA 0A 06                - Pan
 1070.     2.    36960.  92 2A 50                - Note On  (10)
 1071.     0.    36960.  92 42 45                - Note On  (11)
 1072.     0.    36960.  92 24 78                - Note On  (12)
 1073.    27.    36987.  91 26 69                - Note On  (13)
 1074.    18.    37005.  82 2A                   - Note Off (12)
 1075.    40.    37045.  82 42                   - Note Off (11)
 1076.    35.    37080.  92 2A 53                - Note On  (12)
 1077.    42.    37122.  82 2A                   - Note Off (11)
 1078.    73.    37195.  BA 0A 05                - Pan
 1079.     5.    37200.  92 2A 56                - Note On  (12)
 1080.     0.    37200.  92 42 45                - Note On  (13)
 1081.    44.    37244.  82 2A                   - Note Off (12)
 1082.    32.    37276.  82 24                   - Note Off (11)
 1083.    10.    37286.  82 42                   - Note Off (10)
 1084.    34.    37320.  92 2A 5A                - Note On  (11)
 1085.     7.    37327.  83 39                   - Note Off (10)
 1086.     3.    37330.  83 3C                   - Note Off ( 9)
 1087.    33.    37363.  82 2A                   - Note Off ( 8)
 1088.     4.    37367.  83 4A                   - Note Off ( 7)
 1089.     0.    37367.  83 3E                   - Note Off ( 6)
 1090.     3.    37370.  83 41                   - Note Off ( 5)
 1091.    34.    37404.  83 26                   - Note Off ( 4)
 1092.    13.    37417.  93 30 63                - Note On  ( 5)
 1093.     0.    37417.  B3 40 00                - Damper Pedal
 1094.     0.    37417.  B3 40 00                - Damper Pedal
 1095.     3.    37420.  93 4C 52                - Note On  ( 6)
 1096.     7.    37427.  81 26                   - Note Off ( 5)
 1097.     7.    37434.  BA 0A 04                - Pan
 1098.     6.    37440.  9A 39 57                - Note On  ( 6)
 1099.     0.    37440.  9A 32 54                - Note On  ( 7)
 1100.     0.    37440.  93 3E 52                - Note On  ( 8)
 1101.     0.    37440.  92 24 78                - Note On  ( 9)
 1102.     0.    37440.  92 2A 5D                - Note On  (10)
 1103.     0.    37440.  92 42 50                - Note On  (11)
 1104.     0.    37440.  91 60 7F                - Note On  (12)
 1105.     2.    37442.  93 37 52                - Note On  (13)
 1106.     7.    37449.  93 3B 52                - Note On  (14)
 1107.    16.    37465.  93 40 50                - Note On  (15)
 1108.    23.    37488.  82 2A                   - Note Off (14)
 1109.    27.    37515.  8A 39                   - Note Off (13)
 1110.     0.    37515.  8A 32                   - Note Off (12)
 1111.    12.    37527.  82 42                   - Note Off (11)
 1112.    33.    37560.  92 2A 61                - Note On  (12)
 1113.    45.    37605.  82 2A                   - Note Off (11)
 1114.     8.    37613.  83 3E                   - Note Off (10)
 1115.    16.    37629.  83 4C                   - Note Off ( 9)
 1116.    44.    37673.  BA 0A 03                - Pan
 1117.     7.    37680.  9A 39 4C                - Note On  (10)
 1118.     0.    37680.  9A 32 48                - Note On  (11)
 1119.     0.    37680.  92 2A 65                - Note On  (12)
 1120.     0.    37680.  92 42 45                - Note On  (13)
 1121.     0.    37680.  92 5D 7F                - Note On  (14)
 1122.     0.    37680.  93 4F 52                - Note On  (15)
 1123.     0.    37680.  93 43 52                - Note On  (16)
 1124.    29.    37709.  B3 40 7F                - Damper Pedal
 1125.     0.    37709.  B3 40 7F                - Damper Pedal
 1126.    12.    37721.  82 24                   - Note Off (15)
 1127.     3.    37724.  82 2A                   - Note Off (14)
 1128.    24.    37748.  8A 32                   - Note Off (13)
 1129.    10.    37758.  82 42                   - Note Off (12)
 1130.    26.    37784.  8A 39                   - Note Off (11)
 1131.     9.    37793.  83 43                   - Note Off (10)
 1132.     0.    37793.  83 4F                   - Note Off ( 9)
 1133.     7.    37800.  92 2A 6A                - Note On  (10)
 1134.     0.    37800.  9A 37 57                - Note On  (11)
 1135.    44.    37844.  82 2A                   - Note Off (10)
 1136.    58.    37902.  8A 37                   - Note Off ( 9)
 1137.    12.    37914.  BA 0A 02                - Pan
 1138.     6.    37920.  9A 39 34                - Note On  (10)
 1139.     0.    37920.  9A 32 4A                - Note On  (11)
 1140.     0.    37920.  92 2A 6E                - Note On  (12)
 1141.     0.    37920.  92 42 50                - Note On  (13)
 1142.     0.    37920.  92 24 77                - Note On  (14)
 1143.     0.    37920.  93 51 69                - Note On  (15)
 1144.     0.    37920.  93 45 69                - Note On  (16)
 1145.    49.    37969.  82 2A                   - Note Off (15)
 1146.     3.    37972.  8A 39                   - Note Off (14)
 1147.    25.    37997.  82 42                   - Note Off (13)
 1148.    30.    38027.  8A 32                   - Note Off (12)
 1149.    13.    38040.  92 2A 73                - Note On  (13)
 1150.     0.    38040.  9A 3C 42                - Note On  (14)
 1151.     0.    38040.  9A 35 4A                - Note On  (15)
 1152.    16.    38056.  82 24                   - Note Off (14)
 1153.    22.    38078.  83 45                   - Note Off (13)
 1154.     0.    38078.  83 51                   - Note Off (12)
 1155.     7.    38085.  82 2A                   - Note Off (11)
 1156.    32.    38117.  8A 35                   - Note Off (10)
 1157.    40.    38157.  BA 0A 01                - Pan
 1158.     3.    38160.  9A 39 4A                - Note On  (11)
 1159.     0.    38160.  9A 32 50                - Note On  (12)
 1160.     0.    38160.  92 2A 79                - Note On  (13)
 1161.     0.    38160.  92 42 4E                - Note On  (14)
 1162.     0.    38160.  92 24 78                - Note On  (15)
 1163.     0.    38160.  93 54 66                - Note On  (16)
 1164.     0.    38160.  93 48 66                - Note On  (17)
 1165.    14.    38174.  8A 3C                   - Note Off (16)
 1166.    34.    38208.  82 2A                   - Note Off (15)
 1167.    28.    38236.  82 42                   - Note Off (14)
 1168.    22.    38258.  8A 39                   - Note Off (13)
 1169.     6.    38264.  8A 32                   - Note Off (12)
 1170.    16.    38280.  92 2A 7E                - Note On  (13)
 1171.     0.    38280.  9A 37 57                - Note On  (14)
 1172.    49.    38329.  83 54                   - Note Off (13)
 1173.     0.    38329.  83 48                   - Note Off (12)
 1174.     1.    38330.  82 2A                   - Note Off (11)
 1175.     3.    38333.  82 24                   - Note Off (10)
 1176.    31.    38364.  8A 37                   - Note Off ( 9)
 1177.    34.    38398.  83 37                   - Note Off ( 8)
 1178.     0.    38398.  89 4A                   - Note Off ( 7)
 1179.     0.    38398.  82 5D                   - Note Off ( 6)
 1180.     0.    38398.  83 30                   - Note Off ( 5)
 1181.     0.    38398.  83 40                   - Note Off ( 4)
 1182.     0.    38398.  89 51                   - Note Off ( 3)
 1183.     0.    38398.  89 5D                   - Note Off ( 2)
 1184.     0.    38398.  83 3B                   - Note Off ( 1)
 1185.     0.    38398.  81 60                   - Note Off ( 0)
 1186.     0.    38398.  FF 2F 00                - End of Track
**** SQ Midi End. ****

**** SQ Midi no = 5. ****
No. delta time. tick count. message
------------------------------------------------
    1.     0.        0.  FF 51 03 07 A1 20       - Set Tempo
    2.     0.        0.  C0 00                  
    3.     0.        0.  C4 04                  
    4.     0.        0.  B3 40 7F                - Damper Pedal
    5.     0.        0.  C3 03                  
    6.     0.        0.  C2 02                  
    7.     0.        0.  C1 01                  
    8.     0.        0.  CD 0D                  
    9.     0.        0.  BA 0A 00                - Pan
   10.     0.        0.  CA 0A                  
   11.     0.        0.  C9 09                  
   12.     0.        0.  C8 08                  
   13.     0.        0.  B7 01 00                - Pitch Modulation Depth
   14.     0.        0.  C7 07                  
   15.     0.        0.  C6 06                  
   16.     0.        0.  C5 05                  
   17.     1.        1.  B5 07 64                - Channel Volume
   18.     0.        1.  B6 07 6E                - Channel Volume
   19.     0.        1.  B7 07 78                - Channel Volume
   20.     0.        1.  B8 07 43                - Channel Volume
   21.     0.        1.  B9 07 44                - Channel Volume
   22.     0.        1.  BA 07 46                - Channel Volume
   23.     0.        1.  BD 07 4F                - Channel Volume
   24.     0.        1.  B1 07 5B                - Channel Volume
   25.     0.        1.  B2 07 7F                - Channel Volume
   26.     0.        1.  B3 07 6E                - Channel Volume
   27.     0.        1.  B4 07 7A                - Channel Volume
   28.     0.        1.  B0 07 7F                - Channel Volume
   29.     1.        2.  B0 0A 40                - Pan
   30.     0.        2.  B4 0A 40                - Pan
   31.     0.        2.  93 39 4A                - Note On  ( 1)
   32.     0.        2.  B3 0A 40                - Pan
   33.     0.        2.  B2 0A 40                - Pan
   34.     0.        2.  B1 0A 40                - Pan
   35.     0.        2.  BD 0A 5E                - Pan
   36.     0.        2.  BA 0A 40                - Pan
   37.     0.        2.  B9 0A 40                - Pan
   38.     0.        2.  B8 0A 40                - Pan
   39.     0.        2.  B7 0A 22                - Pan
   40.     0.        2.  B6 0A 40                - Pan
   41.     0.        2.  B5 0A 40                - Pan
   42.     1.        3.  97 3E 60                - Note On  ( 2)
   43.     0.        3.  9D 3C 7A                - Note On  ( 3)
   44.     0.        3.  9D 38 7F                - Note On  ( 4)
   45.     0.        3.  9D 32 73                - Note On  ( 5)
   46.     0.        3.  90 24 7F                - Note On  ( 6)
   47.     0.        3.  91 26 75                - Note On  ( 7)
   48.     0.        3.  92 42 54                - Note On  ( 8)
   49.     0.        3.  92 40 7F                - Note On  ( 9)
   50.     0.        3.  92 36 69                - Note On  (10)
   51.     0.        3.  93 2D 44                - Note On  (11)
   52.     0.        3.  93 26 48                - Note On  (12)
   53.     1.        4.  93 2D 48                - Note On  (13)
   54.     9.       13.  93 26 48                - Note On  (14)
   55.    15.       28.  93 3C 4C                - Note On  (15)
   56.    20.       48.  93 41 54                - Note On  (16)
   57.    16.       64.  82 42                   - Note Off (15)
   58.    56.      120.  92 38 4C                - Note On  (16)
   59.     0.      120.  92 42 3C                - Note On  (17)
   60.    22.      142.  82 36                   - Note Off (16)
   61.    43.      185.  82 42                   - Note Off (15)
   62.    45.      230.  91 30 66                - Note On  (16)
   63.     3.      233.  81 26                   - Note Off (15)
   64.     7.      240.  92 3A 60                - Note On  (16)
   65.     0.      240.  92 42 43                - Note On  (17)
   66.     0.      240.  9D 39 5A                - Note On  (18)
   67.     0.      240.  97 43 52                - Note On  (19)
   68.     3.      243.  90 25 7F                - Note On  (20)
   69.     3.      246.  80 24                   - Note Off (19)
   70.     4.      250.  8D 38                   - Note Off (18)
   71.     8.      258.  82 38                   - Note Off (17)
   72.    56.      314.  82 42                   - Note Off (16)
   73.    18.      332.  8D 3C                   - Note Off (15)
   74.     1.      333.  8D 39                   - Note Off (14)
   75.    10.      343.  8D 32                   - Note Off (13)
   76.    12.      355.  9D 2D 5A                - Note On  (14)
   77.     5.      360.  92 42 47                - Note On  (15)
   78.    60.      420.  8D 2D                   - Note Off (14)
   79.    15.      435.  82 3A                   - Note Off (13)
   80.     0.      435.  82 42                   - Note Off (12)
   81.    44.      479.  80 25                   - Note Off (11)
   82.     0.      479.  90 26 7F                - Note On  (12)
   83.     1.      480.  92 36 66                - Note On  (13)
   84.     0.      480.  92 42 6C                - Note On  (14)
   85.     0.      480.  9D 39 45                - Note On  (15)
   86.     0.      480.  9D 3C 73                - Note On  (16)
   87.     0.      480.  9D 32 7E                - Note On  (17)
   88.     0.      480.  97 45 57                - Note On  (18)
   89.     2.      482.  91 31 52                - Note On  (19)
   90.    16.      498.  81 30                   - Note Off (18)
   91.    56.      554.  B3 40 7F                - Damper Pedal
   92.     2.      556.  82 42                   - Note Off (17)
   93.    14.      570.  8D 39                   - Note Off (16)
   94.    22.      592.  9D 26 42                - Note On  (17)
   95.     0.      592.  9D 2D 42                - Note On  (18)
   96.     2.      594.  8D 3C                   - Note Off (17)
   97.     2.      596.  8D 32                   - Note Off (16)
   98.     4.      600.  92 38 4C                - Note On  (17)
   99.     0.      600.  92 42 42                - Note On  (18)
  100.    14.      614.  80 26                   - Note Off (17)
  101.     0.      614.  83 26                   - Note Off (16)
  102.     0.      614.  90 27 7F                - Note On  (17)
  103.     8.      622.  83 2D                   - Note Off (16)
  104.     3.      625.  82 36                   - Note Off (15)
  105.    10.      635.  8D 2D                   - Note Off (14)
  106.    27.      662.  8D 26                   - Note Off (13)
  107.     1.      663.  82 42                   - Note Off (12)
  108.    50.      713.  82 38                   - Note Off (11)
  109.     2.      715.  91 32 5A                - Note On  (12)
  110.     5.      720.  92 3A 68                - Note On  (13)
  111.     0.      720.  92 42 41                - Note On  (14)
  112.     0.      720.  97 4A 5D                - Note On  (15)
  113.     2.      722.  9D 38 66                - Note On  (16)
  114.     0.      722.  9D 3C 66                - Note On  (17)
  115.     0.      722.  9D 32 5D                - Note On  (18)
  116.     4.      726.  80 27                   - Note Off (17)
  117.     0.      726.  90 28 7F                - Note On  (18)
  118.    19.      745.  81 31                   - Note Off (17)
  119.    40.      785.  82 42                   - Note Off (16)
  120.    20.      805.  8D 38                   - Note Off (15)
  121.    15.      820.  8D 32                   - Note Off (14)
  122.    12.      832.  9D 39 78                - Note On  (15)
  123.     7.      839.  B7 40 7F                - Damper Pedal
  124.     1.      840.  92 42 55                - Note On  (16)
  125.     6.      846.  8D 3C                   - Note Off (15)
  126.    16.      862.  91 26 69                - Note On  (16)
  127.    21.      883.  81 32                   - Note Off (15)
  128.    30.      913.  82 42                   - Note Off (14)
  129.    20.      933.  82 3A                   - Note Off (13)
  130.     9.      942.  81 26                   - Note Off (12)
  131.     9.      951.  8D 39                   - Note Off (11)
  132.     6.      957.  9D 2D 4F                - Note On  (12)
  133.     3.      960.  92 36 66                - Note On  (13)
  134.     0.      960.  92 42 46                - Note On  (14)
  135.     3.      963.  80 28                   - Note Off (13)
  136.     0.      963.  90 29 7F                - Note On  (14)
  137.    59.     1022.  82 42                   - Note Off (13)
  138.    26.     1048.  8D 2D                   - Note Off (12)
  139.    27.     1075.  9D 32 56                - Note On  (13)
  140.     0.     1075.  9D 39 4F                - Note On  (14)
  141.     0.     1075.  9D 3C 3F                - Note On  (15)
  142.     5.     1080.  92 38 4C                - Note On  (16)
  143.     0.     1080.  92 42 3F                - Note On  (17)
  144.    22.     1102.  91 32 69                - Note On  (18)
  145.    13.     1115.  82 36                   - Note Off (17)
  146.    52.     1167.  8D 39                   - Note Off (16)
  147.    11.     1178.  8D 32                   - Note Off (15)
  148.    10.     1188.  8D 3C                   - Note Off (14)
  149.     1.     1189.  82 38                   - Note Off (13)
  150.     9.     1198.  81 32                   - Note Off (12)
  151.     2.     1200.  92 3A 58                - Note On  (13)
  152.     1.     1201.  80 29                   - Note Off (12)
  153.     0.     1201.  90 2A 7F                - Note On  (13)
  154.     1.     1202.  91 30 63                - Note On  (14)
  155.    10.     1212.  82 42                   - Note Off (13)
  156.    75.     1287.  B7 01 05                - Pitch Modulation Depth
  157.    17.     1304.  B7 01 11                - Pitch Modulation Depth
  158.    11.     1315.  9D 26 32                - Note On  (14)
  159.     0.     1315.  9D 2D 36                - Note On  (15)
  160.     2.     1317.  B7 01 18                - Pitch Modulation Depth
  161.     3.     1320.  92 42 48                - Note On  (16)
  162.    15.     1335.  B7 01 20                - Pitch Modulation Depth
  163.    14.     1349.  B7 01 26                - Pitch Modulation Depth
  164.     4.     1353.  8D 2D                   - Note Off (15)
  165.    13.     1366.  B7 01 2C                - Pitch Modulation Depth
  166.    13.     1379.  B7 01 33                - Pitch Modulation Depth
  167.    13.     1392.  8D 26                   - Note Off (14)
  168.     5.     1397.  82 42                   - Note Off (13)
  169.     0.     1397.  B7 01 3D                - Pitch Modulation Depth
  170.    12.     1409.  B7 01 44                - Pitch Modulation Depth
  171.    14.     1423.  82 3A                   - Note Off (12)
  172.     4.     1427.  B7 01 4A                - Pitch Modulation Depth
  173.     5.     1432.  80 2A                   - Note Off (11)
  174.     0.     1432.  90 2B 7F                - Note On  (12)
  175.     8.     1440.  92 36 69                - Note On  (13)
  176.     0.     1440.  92 42 6C                - Note On  (14)
  177.     0.     1440.  B7 01 4E                - Pitch Modulation Depth
  178.     2.     1442.  9D 3C 76                - Note On  (15)
  179.     0.     1442.  9D 32 41                - Note On  (16)
  180.     0.     1442.  9D 38 7A                - Note On  (17)
  181.    16.     1458.  B7 01 54                - Pitch Modulation Depth
  182.    13.     1471.  B7 01 59                - Pitch Modulation Depth
  183.    18.     1489.  B7 01 5D                - Pitch Modulation Depth
  184.    13.     1502.  B7 01 61                - Pitch Modulation Depth
  185.     6.     1508.  82 42                   - Note Off (16)
  186.    11.     1519.  B7 01 67                - Pitch Modulation Depth
  187.    14.     1533.  B7 01 6B                - Pitch Modulation Depth
  188.    13.     1546.  87 4A                   - Note Off (15)
  189.     4.     1550.  B7 01 6F                - Pitch Modulation Depth
  190.     5.     1555.  9D 2D 36                - Note On  (16)
  191.     4.     1559.  87 3E                   - Note Off (15)
  192.     1.     1560.  92 38 4C                - Note On  (16)
  193.     0.     1560.  92 42 3F                - Note On  (17)
  194.     9.     1569.  87 43                   - Note Off (16)
  195.     4.     1573.  80 2B                   - Note Off (15)
  196.     0.     1573.  90 2C 7F                - Note On  (16)
  197.     2.     1575.  87 45                   - Note Off (15)
  198.     6.     1581.  B7 01 74                - Pitch Modulation Depth
  199.    26.     1607.  8D 2D                   - Note Off (14)
  200.     1.     1608.  82 36                   - Note Off (13)
  201.     3.     1611.  B7 01 7A                - Pitch Modulation Depth
  202.     8.     1619.  82 42                   - Note Off (12)
  203.     6.     1625.  B7 01 7F                - Pitch Modulation Depth
  204.    42.     1667.  8D 38                   - Note Off (11)
  205.     7.     1674.  8D 3C                   - Note Off (10)
  206.     3.     1677.  82 40                   - Note Off ( 9)
  207.     3.     1680.  92 3A 64                - Note On  (10)
  208.     0.     1680.  92 42 28                - Note On  (11)
  209.     0.     1680.  97 60 57                - Note On  (12)
  210.     4.     1684.  82 38                   - Note Off (11)
  211.     1.     1685.  80 2C                   - Note Off (10)
  212.     0.     1685.  90 2D 7F                - Note On  (11)
  213.     0.     1685.  9D 39 5C                - Note On  (12)
  214.    54.     1739.  8D 32                   - Note Off (11)
  215.    16.     1755.  82 42                   - Note Off (10)
  216.     7.     1762.  8D 39                   - Note Off ( 9)
  217.    28.     1790.  9D 2D 42                - Note On  (10)
  218.    10.     1800.  92 42 4C                - Note On  (11)
  219.    26.     1826.  B7 01 78                - Pitch Modulation Depth
  220.    13.     1839.  8D 2D                   - Note Off (10)
  221.     0.     1839.  B7 01 08                - Pitch Modulation Depth
  222.    19.     1858.  B7 01 00                - Pitch Modulation Depth
  223.     6.     1864.  82 42                   - Note Off ( 9)
  224.    25.     1889.  82 3A                   - Note Off ( 8)
  225.     3.     1892.  87 60                   - Note Off ( 7)
  226.    28.     1920.  80 2D                   - Note Off ( 6)
  227.     0.     1920.  90 24 7F                - Note On  ( 7)
  228.     0.     1920.  92 36 66                - Note On  ( 8)
  229.     0.     1920.  92 42 54                - Note On  ( 9)
  230.     0.     1920.  97 37 5A                - Note On  (10)
  231.     7.     1927.  9D 32 73                - Note On  (11)
  232.     0.     1927.  9D 38 7F                - Note On  (12)
  233.     0.     1927.  9D 3C 7A                - Note On  (13)
  234.     0.     1927.  91 26 75                - Note On  (14)
  235.    21.     1948.  81 30                   - Note Off (13)
  236.    33.     1981.  82 42                   - Note Off (12)
  237.    41.     2022.  B7 40 00                - Damper Pedal
  238.    18.     2040.  92 38 50                - Note On  (13)
  239.     0.     2040.  92 42 3C                - Note On  (14)
  240.    28.     2068.  82 36                   - Note Off (13)
  241.    37.     2105.  82 42                   - Note Off (12)
  242.    50.     2155.  81 26                   - Note Off (11)
  243.     2.     2157.  91 30 54                - Note On  (12)
  244.     1.     2158.  82 38                   - Note Off (11)
  245.     2.     2160.  92 3A 64                - Note On  (12)
  246.     0.     2160.  92 42 43                - Note On  (13)
  247.     0.     2160.  97 41 4C                - Note On  (14)
  248.     3.     2163.  80 24                   - Note Off (13)
  249.     0.     2163.  90 25 7F                - Note On  (14)
  250.     2.     2165.  9D 39 5A                - Note On  (15)
  251.     9.     2174.  8D 38                   - Note Off (14)
  252.    47.     2221.  B7 40 7F                - Damper Pedal
  253.    13.     2234.  82 42                   - Note Off (13)
  254.    22.     2256.  8D 3C                   - Note Off (12)
  255.     2.     2258.  8D 39                   - Note Off (11)
  256.     9.     2267.  8D 32                   - Note Off (10)
  257.     8.     2275.  9D 2D 5A                - Note On  (11)
  258.     5.     2280.  92 42 47                - Note On  (12)
  259.    60.     2340.  8D 2D                   - Note Off (11)
  260.    15.     2355.  82 42                   - Note Off (10)
  261.     1.     2356.  82 3A                   - Note Off ( 9)
  262.    42.     2398.  9D 39 45                - Note On  (10)
  263.     0.     2398.  9D 3C 73                - Note On  (11)
  264.     0.     2398.  9D 32 7E                - Note On  (12)
  265.     1.     2399.  80 25                   - Note Off (11)
  266.     0.     2399.  90 26 7F                - Note On  (12)
  267.     1.     2400.  92 36 69                - Note On  (13)
  268.     0.     2400.  92 42 6C                - Note On  (14)
  269.     0.     2400.  97 43 52                - Note On  (15)
  270.    10.     2410.  91 31 4E                - Note On  (16)
  271.    66.     2476.  82 42                   - Note Off (15)
  272.     8.     2484.  81 30                   - Note Off (14)
  273.     4.     2488.  8D 39                   - Note Off (13)
  274.    24.     2512.  8D 3C                   - Note Off (12)
  275.     2.     2514.  8D 32                   - Note Off (11)
  276.     1.     2515.  9D 26 42                - Note On  (12)
  277.     0.     2515.  9D 2D 42                - Note On  (13)
  278.     5.     2520.  92 38 50                - Note On  (14)
  279.     0.     2520.  92 42 42                - Note On  (15)
  280.    14.     2534.  80 26                   - Note Off (14)
  281.     0.     2534.  90 27 7F                - Note On  (15)
  282.     8.     2542.  82 36                   - Note Off (14)
  283.    16.     2558.  8D 2D                   - Note Off (13)
  284.    25.     2583.  82 42                   - Note Off (12)
  285.     2.     2585.  8D 26                   - Note Off (11)
  286.    43.     2628.  82 38                   - Note Off (10)
  287.    12.     2640.  92 3A 64                - Note On  (11)
  288.     0.     2640.  92 42 41                - Note On  (12)
  289.     0.     2640.  97 48 57                - Note On  (13)
  290.     2.     2642.  9D 38 66                - Note On  (14)
  291.     0.     2642.  9D 3C 66                - Note On  (15)
  292.     0.     2642.  9D 32 5D                - Note On  (16)
  293.     0.     2642.  91 32 57                - Note On  (17)
  294.     4.     2646.  80 27                   - Note Off (16)
  295.     0.     2646.  90 28 7F                - Note On  (17)
  296.    14.     2660.  81 31                   - Note Off (16)
  297.    34.     2694.  87 43                   - Note Off (15)
  298.    11.     2705.  82 42                   - Note Off (14)
  299.    20.     2725.  8D 38                   - Note Off (13)
  300.    12.     2737.  87 37                   - Note Off (12)
  301.     1.     2738.  87 41                   - Note Off (11)
  302.     2.     2740.  8D 32                   - Note Off (10)
  303.    15.     2755.  9D 39 78                - Note On  (11)
  304.     5.     2760.  92 42 55                - Note On  (12)
  305.     4.     2764.  83 39                   - Note Off (11)
  306.     2.     2766.  8D 3C                   - Note Off (10)
  307.    16.     2782.  83 2D                   - Note Off ( 9)
  308.     8.     2790.  91 2D 63                - Note On  (10)
  309.     3.     2793.  83 41                   - Note Off ( 9)
  310.     1.     2794.  83 3C                   - Note Off ( 8)
  311.    14.     2808.  81 32                   - Note Off ( 7)
  312.    17.     2825.  83 26                   - Note Off ( 6)
  313.     8.     2833.  82 42                   - Note Off ( 5)
  314.    20.     2853.  82 3A                   - Note Off ( 4)
  315.     2.     2855.  87 48                   - Note Off ( 3)
  316.     1.     2856.  93 39 48                - Note On  ( 4)
  317.     7.     2863.  81 2D                   - Note Off ( 3)
  318.     7.     2870.  93 2B 48                - Note On  ( 4)
  319.     4.     2874.  8D 39                   - Note Off ( 3)
  320.     5.     2879.  93 3C 57                - Note On  ( 4)
  321.     1.     2880.  92 42 46                - Note On  ( 5)
  322.     0.     2880.  92 36 69                - Note On  ( 6)
  323.     0.     2880.  9D 2D 4F                - Note On  ( 7)
  324.     0.     2880.  97 3C 5D                - Note On  ( 8)
  325.     3.     2883.  80 28                   - Note Off ( 7)
  326.     0.     2883.  90 29 7F                - Note On  ( 8)
  327.    25.     2908.  93 43 4C                - Note On  ( 9)
  328.    12.     2920.  B3 40 00                - Damper Pedal
  329.    22.     2942.  82 42                   - Note Off ( 8)
  330.    29.     2971.  8D 2D                   - Note Off ( 7)
  331.    29.     3000.  92 38 50                - Note On  ( 8)
  332.     0.     3000.  92 42 3F                - Note On  ( 9)
  333.     0.     3000.  9D 32 56                - Note On  (10)
  334.     0.     3000.  9D 39 4F                - Note On  (11)
  335.     0.     3000.  9D 3C 3F                - Note On  (12)
  336.    19.     3019.  B7 40 00                - Damper Pedal
  337.     7.     3026.  82 36                   - Note Off (11)
  338.     1.     3027.  91 2D 54                - Note On  (12)
  339.    65.     3092.  8D 39                   - Note Off (11)
  340.    11.     3103.  8D 32                   - Note Off (10)
  341.    10.     3113.  8D 3C                   - Note Off ( 9)
  342.     1.     3114.  81 2D                   - Note Off ( 8)
  343.     6.     3120.  92 3A 64                - Note On  ( 9)
  344.     0.     3120.  97 40 52                - Note On  (10)
  345.     1.     3121.  80 29                   - Note Off ( 9)
  346.     0.     3121.  90 2A 7F                - Note On  (10)
  347.     5.     3126.  82 38                   - Note Off ( 9)
  348.     1.     3127.  91 2B 57                - Note On  (10)
  349.     5.     3132.  82 42                   - Note Off ( 9)
  350.     3.     3135.  B3 40 7F                - Damper Pedal
  351.    85.     3220.  B7 40 7F                - Damper Pedal
  352.    10.     3230.  9D 26 32                - Note On  (10)
  353.     0.     3230.  9D 2D 36                - Note On  (11)
  354.    10.     3240.  92 42 48                - Note On  (12)
  355.    28.     3268.  8D 2D                   - Note Off (11)
  356.    39.     3307.  8D 26                   - Note Off (10)
  357.    10.     3317.  82 42                   - Note Off ( 9)
  358.     8.     3325.  82 3A                   - Note Off ( 8)
  359.    27.     3352.  80 2A                   - Note Off ( 7)
  360.     0.     3352.  90 2B 7F                - Note On  ( 8)
  361.     8.     3360.  92 36 69                - Note On  ( 9)
  362.     0.     3360.  92 42 6C                - Note On  (10)
  363.     0.     3360.  9D 3C 76                - Note On  (11)
  364.     0.     3360.  9D 32 41                - Note On  (12)
  365.     0.     3360.  9D 38 7A                - Note On  (13)
  366.     0.     3360.  97 43 44                - Note On  (14)
  367.    68.     3428.  82 42                   - Note Off (13)
  368.    42.     3470.  9D 2D 36                - Note On  (14)
  369.    10.     3480.  92 38 4E                - Note On  (15)
  370.     0.     3480.  92 42 3F                - Note On  (16)
  371.    13.     3493.  80 2B                   - Note Off (15)
  372.     0.     3493.  90 2C 7F                - Note On  (16)
  373.    22.     3515.  82 36                   - Note Off (15)
  374.     7.     3522.  8D 2D                   - Note Off (14)
  375.    17.     3539.  82 42                   - Note Off (13)
  376.    46.     3585.  8D 38                   - Note Off (12)
  377.     5.     3590.  82 38                   - Note Off (11)
  378.     2.     3592.  8D 3C                   - Note Off (10)
  379.     3.     3595.  9D 39 5C                - Note On  (11)
  380.     5.     3600.  97 48 54                - Note On  (12)
  381.     0.     3600.  97 60 54                - Note On  (13)
  382.     0.     3600.  92 3A 68                - Note On  (14)
  383.     0.     3600.  92 42 28                - Note On  (15)
  384.     5.     3605.  80 2C                   - Note Off (14)
  385.     0.     3605.  90 2D 7F                - Note On  (15)
  386.    26.     3631.  87 3C                   - Note Off (14)
  387.    26.     3657.  8D 32                   - Note Off (13)
  388.    15.     3672.  8D 39                   - Note Off (12)
  389.     3.     3675.  82 42                   - Note Off (11)
  390.    26.     3701.  87 43                   - Note Off (10)
  391.     6.     3707.  9D 2D 42                - Note On  (11)
  392.    13.     3720.  92 42 4C                - Note On  (12)
  393.     5.     3725.  87 40                   - Note Off (11)
  394.     4.     3729.  83 43                   - Note Off (10)
  395.    13.     3742.  B7 40 00                - Damper Pedal
  396.    14.     3756.  8D 2D                   - Note Off ( 9)
  397.     8.     3764.  87 60                   - Note Off ( 8)
  398.     4.     3768.  83 3C                   - Note Off ( 7)
  399.     1.     3769.  87 48                   - Note Off ( 6)
  400.    12.     3781.  83 39                   - Note Off ( 5)
  401.     3.     3784.  82 42                   - Note Off ( 4)
  402.    18.     3802.  83 2B                   - Note Off ( 3)
  403.    11.     3813.  93 2D 44                - Note On  ( 4)
  404.     5.     3818.  93 39 4A                - Note On  ( 5)
  405.     6.     3824.  82 3A                   - Note Off ( 4)
  406.     1.     3825.  B3 40 00                - Damper Pedal
  407.     4.     3829.  93 26 2D                - Note On  ( 5)
  408.     6.     3835.  93 3C 54                - Note On  ( 6)
  409.     5.     3840.  80 2D                   - Note Off ( 5)
  410.     0.     3840.  90 24 7F                - Note On  ( 6)
  411.     0.     3840.  92 36 66                - Note On  ( 7)
  412.     0.     3840.  92 42 54                - Note On  ( 8)
  413.     0.     3840.  91 26 72                - Note On  ( 9)
  414.     0.     3840.  97 3E 60                - Note On  (10)
  415.     0.     3840.  9D 32 73                - Note On  (11)
  416.     0.     3840.  9D 38 7F                - Note On  (12)
  417.     0.     3840.  9D 3C 7A                - Note On  (13)
  418.    12.     3852.  93 41 5D                - Note On  (14)
  419.    29.     3881.  81 2B                   - Note Off (13)
  420.    20.     3901.  82 42                   - Note Off (12)
  421.    59.     3960.  92 38 50                - Note On  (13)
  422.     0.     3960.  92 42 3C                - Note On  (14)
  423.    40.     4000.  82 36                   - Note Off (13)
  424.    25.     4025.  82 42                   - Note Off (12)
  425.    45.     4070.  91 30 60                - Note On  (13)
  426.     5.     4075.  82 38                   - Note Off (12)
  427.     5.     4080.  92 3A 62                - Note On  (13)
  428.     0.     4080.  92 42 43                - Note On  (14)
  429.     0.     4080.  9D 39 5A                - Note On  (15)
  430.     0.     4080.  97 43 52                - Note On  (16)
  431.     3.     4083.  80 24                   - Note Off (15)
  432.     0.     4083.  90 25 7F                - Note On  (16)
  433.     2.     4085.  81 26                   - Note Off (15)
  434.     2.     4087.  8D 38                   - Note Off (14)
  435.    67.     4154.  82 42                   - Note Off (13)
  436.    15.     4169.  8D 3C                   - Note Off (12)
  437.     4.     4173.  8D 39                   - Note Off (11)
  438.     7.     4180.  8D 32                   - Note Off (10)
  439.    15.     4195.  9D 2D 5A                - Note On  (11)
  440.     5.     4200.  92 42 47                - Note On  (12)
  441.     9.     4209.  B3 40 7F                - Damper Pedal
  442.    51.     4260.  8D 2D                   - Note Off (11)
  443.    15.     4275.  82 42                   - Note Off (10)
  444.    31.     4306.  82 3A                   - Note Off ( 9)
  445.    13.     4319.  80 25                   - Note Off ( 8)
  446.     0.     4319.  90 26 7F                - Note On  ( 9)
  447.     1.     4320.  92 36 66                - Note On  (10)
  448.     0.     4320.  92 42 6C                - Note On  (11)
  449.     0.     4320.  9D 39 45                - Note On  (12)
  450.     0.     4320.  9D 3C 73                - Note On  (13)
  451.     0.     4320.  9D 32 7E                - Note On  (14)
  452.     0.     4320.  97 45 57                - Note On  (15)
  453.     2.     4322.  91 31 4A                - Note On  (16)
  454.    28.     4350.  81 30                   - Note Off (15)
  455.    46.     4396.  82 42                   - Note Off (14)
  456.    14.     4410.  8D 39                   - Note Off (13)
  457.    22.     4432.  9D 26 42                - Note On  (14)
  458.     0.     4432.  9D 2D 42                - Note On  (15)
  459.     2.     4434.  8D 3C                   - Note Off (14)
  460.     2.     4436.  8D 32                   - Note Off (13)
  461.     4.     4440.  92 38 4C                - Note On  (14)
  462.     0.     4440.  92 42 42                - Note On  (15)
  463.    14.     4454.  80 26                   - Note Off (14)
  464.     0.     4454.  90 27 7F                - Note On  (15)
  465.    20.     4474.  82 36                   - Note Off (14)
  466.     1.     4475.  8D 2D                   - Note Off (13)
  467.    27.     4502.  8D 26                   - Note Off (12)
  468.     1.     4503.  82 42                   - Note Off (11)
  469.    52.     4555.  91 32 50                - Note On  (12)
  470.     4.     4559.  81 31                   - Note Off (11)
  471.     1.     4560.  92 3A 5B                - Note On  (12)
  472.     0.     4560.  92 42 41                - Note On  (13)
  473.     0.     4560.  97 4A 5D                - Note On  (14)
  474.     2.     4562.  9D 38 66                - Note On  (15)
  475.     0.     4562.  9D 3C 66                - Note On  (16)
  476.     0.     4562.  9D 32 5D                - Note On  (17)
  477.     4.     4566.  80 27                   - Note Off (16)
  478.     0.     4566.  90 28 7F                - Note On  (17)
  479.     1.     4567.  82 38                   - Note Off (16)
  480.    58.     4625.  82 42                   - Note Off (15)
  481.    20.     4645.  8D 38                   - Note Off (14)
  482.    15.     4660.  8D 32                   - Note Off (13)
  483.    12.     4672.  9D 39 78                - Note On  (14)
  484.     7.     4679.  B7 40 7F                - Damper Pedal
  485.     1.     4680.  92 42 55                - Note On  (15)
  486.     6.     4686.  8D 3C                   - Note Off (14)
  487.    19.     4705.  91 26 66                - Note On  (15)
  488.    21.     4726.  81 32                   - Note Off (14)
  489.    27.     4753.  82 42                   - Note Off (13)
  490.    21.     4774.  81 26                   - Note Off (12)
  491.    16.     4790.  82 3A                   - Note Off (11)
  492.     1.     4791.  8D 39                   - Note Off (10)
  493.     6.     4797.  9D 2D 4F                - Note On  (11)
  494.     3.     4800.  92 36 66                - Note On  (12)
  495.     0.     4800.  92 42 46                - Note On  (13)
  496.     3.     4803.  80 28                   - Note Off (12)
  497.     0.     4803.  90 29 7F                - Note On  (13)
  498.    59.     4862.  82 42                   - Note Off (12)
  499.    26.     4888.  8D 2D                   - Note Off (11)
  500.    27.     4915.  9D 32 56                - Note On  (12)
  501.     0.     4915.  9D 39 4F                - Note On  (13)
  502.     0.     4915.  9D 3C 3F                - Note On  (14)
  503.     5.     4920.  92 38 4A                - Note On  (15)
  504.     0.     4920.  92 42 3F                - Note On  (16)
  505.    27.     4947.  91 32 60                - Note On  (17)
  506.    26.     4973.  82 36                   - Note Off (16)
  507.     0.     4973.  B7 01 09                - Pitch Modulation Depth
  508.    18.     4991.  B7 01 16                - Pitch Modulation Depth
  509.    14.     5005.  B7 01 20                - Pitch Modulation Depth
  510.     2.     5007.  8D 39                   - Note Off (15)
  511.    11.     5018.  8D 32                   - Note Off (14)
  512.     3.     5021.  B7 01 27                - Pitch Modulation Depth
  513.     7.     5028.  8D 3C                   - Note Off (13)
  514.     7.     5035.  81 32                   - Note Off (12)
  515.     0.     5035.  B7 01 2D                - Pitch Modulation Depth
  516.     5.     5040.  92 3A 60                - Note On  (13)
  517.     1.     5041.  80 29                   - Note Off (12)
  518.     0.     5041.  90 2A 7F                - Note On  (13)
  519.     1.     5042.  91 30 5A                - Note On  (14)
  520.     7.     5049.  82 38                   - Note Off (13)
  521.     3.     5052.  82 42                   - Note Off (12)
  522.    13.     5065.  B7 01 37                - Pitch Modulation Depth
  523.    18.     5083.  B7 01 3F                - Pitch Modulation Depth
  524.    13.     5096.  B7 01 42                - Pitch Modulation Depth
  525.    17.     5113.  B7 01 46                - Pitch Modulation Depth
  526.    14.     5127.  B7 01 4D                - Pitch Modulation Depth
  527.    17.     5144.  B7 01 52                - Pitch Modulation Depth
  528.    11.     5155.  9D 26 32                - Note On  (13)
  529.     0.     5155.  9D 2D 36                - Note On  (14)
  530.     5.     5160.  92 42 48                - Note On  (15)
  531.    15.     5175.  B7 01 59                - Pitch Modulation Depth
  532.    13.     5188.  B7 01 5D                - Pitch Modulation Depth
  533.     5.     5193.  8D 2D                   - Note Off (14)
  534.    10.     5203.  B7 01 63                - Pitch Modulation Depth
  535.    16.     5219.  B7 01 6C                - Pitch Modulation Depth
  536.    13.     5232.  8D 26                   - Note Off (13)
  537.     5.     5237.  82 42                   - Note Off (12)
  538.     0.     5237.  B7 01 74                - Pitch Modulation Depth
  539.    13.     5250.  B7 01 78                - Pitch Modulation Depth
  540.     1.     5251.  82 3A                   - Note Off (11)
  541.    13.     5264.  B7 01 7C                - Pitch Modulation Depth
  542.     8.     5272.  80 2A                   - Note Off (10)
  543.     0.     5272.  90 2B 7F                - Note On  (11)
  544.     8.     5280.  92 36 66                - Note On  (12)
  545.     0.     5280.  92 42 6C                - Note On  (13)
  546.     2.     5282.  9D 3C 76                - Note On  (14)
  547.     0.     5282.  9D 32 41                - Note On  (15)
  548.     0.     5282.  9D 38 7A                - Note On  (16)
  549.    16.     5298.  B7 01 7F                - Pitch Modulation Depth
  550.    50.     5348.  82 42                   - Note Off (15)
  551.    38.     5386.  87 4A                   - Note Off (14)
  552.     9.     5395.  9D 2D 36                - Note On  (15)
  553.     1.     5396.  87 3E                   - Note Off (14)
  554.     4.     5400.  92 38 4E                - Note On  (15)
  555.     0.     5400.  92 42 3F                - Note On  (16)
  556.     0.     5400.  97 60 4E                - Note On  (17)
  557.     9.     5409.  87 43                   - Note Off (16)
  558.     4.     5413.  80 2B                   - Note Off (15)
  559.     0.     5413.  90 2C 7F                - Note On  (16)
  560.     2.     5415.  87 45                   - Note Off (15)
  561.    27.     5442.  82 36                   - Note Off (14)
  562.     5.     5447.  8D 2D                   - Note Off (13)
  563.    12.     5459.  82 42                   - Note Off (12)
  564.    48.     5507.  8D 38                   - Note Off (11)
  565.     7.     5514.  8D 3C                   - Note Off (10)
  566.     6.     5520.  92 3A 62                - Note On  (11)
  567.     0.     5520.  92 42 28                - Note On  (12)
  568.     2.     5522.  81 30                   - Note Off (11)
  569.     3.     5525.  80 2C                   - Note Off (10)
  570.     0.     5525.  90 2D 7F                - Note On  (11)
  571.     0.     5525.  91 30 69                - Note On  (12)
  572.     0.     5525.  9D 39 5C                - Note On  (13)
  573.     4.     5529.  82 38                   - Note Off (12)
  574.    50.     5579.  8D 32                   - Note Off (11)
  575.    16.     5595.  82 42                   - Note Off (10)
  576.     7.     5602.  8D 39                   - Note Off ( 9)
  577.    28.     5630.  9D 2D 42                - Note On  (10)
  578.    10.     5640.  92 42 4C                - Note On  (11)
  579.    15.     5655.  87 60                   - Note Off (10)
  580.    24.     5679.  8D 2D                   - Note Off ( 9)
  581.    18.     5697.  B7 01 7E                - Pitch Modulation Depth
  582.     7.     5704.  82 42                   - Note Off ( 8)
  583.     7.     5711.  B7 01 16                - Pitch Modulation Depth
  584.    17.     5728.  B7 01 00                - Pitch Modulation Depth
  585.     3.     5731.  82 3A                   - Note Off ( 7)
  586.    29.     5760.  81 30                   - Note Off ( 6)
  587.     0.     5760.  80 2D                   - Note Off ( 5)
  588.     0.     5760.  90 24 7F                - Note On  ( 6)
  589.     0.     5760.  92 36 60                - Note On  ( 7)
  590.     0.     5760.  92 42 54                - Note On  ( 8)
  591.     0.     5760.  97 37 5A                - Note On  ( 9)
  592.     7.     5767.  9D 32 73                - Note On  (10)
  593.     0.     5767.  9D 38 7F                - Note On  (11)
  594.     0.     5767.  9D 3C 7A                - Note On  (12)
  595.     0.     5767.  91 26 72                - Note On  (13)
  596.    54.     5821.  82 42                   - Note Off (12)
  597.    41.     5862.  B7 40 00                - Damper Pedal
  598.    18.     5880.  92 38 52                - Note On  (13)
  599.     0.     5880.  92 42 3C                - Note On  (14)
  600.    27.     5907.  82 36                   - Note Off (13)
  601.    38.     5945.  82 42                   - Note Off (12)
  602.    45.     5990.  81 26                   - Note Off (11)
  603.     7.     5997.  91 30 60                - Note On  (12)
  604.     3.     6000.  92 3A 60                - Note On  (13)
  605.     0.     6000.  92 42 43                - Note On  (14)
  606.     0.     6000.  97 41 4C                - Note On  (15)
  607.     3.     6003.  80 24                   - Note Off (14)
  608.     0.     6003.  90 25 7F                - Note On  (15)
  609.     2.     6005.  9D 39 5A                - Note On  (16)
  610.     3.     6008.  82 38                   - Note Off (15)
  611.     6.     6014.  8D 38                   - Note Off (14)
  612.    47.     6061.  B7 40 7F                - Damper Pedal
  613.    13.     6074.  82 42                   - Note Off (13)
  614.    22.     6096.  8D 3C                   - Note Off (12)
  615.     2.     6098.  8D 39                   - Note Off (11)
  616.     9.     6107.  8D 32                   - Note Off (10)
  617.     8.     6115.  9D 2D 5A                - Note On  (11)
  618.     5.     6120.  92 42 47                - Note On  (12)
  619.    60.     6180.  8D 2D                   - Note Off (11)
  620.    15.     6195.  82 42                   - Note Off (10)
  621.     5.     6200.  82 3A                   - Note Off ( 9)
  622.    38.     6238.  9D 39 45                - Note On  (10)
  623.     0.     6238.  9D 3C 73                - Note On  (11)
  624.     0.     6238.  9D 32 7E                - Note On  (12)
  625.     1.     6239.  80 25                   - Note Off (11)
  626.     0.     6239.  90 26 7F                - Note On  (12)
  627.     1.     6240.  92 36 66                - Note On  (13)
  628.     0.     6240.  92 42 6C                - Note On  (14)
  629.     0.     6240.  97 43 52                - Note On  (15)
  630.    10.     6250.  91 31 54                - Note On  (16)
  631.    66.     6316.  82 42                   - Note Off (15)
  632.    12.     6328.  8D 39                   - Note Off (14)
  633.     5.     6333.  81 30                   - Note Off (13)
  634.    19.     6352.  8D 3C                   - Note Off (12)
  635.     2.     6354.  8D 32                   - Note Off (11)
  636.     1.     6355.  9D 26 42                - Note On  (12)
  637.     0.     6355.  9D 2D 42                - Note On  (13)
  638.     5.     6360.  92 38 4A                - Note On  (14)
  639.     0.     6360.  92 42 42                - Note On  (15)
  640.    14.     6374.  80 26                   - Note Off (14)
  641.     0.     6374.  90 27 7F                - Note On  (15)
  642.     6.     6380.  82 36                   - Note Off (14)
  643.    18.     6398.  8D 2D                   - Note Off (13)
  644.    25.     6423.  82 42                   - Note Off (12)
  645.     2.     6425.  8D 26                   - Note Off (11)
  646.    43.     6468.  81 31                   - Note Off (10)
  647.    12.     6480.  92 3A 62                - Note On  (11)
  648.     0.     6480.  92 42 41                - Note On  (12)
  649.     0.     6480.  97 48 57                - Note On  (13)
  650.     2.     6482.  9D 38 66                - Note On  (14)
  651.     0.     6482.  9D 3C 66                - Note On  (15)
  652.     0.     6482.  9D 32 5D                - Note On  (16)
  653.     0.     6482.  91 32 52                - Note On  (17)
  654.     3.     6485.  82 38                   - Note Off (16)
  655.     1.     6486.  80 27                   - Note Off (15)
  656.     0.     6486.  90 28 7F                - Note On  (16)
  657.    48.     6534.  87 43                   - Note Off (15)
  658.    11.     6545.  82 42                   - Note Off (14)
  659.    20.     6565.  8D 38                   - Note Off (13)
  660.    12.     6577.  87 37                   - Note Off (12)
  661.     1.     6578.  87 41                   - Note Off (11)
  662.     2.     6580.  8D 32                   - Note Off (10)
  663.    15.     6595.  9D 39 78                - Note On  (11)
  664.     5.     6600.  92 42 55                - Note On  (12)
  665.     6.     6606.  8D 3C                   - Note Off (11)
  666.     1.     6607.  83 39                   - Note Off (10)
  667.     3.     6610.  83 3C                   - Note Off ( 9)
  668.    20.     6630.  91 26 66                - Note On  (10)
  669.    20.     6650.  83 41                   - Note Off ( 9)
  670.    12.     6662.  81 32                   - Note Off ( 8)
  671.    11.     6673.  82 42                   - Note Off ( 7)
  672.     3.     6676.  82 3A                   - Note Off ( 6)
  673.     3.     6679.  83 2D                   - Note Off ( 5)
  674.     5.     6684.  83 26                   - Note Off ( 4)
  675.     3.     6687.  81 26                   - Note Off ( 3)
  676.     8.     6695.  87 48                   - Note Off ( 2)
  677.     2.     6697.  93 30 63                - Note On  ( 3)
  678.     0.     6697.  B3 40 00                - Damper Pedal
  679.    17.     6714.  8D 39                   - Note Off ( 2)
  680.     6.     6720.  92 36 66                - Note On  ( 3)
  681.     0.     6720.  92 42 46                - Note On  ( 4)
  682.     0.     6720.  9D 2D 4F                - Note On  ( 5)
  683.     0.     6720.  97 3C 5D                - Note On  ( 6)
  684.     2.     6722.  93 37 52                - Note On  ( 7)
  685.     1.     6723.  80 28                   - Note Off ( 6)
  686.     0.     6723.  90 29 7F                - Note On  ( 7)
  687.     6.     6729.  93 3B 52                - Note On  ( 8)
  688.    16.     6745.  93 40 50                - Note On  ( 9)
  689.    37.     6782.  82 42                   - Note Off ( 8)
  690.    29.     6811.  8D 2D                   - Note Off ( 7)
  691.    29.     6840.  92 38 52                - Note On  ( 8)
  692.     0.     6840.  92 42 3F                - Note On  ( 9)
  693.     0.     6840.  9D 32 56                - Note On  (10)
  694.     0.     6840.  9D 39 4F                - Note On  (11)
  695.     0.     6840.  9D 3C 3F                - Note On  (12)
  696.    19.     6859.  B7 40 00                - Damper Pedal
  697.     8.     6867.  91 32 6C                - Note On  (13)
  698.    38.     6905.  82 36                   - Note Off (12)
  699.    27.     6932.  8D 39                   - Note Off (11)
  700.    11.     6943.  8D 32                   - Note Off (10)
  701.    10.     6953.  8D 3C                   - Note Off ( 9)
  702.     4.     6957.  81 32                   - Note Off ( 8)
  703.     3.     6960.  92 3A 58                - Note On  ( 9)
  704.     0.     6960.  97 40 52                - Note On  (10)
  705.     1.     6961.  80 29                   - Note Off ( 9)
  706.     0.     6961.  90 2A 7F                - Note On  (10)
  707.     6.     6967.  91 30 60                - Note On  (11)
  708.     5.     6972.  82 42                   - Note Off (10)
  709.    16.     6988.  82 38                   - Note Off ( 9)
  710.     1.     6989.  B3 40 7F                - Damper Pedal
  711.    71.     7060.  B7 40 7F                - Damper Pedal
  712.    10.     7070.  9D 26 2D                - Note On  (10)
  713.     0.     7070.  9D 2D 2D                - Note On  (11)
  714.    10.     7080.  92 42 48                - Note On  (12)
  715.    28.     7108.  8D 2D                   - Note Off (11)
  716.    39.     7147.  8D 26                   - Note Off (10)
  717.    10.     7157.  82 42                   - Note Off ( 9)
  718.    29.     7186.  82 3A                   - Note Off ( 8)
  719.     6.     7192.  80 2A                   - Note Off ( 7)
  720.     0.     7192.  90 2B 7F                - Note On  ( 8)
  721.     8.     7200.  92 36 66                - Note On  ( 9)
  722.     0.     7200.  92 42 6C                - Note On  (10)
  723.     0.     7200.  9D 3C 76                - Note On  (11)
  724.     0.     7200.  9D 32 41                - Note On  (12)
  725.     0.     7200.  9D 39 7A                - Note On  (13)
  726.     0.     7200.  97 43 44                - Note On  (14)
  727.     7.     7207.  91 2D 52                - Note On  (15)
  728.    21.     7228.  81 30                   - Note Off (14)
  729.    40.     7268.  82 42                   - Note Off (13)
  730.    21.     7289.  8D 3C                   - Note Off (12)
  731.     0.     7289.  8D 32                   - Note Off (11)
  732.    16.     7305.  8D 39                   - Note Off (10)
  733.     5.     7310.  9D 32 27                - Note On  (11)
  734.     0.     7310.  9D 3C 5C                - Note On  (12)
  735.     0.     7310.  9D 39 60                - Note On  (13)
  736.     0.     7310.  9D 2D 36                - Note On  (14)
  737.     1.     7311.  8D 32                   - Note Off (13)
  738.     0.     7311.  8D 39                   - Note Off (12)
  739.     9.     7320.  92 38 52                - Note On  (13)
  740.     0.     7320.  92 42 3F                - Note On  (14)
  741.    13.     7333.  80 2B                   - Note Off (13)
  742.     0.     7333.  90 2C 7F                - Note On  (14)
  743.    29.     7362.  8D 3C                   - Note Off (13)
  744.     0.     7362.  8D 2D                   - Note Off (12)
  745.     7.     7369.  82 36                   - Note Off (11)
  746.    10.     7379.  82 42                   - Note Off (10)
  747.    56.     7435.  9D 39 6B                - Note On  (11)
  748.     0.     7435.  9D 32 6B                - Note On  (12)
  749.     5.     7440.  97 48 54                - Note On  (13)
  750.     0.     7440.  92 3A 62                - Note On  (14)
  751.     0.     7440.  92 42 28                - Note On  (15)
  752.     5.     7445.  80 2C                   - Note Off (14)
  753.     0.     7445.  90 2D 7F                - Note On  (15)
  754.     0.     7445.  91 2B 60                - Note On  (16)
  755.     3.     7448.  81 2D                   - Note Off (15)
  756.     1.     7449.  82 38                   - Note Off (14)
  757.    22.     7471.  87 3C                   - Note Off (13)
  758.    41.     7512.  8D 39                   - Note Off (12)
  759.     0.     7512.  8D 32                   - Note Off (11)
  760.     3.     7515.  82 42                   - Note Off (10)
  761.    26.     7541.  87 43                   - Note Off ( 9)
  762.     6.     7547.  9D 3E 7A                - Note On  (10)
  763.     0.     7547.  9D 2D 42                - Note On  (11)
  764.    13.     7560.  97 60 50                - Note On  (12)
  765.     0.     7560.  92 42 4C                - Note On  (13)
  766.     5.     7565.  87 40                   - Note Off (12)
  767.    17.     7582.  B7 40 00                - Damper Pedal
  768.    14.     7596.  8D 2D                   - Note Off (11)
  769.    13.     7609.  87 48                   - Note Off (10)
  770.    15.     7624.  8D 3E                   - Note Off ( 9)
  771.     0.     7624.  82 42                   - Note Off ( 8)
  772.     1.     7625.  82 3A                   - Note Off ( 7)
  773.    55.     7680.  80 2D                   - Note Off ( 6)
  774.     0.     7680.  90 24 7F                - Note On  ( 7)
  775.     0.     7680.  92 36 69                - Note On  ( 8)
  776.     0.     7680.  92 42 54                - Note On  ( 9)
  777.     0.     7680.  91 26 75                - Note On  (10)
  778.     0.     7680.  97 3E 60                - Note On  (11)
  779.     0.     7680.  9D 32 73                - Note On  (12)
  780.     0.     7680.  9D 38 7F                - Note On  (13)
  781.     0.     7680.  9D 3C 7A                - Note On  (14)
  782.     2.     7682.  93 39 4A                - Note On  (15)
  783.     2.     7684.  93 2D 48                - Note On  (16)
  784.     9.     7693.  93 26 48                - Note On  (17)
  785.     4.     7697.  83 37                   - Note Off (16)
  786.     5.     7702.  83 30                   - Note Off (15)
  787.     1.     7703.  83 3B                   - Note Off (14)
  788.     5.     7708.  93 3C 4C                - Note On  (15)
  789.     4.     7712.  83 40                   - Note Off (14)
  790.    15.     7727.  81 2B                   - Note Off (13)
  791.     1.     7728.  93 41 54                - Note On  (14)
  792.    13.     7741.  82 42                   - Note Off (13)
  793.    15.     7756.  87 60                   - Note Off (12)
  794.    44.     7800.  92 38 4C                - Note On  (13)
  795.     0.     7800.  92 42 3C                - Note On  (14)
  796.    19.     7819.  82 36                   - Note Off (13)
  797.    46.     7865.  82 42                   - Note Off (12)
  798.    45.     7910.  81 26                   - Note Off (11)
  799.     0.     7910.  91 30 66                - Note On  (12)
  800.    10.     7920.  92 3A 60                - Note On  (13)
  801.     0.     7920.  92 42 43                - Note On  (14)
  802.     0.     7920.  9D 39 5A                - Note On  (15)
  803.     0.     7920.  97 43 52                - Note On  (16)
  804.     3.     7923.  80 24                   - Note Off (15)
  805.     0.     7923.  90 25 7F                - Note On  (16)
  806.     4.     7927.  8D 38                   - Note Off (15)
  807.    11.     7938.  82 38                   - Note Off (14)
  808.    56.     7994.  82 42                   - Note Off (13)
  809.    15.     8009.  8D 3C                   - Note Off (12)
  810.     4.     8013.  8D 39                   - Note Off (11)
  811.     7.     8020.  8D 32                   - Note Off (10)
  812.    15.     8035.  9D 2D 5A                - Note On  (11)
  813.     5.     8040.  92 42 47                - Note On  (12)
  814.    60.     8100.  8D 2D                   - Note Off (11)
  815.    15.     8115.  82 3A                   - Note Off (10)
  816.     0.     8115.  82 42                   - Note Off ( 9)
  817.    44.     8159.  80 25                   - Note Off ( 8)
  818.     0.     8159.  90 26 7F                - Note On  ( 9)
  819.     1.     8160.  92 36 66                - Note On  (10)
  820.     0.     8160.  92 42 6C                - Note On  (11)
  821.     0.     8160.  9D 39 45                - Note On  (12)
  822.     0.     8160.  9D 3C 73                - Note On  (13)
  823.     0.     8160.  9D 32 7E                - Note On  (14)
  824.     0.     8160.  97 45 57                - Note On  (15)
  825.     2.     8162.  91 31 52                - Note On  (16)
  826.    16.     8178.  81 30                   - Note Off (15)
  827.    56.     8234.  B3 40 7F                - Damper Pedal
  828.     2.     8236.  82 42                   - Note Off (14)
  829.    14.     8250.  8D 39                   - Note Off (13)
  830.    22.     8272.  9D 26 42                - Note On  (14)
  831.     0.     8272.  9D 2D 42                - Note On  (15)
  832.     2.     8274.  8D 3C                   - Note Off (14)
  833.     2.     8276.  8D 32                   - Note Off (13)
  834.     4.     8280.  92 38 4C                - Note On  (14)
  835.     0.     8280.  92 42 42                - Note On  (15)
  836.    14.     8294.  80 26                   - Note Off (14)
  837.     0.     8294.  90 27 7F                - Note On  (15)
  838.    11.     8305.  82 36                   - Note Off (14)
  839.    10.     8315.  8D 2D                   - Note Off (13)
  840.    27.     8342.  8D 26                   - Note Off (12)
  841.     1.     8343.  82 42                   - Note Off (11)
  842.    50.     8393.  82 38                   - Note Off (10)
  843.     2.     8395.  91 32 5A                - Note On  (11)
  844.     5.     8400.  92 3A 68                - Note On  (12)
  845.     0.     8400.  92 42 41                - Note On  (13)
  846.     0.     8400.  97 4A 5D                - Note On  (14)
  847.     2.     8402.  9D 38 66                - Note On  (15)
  848.     0.     8402.  9D 3C 66                - Note On  (16)
  849.     0.     8402.  9D 32 5D                - Note On  (17)
  850.     4.     8406.  80 27                   - Note Off (16)
  851.     0.     8406.  90 28 7F                - Note On  (17)
  852.    19.     8425.  81 31                   - Note Off (16)
  853.    40.     8465.  82 42                   - Note Off (15)
  854.    20.     8485.  8D 38                   - Note Off (14)
  855.    15.     8500.  8D 32                   - Note Off (13)
  856.    12.     8512.  9D 39 78                - Note On  (14)
  857.     7.     8519.  B7 40 7F                - Damper Pedal
  858.     1.     8520.  92 42 55                - Note On  (15)
  859.     6.     8526.  8D 3C                   - Note Off (14)
  860.    16.     8542.  91 26 69                - Note On  (15)
  861.    21.     8563.  81 32                   - Note Off (14)
  862.    30.     8593.  82 42                   - Note Off (13)
  863.    20.     8613.  82 3A                   - Note Off (12)
  864.     9.     8622.  81 26                   - Note Off (11)
  865.     9.     8631.  8D 39                   - Note Off (10)
  866.     6.     8637.  9D 2D 4F                - Note On  (11)
  867.     3.     8640.  92 36 66                - Note On  (12)
  868.     0.     8640.  92 42 46                - Note On  (13)
  869.     3.     8643.  80 28                   - Note Off (12)
  870.     0.     8643.  90 29 7F                - Note On  (13)
  871.    59.     8702.  82 42                   - Note Off (12)
  872.    26.     8728.  8D 2D                   - Note Off (11)
  873.    27.     8755.  9D 32 56                - Note On  (12)
  874.     0.     8755.  9D 39 4F                - Note On  (13)
  875.     0.     8755.  9D 3C 3F                - Note On  (14)
  876.     5.     8760.  92 38 4C                - Note On  (15)
  877.     0.     8760.  92 42 3F                - Note On  (16)
  878.    22.     8782.  91 32 69                - Note On  (17)
  879.    13.     8795.  82 36                   - Note Off (16)
  880.    52.     8847.  8D 39                   - Note Off (15)
  881.    11.     8858.  8D 32                   - Note Off (14)
  882.    10.     8868.  8D 3C                   - Note Off (13)
  883.     1.     8869.  82 38                   - Note Off (12)
  884.     9.     8878.  81 32                   - Note Off (11)
  885.     2.     8880.  92 3A 58                - Note On  (12)
  886.     1.     8881.  80 29                   - Note Off (11)
  887.     0.     8881.  90 2A 7F                - Note On  (12)
  888.     1.     8882.  91 30 63                - Note On  (13)
  889.    10.     8892.  82 42                   - Note Off (12)
  890.    62.     8954.  B7 01 0A                - Pitch Modulation Depth
  891.    13.     8967.  B7 01 16                - Pitch Modulation Depth
  892.    17.     8984.  B7 01 1F                - Pitch Modulation Depth
  893.    11.     8995.  9D 26 32                - Note On  (13)
  894.     0.     8995.  9D 2D 36                - Note On  (14)
  895.     3.     8998.  B7 01 27                - Pitch Modulation Depth
  896.     2.     9000.  92 42 48                - Note On  (15)
  897.    15.     9015.  B7 01 2E                - Pitch Modulation Depth
  898.    13.     9028.  B7 01 35                - Pitch Modulation Depth
  899.     5.     9033.  8D 2D                   - Note Off (14)
  900.    13.     9046.  B7 01 3D                - Pitch Modulation Depth
  901.    12.     9058.  B7 01 44                - Pitch Modulation Depth
  902.    14.     9072.  8D 26                   - Note Off (13)
  903.     4.     9076.  B7 01 49                - Pitch Modulation Depth
  904.     1.     9077.  82 42                   - Note Off (12)
  905.    13.     9090.  B7 01 4E                - Pitch Modulation Depth
  906.    13.     9103.  82 3A                   - Note Off (11)
  907.     9.     9112.  80 2A                   - Note Off (10)
  908.     0.     9112.  90 2B 7F                - Note On  (11)
  909.     8.     9120.  92 36 69                - Note On  (12)
  910.     0.     9120.  92 42 6C                - Note On  (13)
  911.     0.     9120.  B7 01 55                - Pitch Modulation Depth
  912.     2.     9122.  9D 3C 76                - Note On  (14)
  913.     0.     9122.  9D 32 41                - Note On  (15)
  914.     0.     9122.  9D 38 7A                - Note On  (16)
  915.    29.     9151.  B7 01 59                - Pitch Modulation Depth
  916.    31.     9182.  B7 01 5D                - Pitch Modulation Depth
  917.     6.     9188.  82 42                   - Note Off (15)
  918.    24.     9212.  B7 01 63                - Pitch Modulation Depth
  919.    14.     9226.  87 4A                   - Note Off (14)
  920.     9.     9235.  9D 2D 36                - Note On  (15)
  921.     1.     9236.  87 3E                   - Note Off (14)
  922.     4.     9240.  92 38 4C                - Note On  (15)
  923.     0.     9240.  92 42 3F                - Note On  (16)
  924.     4.     9244.  B7 01 6A                - Pitch Modulation Depth
  925.     5.     9249.  87 43                   - Note Off (15)
  926.     4.     9253.  80 2B                   - Note Off (14)
  927.     0.     9253.  90 2C 7F                - Note On  (15)
  928.     2.     9255.  87 45                   - Note Off (14)
  929.    32.     9287.  8D 2D                   - Note Off (13)
  930.     1.     9288.  82 36                   - Note Off (12)
  931.     3.     9291.  B7 01 72                - Pitch Modulation Depth
  932.     8.     9299.  82 42                   - Note Off (11)
  933.     6.     9305.  B7 01 77                - Pitch Modulation Depth
  934.    17.     9322.  B7 01 7B                - Pitch Modulation Depth
  935.    25.     9347.  8D 38                   - Note Off (10)
  936.     6.     9353.  B7 01 7F                - Pitch Modulation Depth
  937.     1.     9354.  8D 3C                   - Note Off ( 9)
  938.     6.     9360.  92 3A 64                - Note On  (10)
  939.     0.     9360.  92 42 28                - Note On  (11)
  940.     0.     9360.  97 60 48                - Note On  (12)
  941.     4.     9364.  82 38                   - Note Off (11)
  942.     1.     9365.  80 2C                   - Note Off (10)
  943.     0.     9365.  90 2D 7F                - Note On  (11)
  944.     0.     9365.  9D 39 5C                - Note On  (12)
  945.    54.     9419.  8D 32                   - Note Off (11)
  946.    16.     9435.  82 42                   - Note Off (10)
  947.     7.     9442.  8D 39                   - Note Off ( 9)
  948.    28.     9470.  9D 2D 42                - Note On  (10)
  949.    10.     9480.  92 42 4C                - Note On  (11)
  950.    39.     9519.  8D 2D                   - Note Off (10)
  951.    17.     9536.  87 60                   - Note Off ( 9)
  952.     8.     9544.  82 42                   - Note Off ( 8)
  953.     6.     9550.  B7 01 7C                - Pitch Modulation Depth
  954.    18.     9568.  B7 01 64                - Pitch Modulation Depth
  955.     1.     9569.  82 3A                   - Note Off ( 7)
  956.    12.     9581.  B7 01 2D                - Pitch Modulation Depth
  957.    15.     9596.  B7 01 00                - Pitch Modulation Depth
  958.     4.     9600.  80 2D                   - Note Off ( 6)
  959.     0.     9600.  90 24 7F                - Note On  ( 7)
  960.     0.     9600.  92 36 66                - Note On  ( 8)
  961.     0.     9600.  92 42 54                - Note On  ( 9)
  962.     0.     9600.  97 37 5A                - Note On  (10)
  963.     7.     9607.  9D 32 73                - Note On  (11)
  964.     0.     9607.  9D 38 7F                - Note On  (12)
  965.     0.     9607.  9D 3C 7A                - Note On  (13)
  966.     0.     9607.  91 26 75                - Note On  (14)
  967.    21.     9628.  81 30                   - Note Off (13)
  968.    33.     9661.  82 42                   - Note Off (12)
  969.    41.     9702.  B7 40 00                - Damper Pedal
  970.    18.     9720.  92 38 50                - Note On  (13)
  971.     0.     9720.  92 42 3C                - Note On  (14)
  972.    28.     9748.  82 36                   - Note Off (13)
  973.    37.     9785.  82 42                   - Note Off (12)
  974.    50.     9835.  81 26                   - Note Off (11)
  975.     2.     9837.  91 30 54                - Note On  (12)
  976.     1.     9838.  82 38                   - Note Off (11)
  977.     2.     9840.  92 3A 64                - Note On  (12)
  978.     0.     9840.  92 42 43                - Note On  (13)
  979.     0.     9840.  97 41 4C                - Note On  (14)
  980.     3.     9843.  80 24                   - Note Off (13)
  981.     0.     9843.  90 25 7F                - Note On  (14)
  982.     2.     9845.  9D 39 5A                - Note On  (15)
  983.     9.     9854.  8D 38                   - Note Off (14)
  984.    47.     9901.  B7 40 7F                - Damper Pedal
  985.    13.     9914.  82 42                   - Note Off (13)
  986.    22.     9936.  8D 3C                   - Note Off (12)
  987.     2.     9938.  8D 39                   - Note Off (11)
  988.     9.     9947.  8D 32                   - Note Off (10)
  989.     8.     9955.  9D 2D 5A                - Note On  (11)
  990.     5.     9960.  92 42 47                - Note On  (12)
  991.    60.    10020.  8D 2D                   - Note Off (11)
  992.    15.    10035.  82 42                   - Note Off (10)
  993.     1.    10036.  82 3A                   - Note Off ( 9)
  994.    42.    10078.  9D 39 45                - Note On  (10)
  995.     0.    10078.  9D 3C 73                - Note On  (11)
  996.     0.    10078.  9D 32 7E                - Note On  (12)
  997.     1.    10079.  80 25                   - Note Off (11)
  998.     0.    10079.  90 26 7F                - Note On  (12)
  999.     1.    10080.  92 36 69                - Note On  (13)
 1000.     0.    10080.  92 42 6C                - Note On  (14)
 1001.     0.    10080.  97 43 52                - Note On  (15)
 1002.    10.    10090.  91 31 4E                - Note On  (16)
 1003.    66.    10156.  82 42                   - Note Off (15)
 1004.     8.    10164.  81 30                   - Note Off (14)
 1005.     4.    10168.  8D 39                   - Note Off (13)
 1006.    24.    10192.  8D 3C                   - Note Off (12)
 1007.     2.    10194.  8D 32                   - Note Off (11)
 1008.     1.    10195.  9D 26 42                - Note On  (12)
 1009.     0.    10195.  9D 2D 42                - Note On  (13)
 1010.     5.    10200.  92 38 50                - Note On  (14)
 1011.     0.    10200.  92 42 42                - Note On  (15)
 1012.    14.    10214.  80 26                   - Note Off (14)
 1013.     0.    10214.  90 27 7F                - Note On  (15)
 1014.     8.    10222.  82 36                   - Note Off (14)
 1015.    16.    10238.  8D 2D                   - Note Off (13)
 1016.    25.    10263.  82 42                   - Note Off (12)
 1017.     2.    10265.  8D 26                   - Note Off (11)
 1018.    43.    10308.  82 38                   - Note Off (10)
 1019.    12.    10320.  92 3A 64                - Note On  (11)
 1020.     0.    10320.  92 42 41                - Note On  (12)
 1021.     0.    10320.  97 48 57                - Note On  (13)
 1022.     2.    10322.  9D 38 66                - Note On  (14)
 1023.     0.    10322.  9D 3C 66                - Note On  (15)
 1024.     0.    10322.  9D 32 5D                - Note On  (16)
 1025.     0.    10322.  91 32 57                - Note On  (17)
 1026.     4.    10326.  80 27                   - Note Off (16)
 1027.     0.    10326.  90 28 7F                - Note On  (17)
 1028.    14.    10340.  81 31                   - Note Off (16)
 1029.    34.    10374.  87 43                   - Note Off (15)
 1030.    11.    10385.  82 42                   - Note Off (14)
 1031.    20.    10405.  8D 38                   - Note Off (13)
 1032.    12.    10417.  87 37                   - Note Off (12)
 1033.     1.    10418.  87 41                   - Note Off (11)
 1034.     2.    10420.  8D 32                   - Note Off (10)
 1035.    15.    10435.  9D 39 78                - Note On  (11)
 1036.     5.    10440.  92 42 55                - Note On  (12)
 1037.     4.    10444.  83 39                   - Note Off (11)
 1038.     2.    10446.  8D 3C                   - Note Off (10)
 1039.    16.    10462.  83 2D                   - Note Off ( 9)
 1040.     8.    10470.  91 2D 63                - Note On  (10)
 1041.     3.    10473.  83 41                   - Note Off ( 9)
 1042.     1.    10474.  83 3C                   - Note Off ( 8)
 1043.    14.    10488.  81 32                   - Note Off ( 7)
 1044.    17.    10505.  83 26                   - Note Off ( 6)
 1045.     8.    10513.  82 42                   - Note Off ( 5)
 1046.    20.    10533.  82 3A                   - Note Off ( 4)
 1047.     2.    10535.  87 48                   - Note Off ( 3)
 1048.     1.    10536.  93 39 48                - Note On  ( 4)
 1049.     7.    10543.  81 2D                   - Note Off ( 3)
 1050.     7.    10550.  93 2B 48                - Note On  ( 4)
 1051.     4.    10554.  8D 39                   - Note Off ( 3)
 1052.     5.    10559.  93 3C 57                - Note On  ( 4)
 1053.     1.    10560.  92 42 46                - Note On  ( 5)
 1054.     0.    10560.  92 36 69                - Note On  ( 6)
 1055.     0.    10560.  9D 2D 4F                - Note On  ( 7)
 1056.     0.    10560.  97 3C 5D                - Note On  ( 8)
 1057.     3.    10563.  80 28                   - Note Off ( 7)
 1058.     0.    10563.  90 29 7F                - Note On  ( 8)
 1059.    25.    10588.  93 43 4C                - Note On  ( 9)
 1060.    12.    10600.  B3 40 00                - Damper Pedal
 1061.    22.    10622.  82 42                   - Note Off ( 8)
 1062.    29.    10651.  8D 2D                   - Note Off ( 7)
 1063.    29.    10680.  92 38 50                - Note On  ( 8)
 1064.     0.    10680.  92 42 3F                - Note On  ( 9)
 1065.     0.    10680.  9D 32 56                - Note On  (10)
 1066.     0.    10680.  9D 39 4F                - Note On  (11)
 1067.     0.    10680.  9D 3C 3F                - Note On  (12)
 1068.    19.    10699.  B7 40 00                - Damper Pedal
 1069.     7.    10706.  82 36                   - Note Off (11)
 1070.     1.    10707.  91 2D 54                - Note On  (12)
 1071.    65.    10772.  8D 39                   - Note Off (11)
 1072.    11.    10783.  8D 32                   - Note Off (10)
 1073.    10.    10793.  8D 3C                   - Note Off ( 9)
 1074.     1.    10794.  81 2D                   - Note Off ( 8)
 1075.     6.    10800.  92 3A 64                - Note On  ( 9)
 1076.     0.    10800.  97 40 52                - Note On  (10)
 1077.     1.    10801.  80 29                   - Note Off ( 9)
 1078.     0.    10801.  90 2A 7F                - Note On  (10)
 1079.     5.    10806.  82 38                   - Note Off ( 9)
 1080.     1.    10807.  91 2B 57                - Note On  (10)
 1081.     5.    10812.  82 42                   - Note Off ( 9)
 1082.     3.    10815.  B3 40 7F                - Damper Pedal
 1083.    85.    10900.  B7 40 7F                - Damper Pedal
 1084.    10.    10910.  9D 26 32                - Note On  (10)
 1085.     0.    10910.  9D 2D 36                - Note On  (11)
 1086.    10.    10920.  92 42 48                - Note On  (12)
 1087.    28.    10948.  8D 2D                   - Note Off (11)
 1088.    39.    10987.  8D 26                   - Note Off (10)
 1089.    10.    10997.  82 42                   - Note Off ( 9)
 1090.     8.    11005.  82 3A                   - Note Off ( 8)
 1091.    27.    11032.  80 2A                   - Note Off ( 7)
 1092.     0.    11032.  90 2B 7F                - Note On  ( 8)
 1093.     8.    11040.  92 36 69                - Note On  ( 9)
 1094.     0.    11040.  92 42 6C                - Note On  (10)
 1095.     0.    11040.  9D 3C 76                - Note On  (11)
 1096.     0.    11040.  9D 32 41                - Note On  (12)
 1097.     0.    11040.  9D 38 7A                - Note On  (13)
 1098.     0.    11040.  97 43 44                - Note On  (14)
 1099.    68.    11108.  82 42                   - Note Off (13)
 1100.    42.    11150.  9D 2D 36                - Note On  (14)
 1101.    10.    11160.  92 38 4E                - Note On  (15)
 1102.     0.    11160.  92 42 3F                - Note On  (16)
 1103.    13.    11173.  80 2B                   - Note Off (15)
 1104.     0.    11173.  90 2C 7F                - Note On  (16)
 1105.    22.    11195.  82 36                   - Note Off (15)
 1106.     7.    11202.  8D 2D                   - Note Off (14)
 1107.    17.    11219.  82 42                   - Note Off (13)
 1108.    46.    11265.  8D 38                   - Note Off (12)
 1109.     5.    11270.  82 38                   - Note Off (11)
 1110.     2.    11272.  8D 3C                   - Note Off (10)
 1111.     3.    11275.  9D 39 5C                - Note On  (11)
 1112.     5.    11280.  97 48 54                - Note On  (12)
 1113.     0.    11280.  97 60 52                - Note On  (13)
 1114.     0.    11280.  92 3A 68                - Note On  (14)
 1115.     0.    11280.  92 42 28                - Note On  (15)
 1116.     5.    11285.  80 2C                   - Note Off (14)
 1117.     0.    11285.  90 2D 7F                - Note On  (15)
 1118.    26.    11311.  87 3C                   - Note Off (14)
 1119.    26.    11337.  8D 32                   - Note Off (13)
 1120.    15.    11352.  8D 39                   - Note Off (12)
 1121.     3.    11355.  82 42                   - Note Off (11)
 1122.    26.    11381.  87 43                   - Note Off (10)
 1123.     6.    11387.  9D 2D 42                - Note On  (11)
 1124.    13.    11400.  92 42 4C                - Note On  (12)
 1125.     5.    11405.  87 40                   - Note Off (11)
 1126.     4.    11409.  83 43                   - Note Off (10)
 1127.    13.    11422.  B7 40 00                - Damper Pedal
 1128.    14.    11436.  8D 2D                   - Note Off ( 9)
 1129.    12.    11448.  83 3C                   - Note Off ( 8)
 1130.     1.    11449.  87 48                   - Note Off ( 7)
 1131.    12.    11461.  83 39                   - Note Off ( 6)
 1132.     3.    11464.  87 60                   - Note Off ( 5)
 1133.     0.    11464.  82 42                   - Note Off ( 4)
 1134.    18.    11482.  83 2B                   - Note Off ( 3)
 1135.    11.    11493.  93 2D 44                - Note On  ( 4)
 1136.     5.    11498.  93 39 4A                - Note On  ( 5)
 1137.     6.    11504.  82 3A                   - Note Off ( 4)
 1138.     1.    11505.  B3 40 00                - Damper Pedal
 1139.     4.    11509.  93 26 2D                - Note On  ( 5)
 1140.     6.    11515.  93 3C 54                - Note On  ( 6)
 1141.     5.    11520.  80 2D                   - Note Off ( 5)
 1142.     0.    11520.  90 24 7F                - Note On  ( 6)
 1143.     0.    11520.  92 36 66                - Note On  ( 7)
 1144.     0.    11520.  92 42 54                - Note On  ( 8)
 1145.     0.    11520.  91 26 72                - Note On  ( 9)
 1146.     0.    11520.  97 3E 60                - Note On  (10)
 1147.     0.    11520.  9D 32 73                - Note On  (11)
 1148.     0.    11520.  9D 38 7F                - Note On  (12)
 1149.     0.    11520.  9D 3C 7A                - Note On  (13)
 1150.    12.    11532.  93 41 5D                - Note On  (14)
 1151.    29.    11561.  81 2B                   - Note Off (13)
 1152.    20.    11581.  82 42                   - Note Off (12)
 1153.    59.    11640.  92 38 50                - Note On  (13)
 1154.     0.    11640.  92 42 3C                - Note On  (14)
 1155.    40.    11680.  82 36                   - Note Off (13)
 1156.    25.    11705.  82 42                   - Note Off (12)
 1157.    45.    11750.  91 30 60                - Note On  (13)
 1158.     5.    11755.  82 38                   - Note Off (12)
 1159.     5.    11760.  92 3A 62                - Note On  (13)
 1160.     0.    11760.  92 42 43                - Note On  (14)
 1161.     0.    11760.  9D 39 5A                - Note On  (15)
 1162.     0.    11760.  97 43 52                - Note On  (16)
 1163.     3.    11763.  80 24                   - Note Off (15)
 1164.     0.    11763.  90 25 7F                - Note On  (16)
 1165.     2.    11765.  81 26                   - Note Off (15)
 1166.     2.    11767.  8D 38                   - Note Off (14)
 1167.    67.    11834.  82 42                   - Note Off (13)
 1168.    15.    11849.  8D 3C                   - Note Off (12)
 1169.     4.    11853.  8D 39                   - Note Off (11)
 1170.     7.    11860.  8D 32                   - Note Off (10)
 1171.    15.    11875.  9D 2D 5A                - Note On  (11)
 1172.     5.    11880.  92 42 47                - Note On  (12)
 1173.     9.    11889.  B3 40 7F                - Damper Pedal
 1174.    51.    11940.  8D 2D                   - Note Off (11)
 1175.    15.    11955.  82 42                   - Note Off (10)
 1176.    31.    11986.  82 3A                   - Note Off ( 9)
 1177.    13.    11999.  80 25                   - Note Off ( 8)
 1178.     0.    11999.  90 26 7F                - Note On  ( 9)
 1179.     1.    12000.  92 36 66                - Note On  (10)
 1180.     0.    12000.  92 42 6C                - Note On  (11)
 1181.     0.    12000.  9D 39 45                - Note On  (12)
 1182.     0.    12000.  9D 3C 73                - Note On  (13)
 1183.     0.    12000.  9D 32 7E                - Note On  (14)
 1184.     0.    12000.  97 45 57                - Note On  (15)
 1185.     2.    12002.  91 31 4A                - Note On  (16)
 1186.    28.    12030.  81 30                   - Note Off (15)
 1187.    46.    12076.  82 42                   - Note Off (14)
 1188.    14.    12090.  8D 39                   - Note Off (13)
 1189.    22.    12112.  9D 26 42                - Note On  (14)
 1190.     0.    12112.  9D 2D 42                - Note On  (15)
 1191.     2.    12114.  8D 3C                   - Note Off (14)
 1192.     2.    12116.  8D 32                   - Note Off (13)
 1193.     4.    12120.  92 38 4C                - Note On  (14)
 1194.     0.    12120.  92 42 42                - Note On  (15)
 1195.    14.    12134.  80 26                   - Note Off (14)
 1196.     0.    12134.  90 27 7F                - Note On  (15)
 1197.    20.    12154.  82 36                   - Note Off (14)
 1198.     1.    12155.  8D 2D                   - Note Off (13)
 1199.    27.    12182.  8D 26                   - Note Off (12)
 1200.     1.    12183.  82 42                   - Note Off (11)
 1201.    52.    12235.  91 32 50                - Note On  (12)
 1202.     4.    12239.  81 31                   - Note Off (11)
 1203.     1.    12240.  92 3A 5B                - Note On  (12)
 1204.     0.    12240.  92 42 41                - Note On  (13)
 1205.     0.    12240.  97 4A 5D                - Note On  (14)
 1206.     2.    12242.  9D 38 66                - Note On  (15)
 1207.     0.    12242.  9D 3C 66                - Note On  (16)
 1208.     0.    12242.  9D 32 5D                - Note On  (17)
 1209.     4.    12246.  80 27                   - Note Off (16)
 1210.     0.    12246.  90 28 7F                - Note On  (17)
 1211.     1.    12247.  82 38                   - Note Off (16)
 1212.    58.    12305.  82 42                   - Note Off (15)
 1213.    20.    12325.  8D 38                   - Note Off (14)
 1214.    15.    12340.  8D 32                   - Note Off (13)
 1215.    12.    12352.  9D 39 78                - Note On  (14)
 1216.     7.    12359.  B7 40 7F                - Damper Pedal
 1217.     1.    12360.  92 42 55                - Note On  (15)
 1218.     6.    12366.  8D 3C                   - Note Off (14)
 1219.    19.    12385.  91 26 66                - Note On  (15)
 1220.    21.    12406.  81 32                   - Note Off (14)
 1221.    27.    12433.  82 42                   - Note Off (13)
 1222.    21.    12454.  81 26                   - Note Off (12)
 1223.    16.    12470.  82 3A                   - Note Off (11)
 1224.     1.    12471.  8D 39                   - Note Off (10)
 1225.     6.    12477.  9D 2D 4F                - Note On  (11)
 1226.     3.    12480.  92 36 66                - Note On  (12)
 1227.     0.    12480.  92 42 46                - Note On  (13)
 1228.     3.    12483.  80 28                   - Note Off (12)
 1229.     0.    12483.  90 29 7F                - Note On  (13)
 1230.    59.    12542.  82 42                   - Note Off (12)
 1231.    26.    12568.  8D 2D                   - Note Off (11)
 1232.    27.    12595.  9D 32 56                - Note On  (12)
 1233.     0.    12595.  9D 39 4F                - Note On  (13)
 1234.     0.    12595.  9D 3C 3F                - Note On  (14)
 1235.     5.    12600.  92 38 4A                - Note On  (15)
 1236.     0.    12600.  92 42 3F                - Note On  (16)
 1237.    27.    12627.  91 32 60                - Note On  (17)
 1238.    26.    12653.  82 36                   - Note Off (16)
 1239.    34.    12687.  8D 39                   - Note Off (15)
 1240.    11.    12698.  8D 32                   - Note Off (14)
 1241.    10.    12708.  8D 3C                   - Note Off (13)
 1242.     7.    12715.  81 32                   - Note Off (12)
 1243.     5.    12720.  92 3A 60                - Note On  (13)
 1244.     1.    12721.  80 29                   - Note Off (12)
 1245.     0.    12721.  90 2A 7F                - Note On  (13)
 1246.     1.    12722.  91 30 5A                - Note On  (14)
 1247.     7.    12729.  82 38                   - Note Off (13)
 1248.     3.    12732.  82 42                   - Note Off (12)
 1249.    61.    12793.  B7 01 05                - Pitch Modulation Depth
 1250.    13.    12806.  B7 01 0E                - Pitch Modulation Depth
 1251.    18.    12824.  B7 01 16                - Pitch Modulation Depth
 1252.    11.    12835.  9D 26 32                - Note On  (13)
 1253.     0.    12835.  9D 2D 36                - Note On  (14)
 1254.     2.    12837.  B7 01 1D                - Pitch Modulation Depth
 1255.     3.    12840.  92 42 48                - Note On  (15)
 1256.    12.    12852.  B7 01 25                - Pitch Modulation Depth
 1257.    17.    12869.  B7 01 2C                - Pitch Modulation Depth
 1258.     4.    12873.  8D 2D                   - Note Off (14)
 1259.    13.    12886.  B7 01 33                - Pitch Modulation Depth
 1260.    13.    12899.  B7 01 3D                - Pitch Modulation Depth
 1261.    13.    12912.  8D 26                   - Note Off (13)
 1262.     4.    12916.  B7 01 44                - Pitch Modulation Depth
 1263.     1.    12917.  82 42                   - Note Off (12)
 1264.    12.    12929.  B7 01 4B                - Pitch Modulation Depth
 1265.     2.    12931.  82 3A                   - Note Off (11)
 1266.    16.    12947.  B7 01 53                - Pitch Modulation Depth
 1267.     5.    12952.  80 2A                   - Note Off (10)
 1268.     0.    12952.  90 2B 7F                - Note On  (11)
 1269.     8.    12960.  92 36 66                - Note On  (12)
 1270.     0.    12960.  92 42 6C                - Note On  (13)
 1271.     0.    12960.  B7 01 57                - Pitch Modulation Depth
 1272.     2.    12962.  9D 3C 76                - Note On  (14)
 1273.     0.    12962.  9D 32 41                - Note On  (15)
 1274.     0.    12962.  9D 38 7A                - Note On  (16)
 1275.    16.    12978.  B7 01 5C                - Pitch Modulation Depth
 1276.    13.    12991.  B7 01 61                - Pitch Modulation Depth
 1277.    17.    13008.  B7 01 68                - Pitch Modulation Depth
 1278.    13.    13021.  B7 01 6D                - Pitch Modulation Depth
 1279.     7.    13028.  82 42                   - Note Off (15)
 1280.    11.    13039.  B7 01 71                - Pitch Modulation Depth
 1281.    27.    13066.  87 4A                   - Note Off (14)
 1282.     4.    13070.  B7 01 78                - Pitch Modulation Depth
 1283.     5.    13075.  9D 2D 36                - Note On  (15)
 1284.     1.    13076.  87 3E                   - Note Off (14)
 1285.     4.    13080.  92 38 4E                - Note On  (15)
 1286.     0.    13080.  92 42 3F                - Note On  (16)
 1287.     9.    13089.  87 43                   - Note Off (15)
 1288.     4.    13093.  80 2B                   - Note Off (14)
 1289.     0.    13093.  90 2C 7F                - Note On  (15)
 1290.     2.    13095.  87 45                   - Note Off (14)
 1291.     6.    13101.  B7 01 7F                - Pitch Modulation Depth
 1292.    21.    13122.  82 36                   - Note Off (13)
 1293.     5.    13127.  8D 2D                   - Note Off (12)
 1294.    12.    13139.  82 42                   - Note Off (11)
 1295.    48.    13187.  8D 38                   - Note Off (10)
 1296.     7.    13194.  8D 3C                   - Note Off ( 9)
 1297.     6.    13200.  92 3A 62                - Note On  (10)
 1298.     0.    13200.  92 42 28                - Note On  (11)
 1299.     0.    13200.  97 60 48                - Note On  (12)
 1300.     2.    13202.  81 30                   - Note Off (11)
 1301.     3.    13205.  80 2C                   - Note Off (10)
 1302.     0.    13205.  90 2D 7F                - Note On  (11)
 1303.     0.    13205.  91 30 69                - Note On  (12)
 1304.     0.    13205.  9D 39 5C                - Note On  (13)
 1305.     4.    13209.  82 38                   - Note Off (12)
 1306.    50.    13259.  8D 32                   - Note Off (11)
 1307.    16.    13275.  82 42                   - Note Off (10)
 1308.     7.    13282.  8D 39                   - Note Off ( 9)
 1309.    28.    13310.  9D 2D 42                - Note On  (10)
 1310.    10.    13320.  92 42 4C                - Note On  (11)
 1311.    27.    13347.  B7 01 4B                - Pitch Modulation Depth
 1312.    12.    13359.  8D 2D                   - Note Off (10)
 1313.     0.    13359.  B7 01 00                - Pitch Modulation Depth
 1314.    17.    13376.  87 60                   - Note Off ( 9)
 1315.     8.    13384.  82 42                   - Note Off ( 8)
 1316.    27.    13411.  82 3A                   - Note Off ( 7)
 1317.    29.    13440.  81 30                   - Note Off ( 6)
 1318.     0.    13440.  80 2D                   - Note Off ( 5)
 1319.     0.    13440.  90 24 7F                - Note On  ( 6)
 1320.     0.    13440.  92 36 60                - Note On  ( 7)
 1321.     0.    13440.  92 42 54                - Note On  ( 8)
 1322.     0.    13440.  97 37 5A                - Note On  ( 9)
 1323.     7.    13447.  9D 32 6B                - Note On  (10)
 1324.     0.    13447.  9D 38 40                - Note On  (11)
 1325.     0.    13447.  9D 3C 7F                - Note On  (12)
 1326.     0.    13447.  91 26 72                - Note On  (13)
 1327.    54.    13501.  82 42                   - Note Off (12)
 1328.    41.    13542.  B7 40 00                - Damper Pedal
 1329.    18.    13560.  92 38 52                - Note On  (13)
 1330.     0.    13560.  92 42 3C                - Note On  (14)
 1331.    27.    13587.  82 36                   - Note Off (13)
 1332.    38.    13625.  82 42                   - Note Off (12)
 1333.    40.    13665.  8D 38                   - Note Off (11)
 1334.    12.    13677.  91 30 69                - Note On  (12)
 1335.     3.    13680.  92 3A 60                - Note On  (13)
 1336.     0.    13680.  92 42 43                - Note On  (14)
 1337.     0.    13680.  97 41 4C                - Note On  (15)
 1338.     3.    13683.  80 24                   - Note Off (14)
 1339.     0.    13683.  90 25 7F                - Note On  (15)
 1340.     2.    13685.  9D 39 43                - Note On  (16)
 1341.     1.    13686.  81 26                   - Note Off (15)
 1342.     2.    13688.  82 38                   - Note Off (14)
 1343.    53.    13741.  B7 40 7F                - Damper Pedal
 1344.    13.    13754.  82 42                   - Note Off (13)
 1345.    37.    13791.  8D 32                   - Note Off (12)
 1346.     1.    13792.  8D 3C                   - Note Off (11)
 1347.     3.    13795.  9D 2D 5A                - Note On  (12)
 1348.     3.    13798.  8D 39                   - Note Off (11)
 1349.     2.    13800.  92 42 47                - Note On  (12)
 1350.    60.    13860.  8D 2D                   - Note Off (11)
 1351.    15.    13875.  82 42                   - Note Off (10)
 1352.     5.    13880.  82 3A                   - Note Off ( 9)
 1353.    38.    13918.  9D 32 4D                - Note On  (10)
 1354.     0.    13918.  9D 39 55                - Note On  (11)
 1355.     0.    13918.  9D 3C 57                - Note On  (12)
 1356.     1.    13919.  80 25                   - Note Off (11)
 1357.     0.    13919.  90 26 7F                - Note On  (12)
 1358.     1.    13920.  92 36 66                - Note On  (13)
 1359.     0.    13920.  92 42 6C                - Note On  (14)
 1360.     0.    13920.  97 43 52                - Note On  (15)
 1361.    10.    13930.  91 31 50                - Note On  (16)
 1362.    18.    13948.  81 30                   - Note Off (15)
 1363.    48.    13996.  82 42                   - Note Off (14)
 1364.     3.    13999.  8D 39                   - Note Off (13)
 1365.    23.    14022.  8D 32                   - Note Off (12)
 1366.    13.    14035.  9D 26 2D                - Note On  (13)
 1367.     0.    14035.  9D 2D 2D                - Note On  (14)
 1368.     5.    14040.  8D 3C                   - Note Off (13)
 1369.     0.    14040.  92 38 4A                - Note On  (14)
 1370.     0.    14040.  92 42 42                - Note On  (15)
 1371.    14.    14054.  80 26                   - Note Off (14)
 1372.     0.    14054.  90 27 7F                - Note On  (15)
 1373.     6.    14060.  82 36                   - Note Off (14)
 1374.     8.    14068.  8D 2D                   - Note Off (13)
 1375.    30.    14098.  8D 26                   - Note Off (12)
 1376.     5.    14103.  82 42                   - Note Off (11)
 1377.    57.    14160.  92 3A 62                - Note On  (12)
 1378.     0.    14160.  92 42 41                - Note On  (13)
 1379.     0.    14160.  97 48 57                - Note On  (14)
 1380.     2.    14162.  9D 47 5F                - Note On  (15)
 1381.     0.    14162.  9D 42 74                - Note On  (16)
 1382.     0.    14162.  91 32 54                - Note On  (17)
 1383.     3.    14165.  82 38                   - Note Off (16)
 1384.     1.    14166.  80 27                   - Note Off (15)
 1385.     0.    14166.  90 28 7F                - Note On  (16)
 1386.    19.    14185.  81 31                   - Note Off (15)
 1387.    29.    14214.  87 43                   - Note Off (14)
 1388.    11.    14225.  82 42                   - Note Off (13)
 1389.    32.    14257.  87 37                   - Note Off (12)
 1390.     1.    14258.  87 41                   - Note Off (11)
 1391.    17.    14275.  9D 43 42                - Note On  (12)
 1392.     0.    14275.  9D 48 58                - Note On  (13)
 1393.     5.    14280.  92 42 55                - Note On  (14)
 1394.     7.    14287.  83 39                   - Note Off (13)
 1395.     3.    14290.  83 3C                   - Note Off (12)
 1396.     6.    14296.  81 32                   - Note Off (11)
 1397.    14.    14310.  91 32 69                - Note On  (12)
 1398.     9.    14319.  8D 42                   - Note Off (11)
 1399.    11.    14330.  83 41                   - Note Off (10)
 1400.    10.    14340.  8D 47                   - Note Off ( 9)
 1401.    13.    14353.  82 42                   - Note Off ( 8)
 1402.     3.    14356.  82 3A                   - Note Off ( 7)
 1403.     3.    14359.  83 2D                   - Note Off ( 6)
 1404.     0.    14359.  8D 48                   - Note Off ( 5)
 1405.     5.    14364.  83 26                   - Note Off ( 4)
 1406.    11.    14375.  87 48                   - Note Off ( 3)
 1407.     2.    14377.  8D 43                   - Note Off ( 2)
 1408.     0.    14377.  93 30 63                - Note On  ( 3)
 1409.     0.    14377.  B3 40 00                - Damper Pedal
 1410.    23.    14400.  92 42 46                - Note On  ( 4)
 1411.     0.    14400.  92 36 66                - Note On  ( 5)
 1412.     0.    14400.  97 3C 5D                - Note On  ( 6)
 1413.     2.    14402.  93 37 52                - Note On  ( 7)
 1414.     1.    14403.  80 28                   - Note Off ( 6)
 1415.     0.    14403.  90 29 7F                - Note On  ( 7)
 1416.     6.    14409.  93 3B 52                - Note On  ( 8)
 1417.    16.    14425.  93 40 50                - Note On  ( 9)
 1418.    37.    14462.  82 42                   - Note Off ( 8)
 1419.    17.    14479.  81 32                   - Note Off ( 7)
 1420.    41.    14520.  92 38 52                - Note On  ( 8)
 1421.     0.    14520.  92 42 3F                - Note On  ( 9)
 1422.     0.    14520.  9D 48 3F                - Note On  (10)
 1423.     0.    14520.  9D 43 72                - Note On  (11)
 1424.     0.    14520.  9D 4C 66                - Note On  (12)
 1425.    19.    14539.  B7 40 00                - Damper Pedal
 1426.     8.    14547.  91 35 57                - Note On  (13)
 1427.    30.    14577.  8D 4C                   - Note Off (12)
 1428.     8.    14585.  82 36                   - Note Off (11)
 1429.    25.    14610.  8D 43                   - Note Off (10)
 1430.    24.    14634.  8D 48                   - Note Off ( 9)
 1431.     6.    14640.  92 3A 58                - Note On  (10)
 1432.     0.    14640.  97 40 52                - Note On  (11)
 1433.     1.    14641.  80 29                   - Note Off (10)
 1434.     0.    14641.  90 2A 7F                - Note On  (11)
 1435.     4.    14645.  9D 43 70                - Note On  (12)
 1436.     0.    14645.  9D 3C 70                - Note On  (13)
 1437.     2.    14647.  91 37 50                - Note On  (14)
 1438.     5.    14652.  82 42                   - Note Off (13)
 1439.    16.    14668.  82 38                   - Note Off (12)
 1440.     1.    14669.  B3 40 7F                - Damper Pedal
 1441.     8.    14677.  81 35                   - Note Off (11)
 1442.    28.    14705.  8D 3C                   - Note Off (10)
 1443.     0.    14705.  8D 43                   - Note Off ( 9)
 1444.    35.    14740.  B7 40 7F                - Damper Pedal
 1445.     1.    14741.  9D 3C 5A                - Note On  (10)
 1446.     0.    14741.  9D 43 60                - Note On  (11)
 1447.     9.    14750.  9D 30 34                - Note On  (12)
 1448.     4.    14754.  9D 48 4C                - Note On  (13)
 1449.     6.    14760.  92 42 48                - Note On  (14)
 1450.    28.    14788.  8D 48                   - Note Off (13)
 1451.     2.    14790.  8D 43                   - Note Off (12)
 1452.     8.    14798.  8D 3C                   - Note Off (11)
 1453.    12.    14810.  8D 30                   - Note Off (10)
 1454.    27.    14837.  82 42                   - Note Off ( 9)
 1455.    29.    14866.  82 3A                   - Note Off ( 8)
 1456.     6.    14872.  80 2A                   - Note Off ( 7)
 1457.     0.    14872.  90 2B 7F                - Note On  ( 8)
 1458.     8.    14880.  92 36 66                - Note On  ( 9)
 1459.     0.    14880.  92 42 6C                - Note On  (10)
 1460.     0.    14880.  97 43 44                - Note On  (11)
 1461.     7.    14887.  91 38 5A                - Note On  (12)
 1462.     4.    14891.  9D 30 3A                - Note On  (13)
 1463.     1.    14892.  9D 3C 69                - Note On  (14)
 1464.     1.    14893.  9D 4A 6C                - Note On  (15)
 1465.     3.    14896.  9D 43 69                - Note On  (16)
 1466.    17.    14913.  81 37                   - Note Off (15)
 1467.     0.    14913.  8D 30                   - Note Off (14)
 1468.    35.    14948.  82 42                   - Note Off (13)
 1469.    52.    15000.  92 38 52                - Note On  (14)
 1470.     0.    15000.  92 42 3F                - Note On  (15)
 1471.    13.    15013.  80 2B                   - Note Off (14)
 1472.     0.    15013.  90 2C 7F                - Note On  (15)
 1473.    36.    15049.  82 36                   - Note Off (14)
 1474.    10.    15059.  82 42                   - Note Off (13)
 1475.    61.    15120.  92 3A 62                - Note On  (14)
 1476.     0.    15120.  92 42 28                - Note On  (15)
 1477.     0.    15120.  97 48 54                - Note On  (16)
 1478.     5.    15125.  80 2C                   - Note Off (15)
 1479.     0.    15125.  90 2D 7F                - Note On  (16)
 1480.     0.    15125.  91 39 5D                - Note On  (17)
 1481.     2.    15127.  81 38                   - Note Off (16)
 1482.     2.    15129.  82 38                   - Note Off (15)
 1483.    22.    15151.  87 3C                   - Note Off (14)
 1484.    44.    15195.  82 42                   - Note Off (13)
 1485.    26.    15221.  87 43                   - Note Off (12)
 1486.     0.    15221.  9D 3C 47                - Note On  (13)
 1487.     0.    15221.  9D 43 4A                - Note On  (14)
 1488.     4.    15225.  8D 3C                   - Note Off (13)
 1489.     4.    15229.  8D 43                   - Note Off (12)
 1490.     1.    15230.  9D 30 28                - Note On  (13)
 1491.     4.    15234.  9D 48 3B                - Note On  (14)
 1492.     6.    15240.  92 42 4C                - Note On  (15)
 1493.     5.    15245.  87 40                   - Note Off (14)
 1494.     5.    15250.  8D 4A                   - Note Off (13)
 1495.    12.    15262.  B7 40 00                - Damper Pedal
 1496.     6.    15268.  8D 48                   - Note Off (12)
 1497.     2.    15270.  8D 43                   - Note Off (11)
 1498.     8.    15278.  8D 3C                   - Note Off (10)
 1499.    11.    15289.  87 48                   - Note Off ( 9)
 1500.     1.    15290.  8D 30                   - Note Off ( 8)
 1501.    14.    15304.  82 42                   - Note Off ( 7)
 1502.     1.    15305.  82 3A                   - Note Off ( 6)
 1503.    53.    15358.  83 30                   - Note Off ( 5)
 1504.     0.    15358.  83 37                   - Note Off ( 4)
 1505.     0.    15358.  83 40                   - Note Off ( 3)
 1506.     0.    15358.  81 39                   - Note Off ( 2)
 1507.     0.    15358.  83 3B                   - Note Off ( 1)
 1508.     0.    15358.  80 2D                   - Note Off ( 0)
 1509.     0.    15358.  FF 2F 00                - End of Track
**** SQ Midi End. ****

**** SQ Midi no = 6. ****
No. delta time. tick count. message
------------------------------------------------
    1.     0.        0.  FF 51 03 07 A1 20       - Set Tempo
    2.     0.        0.  C0 00                  
    3.     0.        0.  C4 04                  
    4.     0.        0.  B3 40 00                - Damper Pedal
    5.     0.        0.  C3 03                  
    6.     0.        0.  92 28 6C                - Note On  ( 1)
    7.     0.        0.  92 45 7A                - Note On  ( 2)
    8.     0.        0.  92 40 7F                - Note On  ( 3)
    9.     0.        0.  92 3D 7F                - Note On  ( 4)
   10.     0.        0.  C2 02                  
   11.     0.        0.  91 26 3F                - Note On  ( 5)
   12.     0.        0.  C1 01                  
   13.     0.        0.  CD 0D                  
   14.     0.        0.  CA 0A                  
   15.     0.        0.  C9 09                  
   16.     0.        0.  C8 08                  
   17.     0.        0.  C7 07                  
   18.     0.        0.  C6 06                  
   19.     0.        0.  C5 05                  
   20.     1.        1.  B5 07 64                - Channel Volume
   21.     0.        1.  B6 07 6E                - Channel Volume
   22.     0.        1.  B7 07 78                - Channel Volume
   23.     0.        1.  B8 07 43                - Channel Volume
   24.     0.        1.  B9 07 44                - Channel Volume
   25.     0.        1.  BA 07 46                - Channel Volume
   26.     0.        1.  BD 07 4F                - Channel Volume
   27.     0.        1.  B1 07 5B                - Channel Volume
   28.     0.        1.  B2 07 7F                - Channel Volume
   29.     0.        1.  B3 07 6E                - Channel Volume
   30.     0.        1.  B4 07 7A                - Channel Volume
   31.     0.        1.  B0 07 7F                - Channel Volume
   32.     1.        2.  B0 0A 40                - Pan
   33.     0.        2.  B4 0A 40                - Pan
   34.     0.        2.  B3 0A 40                - Pan
   35.     0.        2.  B2 0A 40                - Pan
   36.     0.        2.  B1 0A 40                - Pan
   37.     0.        2.  BD 0A 5E                - Pan
   38.     0.        2.  BA 0A 40                - Pan
   39.     0.        2.  B9 0A 40                - Pan
   40.     0.        2.  B8 0A 40                - Pan
   41.     0.        2.  B7 0A 22                - Pan
   42.     0.        2.  B6 0A 40                - Pan
   43.     0.        2.  B5 0A 40                - Pan
   44.     9.       11.  98 26 3E                - Note On  ( 6)
   45.     8.       19.  98 32 3D                - Note On  ( 7)
   46.     3.       22.  98 2D 48                - Note On  ( 8)
   47.     6.       28.  98 43 40                - Note On  ( 9)
   48.    12.       40.  98 45 46                - Note On  (10)
   49.     0.       40.  97 32 4C                - Note On  (11)
   50.     7.       47.  98 3E 36                - Note On  (12)
   51.    19.       66.  B7 40 7F                - Damper Pedal
   52.    41.      107.  82 3D                   - Note Off (11)
   53.    16.      123.  82 28                   - Note Off (10)
   54.   176.      299.  97 39 42                - Note On  (11)
   55.   284.      583.  97 3E 40                - Note On  (12)
   56.   281.      864.  97 43 36                - Note On  (13)
   57.   342.     1206.  97 45 3B                - Note On  (14)
   58.   370.     1576.  97 4A 2B                - Note On  (15)
   59.    87.     1663.  87 45                   - Note Off (14)
   60.    32.     1695.  87 43                   - Note Off (13)
   61.    36.     1731.  82 40                   - Note Off (12)
   62.    12.     1743.  82 45                   - Note Off (11)
   63.   256.     1999.  97 41 37                - Note On  (12)
   64.   355.     2354.  98 41 3E                - Note On  (13)
   65.    66.     2420.  88 43                   - Note Off (12)
   66.   533.     2953.  97 32 23                - Note On  (13)
   67.    73.     3026.  87 41                   - Note Off (12)
   68.     7.     3033.  87 4A                   - Note Off (11)
   69.    26.     3059.  97 39 42                - Note On  (12)
   70.    17.     3076.  87 39                   - Note Off (11)
   71.    13.     3089.  87 32                   - Note Off (10)
   72.     9.     3098.  87 3E                   - Note Off ( 9)
   73.    38.     3136.  97 43 37                - Note On  (10)
   74.   121.     3257.  97 45 40                - Note On  (11)
   75.    97.     3354.  97 4A 4A                - Note On  (12)
   76.   725.     4079.  81 26                   - Note Off (11)
   77.  2337.     6416.  B7 01 00                - Pitch Modulation Depth
   78.  1136.     7552.  88 2D                   - Note Off (10)
   79.    39.     7591.  88 3E                   - Note Off ( 9)
   80.    10.     7601.  88 26                   - Note Off ( 8)
   81.    17.     7618.  88 32                   - Note Off ( 7)
   82.    48.     7666.  88 41                   - Note Off ( 6)
   83.    10.     7676.  88 45                   - Note Off ( 5)
   84.    75.     7751.  87 45                   - Note Off ( 4)
   85.     1.     7752.  87 32                   - Note Off ( 3)
   86.     7.     7759.  87 43                   - Note Off ( 2)
   87.     7.     7766.  87 39                   - Note Off ( 1)
   88.    16.     7782.  87 4A                   - Note Off ( 0)
   89.  1888.     9670.  B7 40 00                - Damper Pedal
   90.     0.     9670.  FF 2F 00                - End of Track
**** SQ Midi End. ****

**** SQ Song no = 0. ****
No.     message
-----------------
    1.  A0 00 00 - Play Midi data block   0
    2.  A0 00 01 - Play Midi data block   1
    3.  A0 00 02 - Play Midi data block   2
    4.  A0 00 03 - Play Midi data block   3
    5.  A0 00 04 - Play Midi data block   4
    6.  A0 00 05 - Play Midi data block   5
    7.  A0 00 01 - Play Midi data block   1
    8.  A0 00 05 - Play Midi data block   5
    9.  A0 00 03 - Play Midi data block   3
   10.  A0 00 06 - Play Midi data block   6
   11.  A0 7F 7F - End
**** SQ Song End. ****

